<svg xmlns="http://www.w3.org/2000/svg" viewBox="0 0 56 52">
    <defs>
        <filter id="afsdsc70ca" width="120%" height="120%" x="-10%" y="-10%" filterUnits="objectBoundingBox">
            <feOffset dx="2" in="SourceAlpha" result="shadowOffsetOuter1"/>
            <feGaussianBlur in="shadowOffsetOuter1" result="shadowBlurOuter1" stdDeviation="1"/>
            <feColorMatrix in="shadowBlurOuter1" result="shadowMatrixOuter1" values="0 0 0 0 0 0 0 0 0 0 0 0 0 0 0 0 0 0 0.15 0"/>
            <feMerge>
                <feMergeNode in="shadowMatrixOuter1"/>
                <feMergeNode in="SourceGraphic"/>
            </feMerge>
        </filter>
    </defs>
    <g fill="none" fill-rule="evenodd">
        <g fill="#4BDB4B" fill-rule="nonzero">
            <g filter="url(#afsdsc70ca)" transform="translate(-1253 -338) translate(1241 324)">
                <g>
                    <path d="M41.702 28.345c1.882 3.273.752 7.453-2.521 9.331-3.273 1.879-7.454.753-9.332-2.52L15.5 10.31c-1.882-3.273-.752-7.454 2.521-9.332C21.294-.903 25.475.227 27.353 3.5l14.349 24.845z" opacity=".3" transform="translate(18.571 20.571)"/>
                    <path d="M13.013 35.155c-1.883 3.274-6.06 4.404-9.332 2.521-3.273-1.882-4.404-6.063-2.521-9.331L15.504 3.5C17.387.227 21.567-.903 24.836.979c3.273 1.882 4.403 6.059 2.521 9.332L13.013 35.155z" opacity=".6" transform="translate(18.571 20.571)"/>
                    <path d="M21.42-.003l.193.003c.845.026 1.677.208 2.454.535l-.02-.01c.065.027.13.056.193.085l-.173-.075.222.099L24.24.61c.072.032.143.066.213.102L24.29.634c.07.032.14.066.21.102l-.046-.024c.065.032.129.065.192.099L24.5.736c.086.043.171.088.255.135.126.07.249.145.37.223.885.572 1.65 1.358 2.211 2.334l.122.213c1.057 2.004 1.095 4.489-.118 6.598l-5.928 10.267-5.929-10.267c-1.216-2.114-1.175-4.607-.111-6.613l.115-.198c1.265-2.199 3.567-3.43 5.933-3.431z" transform="translate(18.571 20.571)"/>
                </g>
            </g>
        </g>
    </g>
</svg>
