<?xml version="1.0" encoding="UTF-8"?>
<svg viewBox="0 0 28 28" version="1.1" xmlns="http://www.w3.org/2000/svg" xmlns:xlink="http://www.w3.org/1999/xlink">
    <title>LOGO</title>
    <g id="App---Earn" stroke="none" stroke-width="1" fill="none" fill-rule="evenodd">
        <g id="GNB" transform="translate(-100.000000, -28.000000)">
            <g id="LOGO" transform="translate(100.000000, 28.000000)">
                <circle id="Oval" fill="#FFFFFF" cx="14" cy="14" r="14"></circle>
                <g id="Symbol_Anchor" transform="translate(6.500000, 7.200000)" fill="#000000" fill-rule="nonzero">
                    <path d="M14.5955882,9.92058824 C15.2544118,11.0661765 14.8588235,12.5294118 13.7132353,13.1867647 C12.5676471,13.8441176 11.1044118,13.45 10.4470588,12.3044118 L5.425,3.60882353 C4.76617647,2.46323529 5.16176471,1 6.30735294,0.342647059 C7.45294118,-0.316176471 8.91617647,0.0794117647 9.57352941,1.225 L14.5955882,9.92058824 Z" id="Path" opacity="0.300000012"></path>
                    <path d="M4.55441176,12.3044118 C3.89558824,13.45 2.43382353,13.8455882 1.28823529,13.1867647 C0.142647059,12.5279412 -0.252941176,11.0647059 0.405882353,9.92058824 L5.42647059,1.225 C6.08529412,0.0794117647 7.54852941,-0.316176471 8.69264706,0.342647059 C9.83823529,1.00147059 10.2338235,2.46323529 9.575,3.60882353 L4.55441176,12.3044118 Z" id="Path" opacity="0.600000024"></path>
                    <path d="M8.45492805,0.200935029 L8.50960504,0.225267828 C8.53511698,0.237276402 8.56050512,0.249775885 8.58575791,0.262769404 L8.50985051,0.22582248 C8.56160987,0.250065193 8.61256358,0.276186762 8.6625984,0.304156505 L8.66259341,0.304072993 C8.75832599,0.357668756 8.85069008,0.417946081 8.93889766,0.484773623 L8.86746332,0.432645107 C8.9187414,0.46851055 8.96823442,0.506103124 9.01590818,0.545297091 L8.93889766,0.484773623 C8.97709269,0.513710816 9.01450838,0.543876177 9.05108034,0.57525226 L9.01590818,0.545297091 C9.05608612,0.578328528 9.09497191,0.612497368 9.13254508,0.647728347 L9.05108034,0.57525226 C9.09626422,0.614016747 9.14016022,0.654629292 9.18264693,0.697056996 L9.13254508,0.647728347 C9.17683097,0.689253597 9.21929332,0.732254404 9.25989862,0.776607529 L9.18264693,0.697056996 C9.21568212,0.730046295 9.24786528,0.764132987 9.27913935,0.799301607 L9.27983727,0.798661978 C9.38568767,0.919118335 9.48168405,1.05149313 9.56487145,1.19581446 C9.97829707,1.90927575 10.0095064,2.81728411 9.5687108,3.58375681 L7.494,7.177 L5.4187108,3.58375681 C4.99341953,2.84424363 5.00751301,1.9723635 5.37910452,1.2703457 L5.42018139,1.19993328 C5.53781168,0.995393115 5.68108554,0.814761948 5.84360806,0.659772431 L5.842361,0.659074863 C5.92270953,0.584337362 6.00637076,0.514976476 6.09385444,0.451889541 L6.0695876,0.468582581 C6.11016216,0.438657766 6.15191535,0.409842827 6.19482899,0.382204851 L6.09385444,0.451889541 C6.14466828,0.415246264 6.19677171,0.380719646 6.25002024,0.348348833 L6.24938756,0.348084931 C6.3400828,0.293598067 6.43342119,0.245014426 6.52933633,0.202787317 L6.52894207,0.202049858 C6.81120252,0.0786943519 7.11532151,0.00949627488 7.42395184,-3.31765865e-14 L7.56447055,-3.31523003e-14 C7.87167361,0.00944892135 8.17431857,0.0780057187 8.45492805,0.200935029 Z" id="Combined-Shape"></path>
                </g>
            </g>
        </g>
    </g>
</svg>