<?xml version="1.0" encoding="UTF-8" standalone="no"?>
<svg width="100%" height="100%" viewBox="0 0 15 12" version="1.1" xmlns="http://www.w3.org/2000/svg">
  <g id="icon" transform="matrix(1,0,0,1,-22,-9)">
    <path
        d="M36.2,13.567C36.017,13.48 35.815,13.426 35.6,13.426L23.4,13.426C23.184,13.426 22.982,13.48 22.8,13.567L22.8,12.613C22.8,12.282 23.069,12.013 23.4,12.013L35.6,12.013C35.931,12.013 36.2,12.282 36.2,12.613L36.2,13.567ZM36.2,15.64L31.95,15.64C31.55,15.64 31.196,15.845 30.933,16.146C30.585,16.546 30.072,16.799 29.5,16.799C28.928,16.799 28.414,16.546 28.066,16.146C27.804,15.845 27.45,15.64 27.05,15.64L22.8,15.64L22.8,14.826C22.8,14.495 23.069,14.226 23.4,14.226L35.6,14.226C35.931,14.226 36.2,14.495 36.2,14.826L36.2,15.64ZM23.4,9.799L35.6,9.799C35.931,9.799 36.2,10.068 36.2,10.4L36.2,11.354C36.017,11.266 35.815,11.213 35.6,11.213L23.4,11.213C23.184,11.213 22.982,11.266 22.8,11.354L22.8,10.4C22.8,10.068 23.069,9.799 23.4,9.799ZM35.6,9L23.4,9C22.628,9 22,9.628 22,10.4L22,19.599C22,20.371 22.628,21 23.4,21L35.6,21C36.372,21 37,20.371 37,19.599L37,10.4C37,9.628 36.372,9 35.6,9Z"
        fill="currentColor"/>
  </g>
</svg>
