<svg width="46" height="46" viewBox="0 0 46 46" fill="none" xmlns="http://www.w3.org/2000/svg">
<path d="M23 46C10.35 46 0 35.65 0 23C0 10.35 10.35 0 23 0C35.65 0 46 10.35 46 23C46 35.65 35.65 46 23 46Z" fill="#1E1E1E"/>
<path opacity="0.4" d="M36.3758 27.5008C37.5258 29.6091 36.7592 32.2925 34.8425 33.4425C32.7342 34.5925 30.0508 33.8258 28.9008 31.9091L19.7008 16.1925C18.5508 14.0841 19.3175 11.4008 21.4258 10.2508C23.5342 8.90913 26.0258 9.6758 27.3675 11.7841L36.3758 27.5008Z" fill="#4ADA4B"/>
<path opacity="0.7" d="M18.3008 31.9091C17.1508 34.0175 14.4675 34.7841 12.3591 33.4425C10.2508 32.2925 9.48413 29.6091 10.8258 27.5008L19.8341 11.7841C20.9841 9.6758 23.6675 8.90913 25.7758 10.2508C27.8841 11.4008 28.6508 14.0841 27.3091 16.1925L18.3008 31.9091Z" fill="#4ADA4B"/>
<path d="M27.8875 13.9917C27.8875 16.4833 23.4792 22.6167 23.4792 22.6167C23.4792 22.6167 19.2625 16.4833 19.2625 13.9917C19.2625 11.5 21.1792 9.58333 23.6708 9.58333C26.1625 9.58333 27.8875 11.6917 27.8875 13.9917Z" fill="#4ADA4B"/>
</svg>
