<svg width="80" height="80" viewBox="0 0 80 80" fill="none" xmlns="http://www.w3.org/2000/svg">
<path d="M79.0105 33.9202L70.0685 31.2536C69.4502 29.0971 68.6 27.0138 67.5327 25.0403L71.9103 16.8537C72.0745 16.5446 72.1347 16.191 72.0818 15.8451C72.0289 15.4992 71.8658 15.1796 71.6166 14.9337L65.2371 8.5337C64.9909 8.28482 64.671 8.12186 64.3248 8.06902C63.9786 8.01618 63.6245 8.07627 63.3152 8.24037L55.1739 12.587C53.1789 11.4688 51.0663 10.5745 48.8744 9.92036L46.2052 1.09374C46.0923 0.768448 45.8789 0.487336 45.5959 0.290865C45.3129 0.0943937 44.9748 -0.00730461 44.6303 0.000408448H35.6081C35.2615 0.00202064 34.9244 0.1141 34.646 0.320335C34.3675 0.526571 34.1622 0.816199 34.0599 1.14707L31.3907 9.94703C29.1805 10.5976 27.0498 11.492 25.0378 12.6137L17.03 8.2937C16.7207 8.1296 16.3666 8.06951 16.0204 8.12235C15.6742 8.1752 15.3543 8.33815 15.1081 8.58703L8.62176 14.907C8.37263 15.1529 8.20952 15.4725 8.15662 15.8184C8.10373 16.1643 8.16388 16.518 8.32814 16.827L12.6524 24.827C11.5314 26.8285 10.6362 28.9481 9.98309 31.1469L1.14779 33.8136C0.816593 33.9157 0.52668 34.1209 0.320241 34.399C0.113803 34.6772 0.00161377 35.0139 0 35.3602V44.3735C0.00161377 44.7198 0.113803 45.0565 0.320241 45.3347C0.52668 45.6129 0.816593 45.818 1.14779 45.9202L10.0365 48.5868C10.6967 50.749 11.5918 52.8325 12.7057 54.8001L8.32814 63.1734C8.16388 63.4824 8.10373 63.8361 8.15662 64.182C8.20952 64.5279 8.37263 64.8475 8.62176 65.0934L15.0013 71.4667C15.2475 71.7156 15.5674 71.8785 15.9136 71.9314C16.2598 71.9842 16.6139 71.9241 16.9232 71.76L25.1713 67.3601C27.1224 68.4119 29.1806 69.2522 31.3106 69.8667L33.9799 78.8533C34.0821 79.1842 34.2875 79.4738 34.5659 79.6801C34.8444 79.8863 35.1814 79.9984 35.528 80H44.5502C44.8968 79.9984 45.2339 79.8863 45.5123 79.6801C45.7908 79.4738 45.9961 79.1842 46.0984 78.8533L48.7677 69.84C50.8795 69.2224 52.9196 68.3821 54.8536 67.3334L63.155 71.76C63.4644 71.9241 63.8184 71.9842 64.1646 71.9314C64.5108 71.8785 64.8308 71.7156 65.0769 71.4667L71.4565 65.0934C71.7056 64.8475 71.8687 64.5279 71.9216 64.182C71.9745 63.8361 71.9144 63.4824 71.7501 63.1734L67.3191 54.9068C68.3798 52.9673 69.2299 50.9202 69.8549 48.8002L78.8504 46.1335C79.1816 46.0313 79.4715 45.8262 79.6779 45.548C79.8844 45.2699 79.9966 44.9331 79.9982 44.5868V35.4936C80.0139 35.162 79.9277 34.8335 79.7512 34.5523C79.5747 34.271 79.3162 34.0505 79.0105 33.9202Z" fill="#4BDB4B"/>
<path fill-rule="evenodd" clip-rule="evenodd" d="M71.4565 65.0934C71.7056 64.8475 71.8687 64.5279 71.9216 64.182C71.9745 63.8361 71.9144 63.4824 71.7501 63.1734L67.3191 54.9068C68.3798 52.9673 69.2299 50.9202 69.8549 48.8002L78.8504 46.1335C79.1816 46.0313 79.4715 45.8262 79.6779 45.548C79.8844 45.2699 79.9966 44.9331 79.9982 44.5868V35.4936C80.0139 35.162 79.9277 34.8335 79.7512 34.5523C79.5747 34.271 79.3162 34.0505 79.0105 33.9202L70.0685 31.2536C69.4502 29.0971 68.6 27.0138 67.5327 25.0403L71.9103 16.8537C72.0745 16.5446 72.1347 16.191 72.0818 15.8451C72.0289 15.4992 71.8658 15.1796 71.6166 14.9337L65.2371 8.5337C64.9909 8.28482 64.671 8.12186 64.3248 8.06902C63.9786 8.01618 63.6245 8.07627 63.3152 8.24037L55.1739 12.587C53.1789 11.4688 51.0663 10.5745 48.8744 9.92036L46.2052 1.09374C46.0923 0.768448 45.8789 0.487336 45.5959 0.290865C45.3129 0.0943937 44.9748 -0.00730461 44.6303 0.000408448H35.6081C35.2615 0.00202064 34.9244 0.1141 34.646 0.320335C34.3675 0.526571 34.1622 0.816199 34.0599 1.14707L31.3907 9.94703C29.1805 10.5976 27.0498 11.492 25.0378 12.6137L17.03 8.2937C16.7207 8.1296 16.3666 8.06951 16.0204 8.12235C15.6742 8.1752 15.3543 8.33815 15.1081 8.58703L8.62176 14.907C8.37263 15.1529 8.20952 15.4725 8.15662 15.8184C8.10373 16.1643 8.16388 16.518 8.32814 16.827L12.6524 24.827C11.5314 26.8285 10.6362 28.9481 9.98309 31.1469L1.14779 33.8136C0.816593 33.9157 0.52668 34.1209 0.320241 34.399C0.113803 34.6772 0.00161377 35.0139 0 35.3602V44.3735C0.00161377 44.7198 0.113803 45.0565 0.320241 45.3347C0.52668 45.6129 0.816593 45.818 1.14779 45.9202L10.0365 48.5868C10.6967 50.749 11.5918 52.8325 12.7057 54.8001L8.32814 63.1734C8.16388 63.4824 8.10373 63.8361 8.15662 64.182C8.20952 64.5279 8.37263 64.8475 8.62176 65.0934L15.0013 71.4667C15.2475 71.7156 15.5674 71.8785 15.9136 71.9314C16.2598 71.9842 16.6139 71.9241 16.9232 71.76L25.1713 67.3601C27.1224 68.4119 29.1806 69.2522 31.3106 69.8667L33.9799 78.8533C34.0821 79.1842 34.2875 79.4738 34.5659 79.6801C34.8444 79.8863 35.1814 79.9984 35.528 80H44.5502C44.8968 79.9984 45.2339 79.8863 45.5123 79.6801C45.7908 79.4738 45.9961 79.1842 46.0984 78.8533L48.7677 69.84C50.8795 69.2224 52.9196 68.3821 54.8536 67.3334L63.155 71.76C63.4644 71.9241 63.8184 71.9842 64.1646 71.9314C64.5108 71.8785 64.8308 71.7156 65.0769 71.4667L71.4565 65.0934ZM63.6241 70.8769C63.7435 70.9401 63.8801 70.9632 64.0137 70.9428C64.1475 70.9224 64.271 70.8595 64.366 70.7635L64.3702 70.7592L70.754 64.3817C70.85 64.2869 70.9128 64.1638 70.9331 64.0308C70.9534 63.8983 70.9305 63.7627 70.8678 63.644L70.8671 63.6428L66.182 54.902L66.4417 54.427C67.4682 52.5501 68.2909 50.5689 68.8958 48.5174L69.0495 47.9959L78.5556 45.1779L78.5595 45.1767C78.6858 45.1368 78.7962 45.0582 78.8749 44.9521C78.9542 44.8453 78.9973 44.7162 78.9982 44.5835L78.9982 44.5822L78.9982 35.4698L78.9993 35.4461C79.0053 35.3186 78.9722 35.1922 78.9042 35.0839C78.8439 34.9879 78.7587 34.91 78.6579 34.8586L69.2581 32.0554L69.1072 31.5292C68.5089 29.4422 67.686 27.426 66.6531 25.516L66.3972 25.043L71.0273 16.3843L71.0279 16.3832C71.0906 16.2645 71.1136 16.1288 71.0933 15.9962C71.0729 15.8632 71.0102 15.7402 70.9141 15.6453L70.9084 15.6397L64.5261 9.23692C64.4312 9.14096 64.3077 9.078 64.1739 9.05757C64.0405 9.03721 63.9041 9.06026 63.7849 9.12321L63.7839 9.12375L55.1622 13.7268L54.685 13.4593C52.7543 12.3771 50.7097 11.5116 48.5885 10.8786L48.073 10.7248L45.2552 1.40708C45.2106 1.28809 45.1306 1.18518 45.0257 1.11232C44.9164 1.03649 44.7858 0.997177 44.6527 1.00016L44.6415 1.00041H35.611C35.4776 1.0014 35.3481 1.0447 35.2412 1.12393C35.1343 1.20307 35.0555 1.31392 35.016 1.44037L35.0153 1.44241L32.1909 10.7539L31.6731 10.9063C29.5341 11.536 27.4719 12.4016 25.5247 13.4871L25.0457 13.7542L16.5613 9.17709L16.559 9.17587C16.4401 9.11342 16.3042 9.09062 16.1713 9.11091C16.0375 9.13133 15.914 9.19429 15.8191 9.29025L15.8126 9.29682L9.3225 15.6204C9.22746 15.715 9.16535 15.8374 9.14513 15.9696C9.12493 16.1017 9.1476 16.2369 9.20989 16.3553L9.21114 16.3576L13.7937 24.8355L13.5249 25.3156C12.4401 27.2526 11.5737 29.3038 10.9417 31.4317L10.7882 31.9485L1.4426 34.7691L1.44034 34.7698C1.31333 34.8095 1.20235 34.8884 1.12327 34.995C1.0441 35.1017 1.001 35.2306 1 35.3631V44.3706C1.001 44.5032 1.0441 44.6321 1.12327 44.7388C1.20225 44.8452 1.31306 44.924 1.43989 44.9638L1.4426 44.9646L10.8365 47.7828L10.9929 48.2948C11.6318 50.3871 12.498 52.4033 13.576 54.3075L13.8441 54.7811L9.21116 63.6428C9.14791 63.7617 9.12479 63.8978 9.14513 64.0308C9.16547 64.1638 9.22823 64.2869 9.32428 64.3817L9.32853 64.3859L15.7123 70.7635C15.8072 70.8595 15.9307 70.9224 16.0645 70.9428C16.1979 70.9632 16.3342 70.9402 16.4534 70.8773L16.4546 70.8767L25.1737 66.2254L25.6458 66.4798C27.5342 67.4978 29.5262 68.3111 31.5878 68.9059L32.1134 69.0576L34.9353 78.558L34.9366 78.5621C34.9763 78.6877 35.0548 78.7978 35.1611 78.8765C35.2682 78.9558 35.3978 78.9991 35.5314 79L35.5327 79H44.5456L44.5469 79C44.6804 78.9991 44.8101 78.9558 44.9172 78.8765C45.0233 78.7979 45.1018 78.6879 45.1416 78.5625L45.143 78.558L47.9636 69.0333L48.4869 68.8803C50.5308 68.2824 52.5052 67.4692 54.3769 66.4543L54.8496 66.198L63.6241 70.8769Z" fill="#36A337"/>
</svg>
