<?xml version="1.0" encoding="UTF-8"?>
<svg viewBox="0 0 12 13" version="1.1" xmlns="http://www.w3.org/2000/svg" xmlns:xlink="http://www.w3.org/1999/xlink">
  <title>account_balance_wallet-24px</title>
  <g id="App---Borrow" stroke="none" stroke-width="1" fill="none" fill-rule="evenodd">
    <g id="Header" transform="translate(-1344.000000, -31.000000)">
      <g id="Account" transform="translate(1329.000000, 20.000000)">
        <g id="account_balance_wallet-24px" transform="translate(15.000000, 11.000000)">
          <polygon id="Path" points="0 0 12 0 12 13 0 13"></polygon>
          <path
              d="M10.5,9.75 L10.5,10.2916667 C10.5,10.8875 10.05,11.375 9.5,11.375 L2.5,11.375 C1.945,11.375 1.5,10.8875 1.5,10.2916667 L1.5,2.70833333 C1.5,2.1125 1.945,1.625 2.5,1.625 L9.5,1.625 C10.05,1.625 10.5,2.1125 10.5,2.70833333 L10.5,3.25 L6,3.25 C5.445,3.25 5,3.7375 5,4.33333333 L5,8.66666667 C5,9.2625 5.445,9.75 6,9.75 L10.5,9.75 Z M6,8.66666667 L11,8.66666667 L11,4.33333333 L6,4.33333333 L6,8.66666667 Z M8,7.3125 C7.585,7.3125 7.25,6.94958333 7.25,6.5 C7.25,6.05041667 7.585,5.6875 8,5.6875 C8.415,5.6875 8.75,6.05041667 8.75,6.5 C8.75,6.94958333 8.415,7.3125 8,7.3125 Z"
              id="Shape" fill="currentColor" fill-rule="nonzero"></path>
        </g>
      </g>
    </g>
  </g>
</svg>