<svg viewBox="0 0 142 215" xmlns="http://www.w3.org/2000/svg" xml:space="preserve" style="fill-rule:evenodd;clip-rule:evenodd;stroke-linecap:round;stroke-linejoin:round;stroke-miterlimit:7"><path d="m1394.74 693.463-64.38-89.439v50.214l64.38 39.225Z" style="fill:#c8b2f5;stroke:#3441c0;stroke-width:2.27px" transform="matrix(1.08181 0 0 -1.03277 -1368.349 837.392)"/><path d="m1394.74 693.463-64.38-89.439v50.214l64.38 39.225Z" style="fill:#eecbc0;stroke:#3441c0;stroke-width:2.27px" transform="matrix(-1.08181 0 0 -1.03277 1510.05 837.392)"/><g><path d="m1398.61 639.614-69.66-30.973v70.608l69.66-39.635Z" style="fill:#87a9f0;stroke:#3441c0;stroke-width:2.4px" transform="matrix(-1 0 0 1 1399.8 -529.114)"/><path d="m1398.61 639.614-69.66-30.973v70.608l69.66-39.635Z" style="fill:#cab3f5;stroke:#3441c0;stroke-width:2.4px" transform="translate(-1258.104 -529.114)"/><path d="m1394.74 709.855-64.38-105.831v75.841l64.38 29.99Z" style="fill:#eecbc0;stroke:#3441c0;stroke-width:2.27px" transform="matrix(-1.08181 0 0 1.03277 1510.05 -622.62)"/><path d="m1394.74 709.855-64.38-105.831v75.841l64.38 29.99Z" style="fill:#b8fbf6;stroke:#3441c0;stroke-width:2.27px" transform="matrix(1.08181 0 0 1.03277 -1368.349 -622.62)"/></g></svg>