<svg xmlns="http://www.w3.org/2000/svg" width="77" height="100" viewBox="0 0 77 100">
    <g fill="none" fill-rule="evenodd">
        <g>
            <g>
                <g>
                    <path fill="#2C2C2C" d="M38.406 39.737s3.502-7.005 9.633-7.005c7.142 0 9.008 7.005 9.008 7.005s3.347-6.27 10.672-5.84c4.64.271 7.046 3.316 8.583 5.84.005-.286 0 .287 0 0C76.302 18.803 59.339.5 38.405.5 17.473.5.505 18.803.505 39.737c0 .287-.008-.286 0 0 1.537-2.524 3.948-5.569 8.588-5.84 7.325-.43 10.673 5.84 10.673 5.84s1.866-7.005 9.008-7.005c6.582 0 9.633 7.005 9.633 7.005" transform="translate(-1398 -114) translate(1312 84) translate(86 30)"/>
                    <path stroke="#2C2C2C" stroke-linecap="round" stroke-linejoin="round" d="M38.406 39.737s3.502-7.005 9.633-7.005c7.142 0 9.008 7.005 9.008 7.005s3.347-6.27 10.672-5.84c4.64.271 7.046 3.316 8.583 5.84.005-.286 0 .287 0 0C76.302 18.803 59.339.5 38.405.5 17.473.5.505 18.803.505 39.737c0 .287-.008-.286 0 0 1.537-2.524 3.948-5.569 8.588-5.84 7.325-.43 10.673 5.84 10.673 5.84s1.866-7.005 9.008-7.005c6.582 0 9.633 7.005 9.633 7.005z" transform="translate(-1398 -114) translate(1312 84) translate(86 30)"/>
                    <path stroke="#2C2C2C" stroke-linecap="round" stroke-linejoin="round" d="M19.766 39.737L38.406 95.646 0.503 39.737" transform="translate(-1398 -114) translate(1312 84) translate(86 30)"/>
                    <path stroke="#2C2C2C" stroke-linecap="round" stroke-linejoin="round" d="M57.046 39.737L38.405 95.646 38.405 39.737M76.302 39.737L38.406 95.646" transform="translate(-1398 -114) translate(1312 84) translate(86 30)"/>
                    <path fill="#2C2C2C" d="M53.747 84.653c0 8.473-6.869 15.341-15.342 15.341-8.472 0-15.34-6.868-15.34-15.34 0-8.474 6.868-15.341 15.34-15.341 8.473 0 15.342 6.867 15.342 15.34" transform="translate(-1398 -114) translate(1312 84) translate(86 30)"/>
                    <path fill="#2CD54C" fill-opacity=".4" d="M46.537 88.273c.755 1.313.303 2.99-1.012 3.746-1.313.755-2.99.302-3.745-1.012l-5.758-9.972c-.755-1.314-.3-2.991 1.012-3.746 1.314-.755 2.991-.302 3.746 1.01l5.757 9.974z" transform="translate(-1398 -114) translate(1312 84) translate(86 30)"/>
                    <path fill="#2CD54C" fill-opacity=".8" d="M35.024 91.007c-.755 1.313-2.433 1.767-3.746 1.012-1.314-.755-1.767-2.433-1.013-3.746l5.758-9.973c.755-1.314 2.433-1.767 3.746-1.012 1.314.755 1.767 2.433 1.012 3.746l-5.757 9.973z" transform="translate(-1398 -114) translate(1312 84) translate(86 30)"/>
                    <path fill="#2CD54C" d="M40.764 78.273c-.032-.054-.066-.105-.102-.157-.016-.025-.032-.05-.05-.073-.034-.047-.07-.091-.107-.135-.022-.027-.044-.055-.067-.08-.033-.037-.07-.072-.103-.106-.03-.03-.06-.061-.092-.091l-.094-.078c-.04-.033-.08-.065-.12-.095l-.088-.061c-.047-.031-.094-.062-.143-.092l-.03-.018c-.022-.013-.044-.023-.066-.035-.046-.025-.093-.05-.14-.071l-.122-.053c-.04-.016-.08-.032-.12-.046-.047-.017-.095-.032-.144-.046-.035-.011-.07-.021-.106-.03-.051-.012-.103-.024-.155-.034-.035-.007-.071-.012-.106-.018l-.152-.02-.118-.007c-.046-.003-.091-.004-.138-.004-.045 0-.091 0-.136.004l-.12.009c-.05.004-.1.01-.151.018-.035.006-.071.01-.107.018-.052.01-.102.022-.153.034l-.11.03c-.046.014-.093.029-.14.046-.041.014-.082.03-.123.047l-.118.05-.144.074c-.022.012-.043.02-.064.034l-.03.018c-.05.03-.097.062-.145.094-.03.019-.057.037-.084.058-.044.032-.085.066-.127.1-.03.025-.06.048-.086.073-.035.032-.07.066-.102.099-.031.03-.063.063-.093.096-.028.03-.052.06-.078.093-.033.039-.066.079-.096.12l-.062.089c-.031.046-.061.092-.09.14-.486.823-.53 1.877-.02 2.765l2.38 4.12 2.379-4.12c.509-.886.466-1.937-.017-2.76" transform="translate(-1398 -114) translate(1312 84) translate(86 30)"/>
                </g>
            </g>
        </g>
    </g>
</svg>
