<svg width="24" height="25" viewBox="0 0 24 25" fill="none" xmlns="http://www.w3.org/2000/svg">
<path d="M12 24.5V24.5C5.4 24.5 0 19.1 0 12.5V12.5C0 5.9 5.4 0.5 12 0.5V0.5C18.6 0.5 24 5.9 24 12.5V12.5C24 19.1 18.6 24.5 12 24.5Z" fill="#1E1702"/>
<path opacity="0.4" d="M18.9787 14.8482C19.5787 15.9482 19.1787 17.3482 18.1787 17.9482C17.0787 18.5482 15.6787 18.1482 15.0787 17.1482L10.2787 8.94824C9.6787 7.84824 10.0787 6.44824 11.1787 5.84824C12.2787 5.14824 13.5787 5.54824 14.2787 6.64824L18.9787 14.8482Z" fill="#F0B909"/>
<path opacity="0.65" d="M9.54805 17.1482C8.94805 18.2482 7.54805 18.6482 6.44805 17.9482C5.34805 17.3482 4.94805 15.9482 5.64805 14.8482L10.348 6.64824C10.948 5.54824 12.348 5.14824 13.448 5.84824C14.548 6.44824 14.948 7.84824 14.248 8.94824L9.54805 17.1482Z" fill="#F0B909"/>
<path d="M14.5498 7.8C14.5498 9.1 12.2498 12.3 12.2498 12.3C12.2498 12.3 10.0498 9.1 10.0498 7.8C10.0498 6.5 11.0498 5.5 12.3498 5.5C13.6498 5.5 14.5498 6.6 14.5498 7.8Z" fill="#F0B909"/>
</svg>
