<svg width="24" height="24" viewBox="0 0 24 24" fill="none" xmlns="http://www.w3.org/2000/svg">
<path d="M12 24C5.4 24 0 18.6 0 12C0 5.4 5.4 0 12 0C18.6 0 24 5.4 24 12C24 18.6 18.6 24 12 24Z" fill="#F7F7F7"/>
<path opacity="0.4" d="M18.9787 14.3482C19.5787 15.4482 19.1787 16.8482 18.1787 17.4482C17.0787 18.0482 15.6787 17.6482 15.0787 16.6482L10.2787 8.44824C9.6787 7.34824 10.0787 5.94824 11.1787 5.34824C12.2787 4.64824 13.5787 5.04824 14.2787 6.14824L18.9787 14.3482Z" fill="#F82EAE"/>
<path opacity="0.65" d="M9.54805 16.6482C8.94805 17.7482 7.54805 18.1482 6.44805 17.4482C5.34805 16.8482 4.94805 15.4482 5.64805 14.3482L10.348 6.14824C10.948 5.04824 12.348 4.64824 13.448 5.34824C14.548 5.94824 14.948 7.34824 14.248 8.44824L9.54805 16.6482Z" fill="#F82EAE"/>
<path d="M14.5498 7.3C14.5498 8.6 12.2498 11.8 12.2498 11.8C12.2498 11.8 10.0498 8.6 10.0498 7.3C10.0498 6 11.0498 5 12.3498 5C13.6498 5 14.5498 6.1 14.5498 7.3Z" fill="#F82EAE"/>
</svg>
