<?xml version="1.0" encoding="UTF-8" standalone="no"?>
<svg viewBox="0 0 43 27" version="1.1" xmlns="http://www.w3.org/2000/svg" xml:space="preserve" style="fill-rule:evenodd;clip-rule:evenodd;stroke-linejoin:round;stroke-miterlimit:2;">
    <g id="Artboard1" transform="matrix(1.00256,0,0,0.92721,-1288.44,-396.579)">
        <rect x="1285.15" y="427.713" width="42.865" height="29.117" style="fill:none;"/>
        <g transform="matrix(0.997447,0,0,1.0785,1299.73,441.527)">
            <g transform="matrix(1,0,0,1,-11,-11)">
                <path d="M13,3.274L13,2C13,0.895 12.105,0 11,0C9.895,0 9,0.895 9,2L9,3.274C5.89,4.146 3.609,7.002 3.609,10.391L3.609,15.6L1,17.3L1,19L21,19L21,17.3L18.391,15.6L18.391,10.391C18.391,7.002 16.111,4.146 13,3.274ZM12,2L12,3L10,3L10,2C10,1.448 10.448,1 11,1C11.552,1 12,1.448 12,2ZM11,4C7.47,4 4.609,6.861 4.609,10.391L4.609,16.141L2,17.842L2,18L20,18L20,17.842L17.391,16.142L17.391,10.392C17.391,6.861 14.53,4 11,4Z" style="fill:currentColor;"/>
                <path d="M13,20C13,21.105 12.105,22 11,22C9.895,22 9,21.105 9,20L13,20Z" style="fill:currentColor;fill-rule:nonzero;"/>
            </g>
        </g>
        <g transform="matrix(0.997447,0,0,1.0785,1317.69,439.37)">
            <g transform="matrix(1,0,0,1,-6,-3)">
                <path d="M2.994,6C4.736,6 6.004,4.65 6.004,3L6.004,2.983C6.003,1.334 4.751,0 3.01,0C1.267,0 0,1.35 0,3L0,3.017C0,4.666 1.25,6 2.994,6ZM3.01,4.823C2.01,4.823 1.3,3.994 1.3,3L1.3,2.983C1.3,1.989 1.993,1.177 2.994,1.177C3.994,1.177 4.704,2.006 4.704,3L4.704,3.017C4.704,4.011 4.01,4.823 3.01,4.823ZM6.981,5.9L8.208,5.9L8.208,2.214L10.943,5.9L12,5.9L12,0.099L10.774,0.099L10.774,3.671L8.127,0.1L6.981,0.1L6.981,5.902L6.981,5.9Z" style="fill:currentColor;fill-rule:nonzero;"/>
            </g>
        </g>
    </g>
</svg>
