<svg width="48" height="49" fill="none" xmlns="http://www.w3.org/2000/svg"><path d="M24 48.5c-13.2 0-24-10.8-24-24S10.8.5 24 .5s24 10.8 24 24-10.8 24-24 24Z" fill="#561DF4"/><path opacity=".55" d="M11.38 26.837c-1.412-1.896-1.084-4.635.57-6.04 1.837-1.434 4.51-1.076 5.894.631l6.694 8.705c1.412 1.896 1.084 4.634-.753 6.068-1.808 1.622-4.298 1.236-5.893-.632l-6.511-8.733Z" fill="#fff"/><path opacity=".76" d="M30.217 14.95c1.362-1.89 4.005-2.29 5.832-.73a4.104 4.104 0 0 1 .69 5.928l-12.313 15.39c-1.361 1.889-4.005 2.29-5.832.729a4.104 4.104 0 0 1-.69-5.927l12.313-15.39Z" fill="#fff"/></svg>