<svg width="48" height="49" fill="none" xmlns="http://www.w3.org/2000/svg"><path d="M24 48.5c-13.2 0-24-10.8-24-24S10.8.5 24 .5s24 10.8 24 24-10.8 24-24 24Z" fill="#E84142"/><path opacity=".75" d="M27.607 15.132c1.49-1.79 4.155-2.005 5.869-.32a4.104 4.104 0 0 1 .275 5.96L20.393 35.265c-1.49 1.79-4.155 2.004-5.868.32a4.103 4.103 0 0 1-.276-5.96l13.358-14.493Z" fill="#fff"/><path opacity=".55" d="M20.393 15.132c-1.49-1.79-4.155-2.005-5.869-.32a4.104 4.104 0 0 0-.275 5.96l13.358 14.493c1.49 1.79 4.155 2.004 5.868.32a4.103 4.103 0 0 0 .276-5.96L20.393 15.132Z" fill="#fff"/></svg>