<svg width="32" height="32" viewBox="0 0 52 52" fill="none" xmlns="http://www.w3.org/2000/svg">
<circle cx="26" cy="26" r="26" fill="#333333"/>
<path d="M19.3967 23.2871L25.9999 16.6839L32.6061 23.2899L36.4481 19.4479L25.9999 8.99985L15.555 19.4448L19.3967 23.2871ZM8.99976 26L12.8419 22.1573L16.6838 25.9992L12.8416 29.8414L8.99976 26ZM19.3967 28.7134L25.9999 35.3161L32.606 28.7103L36.45 32.5503L36.4481 32.5523L25.9999 43.0002L15.5496 32.5498L19.3967 28.7134ZM35.3159 26.0017L39.1581 22.1595L43 26.0014L39.1579 29.8436L35.3159 26.0017Z" fill="#F3BA2F"/>
<path d="M29.8965 25.998H29.8982L25.9998 22.0994L22.1046 25.9941L22.0992 25.9994L22.1046 26.0049L25.9998 29.9007L29.8984 26.0021L29.9003 25.9999L29.8965 25.998Z" fill="#F3BA2F"/>
</svg>
