<svg xmlns="http://www.w3.org/2000/svg" width="45" height="29" fill="none" viewBox="0 0 45 29">
    <g clip-path="url(#clip0)">
        <path fill="#198CF2" d="M15.751 14.059c-.65-.014-1.136.44-1.15 1.074-.014.603.466 1.091 1.08 1.103.608.01 1.104-.462 1.121-1.068.018-.58-.473-1.098-1.05-1.11zM44.972 24.356c-.156-.541-.662-.894-1.173-.834-.588.07-1.017.561-.998 1.128.015.426.296.836.703.983.442.158.928.038 1.218-.288.127-.142.18-.319.278-.471v-.475c-.01-.013-.023-.027-.028-.043z"/>
        <path fill="#202C30" d="M33.616 17.502c-.46-.007-.92-.02-1.379-.032-.505-.014-1.014-.003-1.515-.077-.32-.047-.638-.09-.963-.084-1.082.022-1.977.434-2.642 1.28-1.003 1.277-.749 2.83.404 3.849.207.183.44.324.703.47-.318.138-.555.329-.59.68-.035.358.16.582.493.753-.258.077-.47.16-.674.263-.209.106-.415.217-.591.372-.697.616-.921 1.982-.083 2.85.591.613 1.352.883 2.176.99.694.089 1.394.083 2.088-.026.676-.105 1.307-.33 1.821-.796.426-.388.737-.841.684-1.456-.008-.088.003-.177-.002-.265-.01-.166-.004-.332-.068-.494-.198-.492-.553-.842-1.006-1.103-.598-.343-1.256-.486-1.935-.565-.26-.03-.52-.063-.76-.178-.097-.046-.185-.102-.184-.223 0-.127.086-.197.19-.252.185-.095.383-.148.585-.188.43-.083.843-.212 1.228-.42.875-.472 1.439-1.178 1.586-2.166.073-.485.038-.972-.16-1.434-.066-.151-.061-.154.104-.165.164-.01.328-.022.492-.025.08-.002.104-.027.104-.105-.004-.45-.004-.902 0-1.353-.004-.076-.026-.1-.106-.1zm-2.586 8.275c.212.063.382.198.498.385.187.304.085.71-.227.92-.273.183-.59.226-.908.252-.177.015-.355.003-.534.003-.382.029-.76.012-1.109-.17-.182-.095-.371-.185-.46-.388-.187-.426.007-.85.489-.994.745-.22 1.501-.233 2.251-.008zm-1.19-4.07c-.832 0-1.386-.716-1.393-1.426-.008-.739.646-1.36 1.402-1.362.766-.001 1.429.638 1.42 1.399-.008.78-.663 1.387-1.428 1.388zM5.54 17.69c-.999-.53-2.03-.562-3.05-.02l-.251.127v-.171c0-1.102-.002-2.203.003-3.304.001-.12-.032-.144-.147-.142-.582.006-1.164.006-1.746 0-.108-.001-.13.029-.13.131C.22 17.89.22 21.467.218 25.046c0 .12.039.143.15.141.532-.005 1.061-.002 1.592-.002.271 0 .271 0 .28-.26 0-.008.008-.015.014-.024.013.003.026.005.038.011.035.015.069.03.101.048.61.312 1.243.498 1.944.407.79-.103 1.496-.386 2.071-.933 1.078-1.025 1.49-2.292 1.264-3.743-.207-1.338-.924-2.36-2.131-3zm-.472 5.404c-.765.73-1.997.822-2.814.042-.056-.053-.075-.107-.075-.182.002-1.124.003-2.248 0-3.371 0-.092.03-.141.102-.19.346-.239.742-.32 1.149-.361.353-.036.702-.022 1.029.136.725.352 1.136.924 1.227 1.72.01.083.02.165.023.25.004.083.001.167.001.212.016.692-.158 1.282-.642 1.744zM25.173 14.18c-.587.004-1.174.006-1.76-.001-.112-.001-.128.035-.128.133.003 1.083.002 2.166.002 3.249v.181c-.175-.115-.344-.179-.516-.237-.79-.27-1.584-.323-2.377-.014-1.606.628-2.58 2.152-2.6 3.822-.01.89.24 1.712.746 2.45.666.971 1.591 1.53 2.775 1.619.648.05 1.265-.098 1.818-.458.036-.023.076-.072.123-.047.05.025.022.084.03.128.003.018.002.038 0 .056-.015.095.021.126.121.125.587-.004 1.174-.004 1.76 0 .097.001.128-.022.128-.122-.002-3.588-.002-7.174 0-10.762.001-.098-.025-.123-.122-.122zm-1.91 8.965c-.895.798-2.497.787-3.202-.6-.47-.928-.404-1.85.168-2.716.323-.49.827-.72 1.403-.797.594-.08 1.125.105 1.635.38.065.036.047.084.047.13.002.571 0 1.142 0 1.713h.028c0 .57-.002 1.142.001 1.713 0 .076-.023.126-.08.177zM42.095 19.811c-.669-1.473-1.831-2.305-3.44-2.493-.986-.114-1.913.12-2.74.668-1.116.74-1.72 1.795-1.831 3.116-.06.71.087 1.392.418 2.028.514.987 1.302 1.67 2.36 2.043.61.216 1.24.24 1.883.193.96-.068 1.8-.433 2.584-.954.1-.067.105-.13.032-.215-.316-.374-.67-.713-1.04-1.035-.072-.061-.142-.057-.23-.006-.493.282-1.005.516-1.59.524-.389.006-.782-.01-1.142-.175-.585-.267-.968-.723-1.197-1.318.02-.002.033-.005.046-.005l3.94-.031c.69-.006 1.38-.016 2.07-.02.08-.001.11-.014.116-.105.016-.26.003-.52.017-.779.026-.497-.05-.981-.256-1.436zm-1.957.758c-.25.045-.504.035-.756.044-.268.01-.535.003-.803.003-.774-.007-1.547.001-2.32-.042-.071-.005-.141.001-.099-.104.288-.714.784-1.243 1.544-1.418.922-.212 1.743.085 2.338.938.082.118.146.248.209.378.06.124.026.175-.113.2zM14.054 18.107c-.409-.353-.84-.667-1.395-.758-.589-.096-1.132-.012-1.58.411-.141.134-.262.29-.392.434l-.05-.036c-.036-.184-.03-.37-.033-.555-.002-.078-.025-.102-.105-.103-.582-.005-1.163-.012-1.745-.026-.118-.003-.145.032-.145.146.004 2.476.004 4.95 0 7.427 0 .106.023.142.138.14.577-.005 1.153-.006 1.73 0 .124.002.144-.04.144-.15.002-1.412.007-2.823.015-4.234.002-.38.06-.743.295-1.065.428-.589 1.07-.698 1.664-.274.18.128.338.279.494.433.062.061.09.067.143-.016.289-.454.585-.904.878-1.355.151-.233.155-.238-.056-.419zM16.505 17.474c-.582.005-1.164.006-1.746 0-.117-.001-.148.03-.147.145.005 1.236.003 2.471.003 3.707 0 1.24.002 2.481-.003 3.721 0 .109.027.141.14.14.586-.006 1.172-.005 1.759-.001.091 0 .118-.025.118-.117-.002-2.49-.002-4.98 0-7.47.001-.097-.025-.125-.124-.125z"/>
        <path fill="#2682BA" d="M15.046 2.819C13.464 1.089 11.179 0 8.64 0 3.877 0 0 3.839 0 8.557v1.238h4.574V8.557c0-2.22 1.824-4.027 4.067-4.027 2.243 0 4.068 1.806 4.068 4.027v1.238h.1V8.557c0-2.205.847-4.22 2.237-5.738z"/>
        <path fill="#56B4FA" d="M27.855 2.819C26.273 1.089 23.988 0 21.45 0c-2.537 0-4.822 1.089-6.404 2.819 1.39 1.518 2.237 3.533 2.237 5.738v1.238h.1V8.557c0-2.22 1.824-4.027 4.067-4.027 2.243 0 4.068 1.806 4.068 4.027v1.238h.1V8.557c0-2.205.847-4.22 2.237-5.738z"/>
        <path fill="#0F78B8" d="M15.046 2.82c-1.39 1.518-2.237 3.532-2.237 5.738v1.238h4.473V8.558c0-2.206-.847-4.22-2.236-5.739z"/>
        <path fill="#7BDFFC" d="M34.259 0c-2.537 0-4.823 1.089-6.404 2.819 1.389 1.518 2.236 3.533 2.236 5.738v1.238h.1V8.557c0-2.22 1.825-4.027 4.068-4.027 2.243 0 4.067 1.806 4.067 4.027v1.238H42.9V8.557C42.9 3.84 39.024 0 34.26 0z"/>
        <path fill="#2AA9F9" d="M27.855 2.82c-1.39 1.518-2.237 3.532-2.237 5.738v1.238h4.474V8.558c0-2.206-.848-4.22-2.237-5.739z"/>
    </g>
    <defs>
        <clipPath id="clip0">
            <path fill="#fff" d="M0 0H45V29H0z"/>
        </clipPath>
    </defs>
</svg>
