<svg xmlns="http://www.w3.org/2000/svg" width="40" height="28" fill="none" viewBox="0 0 40 28">
    <path fill="#75B943" fill-rule="evenodd" d="M12.143 4.018c-.318-.42-.506-.94-.506-1.505 0-1.388 1.14-2.513 2.545-2.513 1.406 0 2.545 1.125 2.545 2.513 0 .613-.222 1.175-.592 1.611l8.051 7.948c.442-.365 1.012-.585 1.633-.585 1.405 0 2.545 1.125 2.545 2.513s-1.14 2.513-2.545 2.513c-.621 0-1.19-.22-1.633-.585l-8.05 7.948c.37.436.591.998.591 1.611 0 1.388-1.14 2.513-2.545 2.513-1.406 0-2.545-1.125-2.545-2.513 0-.564.188-1.085.506-1.505l-2.255-2.226c-.425.314-.952.5-1.524.5-1.406 0-2.546-1.125-2.546-2.512 0-.565.189-1.086.507-1.505L4.07 16.012c-.425.315-.953.5-1.525.5C1.14 16.513 0 15.389 0 14s1.14-2.513 2.546-2.513c.571 0 1.099.186 1.524.5l2.255-2.226c-.318-.42-.507-.94-.507-1.505 0-1.387 1.14-2.512 2.546-2.512.572 0 1.1.186 1.524.5l2.255-2.226zm3.45.586c-.403.266-.889.422-1.41.422-.573 0-1.1-.186-1.525-.5l-2.255 2.226c.318.419.506.94.506 1.504 0 1.388-1.14 2.513-2.545 2.513-.572 0-1.1-.186-1.525-.5l-2.255 2.226c.318.42.507.94.507 1.505 0 .564-.189 1.085-.507 1.505L6.84 17.73c.425-.314.953-.5 1.525-.5 1.406 0 2.545 1.125 2.545 2.513 0 .564-.188 1.085-.507 1.504l2.256 2.227c.425-.315.952-.5 1.524-.5.522 0 1.008.154 1.411.42l8.107-8.002c-.27-.399-.427-.878-.427-1.393s.157-.995.427-1.393l-8.107-8.003z" clip-rule="evenodd"/>
    <path fill="#008845" fill-rule="evenodd" d="M27.231 4.605c-.404.266-.889.42-1.41.42-.573 0-1.1-.186-1.526-.5l-8.074 7.97c.319.42.508.942.508 1.506 0 .565-.189 1.085-.507 1.505l8.072 7.968c.426-.315.954-.501 1.526-.501.523 0 1.008.155 1.412.421l2.288-2.258c-.27-.398-.427-.877-.427-1.393 0-1.387 1.14-2.512 2.546-2.512.522 0 1.007.154 1.41.42l2.287-2.257c-.27-.398-.426-.877-.426-1.393s.157-.995.427-1.394l-2.288-2.259c-.404.266-.889.42-1.41.42-1.406 0-2.546-1.124-2.546-2.512 0-.515.157-.994.426-1.392l-2.288-2.26zm-3.45-.588c-.318-.42-.506-.94-.506-1.504C23.275 1.125 24.415 0 25.82 0c1.406 0 2.546 1.125 2.546 2.513 0 .613-.223 1.175-.593 1.612l2.233 2.203c.442-.365 1.011-.585 1.633-.585 1.405 0 2.545 1.125 2.545 2.513 0 .614-.223 1.176-.593 1.612l2.233 2.204c.442-.364 1.01-.584 1.631-.584 1.406 0 2.546 1.125 2.546 2.513s-1.14 2.513-2.546 2.513c-.621 0-1.19-.22-1.632-.585l-2.231 2.203c.37.436.592.998.592 1.611 0 1.388-1.14 2.513-2.545 2.513-.622 0-1.191-.22-1.633-.585l-2.232 2.204c.37.436.592.997.592 1.61 0 1.388-1.14 2.513-2.546 2.513-1.405 0-2.545-1.125-2.545-2.513 0-.563.188-1.084.506-1.503l-8.073-7.969c-.425.315-.953.501-1.525.501-1.406 0-2.545-1.125-2.545-2.513 0-1.387 1.14-2.512 2.545-2.512.572 0 1.099.185 1.524.5l8.074-7.972z" clip-rule="evenodd"/>
    <ellipse cx="20.001" cy="8.256" fill="#008845" rx="2.546" ry="2.513"/>
    <ellipse cx="20.001" cy="19.743" fill="#75B943" rx="2.546" ry="2.513"/>
</svg>
