<svg xmlns="http://www.w3.org/2000/svg" viewBox="0 0 236.27 220.97">
    <defs>
        <style>
            .cls-1{fill:#6e04d9;opacity:0.75;}.cls-1,.cls-2,.cls-3{isolation:isolate;}.cls-2{fill:#b397ed;opacity:0.8;}.cls-3{fill:#7757f9;opacity:0.7;}.cls-4{fill:#fff;}
        </style>
    </defs>
    <g id="Layer_2" data-name="Layer 2">
        <g id="Layer_1-2" data-name="Layer 1">
            <path class="cls-1"
                  d="M197.67,142.17c6.43-17.65,9-36.68,6.3-55.34-4.54-32-21.55-56.72-53.57-74.11-40.71-22.44-95.92-14.5-129,18.4C3.18,49.4-7.92,79.65,6.83,101c10.72,15.38,31.26,21,43.36,35.29,15.13,17.9,14,45.51,29,63.41,13.36,15.88,37.31,20.29,57,13.74C152.67,208,182.42,183.89,197.67,142.17Z"/>
            <path class="cls-2"
                  d="M136.16,213.51c16.51-5.42,46.26-29.49,61.51-71.22,6.43-17.64,10-34.66,6.3-55.33-12.23-68.19-95.8,19.54-110.29,28.49-28.49,17.52-36.3,56.09-16,82.68a20.59,20.59,0,0,0,1.39,1.77C92.42,215.65,116.49,219.94,136.16,213.51Z"/>
            <path class="cls-3"
                  d="M162.12,23.3c-17.64-6.42-36.68-9-55.33-6.3-32,4.54-56.72,21.56-74.12,53.57-22.44,40.72-14.49,95.93,18.4,129,18.28,18.28,48.53,29.37,69.84,14.62,15.37-10.71,21.05-31.26,35.29-43.36,17.9-15.13,45.5-14,63.4-29,15.88-13.36,20.29-37.31,13.74-57C227.92,68.3,203.85,38.56,162.12,23.3Z"/>
            <path class="cls-4"
                  d="M125.61,158.32l-16.35-33-10.9,10-5,22.94H74.78L92.65,73.9h18.76l-7,32.83,36-32.83h26L124,112.18l24.09,46.14Z"/>
        </g>
    </g>
</svg>