<svg xmlns="http://www.w3.org/2000/svg" viewBox="0 0 24 20">
  <path fill="#5841d8" d="M0 12.62v5.236C0 18.82.768 19.6 1.712 19.6c.946 0 1.717-.78 1.717-1.744V12.62c0-.966.764-1.747 1.713-1.747.946 0 1.714.781 1.714 1.747v5.236c0 .964.768 1.744 1.713 1.744.948 0 1.716-.78 1.716-1.744V12.62c0-.966.767-1.747 1.713-1.747.95 0 1.718.781 1.718 1.747v5.236c0 .964.767 1.744 1.711 1.744.946 0 1.714-.78 1.714-1.744V12.62c0-.966.767-1.747 1.717-1.747.945 0 1.713.781 1.713 1.747v5.236c0 .964.768 1.744 1.716 1.744.945 0 1.713-.78 1.713-1.744V12.62C24 5.872 18.626.4 11.998.4 5.37.4 0 5.872 0 12.62Z"/>
</svg>