<svg xmlns="http://www.w3.org/2000/svg" width="32" height="32" fill="none" viewBox="0 0 32 32">
    <circle cx="16" cy="16" r="16" fill="#020A1C"/>
    <path fill="#23AF91" fill-rule="evenodd" d="M12.91 15.992l5.223 5.224 3.297-3.297c.59-.531 1.491-.507 2.052.054.561.56.585 1.462.054 2.052l-4.35 4.351c-.585.575-1.522.575-2.107 0l-6.276-6.278v3.732c0 .823-.668 1.49-1.491 1.49-.824 0-1.492-.667-1.492-1.49V10.15c0-.824.668-1.492 1.492-1.492.823 0 1.49.668 1.49 1.491v3.732l6.277-6.277c.584-.575 1.521-.575 2.106 0l4.354 4.35c.53.59.507 1.492-.054 2.053-.561.561-1.463.585-2.052.054l-3.297-3.297-5.226 5.228zm5.226-1.493c-.604 0-1.149.363-1.38.921-.231.558-.104 1.2.323 1.627.427.427 1.07.555 1.627.324.558-.23.922-.775.922-1.38 0-.395-.157-.775-.437-1.055-.28-.28-.66-.438-1.055-.438v.001z" clip-rule="evenodd"/>
</svg>
