<svg xmlns="http://www.w3.org/2000/svg" width="32" height="32" fill="none" viewBox="0 0 32 32">
    <path fill="#191F27" d="M5.212 19.124c1.648 0 2.966-1.321 2.966-2.973 0-1.684-1.351-3.038-3.032-3.005-1.746.033-3.064 1.354-3.031 3.005 0 1.718 1.35 2.973 3.097 2.973zM16.02 8.093c1.648-.033 2.966-1.354 2.966-3.006 0-1.65-1.45-3.038-3.097-3.005-1.714.066-3.065 1.42-2.999 3.071.033 1.685 1.417 2.973 3.13 2.94zm10.84 10.8c1.648.066 3.032-1.19 3.098-2.84.066-1.685-1.252-3.105-2.9-3.138-1.746-.033-3.13 1.222-3.163 2.906-.033 1.717 1.22 3.038 2.966 3.071zM16.185 29.955c1.648 0 2.966-1.32 2.998-2.94.034-1.617-1.317-3.004-2.932-3.037-1.746-.034-3.163 1.32-3.163 3.005 0 1.618 1.417 2.94 3.097 2.972zm10.807-8.983c-1.45-.033-2.701-.462-3.756-1.552-1.219-1.222-2.702-1.387-3.789-.43-1.153.991-1.219 2.51-.066 3.898 1.252 1.519 2.208 3.104 1.714 5.185-.462 1.948-2.01 3.5-3.921 3.83-2.11.397-4.218-.462-5.305-2.245-1.153-1.85-1.087-3.732.066-5.581.263-.43.626-.793.922-1.19 1.055-1.32 1.022-2.807-.164-3.797-1.12-.958-2.603-.826-3.724.33-1.383 1.486-3.097 2.047-5.074 1.585C1.818 20.511.336 18.86.04 16.746c-.263-1.982.824-4.095 2.57-5.053 1.911-1.024 4.185-.793 5.832.594.198.165.396.396.593.562 1.12 1.023 2.67 1.023 3.69.033.989-.958 1.055-2.444.132-3.6-.79-.958-1.614-1.817-1.878-3.105-.494-2.345.593-4.69 2.735-5.68 2.208-1.024 4.81-.43 6.227 1.453 1.45 1.882 1.417 4.492-.131 6.341-.264.297-.528.627-.791.925-.89 1.189-.791 2.642.23 3.6 1.055.957 2.603.957 3.658-.166 1.12-1.155 2.405-1.849 4.053-1.849 2.8 0 5.04 2.246 5.04 5.086.034 2.807-2.24 5.053-5.008 5.086z"/>
    <path fill="#4E8149" fill-rule="evenodd" d="M17.996 5.121c0 1.123-.89 2.015-1.977 2.048-1.054.033-2.141-.991-2.141-2.048 0-1.09.955-2.015 2.108-2.015 1.12 0 2.01.892 2.01 2.015zm6.887 10.766c0 1.123.922 1.981 2.076 2.014 1.12.033 2.01-.825 2.042-1.915.033-1.123-.89-2.114-2.01-2.114-1.12 0-2.108.958-2.108 2.015zM14.076 26.92c0 1.056 1.02 2.047 2.108 2.047 1.153 0 2.01-.825 2.01-1.981.033-1.123-.922-2.081-2.043-2.048-1.087 0-2.075.958-2.075 1.982zM7.189 16.184c.033-1.189-.857-2.08-2.01-2.08-1.12 0-2.109.958-2.109 2.014 0 1.024 1.12 2.048 2.24 2.048 1.022 0 1.879-.892 1.879-1.982z" clip-rule="evenodd"/>
</svg>
