<svg xmlns="http://www.w3.org/2000/svg" width="32" height="32" fill="none" viewBox="0 0 32 32">
    <g clip-path="url(#clip0)">
        <path fill="url(#paint0_linear)" d="M30.097 32.743H2.034c-1.556 0-2.822-1.254-2.822-2.795V2.183C-.788.64.478-.612 2.034-.612h28.063c1.556 0 2.822 1.253 2.822 2.795v27.791c-.026 1.515-1.292 2.77-2.822 2.77z"/>
        <path fill="url(#paint1_linear)" d="M-1.289 32.953L-2.133-.612c1.082-1.123 35.105-1.07 36.213 0l-.105 14.523c1.134 1.071 1.16 2.821.079 3.944L19.416 32.953c.026 0-19.597 1.07-20.705 0z"/>
        <g filter="url(#filter0_di)">
            <path fill="#fff" d="M27.708 15.561l-5.258-5.257c-.218-.218-.523-.349-.85-.349-.328 0-.633.131-.851.35l-5.235 5.256v.022l-2.88 2.858v-7.286c0-.655-.545-1.2-1.2-1.2-.654 0-1.2.545-1.2 1.2v7.286l-3.206-3.207c-.458-.458-1.222-.458-1.702 0s-.458 1.222 0 1.702l5.258 5.257c.218.218.523.349.85.349.328 0 .633-.131.851-.35l5.235-5.256v-.022l2.88-2.88v7.286c0 .655.545 1.2 1.2 1.2.654 0 1.2-.545 1.2-1.2v-7.264l3.206 3.207c.24.24.545.349.85.349.306 0 .612-.11.852-.35.458-.48.458-1.243 0-1.7z"/>
        </g>
    </g>
    <defs>
        <linearGradient id="paint0_linear" x1="35.513" x2="24.746" y1="35.96" y2="24.737" gradientUnits="userSpaceOnUse">
            <stop offset=".15" stop-color="#0069EB"/>
            <stop offset="1" stop-color="#0C78ED"/>
        </linearGradient>
        <linearGradient id="paint1_linear" x1="5.015" x2="24.911" y1="-1.463" y2="29.982" gradientUnits="userSpaceOnUse">
            <stop stop-color="#0097FF"/>
            <stop offset="1" stop-color="#005AEA"/>
        </linearGradient>
        <clipPath id="clip0">
            <path fill="#fff" d="M0 2.756C0 1.234 1.234 0 2.756 0h26.488C30.766 0 32 1.234 32 2.756v26.488C32 30.766 30.766 32 29.244 32H2.756C1.234 32 0 30.766 0 29.244V2.756z"/>
        </clipPath>
        <filter id="filter0_di" width="24.454" height="13.964" x="4.286" y="9.266" color-interpolation-filters="sRGB" filterUnits="userSpaceOnUse">
            <feFlood flood-opacity="0" result="BackgroundImageFix"/>
            <feColorMatrix in="SourceAlpha" result="hardAlpha" values="0 0 0 0 0 0 0 0 0 0 0 0 0 0 0 0 0 0 127 0"/>
            <feOffset/>
            <feGaussianBlur stdDeviation=".344"/>
            <feComposite in2="hardAlpha" operator="out"/>
            <feColorMatrix values="0 0 0 0 0 0 0 0 0 0 0 0 0 0 0 0 0 0 0.2 0"/>
            <feBlend in2="BackgroundImageFix" result="effect1_dropShadow"/>
            <feBlend in="SourceGraphic" in2="effect1_dropShadow" result="shape"/>
            <feColorMatrix in="SourceAlpha" result="hardAlpha" values="0 0 0 0 0 0 0 0 0 0 0 0 0 0 0 0 0 0 127 0"/>
            <feOffset dx="-.276" dy="-.276"/>
            <feComposite in2="hardAlpha" k2="-1" k3="1" operator="arithmetic"/>
            <feColorMatrix values="0 0 0 0 0 0 0 0 0 0 0 0 0 0 0 0 0 0 0.2 0"/>
            <feBlend in2="shape" result="effect2_innerShadow"/>
        </filter>
    </defs>
</svg>
