<svg xmlns="http://www.w3.org/2000/svg" width="32" height="32" fill="none" viewBox="0 0 32 32">
    <circle cx="16" cy="16" r="16" fill="#141226"/>
    <g clip-path="url(#clip0)">
        <path fill="#01F496" fill-rule="evenodd" d="M16.157 7.024c2.543.575 5.228.575 9.01 3.255v4.72c0 8.518-4.35 8.518-9.014 11.099-5.622-2.585-9.129-3.297-9.129-11.099v-4.72c3.875-2.678 6.554-2.68 9.133-3.255zm.577 6.72l-.209.002v10.082l.168-.103c1.157-.722 1.827-1.544 2.013-2.466l-.005-5.042.188.032c.882.167 1.792.597 2.73 1.289.141-1.36-.292-2.296-1.3-2.808-1.352-.686-2.617-1.014-3.794-.984l.209-.002zm-.985-4.536c-.63.057-1.374.2-2.175.43l.015 8.233c0 .619-.494 1.103-1.12 1.103-.626 0-1.066-.51-1.066-1.092v-7.597c-.976.469-1.71.884-2.204 1.245 0 8.995-.275 8.351 6.55 12.298V9.208zm.776 0v2.298l.276.034c2.911.383 4.975 1.397 6.192 3.04.238-1.694-.067-2.834-.916-3.418-1.381-.952-3.231-1.603-5.552-1.954z" clip-rule="evenodd"/>
    </g>
    <defs>
        <clipPath id="clip0">
            <path fill="#fff" d="M0 0H17.951V19.073H0z" transform="translate(7.02441 7.02441)"/>
        </clipPath>
    </defs>
</svg>
