<svg width="16" height="16" viewBox="0 0 16 16" fill="none" xmlns="http://www.w3.org/2000/svg">
    <g clip-path="url(#a)">
        <circle cx="8" cy="8" r="7.5" stroke="#000"/>
        <path d="M11.731 11.554c.264-.42.42-.905.42-1.432a2.693 2.693 0 0 0-2.697-2.697 2.693 2.693 0 0 0-2.697 2.697 2.692 2.692 0 0 0 2.69 2.697c.528 0 1.02-.156 1.433-.42l1.87 1.87.85-.85-1.869-1.865zm-2.277.066a1.499 1.499 0 1 1 0-2.997 1.499 1.499 0 0 1 0 2.997zm-.216-5.094a3.529 3.529 0 0 0-1.259.27l-.33-.498-2.277 3.704-1.804-2.11-2.175 3.482-.977-.7 2.997-4.795L5.21 7.976l2.398-3.895 1.63 2.445zm1.552.3a3.55 3.55 0 0 0-1.229-.294l3.069-4.848.97.707-2.81 4.435z" fill="#000"/>
    </g>
    <defs>
        <clipPath id="a">
            <path fill="#fff" d="M0 0h16v16H0z"/>
        </clipPath>
    </defs>
</svg>
