<?xml version="1.0" encoding="utf-8"?>
<!-- Generator: Adobe Illustrator 24.1.0, SVG Export Plug-In . SVG Version: 6.00 Build 0)  -->
<svg version="1.1" id="Layer_1" xmlns="http://www.w3.org/2000/svg" xmlns:xlink="http://www.w3.org/1999/xlink" x="0px" y="0px"
	 viewBox="0 0 80 80" style="enable-background:new 0 0 80 80;" xml:space="preserve">
<style type="text/css">
	.st0{fill:#0E3CA5;}
	.st1{fill:#5493F7;}
	.st2{opacity:0.3;}
	.st3{fill:url(#SVGID_1_);fill-opacity:0;}
	.st4{opacity:6.000000e-02;fill:url(#SVGID_2_);enable-background:new    ;}
	.st5{opacity:0.13;fill:url(#SVGID_3_);enable-background:new    ;}
	.st6{opacity:0.19;fill:url(#SVGID_4_);enable-background:new    ;}
	.st7{opacity:0.25;fill:url(#SVGID_5_);enable-background:new    ;}
	.st8{opacity:0.31;fill:url(#SVGID_6_);enable-background:new    ;}
	.st9{opacity:0.38;fill:url(#SVGID_7_);enable-background:new    ;}
	.st10{opacity:0.44;fill:url(#SVGID_8_);enable-background:new    ;}
	.st11{opacity:0.5;fill:url(#SVGID_9_);enable-background:new    ;}
	.st12{opacity:0.56;fill:url(#SVGID_10_);enable-background:new    ;}
	.st13{opacity:0.63;fill:url(#SVGID_11_);enable-background:new    ;}
	.st14{opacity:0.69;fill:url(#SVGID_12_);enable-background:new    ;}
	.st15{opacity:0.75;fill:url(#SVGID_13_);enable-background:new    ;}
	.st16{opacity:0.81;fill:url(#SVGID_14_);enable-background:new    ;}
	.st17{opacity:0.88;fill:url(#SVGID_15_);enable-background:new    ;}
	.st18{opacity:0.94;fill:url(#SVGID_16_);enable-background:new    ;}
	.st19{fill:url(#SVGID_17_);}
	.st20{fill:url(#SVGID_18_);}
	.st21{fill:url(#SVGID_19_);}
	.st22{fill:url(#SVGID_20_);}
	.st23{fill:url(#SVGID_21_);}
	.st24{fill:url(#SVGID_22_);}
	.st25{fill:url(#SVGID_23_);}
	.st26{fill:url(#SVGID_24_);}
	.st27{fill:url(#SVGID_25_);}
	.st28{fill:url(#SVGID_26_);}
	.st29{fill:url(#SVGID_27_);}
	.st30{fill:url(#SVGID_28_);}
	.st31{fill:url(#SVGID_29_);}
	.st32{fill:url(#SVGID_30_);}
	.st33{fill:url(#SVGID_31_);}
	.st34{fill:url(#SVGID_32_);}
	.st35{opacity:0.38;}
	.st36{fill:url(#SVGID_33_);}
</style>
<g>
	<g id="Layer_2_1_">
		<g id="Layer_1-2">
			<g id="Symbol">
				<path class="st0" d="M33.7,55.7c1.7,6.2,7.7,10.9,10.7,10.7c0.1,0,11.5-2.1,17.7-12.5c4.8-8.1,3.2-15.9-3.4-16
					C56.2,38,30.5,44,33.7,55.7"/>
				<path class="st0" d="M58,16.1L58,16.1c-8.5-7.2-20.3-8.9-30.4-4.4c-0.6,0.3-1.2,0.6-1.8,0.9c-0.4,0.2-0.8,0.4-1.2,0.7h0.1
					c-1.1,0.8-2.2,1.8-3,2.9C13.4,27.1,41.1,35,56,35.1C62.8,40,64.7,21.3,58,16.1z"/>
				<path class="st1" d="M29.2,16.3c-3.8,5.7-16.5,9.8-18.6,9.1l0,0l0.3-0.5c0.7-1.4,1.5-2.7,2.5-4c0.9-1.3,1.9-2.4,3-3.5
					c1.1-1.1,2.3-2.1,3.5-3c0.8-0.6,1.6-1.1,2.4-1.6c1.3-0.7,2.7-1.1,4.2-1.1C32.2,11.8,29.3,16.3,29.2,16.3"/>
				<path class="st1" d="M26.1,56.8c0.3,1.8,0,8.9-0.4,9.5c-0.3,0-1,0.1-2.9-1c-1-0.6-1.9-1.2-2.9-1.9c-2.5-1.8-4.7-4.1-6.6-6.6
					c-0.9-1.3-1.8-2.6-2.5-4c-0.7-1.4-1.4-2.9-1.9-4.3c-0.5-1.5-0.9-3.1-1.2-4.7c-0.5-3.3-0.5-6.6,0-9.8c0.3-1.6,0.6-3.2,1.2-4.7
					c0.1-0.3,0.2-0.6,0.3-0.9l0,0c2.2,2.9,4.7,5.6,6.9,8.5s4.9,7.4,5.4,8.4C25.3,51.3,25.8,55.1,26.1,56.8"/>
				<path class="st1" d="M68.3,38.9c0,3.8-0.7,7.6-2.1,11.2c-3.6,3.8-27.7-5.6-28-5.7c-3.3-1.4-13.3-5.8-14.2-12.8
					c-1.3-10,18.9-16.9,27.8-17.2c1.1,0,4.3,0,6.2,1.6C64.6,21.8,68.4,30.1,68.3,38.9"/>
				<path class="st1" d="M52,65.9c-2.6,1.2-5.5,0.3-4.8-2.2c1.5-4.9,14.1-10,16.9-10.2c0.3,0,0.5,0.2,0.3,0.5
					C61.5,59,57.2,63.1,52,65.9"/>
			</g>
			<g class="st2">
				
					<linearGradient id="SVGID_1_" gradientUnits="userSpaceOnUse" x1="20.9057" y1="23.6796" x2="79.5" y2="23.6796" gradientTransform="matrix(1 0 0 -1 0 82)">
					<stop  offset="0.38" style="stop-color:#000000;stop-opacity:0"/>
					<stop  offset="1" style="stop-color:#000000;stop-opacity:0"/>
				</linearGradient>
				<path class="st3" d="M22.9,38.1c-1-0.1-1.9,0.6-2,1.6c0,0,0,0,0,0v30.9c-0.1,1.2,0.8,2.2,2,2.3c0,0,0,0,0,0
					c28.7,0.4,56.6,8.6,56.6,4.4V42.5C79.5,38.3,51.6,38.1,22.9,38.1z"/>
				
					<linearGradient id="SVGID_2_" gradientUnits="userSpaceOnUse" x1="20.9057" y1="23.8346" x2="79.1" y2="23.8346" gradientTransform="matrix(1 0 0 -1 0 82)">
					<stop  offset="0.38" style="stop-color:#000000;stop-opacity:6.000000e-02"/>
					<stop  offset="1" style="stop-color:#000000;stop-opacity:0"/>
				</linearGradient>
				<path class="st4" d="M22.9,38.1c-1-0.1-1.9,0.6-2,1.6c0,0,0,0,0,0v30.9c-0.1,1.2,0.8,2.2,2,2.3c0,0,0,0,0,0
					c28.5,0.2,56.2,8.2,56.2,4.1c0-10.2,0-24.2,0-34.4C79.1,38.6,51.4,38.1,22.9,38.1z"/>
				
					<linearGradient id="SVGID_3_" gradientUnits="userSpaceOnUse" x1="20.9963" y1="23.9751" x2="78.8" y2="23.9751" gradientTransform="matrix(1 0 0 -1 0 82)">
					<stop  offset="0.38" style="stop-color:#000000;stop-opacity:0.13"/>
					<stop  offset="1" style="stop-color:#000000;stop-opacity:0"/>
				</linearGradient>
				<path class="st5" d="M22.9,38.1c-1,0-1.8,0.7-1.9,1.7v30.9c-0.1,1.2,0.8,2.2,2,2.3c28.3,0.2,55.8,7.8,55.8,3.9c0-10,0-23.9,0-34
					C78.7,38.9,51.2,38.2,22.9,38.1z"/>
				
					<linearGradient id="SVGID_4_" gradientUnits="userSpaceOnUse" x1="20.9963" y1="24.121" x2="78.4" y2="24.121" gradientTransform="matrix(1 0 0 -1 0 82)">
					<stop  offset="0.38" style="stop-color:#000000;stop-opacity:0.19"/>
					<stop  offset="1" style="stop-color:#000000;stop-opacity:0"/>
				</linearGradient>
				<path class="st6" d="M22.9,38.1c-1,0-1.8,0.7-1.9,1.7v30.9c-0.1,1.2,0.8,2.2,2,2.3c28.1,0.2,55.4,7.4,55.4,3.6
					c0-9.9,0-23.6,0-33.5C78.3,39.2,51,38.2,22.9,38.1z"/>
				
					<linearGradient id="SVGID_5_" gradientUnits="userSpaceOnUse" x1="20.9963" y1="24.2585" x2="78" y2="24.2585" gradientTransform="matrix(1 0 0 -1 0 82)">
					<stop  offset="0.38" style="stop-color:#000000;stop-opacity:0.25"/>
					<stop  offset="1" style="stop-color:#000000;stop-opacity:0"/>
				</linearGradient>
				<path class="st7" d="M22.9,38.1c-1,0-1.8,0.7-1.9,1.7v30.9c-0.1,1.2,0.8,2.2,2,2.3c27.9,0.2,55,7,55,3.3c0-9.8,0-23.3,0-33.1
					C77.9,39.5,50.8,38.2,22.9,38.1z"/>
				
					<linearGradient id="SVGID_6_" gradientUnits="userSpaceOnUse" x1="20.9957" y1="24.412" x2="77.61" y2="24.412" gradientTransform="matrix(1 0 0 -1 0 82)">
					<stop  offset="0.38" style="stop-color:#000000;stop-opacity:0.31"/>
					<stop  offset="1" style="stop-color:#000000;stop-opacity:0"/>
				</linearGradient>
				<path class="st8" d="M22.9,38.1c-1,0-1.8,0.7-1.9,1.7v30.9c-0.1,1.2,0.8,2.2,2,2.2c0,0,0,0,0,0c27.7,0.2,54.6,6.6,54.6,3.1
					c0-9.6,0-23,0-32.7C77.5,39.8,50.7,38.2,22.9,38.1z"/>
				
					<linearGradient id="SVGID_7_" gradientUnits="userSpaceOnUse" x1="20.9957" y1="24.5572" x2="77.22" y2="24.5572" gradientTransform="matrix(1 0 0 -1 0 82)">
					<stop  offset="0.38" style="stop-color:#000000;stop-opacity:0.38"/>
					<stop  offset="1" style="stop-color:#000000;stop-opacity:0"/>
				</linearGradient>
				<path class="st9" d="M22.9,38.1c-1,0-1.8,0.7-1.9,1.7v30.9c-0.1,1.2,0.8,2.2,2,2.2c0,0,0,0,0,0c27.5,0.1,54.2,6.2,54.2,2.8
					c0-9.5,0-22.8,0-32.2C77.1,40.1,50.5,38.2,22.9,38.1z"/>
				
					<linearGradient id="SVGID_8_" gradientUnits="userSpaceOnUse" x1="20.9957" y1="24.7023" x2="76.82" y2="24.7023" gradientTransform="matrix(1 0 0 -1 0 82)">
					<stop  offset="0.38" style="stop-color:#000000;stop-opacity:0.44"/>
					<stop  offset="1" style="stop-color:#000000;stop-opacity:0"/>
				</linearGradient>
				<path class="st10" d="M22.9,38.1c-1,0-1.8,0.7-1.9,1.7v30.9c-0.1,1.2,0.8,2.2,2,2.2c0,0,0,0,0,0c27.3,0.1,53.8,5.8,53.8,2.5
					c0-9.3,0-22.5,0-31.8C76.7,40.4,50.2,38.2,22.9,38.1z"/>
				
					<linearGradient id="SVGID_9_" gradientUnits="userSpaceOnUse" x1="20.9957" y1="24.8421" x2="76.43" y2="24.8421" gradientTransform="matrix(1 0 0 -1 0 82)">
					<stop  offset="0.38" style="stop-color:#000000;stop-opacity:0.5"/>
					<stop  offset="1" style="stop-color:#000000;stop-opacity:0"/>
				</linearGradient>
				<path class="st11" d="M22.9,38.1c-1,0-1.8,0.7-1.9,1.6v30.9c-0.1,1.2,0.8,2.2,2,2.2c0,0,0,0,0,0c27.1,0.1,53.4,5.4,53.4,2.3
					c0-9.2,0-22.2,0-31.4C76.3,40.7,50,38.2,22.9,38.1z"/>
				
					<linearGradient id="SVGID_10_" gradientUnits="userSpaceOnUse" x1="20.9957" y1="24.9799" x2="76" y2="24.9799" gradientTransform="matrix(1 0 0 -1 0 82)">
					<stop  offset="0.38" style="stop-color:#000000;stop-opacity:0.56"/>
					<stop  offset="1" style="stop-color:#000000;stop-opacity:0"/>
				</linearGradient>
				<path class="st12" d="M22.9,38.1c-1,0-1.8,0.7-1.9,1.6v30.9c-0.1,1.2,0.8,2.2,2,2.2c0,0,0,0,0,0c26.9,0.1,53,5,53,2
					c0-9,0-21.9,0-30.9C76,41,49.8,38.2,22.9,38.1z"/>
				
					<linearGradient id="SVGID_11_" gradientUnits="userSpaceOnUse" x1="20.9957" y1="25.1253" x2="75.64" y2="25.1253" gradientTransform="matrix(1 0 0 -1 0 82)">
					<stop  offset="0.38" style="stop-color:#000000;stop-opacity:0.63"/>
					<stop  offset="1" style="stop-color:#000000;stop-opacity:0"/>
				</linearGradient>
				<path class="st13" d="M22.9,38.1c-1,0-1.8,0.7-1.9,1.6v30.9c-0.1,1.2,0.8,2.2,2,2.2c0,0,0,0,0,0c26.7,0.1,52.7,4.6,52.6,1.7
					c0-8.9,0-21.6,0-30.5C75.6,41.2,49.7,38.2,22.9,38.1z"/>
				
					<linearGradient id="SVGID_12_" gradientUnits="userSpaceOnUse" x1="20.9957" y1="25.2682" x2="75.24" y2="25.2682" gradientTransform="matrix(1 0 0 -1 0 82)">
					<stop  offset="0.38" style="stop-color:#000000;stop-opacity:0.69"/>
					<stop  offset="1" style="stop-color:#000000;stop-opacity:0"/>
				</linearGradient>
				<path class="st14" d="M22.9,38.1c-1-0.1-1.8,0.7-1.9,1.6v30.9c-0.1,1.2,0.8,2.2,2,2.2c0,0,0,0,0,0c26.5,0.1,52.2,4.2,52.2,1.5
					c0-8.8,0-21.3,0-30.1C75.2,41.5,49.5,38.2,22.9,38.1z"/>
				
					<linearGradient id="SVGID_13_" gradientUnits="userSpaceOnUse" x1="20.9957" y1="25.4091" x2="74.84" y2="25.4091" gradientTransform="matrix(1 0 0 -1 0 82)">
					<stop  offset="0.38" style="stop-color:#000000;stop-opacity:0.75"/>
					<stop  offset="1" style="stop-color:#000000;stop-opacity:0"/>
				</linearGradient>
				<path class="st15" d="M22.9,38.1c-1-0.1-1.8,0.7-1.9,1.6v30.9c-0.1,1.2,0.8,2.2,2,2.2c0,0,0,0,0,0c26.3,0.1,51.9,3.8,51.8,1.2
					c0-8.6,0-21,0-29.7C74.8,41.8,49.2,38.2,22.9,38.1z"/>
				
					<linearGradient id="SVGID_14_" gradientUnits="userSpaceOnUse" x1="20.9957" y1="25.5493" x2="74.45" y2="25.5493" gradientTransform="matrix(1 0 0 -1 0 82)">
					<stop  offset="0.38" style="stop-color:#000000;stop-opacity:0.81"/>
					<stop  offset="1" style="stop-color:#000000;stop-opacity:0"/>
				</linearGradient>
				<path class="st16" d="M22.9,38.1c-1,0-1.8,0.7-1.9,1.6v30.9c-0.1,1.2,0.8,2.2,2,2.2c0,0,0,0,0,0c26.1,0.1,51.5,3.4,51.4,0.9
					c0-8.5,0-20.8,0-29.2C74.4,42.1,49.1,38.2,22.9,38.1z"/>
				
					<linearGradient id="SVGID_15_" gradientUnits="userSpaceOnUse" x1="20.9957" y1="25.6889" x2="74" y2="25.6889" gradientTransform="matrix(1 0 0 -1 0 82)">
					<stop  offset="0.38" style="stop-color:#000000;stop-opacity:0.88"/>
					<stop  offset="1" style="stop-color:#000000;stop-opacity:0"/>
				</linearGradient>
				<path class="st17" d="M22.9,38.1c-1,0-1.8,0.7-1.9,1.6v30.9c-0.1,1.2,0.8,2.2,2,2.2c0,0,0,0,0,0c25.8,0.1,51,3,51,0.7
					c0-8.3,0-20.5,0-28.8C74,42.4,48.9,38.2,22.9,38.1z"/>
				
					<linearGradient id="SVGID_16_" gradientUnits="userSpaceOnUse" x1="20.9957" y1="25.8246" x2="73.66" y2="25.8246" gradientTransform="matrix(1 0 0 -1 0 82)">
					<stop  offset="0.38" style="stop-color:#000000;stop-opacity:0.94"/>
					<stop  offset="1" style="stop-color:#000000;stop-opacity:0"/>
				</linearGradient>
				<path class="st18" d="M22.9,38.1c-1,0-1.8,0.7-1.9,1.6v30.9c-0.1,1.2,0.8,2.2,2,2.2c0,0,0,0,0,0c25.7,0.1,50.7,2.6,50.7,0.4
					c0-8.2,0-20.2,0-28.3C73.6,42.7,48.7,38.2,22.9,38.1z"/>
				
					<linearGradient id="SVGID_17_" gradientUnits="userSpaceOnUse" x1="20.9957" y1="25.9512" x2="73.26" y2="25.9512" gradientTransform="matrix(1 0 0 -1 0 82)">
					<stop  offset="0.38" style="stop-color:#000000"/>
					<stop  offset="1" style="stop-color:#000000;stop-opacity:0"/>
				</linearGradient>
				<path class="st19" d="M22.9,38.1c-1,0-1.8,0.7-1.9,1.6v30.9c-0.1,1.2,0.8,2.2,2,2.2c0,0,0,0,0,0c25.5,0.1,50.3,2.2,50.3,0.1
					V45.1C73.2,43,48.5,38.4,22.9,38.1z"/>
			</g>
			
				<linearGradient id="SVGID_18_" gradientUnits="userSpaceOnUse" x1="20.9911" y1="13.7067" x2="73.17" y2="13.7067" gradientTransform="matrix(1 0 0 -1 0 82)">
				<stop  offset="0" style="stop-color:#000040"/>
				<stop  offset="0.32" style="stop-color:#000043"/>
				<stop  offset="0.59" style="stop-color:#00004D"/>
				<stop  offset="0.82" style="stop-color:#00005E"/>
				<stop  offset="1" style="stop-color:#000070"/>
			</linearGradient>
			<path class="st20" d="M21,70.7c-0.1,1.2,0.7,2.2,1.9,2.3c25.6,0.2,50.3-1,50.3-4.8C73.2,56.5,21,70.7,21,70.7z"/>
			
				<linearGradient id="SVGID_19_" gradientUnits="userSpaceOnUse" x1="47.0806" y1="18.45" x2="47.0806" y2="9.02" gradientTransform="matrix(1 0 0 -1 0 82)">
				<stop  offset="0.35" style="stop-color:#00209F"/>
				<stop  offset="0.65" style="stop-color:#001F9D"/>
				<stop  offset="0.75" style="stop-color:#001D96"/>
				<stop  offset="0.83" style="stop-color:#00198B"/>
				<stop  offset="0.89" style="stop-color:#00137A"/>
				<stop  offset="0.94" style="stop-color:#000C64"/>
				<stop  offset="0.99" style="stop-color:#000349"/>
				<stop  offset="1" style="stop-color:#000040"/>
			</linearGradient>
			<path class="st21" d="M21,70.7L21,70.7c-0.1,1.2,0.7,2.2,1.9,2.3c25.6,0.2,50.2-0.6,50.3-4.8C73.2,56.5,21,70.7,21,70.7z
				 M22.9,72.8h-0.2c-0.8-0.1-1.5-0.7-1.7-1.5C21.2,72.2,22,72.8,22.9,72.8c25.5-0.2,49.8-8,49.8-4.6S48.5,73,22.9,72.8z"/>
			
				<linearGradient id="SVGID_20_" gradientUnits="userSpaceOnUse" x1="20.91" y1="29.5692" x2="73.17" y2="29.5692" gradientTransform="matrix(1 0 0 -1 0 82)">
				<stop  offset="0" style="stop-color:#00209F"/>
				<stop  offset="2.000000e-02" style="stop-color:#0222A1"/>
				<stop  offset="0.24" style="stop-color:#1333B2"/>
				<stop  offset="0.49" style="stop-color:#1D3DBC"/>
				<stop  offset="0.79" style="stop-color:#2040BF"/>
				<stop  offset="0.84" style="stop-color:#1E3DBC"/>
				<stop  offset="0.88" style="stop-color:#1933B2"/>
				<stop  offset="0.92" style="stop-color:#1122A1"/>
				<stop  offset="0.95" style="stop-color:#050A89"/>
				<stop  offset="0.97" style="stop-color:#00007F"/>
				<stop  offset="1" style="stop-color:#2040BF"/>
			</linearGradient>
			<path class="st22" d="M22.9,37.8L22.9,37.8c-1.1,0-2,0.9-2,2v30.9c0,1.1,0.9,2,1.9,2c25.6-0.2,50.3-8.7,50.3-4.6V33.3
				C73.2,29.2,48.5,37.6,22.9,37.8z"/>
			
				<linearGradient id="SVGID_21_" gradientUnits="userSpaceOnUse" x1="20.95" y1="36.495" x2="73.17" y2="36.495" gradientTransform="matrix(1 0 0 -1 0 82)">
				<stop  offset="0" style="stop-color:#DFDFDF"/>
				<stop  offset="2.000000e-02" style="stop-color:#E1E1E1"/>
				<stop  offset="0.24" style="stop-color:#F2F2F2"/>
				<stop  offset="0.49" style="stop-color:#FCFCFC"/>
				<stop  offset="0.79" style="stop-color:#FFFFFF"/>
				<stop  offset="0.84" style="stop-color:#FCFCFC"/>
				<stop  offset="0.88" style="stop-color:#F2F2F2"/>
				<stop  offset="0.92" style="stop-color:#E1E1E1"/>
				<stop  offset="0.95" style="stop-color:#C9C9C9"/>
				<stop  offset="0.97" style="stop-color:#BFBFBF"/>
				<stop  offset="1" style="stop-color:#FFFFFF"/>
			</linearGradient>
			<path class="st23" d="M23.9,55.2l2.1-1.5l1.9-1.3c0.6-0.4,1.2-0.8,1.8-1.3l2.1-1.6v5.3l2.2-0.2l2.2-0.2v-5.3l2.1,1.2
				c0.7,0.4,1.2,0.7,1.8,1l1.8,1l2.2,1.1l1.5-0.2l1.5-0.2v-1.9l-2-1l-1.8-0.9l-2-1.1l2-0.3l1.8-0.2l2-0.3v-5.8l-2,0.3l-1.8,0.2
				l-2,0.3l2-1.6l1.8-1.4l2-1.6v-2l-2.9,0.4h0L42,37.8l-1.8,1.5l-1.8,1.4l-2.2,1.7v-5.3c-1.5,0.2-3,0.3-4.5,0.4
				c0.1,1.1,0.2,2.2,0.2,2.6v2.7l-2.1-1.3l-1.8-1.1L26,39.2l-2.1-1.4h-1c-1.1,0-2,0.9-2,2l0,0l0,0l2,1.3l1.8,1.1l2,1.3l-2,0.1h-1.8
				h-2l0,0v5.8h2h1.8l2-0.1l-2,1.4L23,52l-2,1.4l0,0v1.9h1.5L23.9,55.2z"/>
			
				<linearGradient id="SVGID_22_" gradientUnits="userSpaceOnUse" x1="20.95" y1="18.82" x2="73.17" y2="18.82" gradientTransform="matrix(1 0 0 -1 0 82)">
				<stop  offset="0" style="stop-color:#DFDFDF"/>
				<stop  offset="2.000000e-02" style="stop-color:#E1E1E1"/>
				<stop  offset="0.24" style="stop-color:#F2F2F2"/>
				<stop  offset="0.49" style="stop-color:#FCFCFC"/>
				<stop  offset="0.79" style="stop-color:#FFFFFF"/>
				<stop  offset="0.84" style="stop-color:#FCFCFC"/>
				<stop  offset="0.88" style="stop-color:#F2F2F2"/>
				<stop  offset="0.92" style="stop-color:#E1E1E1"/>
				<stop  offset="0.95" style="stop-color:#C9C9C9"/>
				<stop  offset="0.97" style="stop-color:#BFBFBF"/>
				<stop  offset="1" style="stop-color:#FFFFFF"/>
			</linearGradient>
			<path class="st24" d="M36.3,62.7l0.9-1.5c0.3-0.4,0.5-0.9,0.9-1.5l-1.5,0.7l-1.5,0.7l-0.5-1.5c-0.2-0.5-0.3-0.9-0.5-1.5l-0.5,1.6
				c-0.2,0.5-0.3,1-0.5,1.6l-1.5-0.5L30,60.4c0.4,0.5,0.6,0.9,0.9,1.3l0.9,1.3L30.4,64L29,64.9h1.6h1.6c-0.1,0.7-0.2,1.2-0.2,1.7
				s-0.1,1-0.2,1.6l1.1-1.2l1.1-1.3l1.1,1.1l1.1,1.1c-0.1-0.6-0.2-1.1-0.2-1.6s-0.1-1-0.2-1.6l1.7-0.3l1.6-0.4l-1.4-0.7L36.3,62.7z"
				/>
			
				<linearGradient id="SVGID_23_" gradientUnits="userSpaceOnUse" x1="20.95" y1="19.485" x2="73.17" y2="19.485" gradientTransform="matrix(1 0 0 -1 0 82)">
				<stop  offset="0" style="stop-color:#DFDFDF"/>
				<stop  offset="2.000000e-02" style="stop-color:#E1E1E1"/>
				<stop  offset="0.24" style="stop-color:#F2F2F2"/>
				<stop  offset="0.49" style="stop-color:#FCFCFC"/>
				<stop  offset="0.79" style="stop-color:#FFFFFF"/>
				<stop  offset="0.84" style="stop-color:#FCFCFC"/>
				<stop  offset="0.88" style="stop-color:#F2F2F2"/>
				<stop  offset="0.92" style="stop-color:#E1E1E1"/>
				<stop  offset="0.95" style="stop-color:#C9C9C9"/>
				<stop  offset="0.97" style="stop-color:#BFBFBF"/>
				<stop  offset="1" style="stop-color:#FFFFFF"/>
			</linearGradient>
			<path class="st25" d="M61.3,62.1c0.3-0.6,0.5-0.9,0.9-1.5l-1.5,0.8c-0.2-0.6-0.3-0.8-0.5-1.4c-0.2,0.6-0.3,0.9-0.5,1.6l-1.5-0.3
				l0.9,1.2l-1.3,1l1.6-0.1c-0.1,0.6-0.1,1-0.2,1.6l1.1-1.3l1.1,1c-0.1-0.6-0.1-0.9-0.2-1.5l1.6-0.4L61.3,62.1z"/>
			
				<linearGradient id="SVGID_24_" gradientUnits="userSpaceOnUse" x1="20.95" y1="32.14" x2="73.17" y2="32.14" gradientTransform="matrix(1 0 0 -1 0 82)">
				<stop  offset="0" style="stop-color:#DFDFDF"/>
				<stop  offset="2.000000e-02" style="stop-color:#E1E1E1"/>
				<stop  offset="0.24" style="stop-color:#F2F2F2"/>
				<stop  offset="0.49" style="stop-color:#FCFCFC"/>
				<stop  offset="0.79" style="stop-color:#FFFFFF"/>
				<stop  offset="0.84" style="stop-color:#FCFCFC"/>
				<stop  offset="0.88" style="stop-color:#F2F2F2"/>
				<stop  offset="0.92" style="stop-color:#E1E1E1"/>
				<stop  offset="0.95" style="stop-color:#C9C9C9"/>
				<stop  offset="0.97" style="stop-color:#BFBFBF"/>
				<stop  offset="1" style="stop-color:#FFFFFF"/>
			</linearGradient>
			<path class="st26" d="M54.7,49.5l0.9-1.5l-1.5,0.8c-0.2-0.6-0.3-0.8-0.5-1.4L53.2,49l-1.5-0.3c0.3,0.5,0.5,0.7,0.9,1.2l-1.3,1
				l1.6-0.1c-0.1,0.6-0.1,1-0.2,1.6c0.4-0.5,0.7-0.8,1.1-1.3l1.1,1c-0.1-0.6-0.1-0.9-0.2-1.5l1.6-0.5L54.7,49.5z"/>
			
				<linearGradient id="SVGID_25_" gradientUnits="userSpaceOnUse" x1="20.95" y1="42.68" x2="73.17" y2="42.68" gradientTransform="matrix(1 0 0 -1 0 82)">
				<stop  offset="0" style="stop-color:#DFDFDF"/>
				<stop  offset="2.000000e-02" style="stop-color:#E1E1E1"/>
				<stop  offset="0.24" style="stop-color:#F2F2F2"/>
				<stop  offset="0.49" style="stop-color:#FCFCFC"/>
				<stop  offset="0.79" style="stop-color:#FFFFFF"/>
				<stop  offset="0.84" style="stop-color:#FCFCFC"/>
				<stop  offset="0.88" style="stop-color:#F2F2F2"/>
				<stop  offset="0.92" style="stop-color:#E1E1E1"/>
				<stop  offset="0.95" style="stop-color:#C9C9C9"/>
				<stop  offset="0.97" style="stop-color:#BFBFBF"/>
				<stop  offset="1" style="stop-color:#FFFFFF"/>
			</linearGradient>
			<path class="st27" d="M59.3,40.2c-0.1,0.6-0.1,1-0.2,1.6l1.1-1.3l1.1,1c-0.1-0.6-0.1-0.9-0.2-1.5l1.6-0.4l-1.3-0.6
				c0.3-0.6,0.5-0.9,0.9-1.5l-1.5,0.8c-0.2-0.6-0.3-0.8-0.5-1.4c-0.2,0.6-0.3,1-0.5,1.6l-1.5-0.3l0.9,1.2l-1.3,1L59.3,40.2z"/>
			
				<linearGradient id="SVGID_26_" gradientUnits="userSpaceOnUse" x1="20.95" y1="36.55" x2="73.17" y2="36.55" gradientTransform="matrix(1 0 0 -1 0 82)">
				<stop  offset="0" style="stop-color:#DFDFDF"/>
				<stop  offset="2.000000e-02" style="stop-color:#E1E1E1"/>
				<stop  offset="0.24" style="stop-color:#F2F2F2"/>
				<stop  offset="0.49" style="stop-color:#FCFCFC"/>
				<stop  offset="0.79" style="stop-color:#FFFFFF"/>
				<stop  offset="0.84" style="stop-color:#FCFCFC"/>
				<stop  offset="0.88" style="stop-color:#F2F2F2"/>
				<stop  offset="0.92" style="stop-color:#E1E1E1"/>
				<stop  offset="0.95" style="stop-color:#C9C9C9"/>
				<stop  offset="0.97" style="stop-color:#BFBFBF"/>
				<stop  offset="1" style="stop-color:#FFFFFF"/>
			</linearGradient>
			<path class="st28" d="M67.1,45.1c0.4-0.6,0.6-0.9,1-1.4c-0.6,0.2-1.1,0.5-1.6,0.8L66,43c-0.2,0.6-0.3,0.9-0.5,1.6L64,44.3
				l0.9,1.2c-0.5,0.4-0.8,0.6-1.3,1l1.5-0.1c-0.1,0.6-0.1,1-0.2,1.6l1.1-1.3c0.4,0.4,0.6,0.6,1.1,1C67,47,67,46.7,66.9,46.1
				c0.6-0.1,1-0.2,1.9-0.3C68,45.5,67.6,45.4,67.1,45.1z"/>
			
				<linearGradient id="SVGID_27_" gradientUnits="userSpaceOnUse" x1="20.95" y1="30.12" x2="73.17" y2="30.12" gradientTransform="matrix(1 0 0 -1 0 82)">
				<stop  offset="0" style="stop-color:#DFDFDF"/>
				<stop  offset="2.000000e-02" style="stop-color:#E1E1E1"/>
				<stop  offset="0.24" style="stop-color:#F2F2F2"/>
				<stop  offset="0.49" style="stop-color:#FCFCFC"/>
				<stop  offset="0.79" style="stop-color:#FFFFFF"/>
				<stop  offset="0.84" style="stop-color:#FCFCFC"/>
				<stop  offset="0.88" style="stop-color:#F2F2F2"/>
				<stop  offset="0.92" style="stop-color:#E1E1E1"/>
				<stop  offset="0.95" style="stop-color:#C9C9C9"/>
				<stop  offset="0.97" style="stop-color:#BFBFBF"/>
				<stop  offset="1" style="stop-color:#FFFFFF"/>
			</linearGradient>
			<path class="st29" d="M63.2,51.4c-0.2-0.3-0.2-0.5-0.4-0.9l-0.4,1l-1,0.2l0.8,0.5c-0.1,0.4-0.1,0.6-0.2,1l0.8-0.7l0.8,0.4
				c-0.1-0.4-0.1-0.6-0.2-0.9l0.8-0.8L63.2,51.4z"/>
			
				<linearGradient id="SVGID_28_" gradientUnits="userSpaceOnUse" x1="20.95" y1="36.03" x2="73.17" y2="36.03" gradientTransform="matrix(1 0 0 -1 0 82)">
				<stop  offset="0" style="stop-color:#BF1010"/>
				<stop  offset="2.000000e-02" style="stop-color:#C11212"/>
				<stop  offset="0.24" style="stop-color:#D22323"/>
				<stop  offset="0.49" style="stop-color:#DC2D2D"/>
				<stop  offset="0.79" style="stop-color:#DF3030"/>
				<stop  offset="0.84" style="stop-color:#DC2E2E"/>
				<stop  offset="0.88" style="stop-color:#D22626"/>
				<stop  offset="0.92" style="stop-color:#C11919"/>
				<stop  offset="0.95" style="stop-color:#A90808"/>
				<stop  offset="0.97" style="stop-color:#9F0000"/>
				<stop  offset="1" style="stop-color:#DF3030"/>
			</linearGradient>
			<path class="st30" d="M23.5,48.3c0.8,0,1.5,0,2.2-0.1l2.1-0.1l2.2-0.1l2.6-0.2v7c1-0.1,1.6-0.1,2.6-0.2v-7l2.6-0.2l2.2-0.2
				l2.1-0.3l2.2-0.3l2.6-0.4v-3.5L44.6,43l-2.2,0.3l-2.1,0.3L38,43.9l-2.6,0.3v-7c-0.9,0.1-1.7,0.2-2.6,0.2v4.5c0,0.7,0,1.5,0,2.4
				l-2.6,0.2L28,44.6l-2.1,0.1c-0.7,0-1.5,0-2.2,0.1s-1.6,0-2.6,0l0,0v3.5l0,0C21.9,48.3,22.8,48.3,23.5,48.3z"/>
			
				<linearGradient id="SVGID_29_" gradientUnits="userSpaceOnUse" x1="20.95" y1="42.715" x2="73.17" y2="42.715" gradientTransform="matrix(1 0 0 -1 0 82)">
				<stop  offset="0" style="stop-color:#BF1010"/>
				<stop  offset="2.000000e-02" style="stop-color:#C11212"/>
				<stop  offset="0.24" style="stop-color:#D22323"/>
				<stop  offset="0.49" style="stop-color:#DC2D2D"/>
				<stop  offset="0.79" style="stop-color:#DF3030"/>
				<stop  offset="0.84" style="stop-color:#DC2E2E"/>
				<stop  offset="0.88" style="stop-color:#D22626"/>
				<stop  offset="0.92" style="stop-color:#C11919"/>
				<stop  offset="0.95" style="stop-color:#A90808"/>
				<stop  offset="0.97" style="stop-color:#9F0000"/>
				<stop  offset="1" style="stop-color:#DF3030"/>
			</linearGradient>
			<path class="st31" d="M42.8,37.9l-2,1.6l-2,1.6l-2.3,1.8l2-0.2l2.3-1.8l2-1.6l2-1.6l2.3-1.9l0,0L45.3,36c0,0-0.1,0-0.1,0
				L42.8,37.9z"/>
			
				<linearGradient id="SVGID_30_" gradientUnits="userSpaceOnUse" x1="20.95" y1="41.115" x2="73.17" y2="41.115" gradientTransform="matrix(1 0 0 -1 0 82)">
				<stop  offset="0" style="stop-color:#BF1010"/>
				<stop  offset="2.000000e-02" style="stop-color:#C11212"/>
				<stop  offset="0.24" style="stop-color:#D22323"/>
				<stop  offset="0.49" style="stop-color:#DC2D2D"/>
				<stop  offset="0.79" style="stop-color:#DF3030"/>
				<stop  offset="0.84" style="stop-color:#DC2E2E"/>
				<stop  offset="0.88" style="stop-color:#D22626"/>
				<stop  offset="0.92" style="stop-color:#C11919"/>
				<stop  offset="0.95" style="stop-color:#A90808"/>
				<stop  offset="0.97" style="stop-color:#9F0000"/>
				<stop  offset="1" style="stop-color:#DF3030"/>
			</linearGradient>
			<path class="st32" d="M25.4,42c0.7,0.4,1.5,0.9,2.4,1.5l2-0.1c-0.9-0.5-1.6-1-2.4-1.5l-2-1.3l-2-1.3l-1.7-1.1
				c-0.3,0.2-0.5,0.6-0.6,0.9l2.3,1.5C24,41.2,24.7,41.6,25.4,42z"/>
			
				<linearGradient id="SVGID_31_" gradientUnits="userSpaceOnUse" x1="20.95" y1="31.325" x2="73.17" y2="31.325" gradientTransform="matrix(1 0 0 -1 0 82)">
				<stop  offset="0" style="stop-color:#BF1010"/>
				<stop  offset="2.000000e-02" style="stop-color:#C11212"/>
				<stop  offset="0.24" style="stop-color:#D22323"/>
				<stop  offset="0.49" style="stop-color:#DC2D2D"/>
				<stop  offset="0.79" style="stop-color:#DF3030"/>
				<stop  offset="0.84" style="stop-color:#DC2E2E"/>
				<stop  offset="0.88" style="stop-color:#D22626"/>
				<stop  offset="0.92" style="stop-color:#C11919"/>
				<stop  offset="0.95" style="stop-color:#A90808"/>
				<stop  offset="0.97" style="stop-color:#9F0000"/>
				<stop  offset="1" style="stop-color:#DF3030"/>
			</linearGradient>
			<path class="st33" d="M42.7,49.5c-0.7-0.4-1.5-0.8-2.4-1.3l-2,0.2c0.9,0.5,1.6,0.9,2.3,1.3l2,1.1l2,1.1l2.3,1.2v-1.3l-2.3-1.2
				L42.7,49.5z"/>
			
				<linearGradient id="SVGID_32_" gradientUnits="userSpaceOnUse" x1="20.95" y1="29.83" x2="73.17" y2="29.83" gradientTransform="matrix(1 0 0 -1 0 82)">
				<stop  offset="0" style="stop-color:#BF1010"/>
				<stop  offset="2.000000e-02" style="stop-color:#C11212"/>
				<stop  offset="0.24" style="stop-color:#D22323"/>
				<stop  offset="0.49" style="stop-color:#DC2D2D"/>
				<stop  offset="0.79" style="stop-color:#DF3030"/>
				<stop  offset="0.84" style="stop-color:#DC2E2E"/>
				<stop  offset="0.88" style="stop-color:#D22626"/>
				<stop  offset="0.92" style="stop-color:#C11919"/>
				<stop  offset="0.95" style="stop-color:#A90808"/>
				<stop  offset="0.97" style="stop-color:#9F0000"/>
				<stop  offset="1" style="stop-color:#DF3030"/>
			</linearGradient>
			<path class="st34" d="M27.3,50.9l-2,1.4c-0.6,0.5-1.3,0.9-2,1.4s-1.5,1-2.4,1.6h2c0.9-0.6,1.6-1.1,2.4-1.6l2-1.4
				c0.7-0.5,1.3-0.9,2-1.4l2.4-1.7l-2,0.1L27.3,50.9z"/>
			<g>
				<g class="st35">
					
						<linearGradient id="SVGID_33_" gradientUnits="userSpaceOnUse" x1="20.91" y1="29.5692" x2="73.17" y2="29.5692" gradientTransform="matrix(1 0 0 -1 0 82)">
						<stop  offset="0" style="stop-color:#404040"/>
						<stop  offset="0.79" style="stop-color:#FFFFFF"/>
						<stop  offset="0.97" style="stop-color:#FFFFFF"/>
						<stop  offset="1" style="stop-color:#FFFFFF"/>
					</linearGradient>
					<path class="st36" d="M22.9,37.8L22.9,37.8c-1.1,0-2,0.9-2,2l0,0v30.9l0,0c0,1.1,0.9,2,1.9,2l0,0c25.6-0.2,50.3-8.7,50.3-4.6
						V33.3C73.2,29.2,48.5,37.6,22.9,37.8z"/>
				</g>
			</g>
		</g>
	</g>
</g>
</svg>
