<svg xmlns="http://www.w3.org/2000/svg" viewBox="0 0 101.25 101.25"><defs><style>.cls-1{fill:#fff;}.cls-2{fill:#f9d85e;}.cls-3{fill:#ef7730;}</style></defs><g id="Layer_2" data-name="Layer 2"><g id="Layer_6" data-name="Layer 6"><circle class="cls-1" cx="50.62" cy="50.62" r="50.62"/><path class="cls-2" d="M55.12,62.31c-20.35-9.1-33-27.56-33.8-46.14a.93.93,0,0,0-1.55-.65A46.77,46.77,0,1,0,94.39,67.29.94.94,0,0,0,93.3,66,58.86,58.86,0,0,1,55.12,62.31Z"/><path class="cls-3" d="M96.61,42.19h0c0-.1,0-.19,0-.28h0c-.26-1.35-.57-2.68-.94-4l-.05-.18h0c-.17-.63-.37-1.25-.57-1.87l0-.14h0C94.52,34.46,94,33.2,93.5,32l0-.08h0c-.26-.59-.53-1.18-.82-1.76h0l0-.05c-.29-.6-.6-1.19-.92-1.78h0l0,0h0q-.5-.9-1-1.77l0-.05h0c-.33-.54-.66-1.07-1-1.59h0l-.12-.18h0c-.73-1.08-1.5-2.14-2.32-3.16L87,21.31h0c-.44-.53-.88-1.06-1.34-1.58h0c-.44-.5-.89-1-1.34-1.46l-.06-.06h0c-.41-.43-.84-.85-1.27-1.27h0l-.19-.18h0c-.44-.42-.89-.83-1.34-1.23l-.17-.14h0c-.46-.41-.94-.81-1.42-1.2h0l-.13-.1h0q-.77-.62-1.56-1.2l0,0h0c-.53-.39-1.08-.77-1.63-1.14h0c-1.1-.74-2.24-1.42-3.4-2.07h0L73,9.58c-.55-.3-1.12-.6-1.69-.88h0l-.22-.11h0C69.9,8,68.69,7.48,67.44,7l-.21-.08h0q-1-.36-2-.69h0C64.63,6,64,5.83,63.4,5.65l-.17-.05h0q-1-.27-2-.51h0c-.64-.15-1.28-.28-1.93-.41l-.13,0h0c-.68-.12-1.36-.23-2-.33h0C56,4.17,54.91,4.06,53.82,4l.53.05h0l1.25.13h0l1.18.15h0l1.1.17h0l1,.19h0l1,.23H60l.88.24.08,0,.82.26.09,0c.26.09.51.18.75.28l.12,0,.68.3.14.07.62.31.15.09.56.33.18.12.49.33.21.16.42.33.25.22.35.3.32.32c.08.08.17.16.25.25s.36.4.54.61a12.5,12.5,0,0,1,2.31,5c.86,3.59.71,7.31,1.53,10.9.14.6.29,1.19.44,1.77l.12.46c.13.44.25.88.38,1.31l.12.4c4.21,13.57,12.65,20,24,28.66a47.86,47.86,0,0,0,.58-7.43A46.78,46.78,0,0,0,96.61,42.19Z"/><path class="cls-2" d="M96.93,44.15c-1.66-3.82-1.66-3.82-46-19.84C28.61,16.24,24.46,8.46,40.62,4.94c.79-.17,1.58-.32,2.38-.45A46.79,46.79,0,0,1,96.93,44.15"/></g></g></svg>