<?xml version="1.0" encoding="utf-8"?>
<!-- Generator: Adobe Illustrator 24.3.0, SVG Export Plug-In . SVG Version: 6.00 Build 0)  -->
<svg version="1.1" id="Layer_1" xmlns="http://www.w3.org/2000/svg" xmlns:xlink="http://www.w3.org/1999/xlink" x="0px" y="0px"
	 viewBox="0 0 80 80" style="enable-background:new 0 0 80 80;" xml:space="preserve">
<style type="text/css">
	.st0{fill:#0E3CA5;}
	.st1{fill:#5493F7;}
	.st2{opacity:0.3;}
	.st3{fill:url(#SVGID_1_);fill-opacity:0;}
	.st4{opacity:6.000000e-02;fill:url(#SVGID_2_);enable-background:new    ;}
	.st5{opacity:0.13;fill:url(#SVGID_3_);enable-background:new    ;}
	.st6{opacity:0.19;fill:url(#SVGID_4_);enable-background:new    ;}
	.st7{opacity:0.25;fill:url(#SVGID_5_);enable-background:new    ;}
	.st8{opacity:0.31;fill:url(#SVGID_6_);enable-background:new    ;}
	.st9{opacity:0.38;fill:url(#SVGID_7_);enable-background:new    ;}
	.st10{opacity:0.44;fill:url(#SVGID_8_);enable-background:new    ;}
	.st11{opacity:0.5;fill:url(#SVGID_9_);enable-background:new    ;}
	.st12{opacity:0.56;fill:url(#SVGID_10_);enable-background:new    ;}
	.st13{opacity:0.63;fill:url(#SVGID_11_);enable-background:new    ;}
	.st14{opacity:0.69;fill:url(#SVGID_12_);enable-background:new    ;}
	.st15{opacity:0.75;fill:url(#SVGID_13_);enable-background:new    ;}
	.st16{opacity:0.81;fill:url(#SVGID_14_);enable-background:new    ;}
	.st17{opacity:0.88;fill:url(#SVGID_15_);enable-background:new    ;}
	.st18{opacity:0.94;fill:url(#SVGID_16_);enable-background:new    ;}
	.st19{fill:url(#SVGID_17_);}
	.st20{fill:url(#SVGID_18_);}
	.st21{fill:url(#SVGID_19_);}
	.st22{fill:url(#SVGID_20_);}
	.st23{fill:#FFFFFF;}
</style>
<g id="Layer_2_1_">
	<g id="Layer_1-2">
		<g id="Symbol">
			<path class="st0" d="M33.7,55.7c1.7,6.2,7.7,10.9,10.7,10.7c0.1,0,11.5-2.1,17.7-12.5c4.8-8.1,3.2-15.9-3.4-16
				C56.2,38,30.5,44,33.7,55.7"/>
			<path class="st0" d="M58,16.1L58,16.1c-8.5-7.2-20.3-8.9-30.4-4.4c-0.6,0.3-1.2,0.6-1.8,0.9c-0.4,0.2-0.8,0.4-1.2,0.7h0.1
				c-1.1,0.8-2.2,1.8-3,2.9C13.4,27.1,41.1,35,56,35.1C62.8,40,64.7,21.3,58,16.1z"/>
			<path class="st1" d="M29.2,16.3c-3.8,5.7-16.5,9.8-18.6,9.1l0,0l0.3-0.5c0.7-1.4,1.5-2.7,2.5-4c0.9-1.3,1.9-2.4,3-3.5
				c1.1-1.1,2.3-2.1,3.5-3c0.8-0.6,1.6-1.1,2.4-1.6c1.3-0.7,2.7-1.1,4.2-1.1C32.2,11.8,29.3,16.3,29.2,16.3"/>
			<path class="st1" d="M26.1,56.8c0.3,1.8,0,8.9-0.4,9.5c-0.3,0-1,0.1-2.9-1c-1-0.6-1.9-1.2-2.9-1.9c-2.5-1.8-4.7-4.1-6.6-6.6
				c-0.9-1.3-1.8-2.6-2.5-4c-0.7-1.4-1.4-2.9-1.9-4.3c-0.5-1.5-0.9-3.1-1.2-4.7c-0.5-3.3-0.5-6.6,0-9.8c0.3-1.6,0.6-3.2,1.2-4.7
				c0.1-0.3,0.2-0.6,0.3-0.9l0,0c2.2,2.9,4.7,5.6,6.9,8.5s4.9,7.4,5.4,8.4C25.3,51.3,25.8,55.1,26.1,56.8"/>
			<path class="st1" d="M68.3,38.9c0,3.8-0.7,7.6-2.1,11.2c-3.6,3.8-27.7-5.6-28-5.7c-3.3-1.4-13.3-5.8-14.2-12.8
				c-1.3-10,18.9-16.9,27.8-17.2c1.1,0,4.3,0,6.2,1.6C64.6,21.8,68.4,30.1,68.3,38.9"/>
			<path class="st1" d="M52,65.9c-2.6,1.2-5.5,0.3-4.8-2.2c1.5-4.9,14.1-10,16.9-10.2c0.3,0,0.5,0.2,0.3,0.5
				C61.5,59,57.2,63.1,52,65.9"/>
		</g>
		<g class="st2">
			
				<linearGradient id="SVGID_1_" gradientUnits="userSpaceOnUse" x1="20.9057" y1="21.6796" x2="79.5" y2="21.6796" gradientTransform="matrix(1 0 0 -1 0 80)">
				<stop  offset="0.38" style="stop-color:#000000;stop-opacity:0"/>
				<stop  offset="1" style="stop-color:#000000;stop-opacity:0"/>
			</linearGradient>
			<path class="st3" d="M22.9,38.1c-1-0.1-1.9,0.6-2,1.6c0,0,0,0,0,0v30.9c-0.1,1.2,0.8,2.2,2,2.3c0,0,0,0,0,0
				c28.7,0.4,56.6,8.6,56.6,4.4V42.5C79.5,38.3,51.6,38.1,22.9,38.1z"/>
			
				<linearGradient id="SVGID_2_" gradientUnits="userSpaceOnUse" x1="20.9057" y1="21.8346" x2="79.1" y2="21.8346" gradientTransform="matrix(1 0 0 -1 0 80)">
				<stop  offset="0.38" style="stop-color:#000000;stop-opacity:6.000000e-02"/>
				<stop  offset="1" style="stop-color:#000000;stop-opacity:0"/>
			</linearGradient>
			<path class="st4" d="M22.9,38.1c-1-0.1-1.9,0.6-2,1.6c0,0,0,0,0,0v30.9c-0.1,1.2,0.8,2.2,2,2.3c0,0,0,0,0,0
				c28.5,0.2,56.2,8.2,56.2,4.1c0-10.2,0-24.2,0-34.4C79.1,38.6,51.4,38.1,22.9,38.1z"/>
			
				<linearGradient id="SVGID_3_" gradientUnits="userSpaceOnUse" x1="20.9963" y1="21.9751" x2="78.8" y2="21.9751" gradientTransform="matrix(1 0 0 -1 0 80)">
				<stop  offset="0.38" style="stop-color:#000000;stop-opacity:0.13"/>
				<stop  offset="1" style="stop-color:#000000;stop-opacity:0"/>
			</linearGradient>
			<path class="st5" d="M22.9,38.1c-1,0-1.8,0.7-1.9,1.7v30.9c-0.1,1.2,0.8,2.2,2,2.3c28.3,0.2,55.8,7.8,55.8,3.9c0-10,0-23.9,0-34
				C78.7,38.9,51.2,38.2,22.9,38.1z"/>
			
				<linearGradient id="SVGID_4_" gradientUnits="userSpaceOnUse" x1="20.9963" y1="22.121" x2="78.4" y2="22.121" gradientTransform="matrix(1 0 0 -1 0 80)">
				<stop  offset="0.38" style="stop-color:#000000;stop-opacity:0.19"/>
				<stop  offset="1" style="stop-color:#000000;stop-opacity:0"/>
			</linearGradient>
			<path class="st6" d="M22.9,38.1c-1,0-1.8,0.7-1.9,1.7v30.9c-0.1,1.2,0.8,2.2,2,2.3c28.1,0.2,55.4,7.4,55.4,3.6
				c0-9.9,0-23.6,0-33.5C78.3,39.2,51,38.2,22.9,38.1z"/>
			
				<linearGradient id="SVGID_5_" gradientUnits="userSpaceOnUse" x1="20.9963" y1="22.2585" x2="78" y2="22.2585" gradientTransform="matrix(1 0 0 -1 0 80)">
				<stop  offset="0.38" style="stop-color:#000000;stop-opacity:0.25"/>
				<stop  offset="1" style="stop-color:#000000;stop-opacity:0"/>
			</linearGradient>
			<path class="st7" d="M22.9,38.1c-1,0-1.8,0.7-1.9,1.7v30.9c-0.1,1.2,0.8,2.2,2,2.3c27.9,0.2,55,7,55,3.3c0-9.8,0-23.3,0-33.1
				C77.9,39.5,50.8,38.2,22.9,38.1z"/>
			
				<linearGradient id="SVGID_6_" gradientUnits="userSpaceOnUse" x1="20.9957" y1="22.412" x2="77.61" y2="22.412" gradientTransform="matrix(1 0 0 -1 0 80)">
				<stop  offset="0.38" style="stop-color:#000000;stop-opacity:0.31"/>
				<stop  offset="1" style="stop-color:#000000;stop-opacity:0"/>
			</linearGradient>
			<path class="st8" d="M22.9,38.1c-1,0-1.8,0.7-1.9,1.7v30.9c-0.1,1.2,0.8,2.2,2,2.2c0,0,0,0,0,0c27.7,0.2,54.6,6.6,54.6,3.1
				c0-9.6,0-23,0-32.7C77.5,39.8,50.7,38.2,22.9,38.1z"/>
			
				<linearGradient id="SVGID_7_" gradientUnits="userSpaceOnUse" x1="20.9957" y1="22.5572" x2="77.22" y2="22.5572" gradientTransform="matrix(1 0 0 -1 0 80)">
				<stop  offset="0.38" style="stop-color:#000000;stop-opacity:0.38"/>
				<stop  offset="1" style="stop-color:#000000;stop-opacity:0"/>
			</linearGradient>
			<path class="st9" d="M22.9,38.1c-1,0-1.8,0.7-1.9,1.7v30.9c-0.1,1.2,0.8,2.2,2,2.2c0,0,0,0,0,0c27.5,0.1,54.2,6.2,54.2,2.8
				c0-9.5,0-22.8,0-32.2C77.1,40.1,50.5,38.2,22.9,38.1z"/>
			
				<linearGradient id="SVGID_8_" gradientUnits="userSpaceOnUse" x1="20.9957" y1="22.7023" x2="76.82" y2="22.7023" gradientTransform="matrix(1 0 0 -1 0 80)">
				<stop  offset="0.38" style="stop-color:#000000;stop-opacity:0.44"/>
				<stop  offset="1" style="stop-color:#000000;stop-opacity:0"/>
			</linearGradient>
			<path class="st10" d="M22.9,38.1c-1,0-1.8,0.7-1.9,1.7v30.9c-0.1,1.2,0.8,2.2,2,2.2c0,0,0,0,0,0c27.3,0.1,53.8,5.8,53.8,2.5
				c0-9.3,0-22.5,0-31.8C76.7,40.4,50.2,38.2,22.9,38.1z"/>
			
				<linearGradient id="SVGID_9_" gradientUnits="userSpaceOnUse" x1="20.9957" y1="22.8421" x2="76.43" y2="22.8421" gradientTransform="matrix(1 0 0 -1 0 80)">
				<stop  offset="0.38" style="stop-color:#000000;stop-opacity:0.5"/>
				<stop  offset="1" style="stop-color:#000000;stop-opacity:0"/>
			</linearGradient>
			<path class="st11" d="M22.9,38.1c-1,0-1.8,0.7-1.9,1.6v30.9c-0.1,1.2,0.8,2.2,2,2.2c0,0,0,0,0,0c27.1,0.1,53.4,5.4,53.4,2.3
				c0-9.2,0-22.2,0-31.4C76.3,40.7,50,38.2,22.9,38.1z"/>
			
				<linearGradient id="SVGID_10_" gradientUnits="userSpaceOnUse" x1="20.9957" y1="22.9799" x2="76" y2="22.9799" gradientTransform="matrix(1 0 0 -1 0 80)">
				<stop  offset="0.38" style="stop-color:#000000;stop-opacity:0.56"/>
				<stop  offset="1" style="stop-color:#000000;stop-opacity:0"/>
			</linearGradient>
			<path class="st12" d="M22.9,38.1c-1,0-1.8,0.7-1.9,1.6v30.9c-0.1,1.2,0.8,2.2,2,2.2c0,0,0,0,0,0c26.9,0.1,53,5,53,2
				c0-9,0-21.9,0-30.9C76,41,49.8,38.2,22.9,38.1z"/>
			
				<linearGradient id="SVGID_11_" gradientUnits="userSpaceOnUse" x1="20.9957" y1="23.1253" x2="75.64" y2="23.1253" gradientTransform="matrix(1 0 0 -1 0 80)">
				<stop  offset="0.38" style="stop-color:#000000;stop-opacity:0.63"/>
				<stop  offset="1" style="stop-color:#000000;stop-opacity:0"/>
			</linearGradient>
			<path class="st13" d="M22.9,38.1c-1,0-1.8,0.7-1.9,1.6v30.9c-0.1,1.2,0.8,2.2,2,2.2c0,0,0,0,0,0c26.7,0.1,52.7,4.6,52.6,1.7
				c0-8.9,0-21.6,0-30.5C75.6,41.2,49.7,38.2,22.9,38.1z"/>
			
				<linearGradient id="SVGID_12_" gradientUnits="userSpaceOnUse" x1="20.9957" y1="23.2682" x2="75.24" y2="23.2682" gradientTransform="matrix(1 0 0 -1 0 80)">
				<stop  offset="0.38" style="stop-color:#000000;stop-opacity:0.69"/>
				<stop  offset="1" style="stop-color:#000000;stop-opacity:0"/>
			</linearGradient>
			<path class="st14" d="M22.9,38.1c-1-0.1-1.8,0.7-1.9,1.6v30.9c-0.1,1.2,0.8,2.2,2,2.2c0,0,0,0,0,0c26.5,0.1,52.2,4.2,52.2,1.5
				c0-8.8,0-21.3,0-30.1C75.2,41.5,49.5,38.2,22.9,38.1z"/>
			
				<linearGradient id="SVGID_13_" gradientUnits="userSpaceOnUse" x1="20.9957" y1="23.4091" x2="74.84" y2="23.4091" gradientTransform="matrix(1 0 0 -1 0 80)">
				<stop  offset="0.38" style="stop-color:#000000;stop-opacity:0.75"/>
				<stop  offset="1" style="stop-color:#000000;stop-opacity:0"/>
			</linearGradient>
			<path class="st15" d="M22.9,38.1c-1-0.1-1.8,0.7-1.9,1.6v30.9c-0.1,1.2,0.8,2.2,2,2.2c0,0,0,0,0,0c26.3,0.1,51.9,3.8,51.8,1.2
				c0-8.6,0-21,0-29.7C74.8,41.8,49.2,38.2,22.9,38.1z"/>
			
				<linearGradient id="SVGID_14_" gradientUnits="userSpaceOnUse" x1="20.9957" y1="23.5493" x2="74.45" y2="23.5493" gradientTransform="matrix(1 0 0 -1 0 80)">
				<stop  offset="0.38" style="stop-color:#000000;stop-opacity:0.81"/>
				<stop  offset="1" style="stop-color:#000000;stop-opacity:0"/>
			</linearGradient>
			<path class="st16" d="M22.9,38.1c-1,0-1.8,0.7-1.9,1.6v30.9c-0.1,1.2,0.8,2.2,2,2.2c0,0,0,0,0,0c26.1,0.1,51.5,3.4,51.4,0.9
				c0-8.5,0-20.8,0-29.2C74.4,42.1,49.1,38.2,22.9,38.1z"/>
			
				<linearGradient id="SVGID_15_" gradientUnits="userSpaceOnUse" x1="20.9957" y1="23.6889" x2="74" y2="23.6889" gradientTransform="matrix(1 0 0 -1 0 80)">
				<stop  offset="0.38" style="stop-color:#000000;stop-opacity:0.88"/>
				<stop  offset="1" style="stop-color:#000000;stop-opacity:0"/>
			</linearGradient>
			<path class="st17" d="M22.9,38.1c-1,0-1.8,0.7-1.9,1.6v30.9c-0.1,1.2,0.8,2.2,2,2.2c0,0,0,0,0,0c25.8,0.1,51,3,51,0.7
				c0-8.3,0-20.5,0-28.8C74,42.4,48.9,38.2,22.9,38.1z"/>
			
				<linearGradient id="SVGID_16_" gradientUnits="userSpaceOnUse" x1="20.9957" y1="23.8246" x2="73.66" y2="23.8246" gradientTransform="matrix(1 0 0 -1 0 80)">
				<stop  offset="0.38" style="stop-color:#000000;stop-opacity:0.94"/>
				<stop  offset="1" style="stop-color:#000000;stop-opacity:0"/>
			</linearGradient>
			<path class="st18" d="M22.9,38.1c-1,0-1.8,0.7-1.9,1.6v30.9c-0.1,1.2,0.8,2.2,2,2.2c0,0,0,0,0,0c25.7,0.1,50.7,2.6,50.7,0.4
				c0-8.2,0-20.2,0-28.3C73.6,42.7,48.7,38.2,22.9,38.1z"/>
			
				<linearGradient id="SVGID_17_" gradientUnits="userSpaceOnUse" x1="20.9957" y1="23.9512" x2="73.26" y2="23.9512" gradientTransform="matrix(1 0 0 -1 0 80)">
				<stop  offset="0.38" style="stop-color:#000000"/>
				<stop  offset="1" style="stop-color:#000000;stop-opacity:0"/>
			</linearGradient>
			<path class="st19" d="M22.9,38.1c-1,0-1.8,0.7-1.9,1.6v30.9c-0.1,1.2,0.8,2.2,2,2.2c0,0,0,0,0,0c25.5,0.1,50.3,2.2,50.3,0.1V45.1
				C73.2,43,48.5,38.4,22.9,38.1z"/>
		</g>
		
			<linearGradient id="SVGID_18_" gradientUnits="userSpaceOnUse" x1="20.9911" y1="11.7067" x2="73.17" y2="11.7067" gradientTransform="matrix(1 0 0 -1 0 80)">
			<stop  offset="0" style="stop-color:#004080"/>
			<stop  offset="0.32" style="stop-color:#004383"/>
			<stop  offset="0.59" style="stop-color:#004D8D"/>
			<stop  offset="0.82" style="stop-color:#005E9D"/>
			<stop  offset="1" style="stop-color:#0070AF"/>
		</linearGradient>
		<path class="st20" d="M21,70.7c-0.1,1.2,0.7,2.2,1.9,2.3c25.6,0.2,50.3-1,50.3-4.8C73.2,56.5,21,70.7,21,70.7z"/>
		
			<linearGradient id="SVGID_19_" gradientUnits="userSpaceOnUse" x1="47.0806" y1="16.45" x2="47.0806" y2="7.02" gradientTransform="matrix(1 0 0 -1 0 80)">
			<stop  offset="0.35" style="stop-color:#009FDF"/>
			<stop  offset="0.65" style="stop-color:#009DDD"/>
			<stop  offset="0.75" style="stop-color:#0096D6"/>
			<stop  offset="0.83" style="stop-color:#008BCB"/>
			<stop  offset="0.89" style="stop-color:#007ABA"/>
			<stop  offset="0.94" style="stop-color:#0064A4"/>
			<stop  offset="0.99" style="stop-color:#004989"/>
			<stop  offset="1" style="stop-color:#004080"/>
		</linearGradient>
		<path class="st21" d="M21,70.7L21,70.7c-0.1,1.2,0.7,2.2,1.9,2.3c25.6,0.2,50.2-0.6,50.3-4.8C73.2,56.5,21,70.7,21,70.7z
			 M22.9,72.8h-0.2c-0.8-0.1-1.5-0.7-1.7-1.5C21.2,72.2,22,72.8,22.9,72.8c25.5-0.2,49.8-8,49.8-4.6S48.5,73,22.9,72.8z"/>
		
			<linearGradient id="SVGID_20_" gradientUnits="userSpaceOnUse" x1="20.91" y1="27.5692" x2="73.17" y2="27.5692" gradientTransform="matrix(1 0 0 -1 0 80)">
			<stop  offset="0" style="stop-color:#009FDF"/>
			<stop  offset="2.000000e-02" style="stop-color:#02A1E1"/>
			<stop  offset="0.24" style="stop-color:#13B2F2"/>
			<stop  offset="0.49" style="stop-color:#1DBCFC"/>
			<stop  offset="0.79" style="stop-color:#20BFFF"/>
			<stop  offset="0.84" style="stop-color:#1EBCFC"/>
			<stop  offset="0.88" style="stop-color:#19B2F2"/>
			<stop  offset="0.92" style="stop-color:#11A1E1"/>
			<stop  offset="0.95" style="stop-color:#0589C9"/>
			<stop  offset="0.97" style="stop-color:#007FBF"/>
			<stop  offset="1" style="stop-color:#20BFFF"/>
		</linearGradient>
		<path class="st22" d="M22.9,37.8L22.9,37.8c-1.1,0-2,0.9-2,2v30.9c0,1.1,0.9,2,1.9,2c25.6-0.2,50.3-8.7,50.3-4.6V33.3
			C73.2,29.2,48.5,37.6,22.9,37.8z"/>
		<path class="st23" d="M45.8,49c-0.1,0-0.1,0.1-0.2,0.1l0,0c1.2,0.6,2,1.9,2.1,3.2c-0.1,1.5-0.8,2.9-2,3.7c0,0,0.1,0,0.1,0.1
			c0.1,0,0.2,0.1,0.3,0.2c1,0.4,2.1,0.5,3.2,0.3c1.1-0.2,2.2-0.7,3-1.5c1.1-1.2,1.7-2.8,1.7-4.4c-0.2-1.4-1.1-2.6-2.5-3
			C49.5,47.3,47.4,47.8,45.8,49z M49.3,48.3c0,0,0,0.1,0,0.1S49.2,48.5,49.3,48.3C49.2,48.4,49.2,48.3,49.3,48.3
			C49.3,48.3,49.3,48.3,49.3,48.3z M49.1,48.7c0,0,0.1,0,0.1,0c0,0,0,0,0,0.1s0,0,0,0s0,0,0.1,0s0,0,0.1,0s0,0,0.1,0s0,0,0,0.1
			c-0.1,0-0.1,0-0.2,0c-0.1,0-0.1,0-0.2,0C49.1,48.9,49.1,48.8,49.1,48.7C49.1,48.8,49.1,48.8,49.1,48.7z M49.4,48.7
			c0,0-0.1,0-0.1-0.1l0,0c0,0,0-0.1,0-0.1l0,0C49.3,48.6,49.3,48.6,49.4,48.7C49.3,48.7,49.4,48.7,49.4,48.7L49.4,48.7z M49.1,48.5
			C49.1,48.5,49.3,48.5,49.1,48.5c0.1,0,0.1,0.1,0,0.1c0,0.1-0.1,0-0.1,0C49.1,48.6,49.1,48.5,49.1,48.5L49.1,48.5z M48.8,48.7
			C48.8,48.7,48.8,48.7,48.8,48.7c0.1,0.1,0.1,0,0.1,0c0,0,0,0.1,0,0.1c0,0-0.1,0.1-0.1,0S48.8,48.8,48.8,48.7L48.8,48.7z M46.4,49
			C46.4,49,46.4,49,46.4,49l-0.3,0.1h-0.2c0.1-0.1,0.2-0.1,0.3-0.3c0.1,0,0.2-0.1,0.3-0.1c0,0,0.1-0.1,0.1-0.1c0.1,0,0.1,0,0.2-0.1
			h0.1c0.1,0,0.1-0.1,0.1-0.1c0.1,0,0.2,0,0.3,0c0.1,0,0.2,0,0.2,0.1s0,0,0,0.1c0,0,0.1,0.1,0.1,0.1c0,0,0,0,0,0.1l0,0
			c0,0-0.1,0.1-0.1,0.1c0,0-0.1,0.1-0.1,0.1c0,0,0-0.1,0-0.2s-0.1,0-0.1,0 M47.3,48.8l-0.1,0.1c-0.1,0-0.1,0-0.2,0h-0.3
			c0,0-0.1,0-0.1,0S46.4,49,46.4,49L47.3,48.8z M46.7,49.9c0,0-0.1,0-0.1,0S46.6,49.9,46.7,49.9L46.7,49.9
			C46.8,49.8,46.7,49.9,46.7,49.9L46.7,49.9z M46.9,49.8L46.9,49.8C46.8,49.7,46.9,49.7,46.9,49.8H47C47,49.8,46.9,49.8,46.9,49.8
			L46.9,49.8z M48.4,50.3C48.4,50.3,48.3,50.3,48.4,50.3c-0.1-0.1-0.2-0.1-0.1-0.2h0.1C48.4,50.2,48.5,50.3,48.4,50.3L48.4,50.3z
			 M51.4,48L51.4,48c0.1,0,0.1-0.1,0.2,0s0.1,0,0.1,0c0,0,0.1,0.1,0.1,0.1c0,0,0,0,0,0.1h-0.1c-0.1,0-0.1,0-0.1,0s0,0-0.1,0
			s0,0-0.1,0s-0.1,0-0.1,0S51.4,48.1,51.4,48L51.4,48z M51.4,51.4c0.1,0,0.1-0.1,0.2,0s0,0,0,0H51.4C51.4,51.4,51.3,51.4,51.4,51.4
			c-0.1,0-0.1,0-0.1,0S51.3,51.4,51.4,51.4C51.3,51.4,51.4,51.3,51.4,51.4L51.4,51.4z M51.3,49.7C51.3,49.7,51.4,49.6,51.3,49.7
			C51.4,49.6,51.4,49.6,51.3,49.7C51.4,49.7,51.4,49.7,51.3,49.7C51.3,49.8,51.4,49.7,51.3,49.7L51.3,49.7z M51.4,49.5
			c0,0,0-0.1,0-0.2s0.1-0.1,0.1,0S51.4,49.4,51.4,49.5c0.1-0.1,0.2-0.1,0.2-0.1s0,0.1,0,0.1c0,0,0,0,0,0
			C51.5,49.4,51.5,49.5,51.4,49.5L51.4,49.5z M51.6,51.4C51.6,51.4,51.6,51.4,51.6,51.4C51.7,51.4,51.7,51.4,51.6,51.4
			C51.7,51.4,51.6,51.4,51.6,51.4L51.6,51.4z M51.3,49.2C51.3,49.2,51.4,49.2,51.3,49.2c0,0.2,0,0.2-0.1,0.2s-0.1,0-0.1,0
			s0,0.1-0.1,0.1s0.1,0,0.1,0s0,0,0.1,0s0,0,0.1,0s0,0-0.1-0.1s0.1,0,0.1,0s0,0,0,0h-0.1c0,0.1,0.1,0,0.1,0.1s0,0,0,0.1
			c0,0.1-0.1,0.1-0.1,0.2c-0.1,0.1,0,0.1-0.1,0.2S51,50.2,51,50.3c0,0.1,0,0.1,0,0.2c0,0.1-0.1,0.1-0.2,0.2c0,0,0,0.1,0,0.1
			c0,0,0,0,0,0.1c0.1,0.1,0.1,0.2,0,0.2c0,0.1-0.1,0-0.1,0s0-0.1,0-0.1c0,0-0.1-0.1-0.1-0.1c-0.1,0-0.1,0-0.2,0l-0.1,0.1h-0.1
			c-0.1,0-0.1,0-0.1,0c0,0-0.1,0.1-0.1,0.1c0,0.1-0.1,0.1-0.1,0.1c0,0,0,0.1,0.1,0.1c0,0,0.1,0.1,0.1,0.1c0,0,0.1,0,0.1,0
			c0.1,0,0.2-0.1,0.3-0.1s-0.1,0.2,0,0.2s0.2,0,0.3,0s0.1,0.1,0.1,0.2s0,0.1,0,0.1c0,0,0.1,0,0.1,0l0.1,0c0,0,0.1,0,0.1,0
			c0,0,0.1,0,0.1-0.1c0,0,0,0,0,0l0,0l0,0c0,0,0-0.1,0.1-0.1c0.1,0,0.2-0.1,0.3-0.1c0,0,0,0,0.1,0s0,0,0,0.1l-0.1,0.1
			c0.1,0,0.1-0.1,0.2-0.1c0-0.1,0,0,0.1,0s0,0,0.1,0s0.1,0.1,0.2,0.1c0,0,0.1,0,0.1,0.1l0.1,0.1c0,0,0,0,0,0.1c0.1,0,0.1,0,0.2,0
			c0,0,0.1,0.1,0.1,0.1c0,0.1,0,0.1,0,0.2h0.1c0,0,0,0,0.1,0h0.2h0.1c0,0,0.1,0,0.1,0.1c0,0.1,0.1,0.1,0.1,0.2c0,0,0.1,0.1,0,0.1
			c0,0,0,0.1-0.1,0.1c0,0.1-0.1,0.2-0.1,0.2c-0.1,0.1-0.1,0.2-0.2,0.2c0,0,0,0.1,0,0.1c-0.1,0-0.1,0.1-0.1,0.1
			c0,0.1-0.1,0.2-0.2,0.2c-0.1,0.1-0.1,0.1-0.2,0.2c-0.1,0.1-0.1,0.1-0.2,0.2l-0.2,0.2c0,0-0.1,0.1-0.1,0.1c0,0-0.1,0-0.1,0.1
			s-0.2,0.1-0.2,0.2l-0.2,0.2c-0.1,0.1-0.2,0.1-0.3,0.2c-0.1,0.1-0.1,0.1-0.2,0.2c-0.1,0.1-0.1,0.2-0.2,0.3c0,0.1-0.1,0.1-0.1,0.2
			s0,0.1-0.1,0.1s0,0-0.1,0s0,0,0,0s0.1-0.1,0.1,0V56c0,0,0,0,0,0.1s0,0,0,0c0,0,0,0-0.1,0c0,0,0,0-0.1,0s0-0.1,0-0.1s0,0,0,0
			s0-0.1,0-0.2c-0.1,0,0-0.1,0-0.1s0-0.1,0-0.2s0.1-0.1,0.1-0.1s0.1,0,0.1-0.1s0,0,0,0s0.1-0.1,0.1-0.2c0-0.1,0.1-0.1,0.1-0.2
			l0.1-0.2c0,0,0,0,0-0.1v-0.1c0,0,0-0.1,0.1-0.1s0-0.1,0-0.1h0c0,0,0-0.1,0-0.1c0-0.1,0-0.1,0-0.2c0,0,0-0.1,0-0.1c0,0,0-0.1,0-0.1
			v-0.1c0,0-0.1,0-0.1-0.1c0,0,0-0.1-0.1-0.1s0-0.1,0-0.1s0-0.2-0.1-0.2s0-0.1,0-0.1c0,0,0-0.1,0-0.1c0,0,0-0.2,0-0.2s0-0.1,0-0.1
			c0,0,0.1-0.1,0.1-0.1c0-0.1,0-0.2-0.1-0.2c-0.1,0-0.1,0-0.1,0s0,0.1-0.1,0.1s0,0,0-0.1h-0.1c0,0-0.1,0-0.1,0c0,0,0-0.1-0.1-0.1
			s-0.1,0-0.1,0c-0.1,0-0.2,0-0.2-0.1c0,0-0.1,0-0.2,0c0,0-0.1,0-0.2,0c-0.2,0-0.4-0.1-0.4-0.3c0,0,0-0.1-0.1-0.1s-0.1,0-0.1,0
			c0,0-0.1-0.1-0.1-0.1c0,0-0.1,0-0.1-0.1c0,0-0.1-0.1-0.1-0.1c0,0,0,0-0.1-0.1s0-0.1-0.1-0.1s-0.1,0-0.1,0.1s0.1,0.1,0.1,0.1
			s0.1,0,0,0.1c0,0,0,0.1,0.1,0.1c0,0,0.1,0.1,0,0.1s-0.1-0.1-0.2-0.2c-0.1-0.1-0.1-0.1-0.1-0.2c0,0-0.1,0-0.1-0.1
			c0,0-0.1-0.1-0.1-0.1c0,0-0.1-0.1-0.1-0.1c0,0,0-0.1,0-0.1c0-0.1,0-0.2,0-0.3v-0.1c0,0,0,0,0-0.1s0,0,0,0s-0.2-0.3-0.3-0.5
			s-0.1-0.2-0.2-0.1c-0.1,0-0.2,0-0.4,0c0,0-0.1,0-0.1,0s-0.1,0-0.1,0c-0.1,0-0.1,0-0.2,0h-0.1l0.1-0.1c0.1,0,0.2-0.1,0.2-0.1
			c0.1,0,0.1,0,0.1,0s0,0,0-0.1c-0.1,0-0.1-0.1,0-0.2c0,0,0,0,0,0l0.1-0.1c0-0.1,0,0,0.1-0.1s0.1,0,0.1,0c0,0,0-0.1,0.1-0.1
			c0.1,0,0.1-0.1,0.2-0.1c0.1,0,0.2-0.1,0.3-0.1s0.1,0,0.1,0c0,0,0.1,0,0.1,0c0.1,0,0.2,0,0.3,0.1s0.2,0,0.3,0c0,0,0.1,0,0.1,0
			c0.1,0,0.1,0,0.2,0c0.1,0,0.2,0,0.3,0c0.1,0,0.1,0,0.2-0.1s0-0.1-0.1-0.1s0-0.1,0-0.1s0.1-0.1,0.1,0s0.1,0,0.1,0.1l0.1,0.1
			c0.1,0,0.2,0,0.2,0.1C50,49,50,49,49.9,49.1c0,0,0,0.1,0,0.1s-0.1,0.1-0.1,0.2s-0.1,0.1,0,0.1h0.1h0.1c0.1,0,0.1,0,0.2,0
			c0.1,0,0.1,0,0.2,0s0.1,0,0.1,0.1s0-0.2,0-0.2s-0.1,0-0.1-0.1s0-0.1,0-0.1s-0.1,0-0.1-0.1s0-0.1,0.1-0.1c0.1,0,0.2,0,0.3,0
			c0.1,0,0.1,0,0.1,0s0.1,0,0.1,0C50.9,49,51,49,51,49c0.1,0,0.2,0,0.2,0c0,0,0.1,0,0.1,0c0.1,0,0.1,0,0.1,0.1
			C51.5,49.2,51.4,49.2,51.3,49.2L51.3,49.2L51.3,49.2z M51.1,51.4c0,0-0.1,0-0.1,0c-0.1,0-0.2,0-0.2-0.1c0,0-0.1,0-0.1-0.1
			s0.1,0,0.1,0C50.9,51.3,51,51.3,51.1,51.4L51.1,51.4z M50.1,49.1C50.1,49.1,50.1,49.1,50.1,49.1c-0.1,0.1-0.1,0.1-0.2,0.1l0,0H50
			C50.1,49.1,50.1,49.1,50.1,49.1L50.1,49.1z M49.7,48l0.1-0.1c0,0,0.1,0,0.2,0c0.1,0,0.2,0,0.3,0s0,0,0.1,0c0,0,0.1,0,0.2,0
			c0.1,0,0.1,0,0.2,0c0,0,0.1,0.1,0.1,0.1c0,0,0,0,0.1,0s0.1,0,0.1,0s0,0,0,0.1s0,0.1,0.1,0.1s0,0.1,0,0.1c0,0,0,0.1,0,0.1
			c0,0,0,0,0.1,0.1c0,0,0.1,0,0.1,0.1c0,0.1-0.1,0.2-0.2,0.2c-0.1,0-0.2,0-0.2,0c-0.1,0-0.2-0.1-0.3-0.1c0,0-0.1-0.1-0.1-0.1
			s-0.1,0-0.1-0.1s0-0.1,0-0.1s-0.1,0-0.2,0H50c0,0-0.1,0-0.2,0 M49.8,48.4L49.8,48.4c-0.1,0.1,0.1,0,0.2,0.1c0.1,0,0.2,0,0.3,0
			c0.1,0,0.1,0,0.1,0.1c0,0,0.1,0.1,0.1,0.1h0.2c0,0,0,0,0,0.1s-0.1,0-0.1,0s0,0.1,0,0.1s0,0.1-0.1,0.1s-0.1,0-0.1,0s-0.3,0.1-0.3,0
			s0.1-0.1,0.1-0.1s0,0-0.1-0.1H50c-0.1,0-0.1,0-0.2-0.1h-0.1c0,0,0,0-0.1-0.1c0,0-0.1-0.1-0.1-0.1c-0.1,0-0.1,0-0.1-0.1v-0.1
			c0,0,0,0-0.1,0s0,0,0,0s-0.1,0-0.1-0.1s0.1,0,0.1,0c0,0,0.1-0.1,0.1-0.1c0,0,0-0.1,0-0.1l0.2,0l0.1,0L49.8,48.4z M49.6,48L49.6,48
			c-0.1,0-0.2,0.1-0.2,0.1c0,0-0.1,0-0.1,0.1c0,0,0,0,0,0s-0.1,0-0.1,0c0-0.1,0.1-0.1,0.1-0.2C49.4,48,49.6,47.9,49.6,48z
			 M52.2,44.2c-0.1,0-0.1-0.1-0.1-0.2c0-0.1,0-0.2,0.1-0.3l0.4-0.7c0,0,0.2-0.2,0.3-0.3c0.1,0,0.1,0,0.2,0c0.1,0,0.1,0,0.2,0
			c0,0,0.2,0.1,0.2,0.3c-0.2,0.4-0.4,0.7-0.6,1c0,0-0.2,0.3-0.4,0.2L52.2,44.2z M54.2,48c0.9,1.1,1.3,2.4,1.3,3.8
			c0,4.8-3.8,9.5-9.9,10.6c0.4-0.2,0.8-0.3,1.3-0.5c1-0.4,2-0.9,2.9-1.5c1-0.6,1.9-1.4,2.5-2.4c0.8-1.1,1.3-2.3,1.6-3.6
			c0.1-0.8,0.2-1.7,0.2-2.5c0-1.1,0-2.2,0-3.2L54.2,48z M50.5,50c0,0-0.1,0.2-0.2,0.2s0,0,0-0.1s0-0.1,0-0.1S50.4,50,50.5,50z
			 M39.3,44.6c-0.2-0.2-0.2-0.4-0.4-0.6c0.2-0.1,0.2-0.2,0.4-0.3c0,0,0.1,0,0.2,0c0.1,0.1,0.2,0.3,0.3,0.4c0,0,0,0.1-0.1,0.1
			C39.6,44.4,39.4,44.5,39.3,44.6z M50.7,50.1c0,0-0.1,0-0.1,0s-0.2,0-0.1-0.1C50.6,50,50.6,50,50.7,50.1C50.6,50,50.8,50,50.7,50.1
			z M50.4,49.8c0,0,0,0.1,0.1,0.1h-0.2c0,0-0.2,0-0.1,0c0,0,0.1,0,0.2,0c0,0-0.1,0-0.1-0.1S50.4,49.8,50.4,49.8z M51,49.9
			c0,0-0.1,0-0.2,0l0,0C50.8,50,50.8,50,51,49.9C51,50,51,49.9,51,49.9L51,49.9z M45.8,42.7L45,42.8l0.5-0.8L45.8,42.7z M40.7,51.8
			c0.1,0,0-0.1,0-0.1v-0.1c0,0,0-0.1,0.1-0.1s0.1,0,0.1,0s-0.1,0.1,0,0.1s0,0,0,0.1S40.9,51.9,40.7,51.8
			C40.7,51.9,40.8,51.9,40.7,51.8C40.7,51.9,40.7,51.8,40.7,51.8z M40,50.7h-0.1c0,0,0-0.1,0-0.1s0.2,0,0.3,0c0,0,0,0,0-0.1
			c0,0,0,0,0.1,0s0-0.1,0.1-0.1c0.1-0.1,0.1-0.1,0.2-0.2h0.1c0,0,0,0.1-0.1,0.1c0,0-0.1,0-0.1,0s-0.1,0-0.1,0.1s0,0,0,0l0,0
			c0,0,0.1,0,0.1,0h0.2c0.1,0,0.1,0,0.1,0s-0.2,0-0.2,0.1s-0.1,0-0.2,0.1S40.1,50.7,40,50.7C40,50.7,40,50.7,40,50.7z M40.2,50.7
			C40.2,50.7,40.1,50.7,40.2,50.7S40.2,50.7,40.2,50.7L40.2,50.7z M46.7,60.7c0.2,0,0.5-0.1,0.7-0.2l0.4-0.2c0.1,0,0.2-0.1,0.3-0.2
			s0.3-0.2,0.4-0.2h0.2c0.1,0,0.1,0,0.1,0s0-0.1-0.1-0.1c0,0-0.1,0-0.1,0h-0.2c-0.1,0-0.1,0-0.2,0.1h-0.2c-0.2,0-0.4,0-0.7,0H47
			c-0.1,0-0.2,0-0.4,0c-0.2-0.1-0.4-0.1-0.6-0.1c-0.1,0-0.2,0-0.3-0.1h-0.4c-0.2,0-0.4,0-0.7,0.1c-0.1,0-0.1,0-0.2,0.1
			c0,0-0.1,0-0.1,0c-0.1,0-0.3,0-0.4,0c0,0-0.2,0-0.1-0.1l0.1-0.1c0.1-0.1,0.2-0.1,0.3-0.1h0.2h0.1l0.3,0c0.2,0,0.5-0.1,0.7-0.2
			c0.1,0,0.2-0.1,0.4-0.1c0.1,0,0.1-0.1,0.2-0.1h0.2c0.1,0,0.1-0.1,0.2-0.1c0.1,0,0.1,0,0.2,0L47,59c0.2-0.1,0.4-0.2,0.7-0.3
			c0.1,0,0.2-0.1,0.3-0.2c0.1,0,0.2-0.1,0.3-0.2c0.1-0.1,0.2-0.1,0.3-0.2c0.1,0,0.2-0.1,0.3-0.2C49,58,48.8,58,48.7,58
			c-0.1,0-0.2,0-0.3,0c-0.1,0-0.2,0.1-0.3,0.1h-0.3c-0.1,0-0.2,0-0.3,0c-0.1,0-0.3,0-0.4,0s-0.4,0.1-0.7,0.1c-0.1,0-0.2,0.1-0.3,0.1
			c-0.1,0-0.2,0-0.3,0.1c-0.2,0.1-0.5,0.2-0.7,0.4s-0.4,0.3-0.5,0.4s-0.1,0.2-0.2,0.2c0,0-0.1,0.1-0.1,0.1c0,0-0.1,0-0.1,0.1
			c-0.1,0.1-0.2,0.1-0.3,0.1c-0.1,0-0.1,0.1-0.1,0.1h-0.2c-0.1,0-0.2,0-0.2,0c0,0-0.1,0-0.1,0c-0.1,0-0.2,0-0.3,0s0.1-0.1,0.1-0.1
			s0-0.1,0-0.1l0,0c0,0,0.1-0.1,0.1-0.1v-0.1l0,0c0,0,0.1,0.1,0.1,0.1s-0.1,0.1-0.1,0.2s0.1,0,0.2,0h0.2c0.1,0,0.3-0.1,0.4-0.1
			l0.2-0.1c0,0,0-0.1,0.1-0.2c0.1-0.1,0.1-0.2,0.2-0.3c0-0.1,0-0.2-0.1-0.2h-0.2c-0.1,0-0.1,0-0.2,0c-0.1,0-0.2,0-0.3,0
			c-0.1,0-0.2,0.1-0.3,0.1c-0.1,0-0.2,0.1-0.3,0.2c0,0-0.1,0.1-0.1,0.1c0,0.1-0.1,0.1-0.1,0.2c0,0,0,0.1,0.1,0.1l0,0
			c0,0,0,0.1-0.1,0.1s0,0.1-0.1,0.2s-0.1,0-0.1,0c-0.1,0-0.2,0-0.3,0c-0.2,0-0.4-0.1-0.6-0.1c-0.2,0-0.4-0.1-0.6-0.2
			c-0.2-0.1-0.3-0.2-0.5-0.3c-0.1,0-0.2-0.1-0.3-0.1s-0.2,0-0.2,0s-0.1-0.1-0.2-0.1s0,0.1,0,0.1c0.1,0.1,0.1,0.1,0.2,0.1
			c0.2,0.1,0.3,0.2,0.5,0.3c0.1,0.2,0.1,0.3,0.3,0.4s0.1,0,0.2,0h0.1c0.1,0,0.1,0,0.2,0c0,0,0.1,0,0.1,0c0.2,0,0.4,0.1,0.7,0.1
			l0.6,0.1h0.3c0.1,0,0.3,0,0.4,0c0-0.1-0.1-0.1,0-0.2s0.1,0,0.1,0.1s0.1,0.1,0.1,0.1l0.2,0.1c0,0,0,0.1,0,0.1s0,0.1,0,0.1
			c0,0,0.1,0.1,0.1,0.1s-0.1,0-0.1,0l-0.1-0.2c-0.1,0.1-0.2,0.2-0.2,0.3c0,0,0,0.1,0,0.2V61c0,0.1,0.1,0.1,0.1,0.2
			c0.1,0,0.1,0.1,0.2,0.1c0.1,0.1,0.2,0.1,0.3,0.1c0.1,0,0.2,0,0.3,0c0.1,0,0.1,0,0.2-0.1c0,0,0.1-0.1,0.1-0.1c0-0.1,0-0.1,0.1-0.2
			v-0.1c0-0.1,0-0.2-0.1-0.3c-0.1-0.2-0.3-0.4-0.5-0.4l-0.2,0.1c-0.1,0,0,0-0.1-0.1s-0.1-0.1-0.2-0.2s0,0,0.1,0s0.1,0,0.1,0
			s0.1,0,0.1,0s0,0.1,0.1,0.1H44c0.1,0,0.1,0.1,0.2,0.1c0.1,0,0.1,0.1,0.2,0.1c0.1,0.1,0.2,0.2,0.3,0.2c0.2,0.1,0.5,0.1,0.8,0.2
			s0.2,0,0.3,0.1C46.1,60.8,46.4,60.8,46.7,60.7L46.7,60.7z M45.2,59.1c0.2-0.1,0.5-0.2,0.8-0.3s0.5-0.1,0.7-0.2s0.5-0.1,0.7-0.2
			s0.2,0,0.3-0.1h0.2l0,0c0,0,0,0-0.1,0s-0.2,0-0.3,0.1c-0.1,0-0.3,0.1-0.4,0.1l-0.3,0.2c-0.1,0-0.2,0.1-0.3,0.1
			c-0.2,0-0.5,0.1-0.7,0.2c-0.2,0.1-0.5,0.1-0.7,0.2l-0.7,0.3c0,0,0,0-0.1,0C44.7,59.3,44.9,59.2,45.2,59.1L45.2,59.1z M40.6,59.7
			C40.6,59.7,40.6,59.7,40.6,59.7c0-0.1,0-0.2,0-0.2s0,0,0.1,0s-0.1-0.2-0.2-0.2s-0.2-0.1-0.2-0.2s0.1,0.1,0.2,0.1
			c0.1,0,0.1,0.1,0.2,0.1c0.1,0.1,0.1,0.2,0.1,0.3C40.7,59.8,40.7,59.8,40.6,59.7L40.6,59.7z M45.4,60.2c-0.1,0-0.2,0-0.3-0.1
			c-0.1,0-0.3,0-0.3,0C45,60.1,45.3,60.1,45.4,60.2c0.3,0,0.6,0,0.9,0c0.2,0,0.3,0,0.5,0c0.1,0,0.3,0,0.4,0l0.3,0c0,0,0,0,0,0.1
			c-0.1,0-0.2,0-0.3,0.1c-0.2,0-0.3,0.1-0.5,0.1c-0.1,0-0.2,0-0.3,0l-0.3,0C45.9,60.3,45.7,60.2,45.4,60.2L45.4,60.2z M41.7,57.7
			c1.2-0.2,2.3-0.6,3.3-1.3l0,0c0,0-0.1,0-0.1,0c0,0,0,0,0,0c0,0,0.1-0.1,0.1-0.1l0,0c0,0,0.1,0,0.1,0l0,0h0.1c0,0,0.1-0.1,0.1-0.1
			s0.1,0,0.1,0l0.1-0.1c0.1-0.1,0.2-0.2,0.3-0.3l-0.2,0.1h-0.1c-0.1,0-0.1,0-0.2,0c-0.1,0-0.1,0-0.1,0s0-0.1-0.1-0.1
			c0-0.1,0-0.2,0-0.3c-0.1,0-0.1,0.1-0.1,0.1s0,0-0.1-0.1s-0.1-0.2-0.2-0.2c-0.2,0-0.4,0.1-0.7,0.1c0,0-0.1,0-0.1,0s-0.1-0.1,0-0.1
			c0,0,0.1-0.1,0.1-0.1c0,0,0-0.1,0-0.1c0,0,0.1-0.1,0.2-0.1c0,0,0.1-0.1,0.1-0.2c0-0.1,0.1-0.1,0.2-0.2c0.1,0,0.2-0.1,0.3-0.1h0.1
			c0,0,0,0,0.1,0c0,0,0.1-0.1,0.1-0.1c0.1-0.1,0.2-0.1,0.3-0.1c0.1,0,0.2-0.1,0.3-0.2h0.2h0.2c0.1,0,0,0,0,0.1s0,0.1-0.1,0.1
			s0,0.1,0.1,0.2s0.1,0,0.1,0s0.1-0.1,0.1-0.1s0.1-0.1,0.1-0.1s0-0.1,0.1-0.1s0.1,0.2,0.1,0.2c0,0,0,0.1,0,0.1c0,0,0,0.1,0,0.1
			c0,0.1,0,0.2,0,0.3V55c0,0.1,0,0.1,0,0.1s-0.1,0.1-0.1,0.1L46,55.4c0,0-0.1,0.1-0.1,0.1c0,0,0,0,0,0c0.5-0.5,0.9-1.1,1.1-1.8l0,0
			c-0.1,0,0,0-0.1-0.1s0,0,0-0.1l0,0l0.1-0.1l0,0c0.1-0.4,0.2-0.7,0.2-1.1c-0.1-1.3-0.8-2.5-2-3.1c-1.1-0.6-2.4-0.8-3.7-0.7
			C38.9,49,37,51.2,37,53.9C37.1,56.3,38.8,58,41.7,57.7L41.7,57.7z M40.5,55c0,0-0.1,0.1-0.1,0.1c0,0-0.1,0.1-0.1,0.1
			c0,0,0,0.1,0,0.1c0,0,0.1,0.1,0,0.1s-0.1,0.1-0.1,0.1c0,0-0.1-0.1-0.1-0.1c-0.1,0,0-0.2,0-0.2v-0.1c0-0.1,0-0.1,0-0.1
			s0-0.1,0.1-0.1s0.1-0.1,0.1-0.1s0,0,0.1-0.1s0.1,0,0.1,0.1S40.5,54.9,40.5,55z M42.5,53.3c0,0.1,0,0.1-0.1,0.1
			C42.4,53.4,42.4,53.3,42.5,53.3c-0.1,0,0-0.1,0-0.1S42.5,53.3,42.5,53.3L42.5,53.3z M44,53.8c0,0.1-0.1-0.1-0.2-0.1
			c0-0.1-0.1-0.1-0.1-0.2c0,0-0.2-0.1-0.2-0.1c0,0-0.1,0-0.1,0c0,0,0,0,0-0.1c0.1,0,0.2,0,0.3,0c0.1,0,0.1,0.1,0.2,0.1
			c0.1,0,0.1,0.1,0.2,0.1C44.1,53.6,44,53.8,44,53.8L44,53.8z M44.5,53.9c0,0-0.1,0-0.1,0c-0.1,0-0.1,0-0.2,0s-0.1,0-0.1-0.1
			s0-0.1,0-0.1s0,0.1,0.1,0.1s0.1,0,0.2,0S44.5,53.8,44.5,53.9C44.5,53.8,44.6,53.9,44.5,53.9L44.5,53.9z M44.6,53.5
			c0,0-0.1,0-0.1,0c0,0-0.1,0-0.1,0c0,0,0-0.1,0-0.1c0,0-0.1,0,0-0.1s0-0.1,0.1-0.1c0.1,0,0.2,0,0.2-0.1l0.1-0.1
			c0,0,0.1-0.1,0.1-0.1s0.1,0,0.1,0s0,0-0.1,0.1s0,0,0,0.1s0,0,0,0.1s-0.1,0.1-0.1,0.1s0,0,0,0.1c0,0.1,0,0.1-0.1,0.2
			C44.6,53.7,44.6,53.6,44.6,53.5L44.6,53.5L44.6,53.5z M45.3,52.8c0,0,0.1,0.1,0,0.1c0,0-0.1,0-0.2,0c0,0-0.1,0-0.1,0l0,0
			c-0.1,0-0.1,0,0-0.1S45.1,52.9,45.3,52.8C45.3,52.9,45.2,52.9,45.3,52.8c-0.1,0-0.1,0-0.2-0.1s0.1-0.1,0.1-0.1
			S45.3,52.8,45.3,52.8C45.2,52.8,45.3,52.8,45.3,52.8L45.3,52.8z M45.2,53.5c0,0-0.2,0-0.1,0.1s0.1,0,0.1,0s0,0-0.1,0
			c0,0,0,0-0.1,0c0,0,0,0-0.1,0s0.1,0.2,0,0.2c-0.1,0-0.1,0-0.1-0.1v-0.1c0-0.1,0-0.2,0.1-0.2c0.1-0.1,0.2-0.1,0.3-0.1
			C45.3,53.4,45.2,53.4,45.2,53.5c-0.1-0.1-0.2-0.1-0.2,0S45.3,53.4,45.2,53.5L45.2,53.5z M45,52.6C45,52.6,45.2,52.6,45,52.6
			C45,52.7,44.9,52.7,45,52.6L45,52.6z M45.2,50.1c0,0,0-0.1-0.1-0.2s-0.3-0.1-0.3-0.2l0,0c0.1,0,0.3,0.1,0.4,0.2s0,0,0.1,0.1
			S45.2,50,45.2,50.1c0,0,0.2,0,0.2,0.1C45.3,50.1,45.2,50.1,45.2,50.1L45.2,50.1z M45.2,52.6C45.1,52.6,45.2,52.4,45.2,52.6
			C45.2,52.5,45.2,52.5,45.2,52.6C45.2,52.6,45.1,52.6,45.2,52.6L45.2,52.6z M45,52c0,0,0-0.1,0-0.2c0,0,0-0.1,0-0.1h0.1
			C45.1,51.8,45.1,51.9,45,52C45.1,51.9,45,52,45,52z M45.1,52.3C45.1,52.3,45.1,52.3,45.1,52.3c0,0.1,0,0.2,0,0.2s0,0.1,0,0.1h-0.1
			c0,0,0,0,0-0.1s-0.1-0.2,0-0.2C44.9,52.3,45,52.3,45.1,52.3L45.1,52.3z M44.8,54c-0.1,0-0.1,0-0.1,0s-0.1,0,0,0
			C44.7,54,44.8,54,44.8,54L44.8,54c0.1,0,0.2,0,0.2,0c0.1,0,0.1,0,0,0S44.8,54,44.8,54z M45.3,54.1L45.3,54.1c-0.1,0-0.1,0-0.2,0
			s-0.1,0-0.1,0s-0.1,0,0,0C45.1,54.1,45.2,54,45.3,54.1L45.3,54.1C45.4,54,45.4,54,45.3,54.1L45.3,54.1z M45.3,53.3
			c0-0.1,0-0.1,0-0.2s0.1,0,0.1,0s0,0.1,0,0.1s0,0,0.1,0s0,0.1,0,0.1S45.3,53.3,45.3,53.3L45.3,53.3z M45.5,51.1
			c0,0.1-0.1,0.1-0.2,0.1S45.5,51.1,45.5,51.1L45.5,51.1z M47.1,53.5c-0.1,0-0.1-0.2,0-0.2S47.2,53.5,47.1,53.5L47.1,53.5z
			 M46.9,53.2c0.1,0,0.2,0,0.2,0.1c0,0,0,0.1-0.1,0.1c0,0,0,0,0,0c0,0,0-0.1,0-0.1L46.9,53.2L46.9,53.2z M46.9,53.4L46.9,53.4
			L46.9,53.4L46.9,53.4C46.9,53.4,46.9,53.4,46.9,53.4c-0.1,0.1-0.2,0.1-0.1,0.1S46.9,53.4,46.9,53.4L46.9,53.4z M45.9,53.2
			C45.9,53.2,45.9,53.2,45.9,53.2C45.9,53.3,45.9,53.3,45.9,53.2c0.1,0.1,0.2,0,0.3,0s0.1,0.2,0.2,0.2c0,0,0.1,0,0.1,0c0,0,0,0,0,0
			s0.1,0,0.1,0c0.1,0.1,0.1,0.1,0.2,0.2c0,0,0.2,0.2,0.1,0.2s-0.1-0.1-0.1-0.1s-0.1,0-0.1,0s-0.1-0.1-0.2-0.1s-0.1,0.1-0.2,0
			s-0.1-0.1-0.2-0.1s-0.2,0-0.1-0.1c0,0,0-0.1,0-0.1c0-0.1,0-0.1,0-0.1c-0.1,0-0.1-0.1-0.2-0.1c0,0-0.1,0-0.1,0c0,0,0,0-0.1-0.1
			c0,0-0.1,0,0-0.1s0.1,0,0.1,0l0,0c-0.1-0.1,0-0.1,0.2-0.1S45.8,53.1,45.9,53.2L45.9,53.2z M45.8,50.8L45.8,50.8L45.8,50.8
			L45.8,50.8c0,0.1,0,0.1,0,0.1c0,0,0,0-0.1,0c-0.1,0-0.1,0.1-0.2,0.1c0,0,0,0.1-0.1,0.1s0,0,0,0v0.1c0,0,0,0.1-0.1,0.1
			s0-0.1,0.1-0.2l0,0V51l0.1-0.2C45.5,50.8,45.6,50.8,45.8,50.8c0,0-0.2,0-0.2-0.1s0.1-0.1,0.1-0.2s0-0.1,0-0.2s0-0.1,0.1-0.2
			s0,0.1,0,0.1s0.1,0,0.1,0c0,0,0,0.1,0,0.1C45.9,50.6,45.9,50.7,45.8,50.8L45.8,50.8z M45.7,50.3c0,0-0.1,0.1-0.1,0.1
			s0,0.1-0.1,0.1s0-0.1-0.1-0.1s-0.2-0.1,0-0.2h0.1c0,0,0.2,0,0.2,0S45.7,50.2,45.7,50.3L45.7,50.3z M45.6,49.8L45.6,49.8L45.6,49.8
			C45.7,49.8,45.6,49.8,45.6,49.8C45.5,49.8,45.5,49.8,45.6,49.8L45.6,49.8z M45.7,49.7c-0.1,0-0.1,0-0.2,0
			C45.5,49.7,45.6,49.7,45.7,49.7C45.6,49.6,45.7,49.7,45.7,49.7L45.7,49.7z M39.7,49.6c0,0,0.1,0,0.1,0c0,0,0.1,0,0.1,0
			s0,0.1,0,0.1c0,0-0.1,0.1-0.2,0.1h-0.1C39.6,49.8,39.6,49.6,39.7,49.6L39.7,49.6z M39.4,50.4c0-0.1,0.1-0.1,0.2-0.1c0,0,0,0,0.1,0
			c0,0.1-0.1,0.1-0.1,0.1c0,0.1-0.1,0.2-0.1,0.2l0,0c0,0-0.1,0-0.1,0c0,0-0.1,0-0.1,0c0,0,0,0-0.1,0s-0.1,0-0.1,0s0-0.1,0-0.1
			S39.2,50.5,39.4,50.4C39.3,50.4,39.3,50.5,39.4,50.4L39.4,50.4z M39,50.5C39,50.5,39.1,50.4,39,50.5C39.1,50.4,39.1,50.4,39,50.5
			c0.1-0.1,0.1-0.1,0.1-0.1c0,0,0.1,0,0.1,0.1s0,0,0,0.1s0,0-0.1,0L39,50.5c-0.1,0.1-0.1,0.1-0.1,0.1S39,50.5,39,50.5L39,50.5z
			 M39,50.8L39,50.8C39,50.8,39,50.7,39,50.8L39,50.8z M38.3,54.3c0,0,0-0.1,0-0.2s-0.1,0-0.1,0s0-0.1-0.1-0.1s-0.2,0-0.2,0
			s-0.1,0-0.1,0s0,0-0.1,0s-0.1,0-0.1,0s0,0,0-0.1v-0.1l-0.1-0.2l-0.1-0.2c0,0,0-0.1,0-0.1c0-0.1,0-0.1,0-0.1s0-0.2,0-0.3
			c0-0.1,0-0.1,0-0.2c0-0.1,0.1-0.2,0.2-0.3c0.1-0.1,0.3-0.3,0.4-0.4c0.1-0.1,0.2-0.2,0.3-0.3c0,0,0,0,0.1-0.1s0,0,0.1,0l0.1,0.1
			h0.1h0.2c0,0,0.1,0,0.1,0c0,0,0,0,0,0s0,0,0,0s0,0,0,0s0,0,0,0l0,0l0.1,0c0,0,0,0,0,0.1s0,0,0-0.1H39v0.1c0,0.1,0.2,0.1,0.2,0.1
			s0,0,0.1,0.1h0.1h0.1c0.1,0,0.1,0,0.1,0.1h0.1c0,0,0.1,0,0.1,0c0,0,0.1-0.1,0.1-0.1s0-0.1-0.1-0.1s0,0,0,0l0,0c0,0-0.1,0-0.1,0v0
			c0,0,0,0,0-0.1c0,0,0-0.1,0-0.1h-0.1c0,0,0,0.1,0,0.1c0,0.1-0.1,0.1-0.2,0.1v-0.2c0-0.1,0-0.2-0.1-0.2s0,0,0,0v0.1
			c0,0,0.1,0,0.1,0.1c0,0.1,0,0.2-0.1,0.3v-0.1c0,0.1-0.1,0.1-0.2,0.1v-0.1c0.1,0,0.1,0,0.1-0.1s0,0,0-0.1s0,0,0-0.1s0-0.1,0-0.1
			s0-0.1-0.1-0.1c0,0-0.1,0-0.1,0h-0.1c0,0-0.1,0-0.1,0s0,0,0,0.1s0,0,0,0.1s0,0.1-0.1,0.1h-0.2h-0.1c0,0,0-0.1,0-0.1
			c0,0,0-0.1,0-0.1s0,0,0-0.1c0,0,0-0.1,0.1-0.1c0-0.1,0,0,0.1,0s0.1,0,0.1,0s0,0.1,0.1,0s0.1-0.1,0.1-0.1s0-0.1,0.1-0.1
			s0-0.1,0.1-0.1h0.1h0.1c0,0,0.1,0,0.1,0c0.1,0,0.2-0.1,0.2-0.2c0,0,0.1,0,0.1,0h0.1c0,0,0,0,0,0.1c0,0,0,0,0-0.1v-0.1l0,0h-0.1
			c0,0,0-0.1,0-0.1s0-0.1,0.1-0.1h0.2c0,0,0.1,0,0.1,0c0.1,0,0.1-0.1,0.1-0.1s0.1,0,0.1,0s0,0,0.1,0l0.1-0.1c0,0,0.1,0,0.2,0
			c0,0,0.1,0,0.1,0c0.1,0,0.2,0,0.2,0.1c0,0,0,0.1,0.1,0.1c0,0,0,0.1,0,0.1h0.1c0,0,0.1,0,0.2,0s0.2,0,0.3-0.1s0.1,0,0.1,0
			c0,0,0.1,0,0.1,0l0-0.2c0,0,0.1,0,0.1,0.1S42,50,42.1,50l0.1-0.1c0.1,0,0.2-0.1,0.3-0.2c0,0,0.1-0.1,0.1-0.1
			c0-0.1,0.1-0.1,0.1-0.1H43c0.1,0,0.1,0,0.2,0h0.1c0.1,0,0.1,0,0.2,0h0.2c0,0,0.1,0,0.1-0.1s0-0.1,0.1-0.1s0,0,0-0.1H44
			c0-0.1,0.1-0.1,0.2-0.1h0.1c0.1,0,0.2,0,0.3,0.1c0,0,0.1,0,0.1,0l0.1,0.1c0.1,0,0.2,0.1,0.3,0.2c0.1,0,0.2,0.1,0.3,0.1
			c0,0,0,0,0,0.1s0,0-0.1,0s-0.2,0-0.3,0s0,0-0.1,0s0,0,0,0s0,0-0.1,0l-0.1-0.2c-0.1,0-0.1,0.1-0.1,0.1s-0.1,0-0.1,0.1
			s-0.1,0-0.1,0.1s-0.1,0.2,0,0.1s0.1-0.1,0.1,0s0.1,0,0.1,0 M44.7,50c0,0,0.1,0,0.1,0.1c0,0,0.1,0.1,0.1,0.1
			c0.1,0.1,0.1,0.1,0.2,0.2c0,0.1,0,0.2,0,0.3v0l0,0c0,0,0,0.1,0,0.1C45,50.8,45,50.9,45,51c0,0.1,0,0.1,0.1,0.1s0,0.1,0,0.1
			s-0.1,0.1-0.1,0.1s0,0-0.1,0s0,0,0,0s0-0.1-0.1-0.1L44.8,51c0,0,0,0-0.1,0s0,0-0.1,0s0,0.1,0,0.1s0.1-0.1,0.1,0s0,0.1-0.1,0.1
			c0.1,0.1,0.1,0.2,0.2,0.3s0,0.1,0,0.2c0,0.1,0,0.1-0.1,0.2c0,0.1-0.1,0.1-0.2,0.2c-0.1,0-0.1,0.1-0.1,0.1s0,0.1,0,0.1
			s-0.1,0.1-0.1,0s0,0,0,0s0,0,0-0.1s-0.1,0.1-0.1,0.1c0,0.1,0,0.1,0,0.2c0,0.1,0.1,0.2,0.1,0.3l-0.1,0.1c0,0,0,0-0.1,0
			s-0.1,0.1-0.1,0.1s-0.2-0.1-0.2-0.2s-0.1,0.1-0.1,0.2s0,0.1,0.1,0.1l0.1,0.1c0,0.1,0.1,0.1,0.1,0.2v0.1l0,0c0,0,0,0,0,0.1
			c-0.1,0-0.2-0.1-0.2-0.2c0-0.1-0.1-0.1-0.1-0.2c0-0.1,0-0.1-0.1-0.2c-0.1,0-0.1-0.2-0.1-0.2s-0.1,0.1-0.2,0s0-0.1,0-0.1
			s-0.1,0-0.1,0l0,0c0,0,0-0.1,0-0.1c0,0-0.1,0-0.1,0c-0.1,0-0.2,0.1-0.2,0.1c-0.1,0.1-0.1,0.1-0.2,0.2c-0.1,0-0.1,0.1-0.1,0.2
			c0,0.1,0,0.1,0,0.1s-0.1,0-0.1,0.1s-0.1,0.2-0.1,0.2c-0.1,0-0.1-0.1-0.2-0.2c-0.1,0-0.2-0.1-0.3-0.1c0-0.1-0.1-0.2-0.1-0.3
			c0-0.1,0-0.1-0.1,0s-0.1,0-0.1,0c0,0-0.1-0.1-0.1-0.1c0,0-0.1,0-0.1,0c-0.1,0-0.2,0-0.3,0.1c0,0-0.1,0-0.2,0s-0.1,0-0.1-0.1
			s-0.1,0-0.1,0h-0.1c0,0,0-0.1,0-0.1c0,0-0.1,0-0.1,0s0,0,0,0.1c0,0.1,0,0.1,0.1,0.1c0,0,0,0,0.1,0c0.1,0,0.1,0,0.2,0
			c0,0,0.1,0,0.1,0.1h0.1c0,0,0,0.1,0,0.1L41.1,53c0,0,0,0.1-0.1,0.1c-0.1,0-0.1,0-0.2,0c-0.1,0.1-0.2,0.1-0.2,0.2l-0.2,0.1
			c0,0-0.1,0-0.2,0s-0.1,0-0.1-0.1c0-0.1,0-0.1,0-0.2c0,0,0-0.1-0.1-0.1s-0.1,0-0.1-0.1C40,52.9,40,52.8,40,52.8c0,0,0-0.2-0.1-0.2
			s-0.1,0-0.1,0.1v0.1c0,0,0,0.1,0,0.1c0,0,0,0,0.1,0.1s0.1,0.2,0.1,0.2s0,0.1,0,0.1s0,0,0.1,0l0.1,0.1c0.1,0,0.1,0.2,0.2,0.2h0.2
			c0.1-0.1,0.2-0.1,0.3-0.2c0.1,0,0,0.1,0,0.1s-0.1,0.1-0.1,0.2c0,0.1-0.1,0.2-0.1,0.2c-0.2,0.2-0.3,0.3-0.4,0.5l-0.2,0.2
			c0,0,0.1,0.2,0.1,0.2V55c0,0.1,0,0.2-0.1,0.2c-0.1,0.1-0.1,0.1-0.1,0.2v0.1l0,0c0.1,0.1,0,0.2-0.1,0.2s0,0,0,0.1s0,0.2-0.1,0.3
			s-0.2,0.1-0.3,0.2s-0.1,0.1-0.1,0.1c0,0-0.1,0-0.1,0c0-0.1-0.1-0.2-0.1-0.2c-0.1-0.2-0.2-0.3-0.2-0.5l-0.1-0.2
			c0,0-0.1-0.1-0.1-0.2c0,0,0-0.1,0-0.1c0,0,0.1-0.1,0-0.1v-0.1c0-0.1-0.1-0.2-0.1-0.2c0-0.1-0.1-0.2-0.1-0.2c-0.1,0-0.1,0-0.2-0.1
			L44.7,50z M48.1,59.2c0.2-0.1,0.4-0.1,0.6-0.3c-0.1,0-0.2,0-0.3,0.1c0,0-0.1,0-0.1,0s-0.1,0-0.1,0s-0.1,0-0.2,0s-0.1,0-0.1,0
			s-0.2,0.1-0.3,0.1c-0.2,0-0.4,0.1-0.5,0.1l-0.3,0c-0.1,0-0.2,0.1-0.3,0c0.1,0,0.2-0.1,0.3-0.1l0.3-0.1c0.2-0.1,0.5-0.2,0.7-0.3
			c0.2-0.1,0.4-0.2,0.7-0.3h0.3l0.5-0.1c0.2-0.1,0.4-0.2,0.6-0.3c0.1,0,0.3-0.1,0.4-0.1h0.2h0.1c0,0,0.1,0.1,0.1,0.1s0,0.1-0.1,0.1
			h-0.1c0,0-0.1,0.1-0.1,0.1L50,58.6c-0.2,0.1-0.3,0.3-0.4,0.4l-0.3,0.2c-0.1,0-0.2,0.1-0.3,0.2c-0.2,0.1-0.5,0.2-0.7,0.2
			c-0.2,0-0.4,0.1-0.7,0.1c-0.2,0-0.3,0-0.5,0c-0.2,0-0.3,0-0.5,0s-0.4-0.1-0.5-0.1c0.2,0,0.5,0,0.7,0l0.8-0.1
			c0.1,0,0.2-0.1,0.3-0.1C47.9,59.3,48,59.2,48.1,59.2L48.1,59.2z M43,46.5c-1.2,0.2-2.4,0.3-3.4,0.5c1.7-1.2,3.7-2,5.8-2.2
			c1.9-0.3,3.9-0.1,5.8,0.7h-0.2c-1.1,0.2-2.4,0.3-3.7,0.5L43,46.5z M44.4,62.5c0.2,0,0.4,0,0.5,0c-6,0.7-9.1-3-9.1-7.5
			c0-1.5,0.4-3,1.1-4.4v5.4c0,0.6,0.1,1.2,0.2,1.7c0.3,1,0.9,2,1.7,2.7c0.8,0.7,1.8,1.3,2.8,1.6C42.5,62.2,43.4,62.4,44.4,62.5
			L44.4,62.5z M40.5,51.6c0,0,0,0.1,0,0.1c0,0.1-0.2,0-0.2,0s-0.1,0-0.1,0s0-0.1,0.1-0.1s0.1-0.1,0.1,0l0,0
			C40.3,51.6,40.3,51.6,40.5,51.6C40.4,51.6,40.4,51.5,40.5,51.6z M58.5,46.1c-0.8,0.8-1.2,1.1-1.9,1.9v0.2l-0.2,0.1
			c-0.3-0.5-0.5-0.7-0.8-1.2l0.2-0.1c0.1,0.1,0.2,0.2,0.3,0.3l0.4-0.4c-0.2-0.2-0.3-0.3-0.5-0.6l-0.6,0.2c0,0.1,0.1,0.1,0.1,0.2
			l-0.1,0.1c-0.2-0.2-0.3-0.3-0.5-0.4l0.1-0.1l0.2,0.2c1-0.3,1.6-0.5,2.8-0.8L58.5,46.1z M56,51.7c-0.2,5.3-5.1,10.2-10.5,11
			c-6.3,1-9.9-2.9-9.9-7.7c0-1.7,0.5-3.4,1.3-4.9v-2.7l0.6-0.1l1.7-0.3c1.8-1.4,3.9-2.3,6.2-2.5c2.1-0.4,4.3-0.1,6.2,0.8l1.6-0.3
			l0,0h0.1h0.2l0.3-0.1l0.4-0.1c0,0.3,0,0.6,0,0.9c0,0.6,0,1.2,0,1.8C55.4,48.7,56,50.2,56,51.7z M54.9,43.4
			c0.3,0.2,0.5,0.3,0.9,0.5c-0.1,0.6-0.1,0.8-0.2,1.4l0.9-0.7l-0.2-0.2l0.2-0.1l0.6,0.5l-0.2,0.1l-0.2-0.2c-0.8,0.6-1.3,0.9-2,1.4
			L54.4,46v-0.2c0.1-0.6,0.1-0.9,0.2-1.5L54,44.8l-0.3,0.1c0.5-0.5,0.7-0.7,1.2-1.2l-0.2-0.1L54.9,43.4z M52.9,42.4
			c0.3,0.2,0.6,0.3,0.9,0.4c0.3,0.3,0.4,0.8,0.1,1.1c-0.3,0.5-0.9,0.7-1.5,0.6c-0.2-0.1-0.5-0.3-0.7-0.4c-0.3-0.2-0.4-0.5-0.3-0.8
			c0.1-0.6,0.7-1,1.3-0.9C52.8,42.4,52.8,42.4,52.9,42.4L52.9,42.4z M50.7,41.7c0,0,1.2,0.3,1.2,0.4s-0.1,0.2-0.1,0.2l-0.2-0.1
			c-0.3,0.6-0.4,1-0.7,1.6l0.2,0.1l-0.1,0.1c-0.4-0.1-0.9-0.3-1.3-0.3v-0.1h0.3c0.3-0.7,0.5-1,0.8-1.6l-0.2-0.1L50.7,41.7z
			 M47.8,41.4c0.9,0,1.7,0,2.6,0.2l-0.2,0.5H50l0.1-0.2c-0.2-0.1-0.3-0.1-0.5-0.2c0,0-0.5,1.6-0.5,1.6l0.3,0v0.2
			c0,0-1.4-0.2-1.5-0.2v-0.1h0.3c0.2-0.7,0.3-1,0.5-1.6l-0.7,0.1l-0.1,0.2h-0.2C47.6,41.9,47.7,41.4,47.8,41.4L47.8,41.4z
			 M44.4,43.5l1.1-2l0.8-0.1l1,1.8h0.2v0.2c0,0-1.4,0-1.6,0.1c0-0.1,0-0.1,0-0.2l0.3-0.1L46,42.8L45,43l-0.2,0.4H45
			c0,0.1,0,0.1,0,0.2s-0.7,0.1-0.8,0.1s0-0.1,0-0.2L44.4,43.5z M42.1,42.3l1.4,0.8c0-0.4-0.1-0.6-0.1-1L43,42.2l0-0.2l0.9-0.2v0.2
			L43.6,42c0.1,0.7,0.2,1,0.3,1.8L43,44l-1.3-0.9c0.1,0.4,0.2,0.6,0.4,1l0.2-0.1v0.2l-0.7,0.3l-0.1-0.1l0.3-0.1
			c-0.2-0.6-0.3-0.9-0.5-1.5L41,42.8l0-0.1L42.1,42.3z M39.8,43.3c0.5-0.1,1,0.4,0.4,0.9c0.1,0,0.2,0,0.2,0c0.2,0,0.3,0.1,0.3,0.1
			c0.1,0.1,0.1,0.2,0.2,0.2c0,0,0.1,0,0.2,0.1l0.2,0l0,0l0.1,0.2L40.7,45c-0.1,0.1-0.2,0.1-0.3,0.1c0,0-0.2,0-0.2,0
			s-0.3-0.5-0.3-0.5s-0.1,0-0.1,0l-0.2,0.1l-0.3,0.2c0.1,0.2,0.2,0.3,0.4,0.6c0,0,0,0,0.1,0s0.1-0.1,0.1-0.1l0.1,0.2
			c-0.5,0.3-0.7,0.5-1.1,0.8l-0.1-0.1L39,46c-0.3-0.5-0.5-0.8-0.8-1.3l-0.2,0.1L38,44.8C38.5,44.2,39.2,43.7,39.8,43.3L39.8,43.3z
			 M37.7,44.9l0.2,0.3l-0.1,0.1l-0.1-0.1c-0.3,0.2-0.5,0.4-0.7,0.6l0.5,0.5c0,0,0.3-0.2,0.2-0.3l-0.1-0.1l0.1-0.1l0.3,0.4l-0.1,0.1
			l-0.1-0.1l-0.2,0.2v0.1c0.2,0.1,0.3,0.3,0.5,0.4l0,0c0.2-0.2,0.3-0.4,0.4-0.6c0,0,0-0.1-0.1-0.1c0,0,0,0,0,0l0.1-0.1l0.3,0.4
			l-0.9,0.9l-0.6,0.1c-0.3-0.3-0.5-0.5-0.9-0.9l-0.2,0.2l-0.1-0.1C36.6,46,37.1,45.4,37.7,44.9L37.7,44.9z M36,46.7l0.3,0.3
			l-0.1,0.2L36,47.1c-0.2,0.1-0.3,0.3-0.4,0.4l1.2,0.8v0.4l-0.4,0.6l-0.1-0.1l0.1-0.2l-1.2-0.8c-0.1,0.2-0.2,0.4-0.2,0.6l0.1,0.1
			L34.9,49l-0.4-0.2C35,48.1,35.5,47.4,36,46.7z M33.8,50.4l1.5-0.4l-1-0.4l-0.1,0.2L34,49.8l0.3-0.7l0.1,0.1l-0.1,0.2L36,50
			c-0.1,0.3-0.2,0.4-0.3,0.7c-0.6,0.2-0.9,0.2-1.4,0.4l1,0.2l0.1-0.2l0.1,0.1c-0.1,0.3-0.1,0.4-0.2,0.7h-0.1l0.1-0.2l-1.5-0.4
			l-0.1,0.2l-0.1-0.1C33.5,51,33.6,50.8,33.8,50.4L33.8,50.4z M33.3,51.8h0.1V52c0.6,0.1,1,0.1,1.6,0.2l0-0.2h0.1
			c-0.1,0.5-0.2,0.8-0.3,1.3h-0.1V53l-1.6-0.2l-0.1,0.2H33C33.1,52.6,33.1,52.3,33.3,51.8L33.3,51.8z M33.5,55
			c0.1-0.2,0.1-0.4,0.2-0.6c0.1,0.2,0.1,0.3,0.2,0.6l0.6-0.1L34,55.3l0.2,0.5l-0.5-0.3L33.2,56l0.2-0.6l-0.5-0.3L33.5,55z
			 M33.5,59.7c-0.2-0.5-0.3-0.7-0.4-1.1l0.1-0.1l0.1,0.2l1-0.5L33,58.3l0-0.4l1.1-0.9L33,57.3v0.2l-0.1,0.1l-0.1-0.7h0.1v0.2
			l1.6-0.5v-0.3h0.2c0,0,0.1,0.9,0.2,1c-0.3,0.3-0.5,0.5-0.8,0.7h1l0.3,0.8L35.2,59L35,58.8l-1.5,0.8L33.5,59.7L33.5,59.7z
			 M34.4,61.2c-0.1-0.1-0.4-0.7-0.4-0.7c-0.1-0.3-0.1-0.6,0.1-0.9c0.3-0.5,0.9-0.7,1.4-0.4c0,0,0.1,0,0.1,0.1l0.4,0.7
			c0.1,0.4-0.1,0.8-0.3,1.1C35.3,61.5,34.8,61.5,34.4,61.2L34.4,61.2z M35.8,62.9c0.1-0.6,0.2-1,0.3-1.6l-0.9,0.8l0.2,0.2l-0.1,0.1
			l-0.4-0.5l0.1-0.1l0.2,0.2l1.3-1.2l-0.1-0.1l0.1-0.1l0.5,0.5c-0.1,0.6-0.2,1-0.3,1.6l0.8-0.9l-0.1-0.2l0.1-0.1l0.4,0.4l-0.1,0.1
			L37.6,62l-1.2,1.4L35.8,62.9z M38.5,62.8c-0.2,0.2-0.3,0.4-0.4,0.6l0.2,0.2l0.1-0.1l0.1,0.1c-0.1,0.2-0.2,0.3-0.3,0.4h-0.1
			l0.1-0.2L38,63.5l-0.5,0.6c0.2,0.2,0.4,0.3,0.6,0.3l0.1-0.2l0.2,0.1l-0.2,0.4c0,0-1.3-0.9-1.5-1.1l0.1-0.1l0.2,0.1l1-1.4l-0.1-0.1
			l0.1-0.1c0.4,0.4,0.9,0.7,1.4,1L39,63.5l-0.1-0.1c0-0.1,0.1-0.1,0.1-0.2S38.8,62.8,38.5,62.8L38.5,62.8z M40.2,65.6
			c-0.5-0.2-0.8-0.2-1.3-0.4L39,65l0.2,0.1c0.3-0.6,0.4-1,0.7-1.6c-0.2,0-0.3,0-0.5,0l-0.1,0.1l-0.1-0.1l0.2-0.5
			c0.7,0.3,1.4,0.5,2.2,0.7c-0.1,0.2-0.1,0.3-0.2,0.5h-0.2l0.1-0.2l-0.5-0.2c-0.3,0.7-0.5,1-0.8,1.6L40.2,65.6L40.2,65.6z
			 M43.7,65.8c0,0-1.5,0-1.7,0v-0.1h0.4c0-0.2,0-0.2-0.1-0.4l-1-0.1L41,65.6h0.2l-0.1,0.1l-0.7-0.1l0.1-0.1h0.2l1.4-1.7l0.9,0.1
			c0.2,0.8,0.3,1.1,0.5,1.8h0.2L43.7,65.8z M46.1,65.5c-0.1,0-0.2-0.1-0.2-0.1s0-0.6,0-0.6s-0.1-0.1-0.1-0.1l-0.5,0.1v0.7h0.2v0.2
			L44,65.8v-0.2h0.2c0-0.7,0.1-1,0.1-1.6h-0.2v-0.2c0.7-0.1,1.5-0.2,2.2-0.3c0.1,0,0.2,0,0.3,0c0.2,0,0.5,0.2,0.5,0.4
			c0,0.3-0.5,0.6-0.5,0.6s0.4,0.1,0.4,0.4c0,0.1,0,0.1,0,0.1l0,0h0.3l0,0l0.1,0.1L46.1,65.5z M50,62.4l-0.5,1.2
			c0.1,0.3,0.1,0.4,0.2,0.7l0.2-0.1l0.1,0.1l-1.5,0.5l-0.1-0.1l0.3-0.1l-0.2-0.7l-1.2-0.5l-0.2,0.1c0-0.1,0-0.1,0-0.2l1.6-0.5
			c0,0,0,0.1,0.1,0.1c0,0-0.2,0-0.2,0.1s0.7,0.3,0.7,0.3c0.2-0.3,0.3-0.6,0.4-0.9l-0.2,0.1l-0.1-0.1l0.7-0.3l0.1,0.1L50,62.4z
			 M52.3,62.9l-0.1-0.1l0.2-0.2c-0.3-0.5-0.5-0.8-0.8-1.3l-0.2,0.1l0-0.1c0.5-0.4,1.1-0.9,1.5-1.3l0.3,0.3L53,60.6l-0.2-0.1
			c-0.2,0.1-0.4,0.2-0.6,0.4l0.4,0.6c0.1-0.1,0.2-0.2,0.2-0.2L52.7,61l0.2-0.1l0.3,0.3l-0.2,0.2L53,61.3l-0.3,0.2
			c0.2,0.2,0.2,0.3,0.4,0.6l0.2-0.2l0.1,0.1C52.9,62.4,52.7,62.6,52.3,62.9L52.3,62.9z M56,59.6l-0.8,0.8c-0.2,0.1-0.3,0.2-0.5,0.3
			c-0.2,0-0.3,0-0.5-0.1c-0.1,0-1.1-0.7-1.1-0.7L53,60l-0.1-0.1c0.3-0.4,0.5-0.6,0.9-1L54,59l-0.2,0.2c0.4,0.3,0.6,0.4,1.1,0.7
			c0.2,0,0.4,0,0.5-0.1c0.2-0.2,0.4-0.3,0.4-0.5s-0.2-0.2-0.2-0.2s-1.2-0.6-1.2-0.6l-0.2,0.2l-0.2-0.1l0.5-0.6l0.2,0.1l-0.1,0.2
			c0.5,0.2,0.7,0.3,1.2,0.6c0,0,0.3,0.3,0.3,0.5C56.1,59.4,56.1,59.5,56,59.6z M58.2,56.9c-1,0.3-1.4,0.4-2.3,0.7l1.2,0.4l0.2-0.3
			h0.2c-0.2,0.3-0.4,0.4-0.6,0.7l-0.2-0.1l0.2-0.2c-0.8-0.2-1.2-0.3-1.9-0.6l-0.2,0.2l-0.1,0l0.5-0.8c0.9-0.3,1.3-0.5,2.3-0.8
			L56.1,56l-0.2,0.2l-0.2,0l0.4-0.6h0.2l-0.1,0.2l2.4,0.3C58.5,56.5,58.4,56.6,58.2,56.9L58.2,56.9z M59,55.6h-0.2
			c0-0.1,0.1-0.2,0.1-0.3l-2.3-0.1c0,0.1-0.1,0.2-0.1,0.2h-0.2c0.2-0.7,0.4-1,0.6-1.7c0.4-0.5,0.9-0.8,1.5-0.8
			c0.9,0,1.3,0.5,1.3,0.8C59.5,54.4,59.3,55,59,55.6z M59.1,51.3c0.1,0.2,0.2,0.3,0.3,0.5l-0.8-0.2l-0.8,0.5l0.3-0.7l-0.7-0.2
			l0.9-0.2l0.3-0.6c0.1,0.2,0.1,0.3,0.2,0.5l0.9-0.2L59.1,51.3z M59.6,48.7l-0.1-0.2c-1,0.3-1.5,0.5-2.4,0.8c0,0,0.1,0.5,0.3,0.5
			l0.4-0.1V50l-0.7,0.2c-0.1-0.6-0.3-1.2-0.6-1.7l0.2-0.1c0.1,0.1,0.1,0.1,0.2,0.2c0.9-0.3,1.4-0.5,2.4-0.8l-0.1-0.2l0.2-0.1
			l0.5,1.2L59.6,48.7z M45.9,63.7L45.9,63.7c0.1,0.1,0.1,0.6,0.1,0.6c0,0,0,0.1-0.1,0.1l-0.5,0.1c0-0.3,0-0.4,0.1-0.7L45.9,63.7z
			 M56.6,46.7l-0.4-0.5l1.2-0.3L56.6,46.7z M35.8,60.2c-0.3,0.3-0.6,0.5-0.9,0.7c0,0-0.2,0.2-0.4,0c0,0-0.1-0.1-0.1-0.2
			c0-0.1,0-0.1,0-0.2c0-0.1,0.1-0.2,0.2-0.3l0.7-0.5c0,0,0.2-0.2,0.3-0.1c0.1,0,0.1,0,0.2,0c0,0,0.1,0.1,0.1,0.1
			C35.9,59.8,35.9,60,35.8,60.2C35.8,60.1,35.8,60.1,35.8,60.2z M42.1,64.3c0.1,0.3,0.1,0.5,0.2,0.8L41.5,65
			C41.7,64.8,41.8,64.6,42.1,64.3z M59.3,53.9c0.2,0,0.2,0.1,0.2,0.1c-0.1,0.2-0.1,0.3-0.2,0.4c0,0-2.4-0.1-2.4-0.1
			c0-0.1,0.1-0.2,0.1-0.4c0.1-0.1,0.2-0.1,0.3-0.1C57.3,53.9,59,53.9,59.3,53.9z"/>
	</g>
</g>
</svg>
