<?xml version="1.0" encoding="UTF-8"?>
<svg width="60px" height="60px" viewBox="0 0 60 60" version="1.1" xmlns="http://www.w3.org/2000/svg" xmlns:xlink="http://www.w3.org/1999/xlink">
    <title>akrt</title>
    <defs>
        <linearGradient x1="-0.0134365704%" y1="49.9882303%" x2="99.9885804%" y2="49.9882303%" id="linearGradient-1">
            <stop stop-color="#000000" stop-opacity="0" offset="37.5%"></stop>
            <stop stop-color="#000000" stop-opacity="0" offset="100%"></stop>
        </linearGradient>
        <linearGradient x1="-0.013529006%" y1="49.9872321%" x2="99.9963228%" y2="49.9872321%" id="linearGradient-2">
            <stop stop-color="#000000" stop-opacity="0.0625" offset="37.5%"></stop>
            <stop stop-color="#000000" stop-opacity="0" offset="100%"></stop>
        </linearGradient>
        <linearGradient x1="-0.0136227188%" y1="49.9874993%" x2="100.003917%" y2="49.9874993%" id="linearGradient-3">
            <stop stop-color="#000000" stop-opacity="0.125" offset="37.5%"></stop>
            <stop stop-color="#000000" stop-opacity="0" offset="100%"></stop>
        </linearGradient>
        <linearGradient x1="-0.0137145502%" y1="50.003191%" x2="99.9886014%" y2="50.003191%" id="linearGradient-4">
            <stop stop-color="#000000" stop-opacity="0.1875" offset="37.5%"></stop>
            <stop stop-color="#000000" stop-opacity="0" offset="100%"></stop>
        </linearGradient>
        <linearGradient x1="-0.0138108602%" y1="50.0206519%" x2="99.9964801%" y2="50.0206519%" id="linearGradient-5">
            <stop stop-color="#000000" stop-opacity="0.25" offset="37.5%"></stop>
            <stop stop-color="#000000" stop-opacity="0" offset="100%"></stop>
        </linearGradient>
        <linearGradient x1="-0.0139085325%" y1="50.0127451%" x2="100.00447%" y2="50.0127451%" id="linearGradient-6">
            <stop stop-color="#000000" stop-opacity="0.3125" offset="37.5%"></stop>
            <stop stop-color="#000000" stop-opacity="0" offset="100%"></stop>
        </linearGradient>
        <linearGradient x1="-0.0140042712%" y1="50.0132945%" x2="99.9888352%" y2="50.0132945%" id="linearGradient-7">
            <stop stop-color="#000000" stop-opacity="0.375" offset="37.5%"></stop>
            <stop stop-color="#000000" stop-opacity="0" offset="100%"></stop>
        </linearGradient>
        <linearGradient x1="-0.0141047083%" y1="50.0222703%" x2="99.9968832%" y2="50.0222703%" id="linearGradient-8">
            <stop stop-color="#000000" stop-opacity="0.4375" offset="37.5%"></stop>
            <stop stop-color="#000000" stop-opacity="0" offset="100%"></stop>
        </linearGradient>
        <linearGradient x1="-0.0142065963%" y1="50.0209338%" x2="100.004807%" y2="50.0209338%" id="linearGradient-9">
            <stop stop-color="#000000" stop-opacity="0.5" offset="37.5%"></stop>
            <stop stop-color="#000000" stop-opacity="0" offset="100%"></stop>
        </linearGradient>
        <linearGradient x1="-0.0143064972%" y1="50.0217961%" x2="99.9888365%" y2="50.0217961%" id="linearGradient-10">
            <stop stop-color="#000000" stop-opacity="0.5625" offset="37.5%"></stop>
            <stop stop-color="#000000" stop-opacity="0" offset="100%"></stop>
        </linearGradient>
        <linearGradient x1="-0.0144113323%" y1="50.0202384%" x2="99.9970595%" y2="50.0202384%" id="linearGradient-11">
            <stop stop-color="#000000" stop-opacity="0.625" offset="37.5%"></stop>
            <stop stop-color="#000000" stop-opacity="0" offset="100%"></stop>
        </linearGradient>
        <linearGradient x1="-0.0145177151%" y1="49.9853081%" x2="100.005404%" y2="49.9853081%" id="linearGradient-12">
            <stop stop-color="#000000" stop-opacity="0.6875" offset="37.5%"></stop>
            <stop stop-color="#000000" stop-opacity="0" offset="100%"></stop>
        </linearGradient>
        <linearGradient x1="-0.0146220556%" y1="49.9860534%" x2="99.9890857%" y2="49.9860534%" id="linearGradient-13">
            <stop stop-color="#000000" stop-opacity="0.75" offset="37.5%"></stop>
            <stop stop-color="#000000" stop-opacity="0" offset="100%"></stop>
        </linearGradient>
        <linearGradient x1="-0.0147315841%" y1="49.9844175%" x2="99.9974933%" y2="49.9844175%" id="linearGradient-14">
            <stop stop-color="#000000" stop-opacity="0.8125" offset="37.5%"></stop>
            <stop stop-color="#000000" stop-opacity="0" offset="100%"></stop>
        </linearGradient>
        <linearGradient x1="-0.0148427658%" y1="49.985658%" x2="100.005776%" y2="49.985658%" id="linearGradient-15">
            <stop stop-color="#000000" stop-opacity="0.875" offset="37.5%"></stop>
            <stop stop-color="#000000" stop-opacity="0" offset="100%"></stop>
        </linearGradient>
        <linearGradient x1="-0.01495185%" y1="49.9835848%" x2="99.9891029%" y2="49.9835848%" id="linearGradient-16">
            <stop stop-color="#000000" stop-opacity="0.9375" offset="37.5%"></stop>
            <stop stop-color="#000000" stop-opacity="0" offset="100%"></stop>
        </linearGradient>
        <linearGradient x1="-0.0150663881%" y1="49.9768542%" x2="99.9976605%" y2="49.9768542%" id="linearGradient-17">
            <stop stop-color="#000000" offset="37.5%"></stop>
            <stop stop-color="#000000" stop-opacity="0" offset="100%"></stop>
        </linearGradient>
        <linearGradient x1="0.011488384%" y1="49.9084393%" x2="99.9979576%" y2="49.9084393%" id="linearGradient-18">
            <stop stop-color="#808080" offset="0%"></stop>
            <stop stop-color="#838383" offset="32.75%"></stop>
            <stop stop-color="#8D8D8D" offset="59.05%"></stop>
            <stop stop-color="#9E9E9E" offset="83.02%"></stop>
            <stop stop-color="#AFAFAF" offset="100%"></stop>
        </linearGradient>
        <linearGradient x1="50.0173622%" y1="-0.0895521819%" x2="50.0173622%" y2="99.8963427%" id="linearGradient-19">
            <stop stop-color="#DFDFDF" offset="35%"></stop>
            <stop stop-color="#DDDDDD" offset="64.54%"></stop>
            <stop stop-color="#D6D6D6" offset="75.17%"></stop>
            <stop stop-color="#CBCBCB" offset="82.76%"></stop>
            <stop stop-color="#BABABA" offset="88.89%"></stop>
            <stop stop-color="#A4A4A4" offset="94.14%"></stop>
            <stop stop-color="#898989" offset="98.7%"></stop>
            <stop stop-color="#808080" offset="100%"></stop>
        </linearGradient>
        <linearGradient x1="-0.0140413524%" y1="50.0264051%" x2="99.9723866%" y2="50.0264051%" id="linearGradient-20">
            <stop stop-color="#DFDFDF" offset="0%"></stop>
            <stop stop-color="#E1E1E1" offset="2.1%"></stop>
            <stop stop-color="#F2F2F2" offset="24.35%"></stop>
            <stop stop-color="#FCFCFC" offset="48.72%"></stop>
            <stop stop-color="#FFFFFF" offset="79.11%"></stop>
            <stop stop-color="#FCFCFC" offset="84.44%"></stop>
            <stop stop-color="#F2F2F2" offset="88.71%"></stop>
            <stop stop-color="#E1E1E1" offset="92.63%"></stop>
            <stop stop-color="#C9C9C9" offset="96.3%"></stop>
            <stop stop-color="#C7C7C7" offset="96.6%"></stop>
            <stop stop-color="#FFFFFF" offset="100%"></stop>
        </linearGradient>
        <linearGradient x1="-1010.28794%" y1="49.8952703%" x2="513.564202%" y2="49.8952703%" id="linearGradient-21">
            <stop stop-color="#242424" offset="0%"></stop>
            <stop stop-color="#2D2D2D" offset="33.46%"></stop>
            <stop stop-color="#303030" offset="79.11%"></stop>
            <stop stop-color="#2D2D2D" offset="86.68%"></stop>
            <stop stop-color="#232323" offset="92.75%"></stop>
            <stop stop-color="#181818" offset="96.6%"></stop>
            <stop stop-color="#303030" offset="100%"></stop>
        </linearGradient>
        <linearGradient x1="-1090.94141%" y1="49.9087838%" x2="439.050781%" y2="49.9087838%" id="linearGradient-22">
            <stop stop-color="#242424" offset="0%"></stop>
            <stop stop-color="#2D2D2D" offset="33.46%"></stop>
            <stop stop-color="#303030" offset="79.11%"></stop>
            <stop stop-color="#2D2D2D" offset="86.68%"></stop>
            <stop stop-color="#232323" offset="92.75%"></stop>
            <stop stop-color="#181818" offset="96.6%"></stop>
            <stop stop-color="#303030" offset="100%"></stop>
        </linearGradient>
        <linearGradient x1="-607.426667%" y1="49.9496403%" x2="262.855556%" y2="49.9496403%" id="linearGradient-23">
            <stop stop-color="#242424" offset="0%"></stop>
            <stop stop-color="#2D2D2D" offset="33.46%"></stop>
            <stop stop-color="#303030" offset="79.11%"></stop>
            <stop stop-color="#2D2D2D" offset="86.68%"></stop>
            <stop stop-color="#232323" offset="92.75%"></stop>
            <stop stop-color="#181818" offset="96.6%"></stop>
            <stop stop-color="#303030" offset="100%"></stop>
        </linearGradient>
        <linearGradient x1="-1120.07813%" y1="50.0912162%" x2="409.691406%" y2="50.0912162%" id="linearGradient-24">
            <stop stop-color="#242424" offset="0%"></stop>
            <stop stop-color="#2D2D2D" offset="33.46%"></stop>
            <stop stop-color="#303030" offset="79.11%"></stop>
            <stop stop-color="#2D2D2D" offset="86.68%"></stop>
            <stop stop-color="#232323" offset="92.75%"></stop>
            <stop stop-color="#181818" offset="96.6%"></stop>
            <stop stop-color="#303030" offset="100%"></stop>
        </linearGradient>
        <linearGradient x1="-1197.01953%" y1="50.023569%" x2="332.753906%" y2="50.023569%" id="linearGradient-25">
            <stop stop-color="#242424" offset="0%"></stop>
            <stop stop-color="#2D2D2D" offset="33.46%"></stop>
            <stop stop-color="#303030" offset="79.11%"></stop>
            <stop stop-color="#2D2D2D" offset="86.68%"></stop>
            <stop stop-color="#232323" offset="92.75%"></stop>
            <stop stop-color="#181818" offset="96.6%"></stop>
            <stop stop-color="#303030" offset="100%"></stop>
        </linearGradient>
        <linearGradient x1="-192.627753%" y1="49.9256055%" x2="670.008811%" y2="49.9256055%" id="linearGradient-26">
            <stop stop-color="#242424" offset="0%"></stop>
            <stop stop-color="#2D2D2D" offset="33.46%"></stop>
            <stop stop-color="#303030" offset="79.11%"></stop>
            <stop stop-color="#2D2D2D" offset="86.68%"></stop>
            <stop stop-color="#232323" offset="92.75%"></stop>
            <stop stop-color="#181818" offset="96.6%"></stop>
            <stop stop-color="#303030" offset="100%"></stop>
        </linearGradient>
        <linearGradient x1="-287.801556%" y1="49.8712871%" x2="1236.26459%" y2="49.8712871%" id="linearGradient-27">
            <stop stop-color="#242424" offset="0%"></stop>
            <stop stop-color="#2D2D2D" offset="33.46%"></stop>
            <stop stop-color="#303030" offset="79.11%"></stop>
            <stop stop-color="#2D2D2D" offset="86.68%"></stop>
            <stop stop-color="#232323" offset="92.75%"></stop>
            <stop stop-color="#181818" offset="96.6%"></stop>
            <stop stop-color="#303030" offset="100%"></stop>
        </linearGradient>
        <linearGradient x1="-363.976654%" y1="50.0927152%" x2="1159.72763%" y2="50.0927152%" id="linearGradient-28">
            <stop stop-color="#242424" offset="0%"></stop>
            <stop stop-color="#2D2D2D" offset="33.46%"></stop>
            <stop stop-color="#303030" offset="79.11%"></stop>
            <stop stop-color="#2D2D2D" offset="86.68%"></stop>
            <stop stop-color="#232323" offset="92.75%"></stop>
            <stop stop-color="#181818" offset="96.6%"></stop>
            <stop stop-color="#303030" offset="100%"></stop>
        </linearGradient>
        <linearGradient x1="-132.437363%" y1="50.0566038%" x2="728.334066%" y2="50.0566038%" id="linearGradient-29">
            <stop stop-color="#242424" offset="0%"></stop>
            <stop stop-color="#2D2D2D" offset="33.46%"></stop>
            <stop stop-color="#303030" offset="79.11%"></stop>
            <stop stop-color="#2D2D2D" offset="86.68%"></stop>
            <stop stop-color="#232323" offset="92.75%"></stop>
            <stop stop-color="#181818" offset="96.6%"></stop>
            <stop stop-color="#303030" offset="100%"></stop>
        </linearGradient>
        <linearGradient x1="-192.421978%" y1="50.0015873%" x2="668.312088%" y2="50.0015873%" id="linearGradient-30">
            <stop stop-color="#242424" offset="0%"></stop>
            <stop stop-color="#2D2D2D" offset="33.46%"></stop>
            <stop stop-color="#303030" offset="79.11%"></stop>
            <stop stop-color="#2D2D2D" offset="86.68%"></stop>
            <stop stop-color="#232323" offset="92.75%"></stop>
            <stop stop-color="#181818" offset="96.6%"></stop>
            <stop stop-color="#303030" offset="100%"></stop>
        </linearGradient>
        <linearGradient x1="-162.327473%" y1="50.0446571%" x2="698.446154%" y2="50.0446571%" id="linearGradient-31">
            <stop stop-color="#242424" offset="0%"></stop>
            <stop stop-color="#2D2D2D" offset="33.46%"></stop>
            <stop stop-color="#303030" offset="79.11%"></stop>
            <stop stop-color="#2D2D2D" offset="86.68%"></stop>
            <stop stop-color="#232323" offset="92.75%"></stop>
            <stop stop-color="#181818" offset="96.6%"></stop>
            <stop stop-color="#303030" offset="100%"></stop>
        </linearGradient>
        <linearGradient x1="-132.437363%" y1="50.0240385%" x2="728.334066%" y2="50.0240385%" id="linearGradient-32">
            <stop stop-color="#242424" offset="0%"></stop>
            <stop stop-color="#2D2D2D" offset="33.46%"></stop>
            <stop stop-color="#303030" offset="79.11%"></stop>
            <stop stop-color="#2D2D2D" offset="86.68%"></stop>
            <stop stop-color="#232323" offset="92.75%"></stop>
            <stop stop-color="#181818" offset="96.6%"></stop>
            <stop stop-color="#303030" offset="100%"></stop>
        </linearGradient>
        <linearGradient x1="-1014.625%" y1="50.003096%" x2="515.175781%" y2="50.003096%" id="linearGradient-33">
            <stop stop-color="#242424" offset="0%"></stop>
            <stop stop-color="#2D2D2D" offset="33.46%"></stop>
            <stop stop-color="#303030" offset="79.11%"></stop>
            <stop stop-color="#2D2D2D" offset="86.68%"></stop>
            <stop stop-color="#232323" offset="92.75%"></stop>
            <stop stop-color="#181818" offset="96.6%"></stop>
            <stop stop-color="#303030" offset="100%"></stop>
        </linearGradient>
        <linearGradient x1="-1091.32813%" y1="50.1981424%" x2="438.660156%" y2="50.1981424%" id="linearGradient-34">
            <stop stop-color="#242424" offset="0%"></stop>
            <stop stop-color="#2D2D2D" offset="33.46%"></stop>
            <stop stop-color="#303030" offset="79.11%"></stop>
            <stop stop-color="#2D2D2D" offset="86.68%"></stop>
            <stop stop-color="#232323" offset="92.75%"></stop>
            <stop stop-color="#181818" offset="96.6%"></stop>
            <stop stop-color="#303030" offset="100%"></stop>
        </linearGradient>
        <linearGradient x1="-1067.36719%" y1="49.6811146%" x2="462.460938%" y2="49.6811146%" id="linearGradient-35">
            <stop stop-color="#242424" offset="0%"></stop>
            <stop stop-color="#2D2D2D" offset="33.46%"></stop>
            <stop stop-color="#303030" offset="79.11%"></stop>
            <stop stop-color="#2D2D2D" offset="86.68%"></stop>
            <stop stop-color="#232323" offset="92.75%"></stop>
            <stop stop-color="#181818" offset="96.6%"></stop>
            <stop stop-color="#303030" offset="100%"></stop>
        </linearGradient>
        <linearGradient x1="-1143.90234%" y1="49.7080745%" x2="385.871094%" y2="49.7080745%" id="linearGradient-36">
            <stop stop-color="#242424" offset="0%"></stop>
            <stop stop-color="#2D2D2D" offset="33.46%"></stop>
            <stop stop-color="#303030" offset="79.11%"></stop>
            <stop stop-color="#2D2D2D" offset="86.68%"></stop>
            <stop stop-color="#232323" offset="92.75%"></stop>
            <stop stop-color="#181818" offset="96.6%"></stop>
            <stop stop-color="#303030" offset="100%"></stop>
        </linearGradient>
        <linearGradient x1="-1120.46484%" y1="50.2136223%" x2="409.3125%" y2="50.2136223%" id="linearGradient-37">
            <stop stop-color="#242424" offset="0%"></stop>
            <stop stop-color="#2D2D2D" offset="33.46%"></stop>
            <stop stop-color="#303030" offset="79.11%"></stop>
            <stop stop-color="#2D2D2D" offset="86.68%"></stop>
            <stop stop-color="#232323" offset="92.75%"></stop>
            <stop stop-color="#181818" offset="96.6%"></stop>
            <stop stop-color="#303030" offset="100%"></stop>
        </linearGradient>
        <linearGradient x1="-1196.62891%" y1="50.1775701%" x2="333.144531%" y2="50.1775701%" id="linearGradient-38">
            <stop stop-color="#242424" offset="0%"></stop>
            <stop stop-color="#2D2D2D" offset="33.46%"></stop>
            <stop stop-color="#303030" offset="79.11%"></stop>
            <stop stop-color="#2D2D2D" offset="86.68%"></stop>
            <stop stop-color="#232323" offset="92.75%"></stop>
            <stop stop-color="#181818" offset="96.6%"></stop>
            <stop stop-color="#303030" offset="100%"></stop>
        </linearGradient>
        <linearGradient x1="-104.444785%" y1="50.0201989%" x2="201.723052%" y2="50.0201989%" id="linearGradient-39">
            <stop stop-color="#B41B00" offset="0%"></stop>
            <stop stop-color="#B61D01" offset="2.1%"></stop>
            <stop stop-color="#C72E0B" offset="24.35%"></stop>
            <stop stop-color="#D13811" offset="48.72%"></stop>
            <stop stop-color="#D43B13" offset="79.11%"></stop>
            <stop stop-color="#D13812" offset="84.15%"></stop>
            <stop stop-color="#C72F0F" offset="88.19%"></stop>
            <stop stop-color="#B61F0A" offset="91.9%"></stop>
            <stop stop-color="#9E0903" offset="95.37%"></stop>
            <stop stop-color="#940000" offset="96.6%"></stop>
            <stop stop-color="#D43B13" offset="100%"></stop>
        </linearGradient>
        <linearGradient x1="-104.778871%" y1="50.0561398%" x2="208.499072%" y2="50.0561398%" id="linearGradient-40">
            <stop stop-color="#00209F" offset="0%"></stop>
            <stop stop-color="#0222A1" offset="2.1%"></stop>
            <stop stop-color="#1333B2" offset="24.35%"></stop>
            <stop stop-color="#1D3DBC" offset="48.72%"></stop>
            <stop stop-color="#2040BF" offset="79.11%"></stop>
            <stop stop-color="#1E3DBC" offset="84.15%"></stop>
            <stop stop-color="#1933B2" offset="88.19%"></stop>
            <stop stop-color="#1122A1" offset="91.9%"></stop>
            <stop stop-color="#050A89" offset="95.37%"></stop>
            <stop stop-color="#00007F" offset="96.6%"></stop>
            <stop stop-color="#2040BF" offset="100%"></stop>
        </linearGradient>
        <linearGradient x1="-0.0160837309%" y1="50.0010211%" x2="99.9713654%" y2="50.0010211%" id="linearGradient-41">
            <stop stop-color="#404040" offset="0%"></stop>
            <stop stop-color="#FFFFFF" offset="79.11%"></stop>
            <stop stop-color="#FFFFFF" offset="96.6%"></stop>
            <stop stop-color="#FFFFFF" offset="100%"></stop>
        </linearGradient>
    </defs>
    <g id="Page-1" stroke="none" stroke-width="1" fill="none" fill-rule="evenodd">
        <g id="test_2" transform="translate(-160.000000, -871.000000)">
            <g id="akrt" transform="translate(160.000000, 871.000000)">
                <rect id="thum" opacity="0.200000003" x="0" y="0" width="60" height="60"></rect>
                <g id="aKRT" transform="translate(4.000000, 5.000000)">
                    <g id="Group-3" transform="translate(0.000000, 0.000000)">
                        <path d="M26.009,0 C26.003,0 25.996,0.001 25.988,0.001 L25.988,0.001 C23.458,0.057 20.926,0.382 18.49,1.111 L18.49,1.111 C16.075,1.881 13.747,2.937 11.631,4.338 L11.631,4.338 C9.537,5.768 7.63,7.463 5.992,9.4 L5.992,9.4 C4.397,11.371 3.07,13.55 2.047,15.873 L2.047,15.873 C0.696,19.064 0.002,22.531 0,25.989 L0,25.989 L0,26.011 C0.052,28.573 0.4,31.133 1.134,33.597 L1.134,33.597 C1.916,36.043 3.022,38.378 4.432,40.524 L4.432,40.524 C5.897,42.634 7.64,44.537 9.613,46.178 L9.613,46.178 C11.609,47.794 13.852,49.084 16.214,50.08 L16.214,50.08 C19.309,51.343 22.652,51.992 25.988,51.999 L25.988,51.999 L25.991,52 L25.995,52 L25.997,52 L25.998,52 L25.999,52 C29.401,51.994 32.577,51.32 35.348,50.241 L35.348,50.241 C38.125,49.161 40.505,47.698 42.49,46.1 L42.49,46.1 C46.39,42.796 48.747,39.104 50.016,35.958 L50.016,35.958 C51.354,32.809 51.628,30.227 51.871,28.557 L51.871,28.557 C51.956,26.859 51.998,26.011 51.998,26.011 L51.998,26.011 C51.999,26.003 51.999,25.997 51.999,25.99 L51.999,25.99 L51.999,0 L26.009,0 Z M25.99,47.999 C23.158,47.991 20.337,47.441 17.722,46.375 L17.722,46.375 C15.727,45.528 13.827,44.443 12.137,43.073 L12.137,43.073 C10.469,41.682 8.992,40.07 7.748,38.287 L7.748,38.287 C6.558,36.468 5.626,34.495 4.96,32.43 L4.96,32.43 C4.342,30.346 4.052,28.183 4,26.009 L4,26.009 L4,25.991 C4.002,23.055 4.589,20.13 5.73,17.432 L5.73,17.432 C6.6,15.471 7.722,13.628 9.069,11.955 L9.069,11.955 C10.46,10.317 12.075,8.885 13.844,7.67 L13.844,7.67 C15.637,6.484 17.606,5.597 19.644,4.942 L19.644,4.942 C21.703,4.326 23.844,4.058 25.99,4 L25.99,4 C25.997,4 26.003,4 26.009,4 L26.009,4 L48,4 L48,23.463 L48,25.99 C48,25.996 48,26.003 47.999,26.009 L47.999,26.009 L47.89,28.167 C47.672,29.58 47.458,31.765 46.322,34.425 L46.322,34.425 C45.254,37.086 43.247,40.203 39.951,43.008 L39.951,43.008 C36.615,45.7 31.812,47.99 25.999,48 L25.999,48 L25.998,48 L25.997,48 L25.996,48 L25.993,48 L25.99,47.999 Z" id="Fill-1" fill=""></path>
                        <circle id="Oval" fill="#006994" cx="26.5" cy="50" r="2"></circle>
                    </g>
                    <g id="Group" transform="translate(13.000000, 11.000000)" fill-rule="nonzero">
                        <g id="Symbol_2_">
                            <g id="Group" transform="translate(5.660377, 0.000000)" fill="#0E3CA5">
                                <path d="M5.79622642,20.2471698 C6.50377358,22.8622642 9.03962264,24.8603774 10.3245283,24.7811321 C10.3698113,24.7754717 15.1867925,23.8811321 17.8245283,19.4716981 C19.8792453,16.0415094 19.1773585,12.7301887 16.3867925,12.6622642 C15.3849057,12.7358491 4.4490566,15.2603774 5.79622642,20.2471698" id="Path"></path>
                                <path d="M16.1264151,3.43584906 C16.1264151,3.43584906 16.1264151,3.43018868 16.1264151,3.43584906 L16.1264151,3.43584906 C13.9924528,1.60754717 11.2188679,0.509433962 8.19056604,0.509433962 C6.41886792,0.509433962 4.73773585,0.888679245 3.22075472,1.56226415 C2.9490566,1.6754717 2.68867925,1.80566038 2.44528302,1.94150943 C2.2754717,2.03207547 2.1,2.12264151 1.93584906,2.2245283 L1.9754717,2.23584906 C1.47169811,2.58113208 1.03584906,2.98867925 0.68490566,3.45849057 C-2.83018868,8.10566038 8.95471698,11.4792453 15.254717,11.490566 C18.1471698,13.5792453 18.9622642,5.63773585 16.1264151,3.43584906 Z" id="Path"></path>
                            </g>
                            <g id="Group" transform="translate(0.000000, 1.132075)" fill="#5493F7">
                                <path d="M9.58867925,2.39433962 C7.96981132,4.82830189 2.5754717,6.54339623 1.69245283,6.27735849 C1.69245283,6.27169811 1.68679245,6.27169811 1.68679245,6.26603774 C1.72075472,6.19245283 1.76037736,6.11886792 1.8,6.04528302 C2.10566038,5.4509434 2.45660377,4.88490566 2.85283019,4.35283019 C3.24339623,3.82075472 3.67358491,3.31698113 4.14339623,2.84716981 C4.61320755,2.37735849 5.11132075,1.94716981 5.6490566,1.55660377 C5.98301887,1.31320755 6.32264151,1.08679245 6.67924528,0.871698113 C7.43207547,0.435849057 8.20754717,0.40754717 8.46226415,0.396226415 C10.8566038,0.447169811 9.6,2.37735849 9.58867925,2.39433962" id="Path"></path>
                                <path d="M8.25849057,19.5962264 C8.37735849,20.3603774 8.25283019,23.3830189 8.1,23.6377358 C7.96415094,23.6433962 7.68679245,23.6603774 6.87169811,23.2075472 C6.44716981,22.9641509 6.03396226,22.6981132 5.63773585,22.409434 C5.10566038,22.0188679 4.60188679,21.5886792 4.13207547,21.1188679 C3.66226415,20.6490566 3.23207547,20.1509434 2.84150943,19.6132075 C2.4509434,19.0811321 2.1,18.5150943 1.78867925,17.9207547 C1.48301887,17.3264151 1.21698113,16.709434 1.00754717,16.0698113 C0.79245283,15.4301887 0.628301887,14.7622642 0.520754717,14.0830189 C0.40754717,13.4037736 0.350943396,12.7018868 0.350943396,11.9886792 C0.350943396,11.2754717 0.40754717,10.5735849 0.520754717,9.89433962 C0.633962264,9.21509434 0.798113208,8.54716981 1.00754717,7.90754717 C1.05283019,7.77735849 1.09811321,7.64716981 1.14339623,7.52264151 L1.14339623,7.52264151 C2.07169811,8.76226415 3.15283019,9.88301887 4.06981132,11.1339623 C4.94150943,12.3226415 6.14150943,14.2641509 6.38490566,14.6773585 C7.90188679,17.2415094 8.14528302,18.8320755 8.25849057,19.5962264" id="Path"></path>
                                <path d="M26.1792453,11.9830189 C26.1792453,13.6584906 25.8622642,15.254717 25.2792453,16.7264151 C23.7566038,18.3622642 13.5056604,14.3377358 13.4037736,14.2924528 C12,13.6754717 7.73207547,11.8075472 7.34716981,8.86981132 C6.79245283,4.64150943 15.3679245,1.69811321 19.1320755,1.58490566 C19.5849057,1.59056604 20.9603774,1.60754717 21.7584906,2.25849057 C24.4698113,4.6245283 26.1792453,8.10566038 26.1792453,11.9830189" id="Path"></path>
                                <path d="M19.2339623,23.4339623 C18.1188679,23.954717 16.8849057,23.5754717 17.2075472,22.4886792 C17.8188679,20.4 23.1792453,18.254717 24.3679245,18.1415094 C24.5150943,18.1245283 24.5773585,18.2264151 24.509434,18.3396226 C23.2754717,20.4962264 21.4471698,22.2792453 19.2339623,23.4339623" id="Path"></path>
                            </g>
                        </g>
                    </g>
                    <g id="Group" opacity="0.3" transform="translate(18.660377, 23.452830)" fill-rule="nonzero">
                        <path d="M1.23396226,0.333962264 C0.775471698,0.333962264 0.40754717,0.650943396 0.40754717,1.04150943 C0.40754717,5.02641509 0.40754717,10.1320755 0.40754717,14.1622642 C0.40754717,14.6943396 0.781132075,15.1245283 1.23396226,15.1245283 C13.4320755,15.2773585 25.2735849,18.7584906 25.2622723,16.9981132 C25.2622723,12.6113208 25.2622723,6.60566038 25.2622723,2.21886792 C25.2735849,0.418867925 13.4320755,0.339622642 1.23396226,0.333962264 Z" id="Path" fill="url(#linearGradient-1)" opacity="0"></path>
                        <path d="M1.23396226,0.333962264 C0.775471698,0.333962264 0.40754717,0.650943396 0.40754717,1.04150943 C0.40754717,5.02641509 0.40754717,10.1320755 0.40754717,14.1622642 C0.40754717,14.6943396 0.781132075,15.1188679 1.23396226,15.1245283 C13.3471698,15.1981132 25.0981132,18.5886792 25.0924549,16.8849057 C25.0754717,12.5603774 25.0754717,6.61132075 25.0924549,2.28679245 C25.0981132,0.543396226 13.3471698,0.345283019 1.23396226,0.333962264 Z" id="Path" fill="url(#linearGradient-2)" opacity="0.0625"></path>
                        <path d="M1.23396226,0.333962264 C0.775471698,0.333962264 0.40754717,0.650943396 0.40754717,1.04150943 C0.40754717,5.02641509 0.40754717,10.1320755 0.40754717,14.1622642 C0.40754717,14.6943396 0.781132075,15.1188679 1.23396226,15.1245283 C13.2622642,15.1924528 24.9283019,18.4188679 24.9226436,16.7716981 C24.9056604,12.509434 24.9056604,6.62264151 24.9226436,2.36037736 C24.9283019,0.667924528 13.2622642,0.350943396 1.23396226,0.333962264 Z" id="Path" fill="url(#linearGradient-3)" opacity="0.125"></path>
                        <path d="M1.23396226,0.333962264 C0.775471698,0.333962264 0.40754717,0.650943396 0.40754717,1.04150943 C0.40754717,5.02641509 0.40754717,10.1320755 0.40754717,14.1622642 C0.40754717,14.6943396 0.781132075,15.1188679 1.23396226,15.1188679 C13.1773585,15.1867925 24.7641509,18.2433962 24.7584926,16.6528302 C24.7415094,12.4528302 24.7415094,6.62264151 24.7584926,2.42264151 C24.7641509,0.79245283 13.1773585,0.356603774 1.23396226,0.333962264 Z" id="Path" fill="url(#linearGradient-4)" opacity="0.1875"></path>
                        <path d="M1.23396226,0.333962264 C0.775471698,0.333962264 0.40754717,0.650943396 0.40754717,1.03584906 C0.40754717,5.02075472 0.40754717,10.1264151 0.40754717,14.1566038 C0.40754717,14.6886792 0.781132075,15.1132075 1.23396226,15.1132075 C13.0924528,15.1754717 24.5943396,18.0679245 24.5886813,16.5339623 C24.5716981,12.390566 24.5716981,6.62830189 24.5886813,2.48490566 C24.5943396,0.916981132 13.0924528,0.362264151 1.23396226,0.333962264 Z" id="Path" fill="url(#linearGradient-5)" opacity="0.25"></path>
                        <path d="M1.23396226,0.333962264 C0.775471698,0.333962264 0.40754717,0.650943396 0.40754717,1.03584906 C0.40754717,5.02075472 0.40754717,10.1264151 0.40754717,14.1566038 C0.40754717,14.6886792 0.781132075,15.1132075 1.23396226,15.1132075 C13.0075472,15.1754717 24.4245283,17.9037736 24.41887,16.4207547 C24.4018868,12.3396226 24.4018868,6.63396226 24.41887,2.55283019 C24.4245283,1.04150943 13.0075472,0.367924528 1.23396226,0.333962264 Z" id="Path" fill="url(#linearGradient-6)" opacity="0.3125"></path>
                        <path d="M1.23396226,0.333962264 C0.775471698,0.333962264 0.40754717,0.650943396 0.40754717,1.03584906 C0.40754717,5.02075472 0.40754717,10.1264151 0.40754717,14.1566038 C0.40754717,14.6886792 0.781132075,15.1132075 1.23396226,15.1132075 C12.9226415,15.1698113 24.2603774,17.7339623 24.2547191,16.3075472 C24.2377358,12.2886792 24.2377358,6.64528302 24.2547191,2.62641509 C24.2603774,1.16603774 12.9226415,0.373584906 1.23396226,0.333962264 Z" id="Path" fill="url(#linearGradient-7)" opacity="0.375"></path>
                        <path d="M1.23396226,0.333962264 C0.775471698,0.333962264 0.40754717,0.650943396 0.40754717,1.03584906 C0.40754717,5.02075472 0.40754717,10.1264151 0.40754717,14.1566038 C0.40754717,14.6886792 0.781132075,15.1132075 1.23396226,15.1132075 C12.8377358,15.1641509 24.090566,17.5641509 24.0849078,16.1886792 C24.0679245,12.2320755 24.0679245,6.64528302 24.0849078,2.68867925 C24.090566,1.29056604 12.8433962,0.350943396 1.23396226,0.333962264 Z" id="Path" fill="url(#linearGradient-8)" opacity="0.4375"></path>
                        <path d="M1.23396226,0.333962264 C0.775471698,0.333962264 0.40754717,0.650943396 0.40754717,1.03584906 C0.40754717,5.02075472 0.40754717,10.1264151 0.40754717,14.1566038 C0.40754717,14.6830189 0.781132075,15.1132075 1.23396226,15.1132075 C12.7528302,15.1641509 23.9207547,17.3943396 23.9150965,16.0754717 C23.8981132,12.1754717 23.8981132,6.65660377 23.9150965,2.75660377 C23.9207547,1.41509434 12.7584906,0.356603774 1.23396226,0.333962264 Z" id="Path" fill="url(#linearGradient-9)" opacity="0.5"></path>
                        <path d="M1.23396226,0.333962264 C0.775471698,0.333962264 0.40754717,0.650943396 0.40754717,1.03584906 C0.40754717,5.02075472 0.40754717,10.1264151 0.40754717,14.1566038 C0.40754717,14.6830189 0.781132075,15.1132075 1.23396226,15.1132075 C12.6679245,15.1584906 23.7566038,17.2245283 23.7509456,15.9622642 C23.7339623,12.1245283 23.7339623,6.66226415 23.7509456,2.83018868 C23.7509456,1.53962264 12.6735849,0.356603774 1.23396226,0.333962264 Z" id="Path" fill="url(#linearGradient-10)" opacity="0.5625"></path>
                        <path d="M1.23396226,0.333962264 C0.775471698,0.333962264 0.40754717,0.650943396 0.40754717,1.03584906 C0.40754717,5.02075472 0.40754717,10.1264151 0.40754717,14.1566038 C0.40754717,14.6830189 0.781132075,15.1132075 1.23396226,15.1132075 C12.5830189,15.1584906 23.5867925,17.054717 23.5811343,15.8490566 C23.5641509,12.0735849 23.5641509,6.67358491 23.5811343,2.89811321 C23.5867925,1.66415094 12.5886792,0.362264151 1.23396226,0.333962264 Z" id="Path" fill="url(#linearGradient-11)" opacity="0.625"></path>
                        <path d="M1.23396226,0.339622642 C0.775471698,0.339622642 0.40754717,0.656603774 0.40754717,1.04150943 C0.40754717,5.02641509 0.40754717,10.1320755 0.40754717,14.1622642 C0.40754717,14.6886792 0.781132075,15.1188679 1.23396226,15.1188679 C12.4981132,15.1584906 23.4169811,16.890566 23.411323,15.7415094 C23.3943396,12.0283019 23.3943396,6.68490566 23.411323,2.97169811 C23.4169811,1.78867925 12.5037736,0.362264151 1.23396226,0.339622642 Z" id="Path" fill="url(#linearGradient-12)" opacity="0.6875"></path>
                        <path d="M1.23396226,0.339622642 C0.775471698,0.339622642 0.40754717,0.656603774 0.40754717,1.04150943 C0.40754717,5.02641509 0.40754717,10.1320755 0.40754717,14.1622642 C0.40754717,14.6886792 0.781132075,15.1188679 1.23396226,15.1188679 C12.4132075,15.1528302 23.2528302,16.7207547 23.247172,15.6283019 C23.2301887,11.9716981 23.2301887,6.69622642 23.247172,3.03962264 C23.247172,1.91320755 12.4188679,0.367924528 1.23396226,0.339622642 Z" id="Path" fill="url(#linearGradient-13)" opacity="0.75"></path>
                        <path d="M1.23396226,0.339622642 C0.775471698,0.339622642 0.40754717,0.656603774 0.40754717,1.04150943 C0.40754717,5.02641509 0.40754717,10.1320755 0.40754717,14.1622642 C0.40754717,14.6886792 0.781132075,15.1188679 1.23396226,15.1188679 C12.3283019,15.1528302 23.0830189,16.5509434 23.0773607,15.5150943 C23.0603774,11.9207547 23.0603774,6.70754717 23.0773607,3.11320755 C23.0830189,2.03773585 12.3339623,0.367924528 1.23396226,0.339622642 Z" id="Path" fill="url(#linearGradient-14)" opacity="0.8125"></path>
                        <path d="M1.23396226,0.339622642 C0.775471698,0.339622642 0.40754717,0.656603774 0.40754717,1.04150943 C0.40754717,5.02641509 0.40754717,10.1320755 0.40754717,14.1622642 C0.40754717,14.6886792 0.781132075,15.1188679 1.23396226,15.1188679 C12.2433962,15.1471698 22.9132075,16.3811321 22.9075472,15.4018868 C22.890566,11.8698113 22.890566,6.71320755 22.9075472,3.18113208 C22.9132075,2.16226415 12.2490566,0.373584906 1.23396226,0.339622642 Z" id="Path" fill="url(#linearGradient-15)" opacity="0.875"></path>
                        <path d="M1.23396226,0.339622642 C0.775471698,0.339622642 0.40754717,0.656603774 0.40754717,1.04150943 C0.40754717,5.02641509 0.40754717,10.1320755 0.40754717,14.1622642 C0.40754717,14.6886792 0.781132075,15.1188679 1.23396226,15.1188679 C12.1584906,15.1471698 22.7433962,16.2113208 22.7433962,15.2886792 C22.7264151,11.8188679 22.7264151,6.7245283 22.7433962,3.2490566 C22.7433962,2.28679245 12.1641509,0.373584906 1.23396226,0.339622642 Z" id="Path" fill="url(#linearGradient-16)" opacity="0.9375"></path>
                        <path d="M1.23396226,0.339622642 C0.775471698,0.339622642 0.40754717,0.656603774 0.40754717,1.04150943 C0.40754717,5.02641509 0.40754717,10.1320755 0.40754717,14.1622642 C0.40754717,14.6886792 0.781132075,15.1188679 1.23396226,15.1188679 C12.0735849,15.1641509 22.5849057,16.0471698 22.573594,15.1754717 C22.573594,11.7622642 22.573594,6.73018868 22.573594,3.32264151 C22.5849057,2.41132075 12.0792453,0.435849057 1.23396226,0.339622642 Z" id="Path" fill="url(#linearGradient-17)"></path>
                    </g>
                    <g id="Group" transform="translate(18.660377, 21.188679)" fill-rule="nonzero">
                        <g transform="translate(0.000000, 13.018868)">
                            <path d="M0.401886792,3.40754717 C0.401886792,3.93396226 0.769811321,4.36415094 1.22830189,4.36981132 C12.090566,4.44339623 22.5735849,3.94528302 22.5735849,2.32075472 C22.5735849,-2.60943396 0.401886792,3.40754717 0.401886792,3.40754717 Z" id="Path" fill="url(#linearGradient-18)"></path>
                            <path d="M0.401886792,3.40754717 L0.401886792,3.40754717 C0.401886792,3.93962264 0.769811321,4.36981132 1.22830189,4.36981132 C12.0849057,4.45471698 22.5566038,4.10943396 22.5679256,2.32075472 C22.5735849,-2.60943396 0.401886792,3.40754717 0.401886792,3.40754717 Z M1.23396226,4.30188679 C1.20566038,4.30188679 1.17735849,4.30188679 1.1490566,4.29622642 C0.81509434,4.25660377 0.543396226,4.00754717 0.447169811,3.67358491 C0.549056604,4.03584906 0.860377358,4.29622642 1.23396226,4.30188679 C12.0849057,4.22830189 22.4037736,0.888679245 22.4037736,2.36037736 C22.4037736,3.86037736 12.0849057,4.3754717 1.23396226,4.30188679 Z" id="Shape" fill="url(#linearGradient-19)"></path>
                        </g>
                        <path d="M1.23396226,2.47358491 L1.23396226,2.47358491 C0.775471698,2.47358491 0.40754717,2.84716981 0.40754717,3.3 C0.40754717,7.6754717 0.40754717,12.045283 0.40754717,16.4207547 C0.40754717,16.8792453 0.775471698,17.2471698 1.23396226,17.2471698 C12.0962264,17.1679245 22.590566,13.5735849 22.5792544,15.3283019 C22.5792544,10.4037736 22.5792544,5.47358491 22.5792544,0.549056604 C22.5849057,-1.2 12.090566,2.39433962 1.23396226,2.47358491 Z" id="Path" fill="url(#linearGradient-20)"></path>
                        <g transform="translate(3.396226, 1.698113)" id="Path">
                            <path d="M12.6509434,3.31698113 C12.854717,3.14716981 12.9566038,3.05660377 13.1603774,2.88679245 C12.9735849,2.63773585 12.8320755,2.4509434 12.690566,2.26415094 C12.5490566,2.07735849 12.4075472,1.89056604 12.2207547,1.64150943 C12.0169811,1.81132075 11.9150943,1.90188679 11.7056604,2.07169811 C11.8924528,2.32075472 12.0339623,2.50754717 12.1754717,2.69433962 C12.3169811,2.88113208 12.4584906,3.06792453 12.6509434,3.31698113 Z" fill="url(#linearGradient-21)"></path>
                            <path d="M13.754717,4.78867925 C13.9584906,4.61320755 14.0603774,4.52830189 14.2641509,4.35849057 C14.0773585,4.10943396 13.9358491,3.92264151 13.7943396,3.73584906 C13.6528302,3.5490566 13.5113208,3.36226415 13.3245283,3.11320755 C13.1207547,3.28301887 13.0188679,3.37358491 12.8150943,3.54339623 C13.0018868,3.79245283 13.1433962,3.97924528 13.2849057,4.16603774 C13.4264151,4.35283019 13.5679245,4.53962264 13.754717,4.78867925 Z" fill="url(#linearGradient-22)"></path>
                            <path d="M13.5,2.78490566 C13.6528302,2.98867925 13.8056604,3.19245283 13.9698113,3.41320755 C14.1339623,3.63396226 14.3150943,3.87169811 14.5188679,4.14339623 C14.7226415,3.97358491 14.8245283,3.88867925 15.0283019,3.71886792 C14.8245283,3.44716981 14.6433962,3.20377358 14.4792453,2.98301887 C14.3150943,2.76226415 14.1622642,2.55849057 14.009434,2.35471698 C13.8566038,2.1509434 13.7037736,1.94716981 13.5396226,1.72641509 C13.3754717,1.50566038 13.1943396,1.26792453 12.990566,0.996226415 C12.7867925,1.16603774 12.6849057,1.25660377 12.4811321,1.42641509 C12.6849057,1.69811321 12.8660377,1.93584906 13.0301887,2.15660377 C13.1943396,2.37735849 13.3471698,2.58113208 13.5,2.78490566 Z" fill="url(#linearGradient-23)"></path>
                            <path d="M14.1792453,2.02075472 C14.3830189,1.8509434 14.4849057,1.76603774 14.6886792,1.59056604 C14.5018868,1.34150943 14.3603774,1.15471698 14.2188679,0.967924528 C14.0773585,0.781132075 13.9358491,0.594339623 13.7490566,0.345283019 C13.545283,0.520754717 13.4433962,0.605660377 13.2396226,0.775471698 C13.4264151,1.0245283 13.5679245,1.21132075 13.709434,1.39811321 C13.8509434,1.58490566 13.9924528,1.77169811 14.1792453,2.02075472 Z" fill="url(#linearGradient-24)"></path>
                            <path d="M14.8641509,1.82264151 C14.6603774,1.99245283 14.5584906,2.07735849 14.354717,2.24716981 C14.5415094,2.49622642 14.6830189,2.68301887 14.8245283,2.8754717 C14.9660377,3.06226415 15.1075472,3.25471698 15.2943396,3.50377358 C15.4981132,3.33396226 15.6,3.2490566 15.8037736,3.08490566 C15.6169811,2.83018868 15.4754717,2.64339623 15.3339623,2.4509434 C15.1867925,2.26415094 15.0509434,2.07169811 14.8641509,1.82264151 Z" fill="url(#linearGradient-25)"></path>
                            <path d="M3.50377358,10.9132075 C3.3509434,10.6981132 3.19811321,10.4830189 3.02830189,10.245283 C2.85849057,10.0132075 2.68301887,9.75849057 2.47358491,9.46981132 C2.26981132,9.62264151 2.16792453,9.70188679 1.95849057,9.85471698 C2.16226415,10.1433962 2.34339623,10.3981132 2.50754717,10.6358491 C2.67169811,10.8735849 2.83018868,11.0886792 2.98301887,11.3037736 C3.13584906,11.5188679 3.29433962,11.7339623 3.45849057,11.9716981 C3.62830189,12.2037736 3.80377358,12.4584906 4.01320755,12.7415094 C4.21698113,12.5830189 4.31886792,12.5037736 4.52830189,12.345283 C4.3245283,12.0622642 4.14339623,11.8075472 3.97358491,11.5754717 C3.80943396,11.3433962 3.65660377,11.1283019 3.50377358,10.9132075 Z" fill="url(#linearGradient-26)"></path>
                            <path d="M1.66415094,11.0943396 C1.80566038,11.2924528 1.94716981,11.4962264 2.13396226,11.7622642 C2.33773585,11.609434 2.43962264,11.5301887 2.6490566,11.3773585 C2.46226415,11.1113208 2.32075472,10.9132075 2.17924528,10.7150943 C2.03773585,10.5169811 1.89622642,10.3132075 1.70943396,10.0471698 C1.50566038,10.2 1.40377358,10.2735849 1.19433962,10.4264151 C1.38113208,10.6924528 1.52264151,10.890566 1.66415094,11.0943396 Z" fill="url(#linearGradient-27)"></path>
                            <path d="M2.81886792,11.6150943 C2.61509434,11.7735849 2.51320755,11.8471698 2.30377358,12 C2.49056604,12.2660377 2.63207547,12.4641509 2.77358491,12.6622642 C2.91509434,12.8603774 3.05660377,13.0584906 3.24339623,13.3245283 C3.44716981,13.1660377 3.55471698,13.0924528 3.75849057,12.9339623 C3.57169811,12.6735849 3.43018868,12.4754717 3.28867925,12.2773585 C3.14716981,12.0792453 3.00566038,11.8811321 2.81886792,11.6150943 Z" fill="url(#linearGradient-28)"></path>
                            <path d="M1.96415094,12.0735849 C1.81132075,11.8528302 1.65849057,11.6377358 1.48867925,11.4 C1.31886792,11.1622642 1.14339623,10.9075472 0.933962264,10.6075472 C0.730188679,10.754717 0.628301887,10.8339623 0.418867925,10.9811321 C0.622641509,11.2754717 0.803773585,11.5358491 0.973584906,11.7735849 C1.14339623,12.0113208 1.29622642,12.2320755 1.4490566,12.4528302 C1.60188679,12.6735849 1.75471698,12.8886792 1.9245283,13.1264151 C2.08867925,13.3641509 2.26981132,13.6188679 2.47924528,13.9075472 C2.68301887,13.754717 2.78490566,13.6754717 2.99433962,13.5169811 C2.79056604,13.2283019 2.60943396,12.9735849 2.43962264,12.7415094 C2.26981132,12.509434 2.11698113,12.2943396 1.96415094,12.0735849 Z" fill="url(#linearGradient-29)"></path>
                            <path d="M3.46415094,3.71320755 C3.29433962,3.97924528 3.14150943,4.22264151 2.98867925,4.47169811 C2.83584906,4.71509434 2.67735849,4.95849057 2.51320755,5.2245283 C2.3490566,5.49056604 2.16792453,5.77358491 1.96415094,6.09622642 C2.16792453,6.21509434 2.26981132,6.27735849 2.47924528,6.39622642 C2.68301887,6.07358491 2.86415094,5.78490566 3.03396226,5.51886792 C3.20377358,5.25283019 3.35660377,5.00943396 3.50943396,4.76037736 C3.66226415,4.51698113 3.82075472,4.26792453 3.98490566,4.00188679 C4.15471698,3.73584906 4.33018868,3.44716981 4.53962264,3.11886792 C4.33584906,3.00566038 4.23396226,2.9490566 4.0245283,2.83018868 C3.81509434,3.15849057 3.63396226,3.44716981 3.46415094,3.71320755 Z" fill="url(#linearGradient-30)"></path>
                            <path d="M2.21886792,4.0245283 C2.06603774,4.26792453 1.91320755,4.51132075 1.74339623,4.77169811 C1.57358491,5.03207547 1.39811321,5.31509434 1.18867925,5.63773585 C1.39245283,5.76226415 1.49433962,5.81886792 1.70377358,5.94339623 C1.90754717,5.62075472 2.08867925,5.33773585 2.25849057,5.07169811 C2.42264151,4.80566038 2.58113208,4.56226415 2.73396226,4.31886792 C2.88679245,4.0754717 3.03962264,3.83207547 3.20943396,3.56603774 C3.37924528,3.3 3.55471698,3.01698113 3.76415094,2.68867925 C3.56037736,2.56981132 3.45283019,2.51320755 3.2490566,2.39433962 C3.04528302,2.72264151 2.86415094,3.00566038 2.69433962,3.27169811 C2.5245283,3.53773585 2.37169811,3.78113208 2.21886792,4.0245283 Z" fill="url(#linearGradient-31)"></path>
                            <path d="M1.48867925,4.6245283 C1.65283019,4.36415094 1.81132075,4.12075472 1.96415094,3.87735849 C2.11698113,3.63396226 2.26981132,3.39056604 2.43962264,3.1245283 C2.60377358,2.85849057 2.78490566,2.5754717 2.99433962,2.24716981 C2.79056604,2.12830189 2.68301887,2.07169811 2.47924528,1.95283019 C2.2754717,2.28113208 2.09433962,2.56415094 1.9245283,2.8245283 C1.75471698,3.08490566 1.60188679,3.32830189 1.4490566,3.57169811 C1.29622642,3.81509434 1.13773585,4.05283019 0.973584906,4.31320755 C0.809433962,4.57358491 0.628301887,4.8509434 0.418867925,5.17358491 C0.622641509,5.29811321 0.730188679,5.36037736 0.933962264,5.48490566 C1.13773585,5.16792453 1.31886792,4.88490566 1.48867925,4.6245283 Z" fill="url(#linearGradient-32)"></path>
                            <path d="M13.1603774,9.97358491 C12.9566038,9.87169811 12.854717,9.82075472 12.6509434,9.71886792 C12.4641509,10.0301887 12.3226415,10.2679245 12.1811321,10.5056604 C12.0396226,10.7433962 11.8981132,10.9754717 11.7113208,11.2924528 C11.9150943,11.3943396 12.0169811,11.445283 12.2207547,11.5471698 C12.4075472,11.2358491 12.5490566,10.9981132 12.690566,10.7603774 C12.8320755,10.5226415 12.9735849,10.290566 13.1603774,9.97358491 Z" fill="url(#linearGradient-33)"></path>
                            <path d="M13.3301887,9.68490566 C13.5169811,9.36792453 13.6584906,9.13584906 13.8,8.89811321 C13.9415094,8.66037736 14.0830189,8.42830189 14.2698113,8.11132075 C14.0660377,8.00943396 13.9641509,7.95849057 13.7603774,7.85660377 C13.5735849,8.17358491 13.4320755,8.40566038 13.290566,8.64339623 C13.1490566,8.88113208 13.0075472,9.11320755 12.8207547,9.43018868 C13.0245283,9.53773585 13.1264151,9.58867925 13.3301887,9.68490566 Z" fill="url(#linearGradient-34)"></path>
                            <path d="M13.9245283,10.3528302 C13.7207547,10.2509434 13.6188679,10.2 13.4150943,10.1037736 C13.2283019,10.4207547 13.0867925,10.6528302 12.945283,10.890566 C12.8037736,11.1283019 12.6622642,11.3603774 12.4754717,11.6773585 C12.6792453,11.7792453 12.7811321,11.8301887 12.9849057,11.9320755 C13.1716981,11.6150943 13.3132075,11.3830189 13.454717,11.145283 C13.5962264,10.9018868 13.7377358,10.6641509 13.9245283,10.3528302 Z" fill="url(#linearGradient-35)"></path>
                            <path d="M14.5641509,9.28301887 C14.7056604,9.04528302 14.8471698,8.81320755 15.0339623,8.50188679 C14.8301887,8.4 14.7283019,8.3490566 14.5245283,8.24716981 C14.3377358,8.55849057 14.1962264,8.79622642 14.054717,9.03396226 C13.9132075,9.27169811 13.7716981,9.50377358 13.5849057,9.82075472 C13.7886792,9.92264151 13.890566,9.97358491 14.0943396,10.0698113 C14.2811321,9.75283019 14.4226415,9.51509434 14.5641509,9.28301887 Z" fill="url(#linearGradient-36)"></path>
                            <path d="M13.7150943,11.2641509 C13.5735849,11.5018868 13.4320755,11.7396226 13.245283,12.0509434 C13.4490566,12.1528302 13.5509434,12.2037736 13.754717,12.3 C13.9415094,11.9830189 14.0830189,11.7509434 14.2245283,11.5132075 C14.3660377,11.2754717 14.5075472,11.0433962 14.6943396,10.7264151 C14.490566,10.6245283 14.3886792,10.5735849 14.1849057,10.4716981 C13.9924528,10.7886792 13.8509434,11.0264151 13.7150943,11.2641509 Z" fill="url(#linearGradient-37)"></path>
                            <path d="M14.8188679,9.40754717 C14.6773585,9.63962264 14.5358491,9.87735849 14.3490566,10.1886792 C14.5528302,10.290566 14.654717,10.3415094 14.8584906,10.4433962 C15.045283,10.1320755 15.1867925,9.9 15.3283019,9.66226415 C15.4698113,9.43018868 15.6113208,9.19811321 15.7981132,8.88679245 C15.5943396,8.77924528 15.4924528,8.72830189 15.2886792,8.62641509 C15.1018868,8.93773585 14.9603774,9.1754717 14.8188679,9.40754717 Z" fill="url(#linearGradient-38)"></path>
                        </g>
                        <path d="M14.9886792,7.12641509 C14.8584906,6.79245283 14.6716981,6.48679245 14.4339623,6.22075472 C14.1962264,5.95471698 13.9075472,5.73396226 13.5735849,5.56415094 C13.290566,5.42264151 12.990566,5.32641509 12.6792453,5.26981132 C12.3679245,5.21886792 12.0509434,5.20754717 11.7339623,5.23584906 C11.4169811,5.26415094 11.1056604,5.33773585 10.7943396,5.44528302 C10.4830189,5.55283019 10.1830189,5.69433962 9.89433962,5.86981132 C9.60566038,6.04528302 9.33962264,6.25471698 9.09056604,6.49811321 C8.84716981,6.74150943 8.62641509,7.01886792 8.43396226,7.31886792 C8.21886792,7.66415094 8.08301887,8.02075472 8.01509434,8.38301887 C7.94716981,8.74528302 7.95283019,9.10188679 8.02075472,9.44716981 C8.08867925,9.78679245 8.2245283,10.109434 8.42264151,10.3867925 C8.62075472,10.6641509 8.88113208,10.9018868 9.19811321,11.0716981 C9.51509434,11.2415094 9.86603774,11.3377358 10.2226415,11.354717 C10.5792453,11.3716981 10.9415094,11.3207547 11.2867925,11.1962264 C11.6320755,11.0716981 11.9660377,10.8849057 12.2716981,10.6415094 C12.5716981,10.3981132 12.8433962,10.0924528 13.0528302,9.74150943 C13.3584906,9.9 13.590566,10.0132075 13.8226415,10.1264151 C14.054717,10.2396226 14.2811321,10.3584906 14.5867925,10.5056604 C14.8132075,10.1264151 14.9773585,9.73584906 15.0792453,9.34528302 C15.1811321,8.95471698 15.2207547,8.56415094 15.2037736,8.19056604 C15.1924528,7.82264151 15.1188679,7.46037736 14.9886792,7.12641509 Z" id="Path" fill="url(#linearGradient-39)"></path>
                        <path d="M14.0830189,8.04339623 C13.8,7.90188679 13.4886792,7.8509434 13.1716981,7.88490566 C12.854717,7.91886792 12.5377358,8.03207547 12.2490566,8.21320755 C11.9603774,8.39433962 11.7113208,8.6490566 11.5188679,8.96037736 C11.3320755,9.27169811 11.0773585,9.52641509 10.7943396,9.70188679 C10.5113208,9.88301887 10.1886792,9.99056604 9.87169811,10.0132075 C9.55471698,10.0358491 9.23773585,9.97358491 8.95471698,9.82075472 C8.67169811,9.66792453 8.45660377,9.44150943 8.32075472,9.16981132 C8.17924528,8.89811321 8.11698113,8.59245283 8.13396226,8.26981132 C8.1509434,7.95283019 8.25283019,7.6245283 8.43962264,7.31886792 C8.21320755,7.68679245 8.0490566,8.06603774 7.94716981,8.4509434 C7.84528302,8.83584906 7.80566038,9.22075472 7.82264151,9.6 C7.83962264,9.97924528 7.91320755,10.3415094 8.04339623,10.6867925 C8.17358491,11.0264151 8.36037736,11.3433962 8.59811321,11.6207547 C8.83584906,11.8981132 9.1245283,12.1358491 9.46415094,12.3169811 C9.74716981,12.4698113 10.0471698,12.5773585 10.3584906,12.6339623 C10.6698113,12.6962264 10.9867925,12.7075472 11.2981132,12.6792453 C11.6150943,12.6509434 11.9320755,12.5773585 12.2433962,12.4698113 C12.554717,12.3622642 12.854717,12.209434 13.1377358,12.0283019 C13.4207547,11.8415094 13.6924528,11.6264151 13.9358491,11.3716981 C14.1792453,11.1169811 14.4,10.8283019 14.5867925,10.5169811 C14.7735849,10.2 14.8754717,9.86603774 14.8924528,9.5490566 C14.909434,9.23207547 14.8471698,8.92075472 14.7113208,8.66037736 C14.5811321,8.4 14.3660377,8.18490566 14.0830189,8.04339623 Z" id="Path" fill="url(#linearGradient-40)"></path>
                        <g opacity="0.19" fill="url(#linearGradient-41)" id="Path">
                            <path d="M1.23396226,2.47358491 L1.23396226,2.47358491 C0.775471698,2.47358491 0.40754717,2.84716981 0.40754717,3.30566038 L0.40754717,3.30566038 C0.40754717,7.68113208 0.40754717,12.0509434 0.40754717,16.4264151 L0.40754717,16.4264151 C0.40754717,16.8849057 0.775471698,17.2528302 1.23396226,17.2528302 L1.23396226,17.2528302 C12.0962264,17.1735849 22.590566,13.5792453 22.5792544,15.3339623 C22.5792544,10.409434 22.5792544,5.47924528 22.5792544,0.554716981 C22.5849057,-1.2 12.090566,2.39433962 1.23396226,2.47358491 Z"></path>
                        </g>
                    </g>
                </g>
            </g>
        </g>
    </g>
</svg>