<?xml version="1.0" encoding="UTF-8"?>
<svg width="60px" height="60px" viewBox="0 0 60 60" version="1.1" xmlns="http://www.w3.org/2000/svg" xmlns:xlink="http://www.w3.org/1999/xlink">
    <title>akrt</title>
    <defs>
        <linearGradient x1="0.127160494%" y1="49.9559149%" x2="99.912963%" y2="49.9559149%" id="linearGradient-1">
            <stop stop-color="#000000" stop-opacity="0" offset="37.5%"></stop>
            <stop stop-color="#000000" stop-opacity="0" offset="100%"></stop>
        </linearGradient>
        <linearGradient x1="0.12834696%" y1="49.997733%" x2="100.164834%" y2="49.997733%" id="linearGradient-2">
            <stop stop-color="#000000" stop-opacity="0.0625" offset="37.5%"></stop>
            <stop stop-color="#000000" stop-opacity="0" offset="100%"></stop>
        </linearGradient>
        <linearGradient x1="0.129153605%" y1="50.0386761%" x2="100.110031%" y2="50.0386761%" id="linearGradient-3">
            <stop stop-color="#000000" stop-opacity="0.125" offset="37.5%"></stop>
            <stop stop-color="#000000" stop-opacity="0" offset="100%"></stop>
        </linearGradient>
        <linearGradient x1="0.129968454%" y1="49.9645496%" x2="100.052681%" y2="49.9645496%" id="linearGradient-4">
            <stop stop-color="#000000" stop-opacity="0.1875" offset="37.5%"></stop>
            <stop stop-color="#000000" stop-opacity="0" offset="100%"></stop>
        </linearGradient>
        <linearGradient x1="0.130793651%" y1="50.0947814%" x2="99.9946032%" y2="50.0947814%" id="linearGradient-5">
            <stop stop-color="#000000" stop-opacity="0.25" offset="37.5%"></stop>
            <stop stop-color="#000000" stop-opacity="0" offset="100%"></stop>
        </linearGradient>
        <linearGradient x1="0.131629393%" y1="50.0205875%" x2="99.9357827%" y2="50.0205875%" id="linearGradient-6">
            <stop stop-color="#000000" stop-opacity="0.3125" offset="37.5%"></stop>
            <stop stop-color="#000000" stop-opacity="0" offset="100%"></stop>
        </linearGradient>
        <linearGradient x1="0.132901065%" y1="49.9464159%" x2="100.196758%" y2="49.9464159%" id="linearGradient-7">
            <stop stop-color="#000000" stop-opacity="0.375" offset="37.5%"></stop>
            <stop stop-color="#000000" stop-opacity="0" offset="100%"></stop>
        </linearGradient>
        <linearGradient x1="0.133764031%" y1="49.9843943%" x2="100.138286%" y2="49.9843943%" id="linearGradient-8">
            <stop stop-color="#000000" stop-opacity="0.4375" offset="37.5%"></stop>
            <stop stop-color="#000000" stop-opacity="0" offset="100%"></stop>
        </linearGradient>
        <linearGradient x1="0.134640523%" y1="49.9102107%" x2="100.080719%" y2="49.9102107%" id="linearGradient-9">
            <stop stop-color="#000000" stop-opacity="0.5" offset="37.5%"></stop>
            <stop stop-color="#000000" stop-opacity="0" offset="100%"></stop>
        </linearGradient>
        <linearGradient x1="0.135526316%" y1="49.9442263%" x2="100.020724%" y2="49.9442263%" id="linearGradient-10">
            <stop stop-color="#000000" stop-opacity="0.5625" offset="37.5%"></stop>
            <stop stop-color="#000000" stop-opacity="0" offset="100%"></stop>
        </linearGradient>
        <linearGradient x1="0.136423841%" y1="49.9708642%" x2="99.9599338%" y2="49.9708642%" id="linearGradient-11">
            <stop stop-color="#000000" stop-opacity="0.625" offset="37.5%"></stop>
            <stop stop-color="#000000" stop-opacity="0" offset="100%"></stop>
        </linearGradient>
        <linearGradient x1="0.137790222%" y1="50.0031011%" x2="100.230681%" y2="50.0031011%" id="linearGradient-12">
            <stop stop-color="#000000" stop-opacity="0.6875" offset="37.5%"></stop>
            <stop stop-color="#000000" stop-opacity="0" offset="100%"></stop>
        </linearGradient>
        <linearGradient x1="0.138718069%" y1="49.9665133%" x2="100.17027%" y2="49.9665133%" id="linearGradient-13">
            <stop stop-color="#000000" stop-opacity="0.75" offset="37.5%"></stop>
            <stop stop-color="#000000" stop-opacity="0" offset="100%"></stop>
        </linearGradient>
        <linearGradient x1="0.139661017%" y1="49.9964259%" x2="100.110847%" y2="49.9964259%" id="linearGradient-14">
            <stop stop-color="#000000" stop-opacity="0.8125" offset="37.5%"></stop>
            <stop stop-color="#000000" stop-opacity="0" offset="100%"></stop>
        </linearGradient>
        <linearGradient x1="0.140614334%" y1="50.0362137%" x2="100.048805%" y2="50.0362137%" id="linearGradient-15">
            <stop stop-color="#000000" stop-opacity="0.875" offset="37.5%"></stop>
            <stop stop-color="#000000" stop-opacity="0" offset="100%"></stop>
        </linearGradient>
        <linearGradient x1="0.141580756%" y1="50.0623554%" x2="99.9862543%" y2="50.0623554%" id="linearGradient-16">
            <stop stop-color="#000000" stop-opacity="0.9375" offset="37.5%"></stop>
            <stop stop-color="#000000" stop-opacity="0" offset="100%"></stop>
        </linearGradient>
        <linearGradient x1="0.142560554%" y1="49.9624303%" x2="99.9224913%" y2="49.9624303%" id="linearGradient-17">
            <stop stop-color="#000000" offset="37.5%"></stop>
            <stop stop-color="#000000" stop-opacity="0" offset="100%"></stop>
        </linearGradient>
        <linearGradient x1="0.143598616%" y1="50.4680782%" x2="99.9224913%" y2="50.4680782%" id="linearGradient-18">
            <stop stop-color="#808080" offset="0%"></stop>
            <stop stop-color="#838383" offset="32.75%"></stop>
            <stop stop-color="#8D8D8D" offset="59.05%"></stop>
            <stop stop-color="#9E9E9E" offset="83.02%"></stop>
            <stop stop-color="#AFAFAF" offset="100%"></stop>
        </linearGradient>
        <linearGradient x1="50.032872%" y1="0.57934696%" x2="50.032872%" y2="100.374624%" id="linearGradient-19">
            <stop stop-color="#DFDFDF" offset="35%"></stop>
            <stop stop-color="#DDDDDD" offset="64.54%"></stop>
            <stop stop-color="#D6D6D6" offset="75.17%"></stop>
            <stop stop-color="#CBCBCB" offset="82.76%"></stop>
            <stop stop-color="#BABABA" offset="88.89%"></stop>
            <stop stop-color="#A4A4A4" offset="94.14%"></stop>
            <stop stop-color="#898989" offset="98.7%"></stop>
            <stop stop-color="#808080" offset="100%"></stop>
        </linearGradient>
        <linearGradient x1="0.143598616%" y1="49.8403247%" x2="99.9224913%" y2="49.8403247%" id="linearGradient-20">
            <stop stop-color="#DFDFDF" offset="0%"></stop>
            <stop stop-color="#E1E1E1" offset="2.09706%"></stop>
            <stop stop-color="#F2F2F2" offset="24.35%"></stop>
            <stop stop-color="#FCFCFC" offset="48.72%"></stop>
            <stop stop-color="#FFFFFF" offset="79.11%"></stop>
            <stop stop-color="#FCFCFC" offset="84.44%"></stop>
            <stop stop-color="#F2F2F2" offset="88.71%"></stop>
            <stop stop-color="#E1E1E1" offset="92.63%"></stop>
            <stop stop-color="#C9C9C9" offset="96.3%"></stop>
            <stop stop-color="#C7C7C7" offset="96.6%"></stop>
            <stop stop-color="#FFFFFF" offset="100%"></stop>
        </linearGradient>
        <linearGradient x1="-1008.3%" y1="51.6590909%" x2="509.326316%" y2="51.6590909%" id="linearGradient-21">
            <stop stop-color="#242424" offset="0%"></stop>
            <stop stop-color="#2D2D2D" offset="33.46%"></stop>
            <stop stop-color="#303030" offset="79.11%"></stop>
            <stop stop-color="#2D2D2D" offset="86.68%"></stop>
            <stop stop-color="#232323" offset="92.75%"></stop>
            <stop stop-color="#181818" offset="96.6%"></stop>
            <stop stop-color="#303030" offset="100%"></stop>
        </linearGradient>
        <linearGradient x1="-1082.12632%" y1="52.3227273%" x2="435.684211%" y2="52.3227273%" id="linearGradient-22">
            <stop stop-color="#242424" offset="0%"></stop>
            <stop stop-color="#2D2D2D" offset="33.46%"></stop>
            <stop stop-color="#303030" offset="79.11%"></stop>
            <stop stop-color="#2D2D2D" offset="86.68%"></stop>
            <stop stop-color="#232323" offset="92.75%"></stop>
            <stop stop-color="#181818" offset="96.6%"></stop>
            <stop stop-color="#303030" offset="100%"></stop>
        </linearGradient>
        <linearGradient x1="-610.836364%" y1="50.1073171%" x2="262.942424%" y2="50.1073171%" id="linearGradient-23">
            <stop stop-color="#242424" offset="0%"></stop>
            <stop stop-color="#2D2D2D" offset="33.46%"></stop>
            <stop stop-color="#303030" offset="79.11%"></stop>
            <stop stop-color="#2D2D2D" offset="86.68%"></stop>
            <stop stop-color="#232323" offset="92.75%"></stop>
            <stop stop-color="#181818" offset="96.6%"></stop>
            <stop stop-color="#303030" offset="100%"></stop>
        </linearGradient>
        <linearGradient x1="-1113.54737%" y1="52.4818182%" x2="404.047368%" y2="52.4818182%" id="linearGradient-24">
            <stop stop-color="#242424" offset="0%"></stop>
            <stop stop-color="#2D2D2D" offset="33.46%"></stop>
            <stop stop-color="#303030" offset="79.11%"></stop>
            <stop stop-color="#2D2D2D" offset="86.68%"></stop>
            <stop stop-color="#232323" offset="92.75%"></stop>
            <stop stop-color="#181818" offset="96.6%"></stop>
            <stop stop-color="#303030" offset="100%"></stop>
        </linearGradient>
        <linearGradient x1="-1187.22105%" y1="49.0227273%" x2="330.373684%" y2="49.0227273%" id="linearGradient-25">
            <stop stop-color="#242424" offset="0%"></stop>
            <stop stop-color="#2D2D2D" offset="33.46%"></stop>
            <stop stop-color="#303030" offset="79.11%"></stop>
            <stop stop-color="#2D2D2D" offset="86.68%"></stop>
            <stop stop-color="#232323" offset="92.75%"></stop>
            <stop stop-color="#181818" offset="96.6%"></stop>
            <stop stop-color="#303030" offset="100%"></stop>
        </linearGradient>
        <linearGradient x1="-195.709091%" y1="50.1511628%" x2="678.093939%" y2="50.1511628%" id="linearGradient-26">
            <stop stop-color="#242424" offset="0%"></stop>
            <stop stop-color="#2D2D2D" offset="33.46%"></stop>
            <stop stop-color="#303030" offset="79.11%"></stop>
            <stop stop-color="#2D2D2D" offset="86.68%"></stop>
            <stop stop-color="#232323" offset="92.75%"></stop>
            <stop stop-color="#181818" offset="96.6%"></stop>
            <stop stop-color="#303030" offset="100%"></stop>
        </linearGradient>
        <linearGradient x1="-287.331579%" y1="51.973913%" x2="1230.51053%" y2="51.973913%" id="linearGradient-27">
            <stop stop-color="#242424" offset="0%"></stop>
            <stop stop-color="#2D2D2D" offset="33.46%"></stop>
            <stop stop-color="#303030" offset="79.11%"></stop>
            <stop stop-color="#2D2D2D" offset="86.68%"></stop>
            <stop stop-color="#232323" offset="92.75%"></stop>
            <stop stop-color="#181818" offset="96.6%"></stop>
            <stop stop-color="#303030" offset="100%"></stop>
        </linearGradient>
        <linearGradient x1="-360.926316%" y1="49.3956522%" x2="1156.55263%" y2="49.3956522%" id="linearGradient-28">
            <stop stop-color="#242424" offset="0%"></stop>
            <stop stop-color="#2D2D2D" offset="33.46%"></stop>
            <stop stop-color="#303030" offset="79.11%"></stop>
            <stop stop-color="#2D2D2D" offset="86.68%"></stop>
            <stop stop-color="#232323" offset="92.75%"></stop>
            <stop stop-color="#181818" offset="96.6%"></stop>
            <stop stop-color="#303030" offset="100%"></stop>
        </linearGradient>
        <linearGradient x1="-135.115152%" y1="50.2418605%" x2="738.718182%" y2="50.2418605%" id="linearGradient-29">
            <stop stop-color="#242424" offset="0%"></stop>
            <stop stop-color="#2D2D2D" offset="33.46%"></stop>
            <stop stop-color="#303030" offset="79.11%"></stop>
            <stop stop-color="#2D2D2D" offset="86.68%"></stop>
            <stop stop-color="#232323" offset="92.75%"></stop>
            <stop stop-color="#181818" offset="96.6%"></stop>
            <stop stop-color="#303030" offset="100%"></stop>
        </linearGradient>
        <linearGradient x1="-195.706061%" y1="51.3723404%" x2="678.087879%" y2="51.3723404%" id="linearGradient-30">
            <stop stop-color="#242424" offset="0%"></stop>
            <stop stop-color="#2D2D2D" offset="33.46%"></stop>
            <stop stop-color="#303030" offset="79.11%"></stop>
            <stop stop-color="#2D2D2D" offset="86.68%"></stop>
            <stop stop-color="#232323" offset="92.75%"></stop>
            <stop stop-color="#181818" offset="96.6%"></stop>
            <stop stop-color="#303030" offset="100%"></stop>
        </linearGradient>
        <linearGradient x1="-165.418182%" y1="48.6630435%" x2="708.415152%" y2="48.6630435%" id="linearGradient-31">
            <stop stop-color="#242424" offset="0%"></stop>
            <stop stop-color="#2D2D2D" offset="33.46%"></stop>
            <stop stop-color="#303030" offset="79.11%"></stop>
            <stop stop-color="#2D2D2D" offset="86.68%"></stop>
            <stop stop-color="#232323" offset="92.75%"></stop>
            <stop stop-color="#181818" offset="96.6%"></stop>
            <stop stop-color="#303030" offset="100%"></stop>
        </linearGradient>
        <linearGradient x1="-135.115152%" y1="51.1347826%" x2="738.718182%" y2="51.1347826%" id="linearGradient-32">
            <stop stop-color="#242424" offset="0%"></stop>
            <stop stop-color="#2D2D2D" offset="33.46%"></stop>
            <stop stop-color="#303030" offset="79.11%"></stop>
            <stop stop-color="#2D2D2D" offset="86.68%"></stop>
            <stop stop-color="#232323" offset="92.75%"></stop>
            <stop stop-color="#181818" offset="96.6%"></stop>
            <stop stop-color="#303030" offset="100%"></stop>
        </linearGradient>
        <linearGradient x1="-1008.3%" y1="49.7782609%" x2="509.326316%" y2="49.7782609%" id="linearGradient-33">
            <stop stop-color="#242424" offset="0%"></stop>
            <stop stop-color="#2D2D2D" offset="33.46%"></stop>
            <stop stop-color="#303030" offset="79.11%"></stop>
            <stop stop-color="#2D2D2D" offset="86.68%"></stop>
            <stop stop-color="#232323" offset="92.75%"></stop>
            <stop stop-color="#181818" offset="96.6%"></stop>
            <stop stop-color="#303030" offset="100%"></stop>
        </linearGradient>
        <linearGradient x1="-1082.12632%" y1="49.0086957%" x2="435.684211%" y2="49.0086957%" id="linearGradient-34">
            <stop stop-color="#242424" offset="0%"></stop>
            <stop stop-color="#2D2D2D" offset="33.46%"></stop>
            <stop stop-color="#303030" offset="79.11%"></stop>
            <stop stop-color="#2D2D2D" offset="86.68%"></stop>
            <stop stop-color="#232323" offset="92.75%"></stop>
            <stop stop-color="#181818" offset="96.6%"></stop>
            <stop stop-color="#303030" offset="100%"></stop>
        </linearGradient>
        <linearGradient x1="-1055.67895%" y1="49.473913%" x2="461.973684%" y2="49.473913%" id="linearGradient-35">
            <stop stop-color="#242424" offset="0%"></stop>
            <stop stop-color="#2D2D2D" offset="33.46%"></stop>
            <stop stop-color="#303030" offset="79.11%"></stop>
            <stop stop-color="#2D2D2D" offset="86.68%"></stop>
            <stop stop-color="#232323" offset="92.75%"></stop>
            <stop stop-color="#181818" offset="96.6%"></stop>
            <stop stop-color="#303030" offset="100%"></stop>
        </linearGradient>
        <linearGradient x1="-1134.59474%" y1="48.6913043%" x2="383%" y2="48.6913043%" id="linearGradient-36">
            <stop stop-color="#242424" offset="0%"></stop>
            <stop stop-color="#2D2D2D" offset="33.46%"></stop>
            <stop stop-color="#303030" offset="79.11%"></stop>
            <stop stop-color="#2D2D2D" offset="86.68%"></stop>
            <stop stop-color="#232323" offset="92.75%"></stop>
            <stop stop-color="#181818" offset="96.6%"></stop>
            <stop stop-color="#303030" offset="100%"></stop>
        </linearGradient>
        <linearGradient x1="-1113.54211%" y1="49.0913043%" x2="404.052632%" y2="49.0913043%" id="linearGradient-37">
            <stop stop-color="#242424" offset="0%"></stop>
            <stop stop-color="#2D2D2D" offset="33.46%"></stop>
            <stop stop-color="#303030" offset="79.11%"></stop>
            <stop stop-color="#2D2D2D" offset="86.68%"></stop>
            <stop stop-color="#232323" offset="92.75%"></stop>
            <stop stop-color="#181818" offset="96.6%"></stop>
            <stop stop-color="#303030" offset="100%"></stop>
        </linearGradient>
        <linearGradient x1="-1187.22105%" y1="48.726087%" x2="330.373684%" y2="48.726087%" id="linearGradient-38">
            <stop stop-color="#242424" offset="0%"></stop>
            <stop stop-color="#2D2D2D" offset="33.46%"></stop>
            <stop stop-color="#303030" offset="79.11%"></stop>
            <stop stop-color="#2D2D2D" offset="86.68%"></stop>
            <stop stop-color="#232323" offset="92.75%"></stop>
            <stop stop-color="#181818" offset="96.6%"></stop>
            <stop stop-color="#303030" offset="100%"></stop>
        </linearGradient>
        <linearGradient x1="-105.425067%" y1="49.7125382%" x2="202.16%" y2="49.7125382%" id="linearGradient-39">
            <stop stop-color="#B41B00" offset="0%"></stop>
            <stop stop-color="#B61D01" offset="2.09706%"></stop>
            <stop stop-color="#C72E0B" offset="24.35%"></stop>
            <stop stop-color="#D13811" offset="48.72%"></stop>
            <stop stop-color="#D43B13" offset="79.11%"></stop>
            <stop stop-color="#D13812" offset="84.15%"></stop>
            <stop stop-color="#C72F0F" offset="88.19%"></stop>
            <stop stop-color="#B61F0A" offset="91.9%"></stop>
            <stop stop-color="#9E0903" offset="95.37%"></stop>
            <stop stop-color="#940000" offset="96.6%"></stop>
            <stop stop-color="#D43B13" offset="100%"></stop>
        </linearGradient>
        <linearGradient x1="-107.238462%" y1="47.4971429%" x2="209.641758%" y2="47.4971429%" id="linearGradient-40">
            <stop stop-color="#00209F" offset="0%"></stop>
            <stop stop-color="#0222A1" offset="2.09706%"></stop>
            <stop stop-color="#1333B2" offset="24.35%"></stop>
            <stop stop-color="#1D3DBC" offset="48.72%"></stop>
            <stop stop-color="#2040BF" offset="79.11%"></stop>
            <stop stop-color="#1E3DBC" offset="84.15%"></stop>
            <stop stop-color="#1933B2" offset="88.19%"></stop>
            <stop stop-color="#1122A1" offset="91.9%"></stop>
            <stop stop-color="#050A89" offset="95.37%"></stop>
            <stop stop-color="#00007F" offset="96.6%"></stop>
            <stop stop-color="#2040BF" offset="100%"></stop>
        </linearGradient>
        <linearGradient x1="0.141522491%" y1="49.8403247%" x2="99.9214533%" y2="49.8403247%" id="linearGradient-41">
            <stop stop-color="#404040" offset="0%"></stop>
            <stop stop-color="#FFFFFF" offset="79.11%"></stop>
            <stop stop-color="#FFFFFF" offset="96.6%"></stop>
            <stop stop-color="#FFFFFF" offset="100%"></stop>
        </linearGradient>
    </defs>
    <g id="GNB" stroke="none" stroke-width="1" fill="none" fill-rule="evenodd">
        <g id="Market" transform="translate(-160.000000, -873.000000)">
            <g id="akrt" transform="translate(160.000000, 873.000000)">
                <rect id="thum" opacity="0.200000003" x="0" y="0" width="60" height="60"></rect>
                <g id="Group" transform="translate(4.000000, 4.000000)" fill-rule="nonzero">
                    <g id="aKRT">
                        <path d="M26,52 C11.7,52 0,40.3 0,26 C0,11.7 11.7,0 26,0 C40.3,0 52,11.7 52,26 C52,40.3 40.3,52 26,52 Z M26,3.9 C13.8,3.9 3.9,13.8 3.9,26 C3.9,38.2 13.8,48.1 26,48.1 C38.2,48.1 48.1,38.2 48.1,26 C48.1,13.8 38.2,3.9 26,3.9 Z" id="Shape" fill="#4BDB4B"></path>
                        <g id="Symbol_1_" transform="translate(9.000000, 9.000000)">
                            <g id="Group" transform="translate(7.000000, 0.000000)" fill="#0E3CA5">
                                <path d="M7.7,26.3 C8.6,29.7 11.9,32.3 13.6,32.2 C13.7,32.2 19.9,31 23.4,25.3 C26.1,20.8 25.2,16.5 21.5,16.4 C20.1,16.5 5.9,19.8 7.7,26.3" id="Path"></path>
                                <path d="M21.1,4.4 C21.1,4.4 21.1,4.4 21.1,4.4 L21.1,4.4 C18.3,2 14.7,0.6 10.8,0.6 C8.5,0.6 6.3,1.1 4.3,2 C3.9,2.1 3.6,2.3 3.3,2.5 C3.1,2.6 2.9,2.7 2.6,2.9 L2.7,2.9 C2,3.4 1.5,3.9 1,4.5 C-3.6,10.5 11.8,14.9 20,14.9 C23.7,17.6 24.8,7.3 21.1,4.4 Z" id="Path"></path>
                            </g>
                            <g id="Group" transform="translate(0.000000, 1.000000)" fill="#5493F7">
                                <path d="M12.2,3.5 C10.1,6.7 3.1,8.9 1.9,8.5 C1.9,8.5 1.9,8.5 1.9,8.5 C1.9,8.4 2,8.3 2,8.2 C2.4,7.4 2.9,6.7 3.4,6 C3.9,5.3 4.5,4.7 5.1,4 C5.7,3.3 6.4,2.8 7.1,2.3 C7.5,2 8,1.7 8.4,1.4 C9.4,0.8 10.4,0.8 10.7,0.8 C13.9,1 12.2,3.5 12.2,3.5" id="Path"></path>
                                <path d="M10.5,25.9 C10.7,26.9 10.5,30.8 10.3,31.2 C10.1,31.2 9.8,31.2 8.7,30.6 C8.1,30.3 7.6,29.9 7.1,29.6 C6.4,29.1 5.8,28.5 5.1,27.9 C4.4,27.3 3.9,26.6 3.4,25.9 C2.9,25.2 2.4,24.5 2,23.7 C1.6,22.9 1.3,22.1 1,21.3 C0.7,20.5 0.5,19.6 0.4,18.7 C0.3,17.8 0.2,16.9 0.2,16 C0.2,15.1 0.3,14.2 0.4,13.3 C0.5,12.4 0.8,11.5 1,10.7 C1.1,10.5 1.1,10.4 1.2,10.2 L1.2,10.2 C2.4,11.8 3.8,13.3 5,14.9 C6.1,16.4 7.7,19 8,19.5 C10,22.9 10.3,24.9 10.5,25.9" id="Path"></path>
                                <path d="M33.8,16 C33.8,18.2 33.4,20.3 32.6,22.2 C30.6,24.3 17.3,19.1 17.2,19 C15.4,18.2 9.8,15.8 9.3,11.9 C8.6,6.4 19.7,2.6 24.6,2.4 C25.2,2.4 27,2.4 28,3.3 C31.6,6.4 33.8,11 33.8,16" id="Path"></path>
                                <path d="M24.8,30.9 C23.3,31.6 21.7,31.1 22.2,29.7 C23,27 30,24.2 31.5,24 C31.7,24 31.8,24.1 31.7,24.3 C30,27.1 27.7,29.4 24.8,30.9" id="Path"></path>
                            </g>
                        </g>
                        <g id="Group" transform="translate(16.000000, 22.000000)">
                            <g opacity="0.3" transform="translate(0.000000, 3.000000)" id="Path">
                                <path d="M1.7,0.6 C1.1,0.6 0.6,1 0.6,1.5 C0.6,6.7 0.6,13.3 0.6,18.6 C0.6,19.3 1.1,19.8 1.7,19.8 C17.6,20 33,24.5 33,22.3 C33,16.6 33,8.8 33,3.1 C33,0.7 17.6,0.6 1.7,0.6 Z" fill="url(#linearGradient-1)" opacity="0"></path>
                                <path d="M1.7,0.6 C1.1,0.6 0.6,1 0.6,1.5 C0.6,6.7 0.6,13.3 0.6,18.6 C0.6,19.3 1.1,19.8 1.7,19.8 C17.5,19.9 32.7,24.3 32.7,22.1 C32.7,16.5 32.7,8.7 32.7,3.1 C32.8,0.9 17.5,0.6 1.7,0.6 Z" fill="url(#linearGradient-2)" opacity="0.0625"></path>
                                <path d="M1.7,0.6 C1.1,0.6 0.6,1 0.6,1.5 C0.6,6.7 0.6,13.3 0.6,18.6 C0.6,19.3 1.1,19.8 1.7,19.8 C17.3,19.9 32.5,24.1 32.5,21.9 C32.5,16.4 32.5,8.7 32.5,3.2 C32.5,1 17.4,0.6 1.7,0.6 Z" fill="url(#linearGradient-3)" opacity="0.125"></path>
                                <path d="M1.7,0.6 C1.1,0.6 0.6,1 0.6,1.5 C0.6,6.7 0.6,13.3 0.6,18.6 C0.6,19.3 1.1,19.8 1.7,19.8 C17.2,19.9 32.3,23.9 32.3,21.8 C32.3,16.3 32.3,8.8 32.3,3.3 C32.3,1.2 17.3,0.6 1.7,0.6 Z" fill="url(#linearGradient-4)" opacity="0.1875"></path>
                                <path d="M1.7,0.6 C1.1,0.6 0.6,1 0.6,1.5 C0.6,6.7 0.6,13.3 0.6,18.6 C0.6,19.3 1.1,19.8 1.7,19.8 C17.1,19.9 32.1,23.6 32.1,21.6 C32.1,16.2 32.1,8.7 32.1,3.3 C32.1,1.3 17.1,0.6 1.7,0.6 Z" fill="url(#linearGradient-5)" opacity="0.25"></path>
                                <path d="M1.7,0.6 C1.1,0.6 0.6,1 0.6,1.5 C0.6,6.7 0.6,13.3 0.6,18.6 C0.6,19.3 1.1,19.8 1.7,19.8 C17,19.9 31.9,23.4 31.9,21.5 C31.9,16.2 31.9,8.8 31.9,3.5 C31.9,1.5 17,0.6 1.7,0.6 Z" fill="url(#linearGradient-6)" opacity="0.3125"></path>
                                <path d="M1.7,0.6 C1.1,0.6 0.6,1 0.6,1.5 C0.6,6.7 0.6,13.3 0.6,18.6 C0.6,19.3 1.1,19.8 1.7,19.8 C16.9,19.9 31.6,23.2 31.6,21.4 C31.6,16.2 31.6,8.8 31.6,3.6 C31.7,1.7 16.9,0.6 1.7,0.6 Z" fill="url(#linearGradient-7)" opacity="0.375"></path>
                                <path d="M1.7,0.6 C1.1,0.6 0.6,1 0.6,1.5 C0.6,6.7 0.6,13.3 0.6,18.6 C0.6,19.3 1.1,19.8 1.7,19.8 C16.8,19.9 31.4,23 31.4,21.2 C31.4,16.1 31.4,8.8 31.4,3.6 C31.5,1.8 16.8,0.6 1.7,0.6 Z" fill="url(#linearGradient-8)" opacity="0.4375"></path>
                                <path d="M1.7,0.6 C1.1,0.6 0.6,1 0.6,1.5 C0.6,6.7 0.6,13.3 0.6,18.6 C0.6,19.3 1.1,19.8 1.7,19.8 C16.7,19.9 31.2,22.8 31.2,21.1 C31.2,16 31.2,8.8 31.2,3.8 C31.2,2 16.7,0.6 1.7,0.6 Z" fill="url(#linearGradient-9)" opacity="0.5"></path>
                                <path d="M1.7,0.6 C1.1,0.6 0.6,1 0.6,1.5 C0.6,6.7 0.6,13.3 0.6,18.6 C0.6,19.3 1.1,19.8 1.7,19.8 C16.6,19.9 31,22.6 31,20.9 C31,15.9 31,8.8 31,3.8 C31,2.2 16.6,0.6 1.7,0.6 Z" fill="url(#linearGradient-10)" opacity="0.5625"></path>
                                <path d="M1.7,0.6 C1.1,0.6 0.6,1 0.6,1.5 C0.6,6.7 0.6,13.3 0.6,18.6 C0.6,19.3 1.1,19.8 1.7,19.8 C16.5,19.9 30.8,22.3 30.8,20.8 C30.8,15.9 30.8,8.9 30.8,4 C30.8,2.3 16.5,0.6 1.7,0.6 Z" fill="url(#linearGradient-11)" opacity="0.625"></path>
                                <path d="M1.7,0.6 C1.1,0.6 0.6,1 0.6,1.5 C0.6,6.7 0.6,13.3 0.6,18.6 C0.6,19.3 1.1,19.8 1.7,19.8 C16.4,19.9 30.6,22.1 30.5,20.6 C30.5,15.8 30.5,8.8 30.5,4 C30.6,2.5 16.4,0.6 1.7,0.6 Z" fill="url(#linearGradient-12)" opacity="0.6875"></path>
                                <path d="M1.7,0.6 C1.1,0.6 0.6,1 0.6,1.5 C0.6,6.7 0.6,13.3 0.6,18.6 C0.6,19.3 1.1,19.8 1.7,19.8 C16.2,19.8 30.3,21.9 30.3,20.5 C30.3,15.7 30.3,8.9 30.3,4.1 C30.4,2.6 16.3,0.6 1.7,0.6 Z" fill="url(#linearGradient-13)" opacity="0.75"></path>
                                <path d="M1.7,0.6 C1.1,0.6 0.6,1 0.6,1.5 C0.6,6.7 0.6,13.3 0.6,18.6 C0.6,19.3 1.1,19.8 1.7,19.8 C16.1,19.8 30.1,21.7 30.1,20.3 C30.1,15.6 30.1,8.8 30.1,4.2 C30.1,2.8 16.2,0.6 1.7,0.6 Z" fill="url(#linearGradient-14)" opacity="0.8125"></path>
                                <path d="M1.7,0.6 C1.1,0.6 0.6,1 0.6,1.5 C0.6,6.7 0.6,13.3 0.6,18.6 C0.6,19.3 1.1,19.8 1.7,19.8 C16,19.8 29.9,21.4 29.9,20.2 C29.9,15.6 29.9,8.9 29.9,4.3 C29.9,3 16.1,0.6 1.7,0.6 Z" fill="url(#linearGradient-15)" opacity="0.875"></path>
                                <path d="M1.7,0.6 C1.1,0.6 0.6,1 0.6,1.5 C0.6,6.7 0.6,13.3 0.6,18.6 C0.6,19.3 1.1,19.8 1.7,19.8 C15.9,19.8 29.7,21.2 29.7,20 C29.7,15.5 29.7,8.9 29.7,4.3 C29.7,3.1 15.9,0.6 1.7,0.6 Z" fill="url(#linearGradient-16)" opacity="0.9375"></path>
                                <path d="M1.7,0.6 C1.1,0.6 0.6,1 0.6,1.5 C0.6,6.7 0.6,13.3 0.6,18.6 C0.6,19.3 1.1,19.8 1.7,19.8 C15.8,19.9 29.5,21 29.5,19.9 C29.5,15.5 29.5,8.9 29.5,4.5 C29.5,3.3 15.8,0.7 1.7,0.6 Z" fill="url(#linearGradient-17)"></path>
                            </g>
                            <g>
                                <g transform="translate(0.000000, 17.000000)">
                                    <path d="M0.6,4.6 C0.6,5.3 1.1,5.8 1.7,5.8 C15.8,5.9 29.5,5.2 29.5,3.1 C29.5,-3.3 0.6,4.6 0.6,4.6 Z" id="Path" fill="url(#linearGradient-18)"></path>
                                    <path d="M0.6,4.6 L0.6,4.6 C0.6,5.3 1.1,5.8 1.7,5.8 C15.8,5.9 29.4,5.5 29.5,3.1 C29.5,-3.3 0.6,4.6 0.6,4.6 Z M1.7,5.7 C1.7,5.7 1.6,5.7 1.6,5.7 C1.2,5.7 0.8,5.3 0.7,4.9 C0.8,5.4 1.2,5.7 1.7,5.7 C15.8,5.6 29.2,1.3 29.2,3.2 C29.3,5.2 15.8,5.8 1.7,5.7 Z" id="Shape" fill="url(#linearGradient-19)"></path>
                                </g>
                                <path d="M1.7,3.4 L1.7,3.4 C1.1,3.4 0.6,3.9 0.6,4.5 C0.6,10.2 0.6,15.9 0.6,21.6 C0.6,22.2 1.1,22.7 1.7,22.7 C15.8,22.6 29.5,17.9 29.5,20.2 C29.5,13.8 29.5,7.4 29.5,1 C29.5,-1.4 15.8,3.3 1.7,3.4 Z" id="Path" fill="url(#linearGradient-20)"></path>
                                <g transform="translate(5.000000, 2.000000)" id="Path">
                                    <path d="M16,4.7 C16.3,4.5 16.4,4.4 16.7,4.1 C16.5,3.8 16.3,3.5 16.1,3.3 C15.9,3.1 15.7,2.8 15.5,2.5 C15.2,2.7 15.1,2.8 14.8,3.1 C15,3.4 15.2,3.7 15.4,3.9 C15.6,4.2 15.7,4.4 16,4.7 Z" fill="url(#linearGradient-21)"></path>
                                    <path d="M17.4,6.6 C17.7,6.4 17.8,6.3 18.1,6 C17.9,5.7 17.7,5.4 17.5,5.2 C17.3,5 17.1,4.7 16.9,4.4 C16.6,4.6 16.5,4.7 16.2,5 C16.4,5.3 16.6,5.6 16.8,5.8 C17,6.1 17.2,6.3 17.4,6.6 Z" fill="url(#linearGradient-22)"></path>
                                    <path d="M17.1,4 C17.3,4.3 17.5,4.5 17.7,4.8 C17.9,5.1 18.1,5.4 18.4,5.8 C18.7,5.6 18.8,5.5 19.1,5.2 C18.8,4.8 18.6,4.5 18.4,4.2 C18.2,3.9 18,3.6 17.8,3.4 C17.6,3.1 17.4,2.9 17.2,2.6 C17,2.3 16.8,2 16.5,1.7 C16.2,1.9 16.1,2 15.8,2.3 C16.1,2.7 16.3,3 16.5,3.3 C16.7,3.5 16.9,3.8 17.1,4 Z" fill="url(#linearGradient-23)"></path>
                                    <path d="M18,3 C18.3,2.8 18.4,2.7 18.7,2.4 C18.5,2.1 18.3,1.8 18.1,1.6 C17.9,1.4 17.7,1.1 17.5,0.8 C17.2,1 17.1,1.1 16.8,1.4 C17,1.7 17.2,2 17.4,2.2 C17.6,2.5 17.7,2.7 18,3 Z" fill="url(#linearGradient-24)"></path>
                                    <path d="M18.9,2.8 C18.6,3 18.5,3.1 18.2,3.4 C18.4,3.7 18.6,4 18.8,4.2 C19,4.4 19.2,4.7 19.4,5 C19.7,4.8 19.8,4.7 20.1,4.5 C19.9,4.2 19.7,3.9 19.5,3.7 C19.3,3.4 19.1,3.1 18.9,2.8 Z" fill="url(#linearGradient-25)"></path>
                                    <path d="M4.1,14.6 C3.9,14.3 3.7,14 3.5,13.7 C3.3,13.4 3,13.1 2.8,12.7 C2.5,12.9 2.4,13 2.1,13.2 C2.4,13.6 2.6,13.9 2.8,14.2 C3,14.5 3.2,14.8 3.4,15.1 C3.6,15.4 3.8,15.7 4,16 C4.2,16.3 4.5,16.6 4.7,17 C5,16.8 5.1,16.7 5.4,16.5 C5.1,16.1 4.9,15.8 4.7,15.5 C4.5,15.2 4.3,14.9 4.1,14.6 Z" fill="url(#linearGradient-26)"></path>
                                    <path d="M1.7,14.8 C1.9,15.1 2.1,15.3 2.3,15.7 C2.6,15.5 2.7,15.4 3,15.2 C2.8,14.9 2.6,14.6 2.4,14.3 C2.2,14 2,13.8 1.8,13.4 C1.5,13.6 1.4,13.7 1.1,13.9 C1.3,14.3 1.5,14.6 1.7,14.8 Z" fill="url(#linearGradient-27)"></path>
                                    <path d="M3.2,15.5 C2.9,15.7 2.8,15.8 2.5,16 C2.7,16.3 2.9,16.6 3.1,16.9 C3.3,17.2 3.5,17.4 3.7,17.8 C4,17.6 4.1,17.5 4.4,17.3 C4.2,17 4,16.7 3.8,16.4 C3.6,16.1 3.4,15.9 3.2,15.5 Z" fill="url(#linearGradient-28)"></path>
                                    <path d="M2.1,16.1 C1.9,15.8 1.7,15.5 1.5,15.2 C1.3,14.9 1,14.6 0.8,14.2 C0.5,14.4 0.4,14.5 0.1,14.7 C0.4,15.1 0.6,15.4 0.8,15.7 C1,16 1.2,16.3 1.4,16.6 C1.6,16.9 1.8,17.2 2,17.5 C2.2,17.8 2.5,18.1 2.7,18.5 C3,18.3 3.1,18.2 3.4,18 C3.1,17.6 2.9,17.3 2.7,17 C2.5,16.7 2.3,16.4 2.1,16.1 Z" fill="url(#linearGradient-29)"></path>
                                    <path d="M4,5.2 C3.8,5.5 3.6,5.9 3.4,6.2 C3.2,6.5 3,6.8 2.8,7.2 C2.6,7.5 2.3,7.9 2.1,8.3 C2.4,8.5 2.5,8.5 2.8,8.7 C3.1,8.3 3.3,7.9 3.5,7.6 C3.7,7.3 3.9,6.9 4.1,6.6 C4.3,6.3 4.5,6 4.7,5.6 C4.9,5.3 5.2,4.9 5.4,4.4 C5.1,4.3 5,4.2 4.7,4 C4.5,4.5 4.3,4.9 4,5.2 Z" fill="url(#linearGradient-30)"></path>
                                    <path d="M2.4,5.7 C2.2,6 2,6.3 1.8,6.7 C1.6,7 1.3,7.4 1.1,7.8 C1.4,8 1.5,8 1.8,8.2 C2.1,7.8 2.3,7.4 2.5,7.1 C2.7,6.8 2.9,6.4 3.1,6.1 C3.3,5.8 3.5,5.5 3.7,5.1 C3.9,4.8 4.2,4.4 4.4,4 C4.1,3.8 4,3.8 3.7,3.6 C3.4,4 3.2,4.4 3,4.7 C2.8,5 2.6,5.3 2.4,5.7 Z" fill="url(#linearGradient-31)"></path>
                                    <path d="M1.5,6.4 C1.7,6.1 1.9,5.7 2.1,5.4 C2.3,5.1 2.5,4.8 2.7,4.4 C2.9,4.1 3.2,3.7 3.4,3.3 C3.1,3.1 3,3.1 2.7,2.9 C2.4,3.3 2.2,3.7 2,4 C1.8,4.3 1.6,4.7 1.4,5 C1.2,5.3 1,5.6 0.8,6 C0.6,6.3 0.3,6.7 0.1,7.1 C0.4,7.3 0.5,7.3 0.8,7.5 C1,7.1 1.2,6.8 1.5,6.4 Z" fill="url(#linearGradient-32)"></path>
                                    <path d="M16.7,13.4 C16.4,13.3 16.3,13.2 16,13.1 C15.8,13.5 15.6,13.8 15.4,14.1 C15.2,14.4 15,14.7 14.8,15.1 C15.1,15.2 15.2,15.3 15.5,15.4 C15.7,15 15.9,14.7 16.1,14.4 C16.2,14.1 16.4,13.8 16.7,13.4 Z" fill="url(#linearGradient-33)"></path>
                                    <path d="M16.9,13 C17.1,12.6 17.3,12.3 17.5,12 C17.7,11.7 17.9,11.4 18.1,11 C17.8,10.9 17.7,10.8 17.4,10.7 C17.2,11.1 17,11.4 16.8,11.7 C16.6,12 16.4,12.3 16.2,12.7 C16.5,12.8 16.6,12.9 16.9,13 Z" fill="url(#linearGradient-34)"></path>
                                    <path d="M17.6,13.9 C17.3,13.8 17.2,13.7 16.9,13.6 C16.7,14 16.5,14.3 16.3,14.6 C16.1,14.9 15.9,15.2 15.7,15.6 C16,15.7 16.1,15.8 16.4,15.9 C16.6,15.5 16.8,15.2 17,14.9 C17.2,14.6 17.4,14.3 17.6,13.9 Z" fill="url(#linearGradient-35)"></path>
                                    <path d="M18.5,12.5 C18.7,12.2 18.9,11.9 19.1,11.5 C18.8,11.4 18.7,11.3 18.4,11.2 C18.2,11.6 18,11.9 17.8,12.2 C17.6,12.5 17.4,12.8 17.2,13.2 C17.5,13.3 17.6,13.4 17.9,13.5 C18.1,13.1 18.3,12.8 18.5,12.5 Z" fill="url(#linearGradient-36)"></path>
                                    <path d="M17.4,15.1 C17.2,15.4 17,15.7 16.8,16.1 C17.1,16.2 17.2,16.3 17.5,16.4 C17.7,16 17.9,15.7 18.1,15.4 C18.3,15.1 18.5,14.8 18.7,14.4 C18.4,14.3 18.3,14.2 18,14.1 C17.7,14.5 17.6,14.8 17.4,15.1 Z" fill="url(#linearGradient-37)"></path>
                                    <path d="M18.8,12.7 C18.6,13 18.4,13.3 18.2,13.7 C18.5,13.8 18.6,13.9 18.9,14 C19.1,13.6 19.3,13.3 19.5,13 C19.7,12.7 19.9,12.4 20.1,12 C19.8,11.9 19.7,11.8 19.4,11.7 C19.2,12 19,12.3 18.8,12.7 Z" fill="url(#linearGradient-38)"></path>
                                </g>
                                <path d="M19.6,9.5 C19.4,9.1 19.2,8.7 18.9,8.3 C18.6,8 18.2,7.7 17.8,7.4 C17.4,7.2 17,7.1 16.6,7 C16.2,6.9 15.8,6.9 15.4,7 C15,7 14.6,7.1 14.2,7.3 C13.8,7.4 13.4,7.6 13,7.9 C12.6,8.1 12.3,8.4 12,8.7 C11.7,9 11.4,9.4 11.1,9.8 C10.8,10.2 10.6,10.7 10.6,11.2 C10.5,11.7 10.5,12.1 10.6,12.6 C10.7,13 10.9,13.5 11.1,13.8 C11.4,14.2 11.7,14.5 12.1,14.7 C12.5,14.9 13,15 13.4,15.1 C13.9,15.1 14.3,15.1 14.8,14.9 C15.3,14.7 15.7,14.5 16.1,14.2 C16.5,13.9 16.8,13.5 17.1,13 C17.5,13.2 17.8,13.4 18.1,13.5 C18.4,13.7 18.7,13.8 19.1,14 C19.4,13.5 19.6,13 19.7,12.5 C19.8,12 19.9,11.5 19.9,11 C19.9,10.4 19.8,9.9 19.6,9.5 Z" id="Path" fill="url(#linearGradient-39)"></path>
                                <path d="M18.4,10.7 C18,10.5 17.6,10.5 17.2,10.5 C16.8,10.5 16.4,10.7 16,10.9 C15.6,11.1 15.3,11.5 15.1,11.9 C14.9,12.3 14.5,12.6 14.2,12.9 C13.8,13.1 13.4,13.3 13,13.3 C12.6,13.3 12.2,13.3 11.8,13.1 C11.4,12.9 11.2,12.6 11,12.3 C10.8,11.9 10.7,11.5 10.8,11.1 C10.8,10.7 11,10.3 11.2,9.9 C10.9,10.4 10.7,10.9 10.6,11.4 C10.5,11.9 10.4,12.4 10.4,12.9 C10.4,13.4 10.5,13.9 10.7,14.3 C10.9,14.7 11.1,15.2 11.4,15.5 C11.7,15.9 12.1,16.2 12.5,16.4 C12.9,16.6 13.3,16.7 13.7,16.8 C14.1,16.9 14.5,16.9 14.9,16.9 C15.3,16.9 15.7,16.8 16.1,16.6 C16.5,16.5 16.9,16.3 17.3,16 C17.7,15.8 18,15.5 18.3,15.1 C18.6,14.8 18.9,14.4 19.1,14 C19.3,13.6 19.5,13.2 19.5,12.7 C19.5,12.3 19.4,11.9 19.3,11.5 C19.1,11.1 18.8,10.8 18.4,10.7 Z" id="Path" fill="url(#linearGradient-40)"></path>
                                <g opacity="0.19" fill="url(#linearGradient-41)" id="Path">
                                    <path d="M1.7,3.4 L1.7,3.4 C1.1,3.4 0.6,3.9 0.6,4.5 L0.6,4.5 C0.6,10.2 0.6,15.9 0.6,21.6 L0.6,21.6 C0.6,22.2 1.1,22.7 1.7,22.7 L1.7,22.7 C15.8,22.6 29.5,17.9 29.5,20.2 C29.5,13.8 29.5,7.4 29.5,1 C29.5,-1.4 15.8,3.3 1.7,3.4 Z"></path>
                                </g>
                            </g>
                        </g>
                    </g>
                </g>
            </g>
        </g>
    </g>
</svg>