<?xml version="1.0" encoding="UTF-8"?>
<svg width="60px" height="60px" viewBox="0 0 60 60" version="1.1" xmlns="http://www.w3.org/2000/svg" xmlns:xlink="http://www.w3.org/1999/xlink">
    <title>bluna</title>
    <g id="Page-1" stroke="none" stroke-width="1" fill="none" fill-rule="evenodd">
        <g id="test_2" transform="translate(-160.000000, -1145.000000)">
            <g id="bluna" transform="translate(160.000000, 1145.000000)">
                <rect id="thum" opacity="0.200000003" x="0" y="0" width="60" height="60"></rect>
                <g id="bLUNA" transform="translate(2.000000, 2.000000)">
                    <g id="Group-9">
                        <path d="M28,0 C43.463973,0 56,12.536027 56,28 C56,43.463973 43.463973,56 28,56 C12.536027,56 0,43.463973 0,28 C0,12.536027 12.536027,0 28,0 Z M28,4 C14.745166,4 4,14.745166 4,28 C4,41.254834 14.745166,52 28,52 C41.254834,52 52,41.254834 52,28 C52,14.745166 41.254834,4 28,4 Z" id="Combined-Shape" fill=""></path>
                        <circle id="Oval" fill="#006994" cx="28.5" cy="54" r="2"></circle>
                    </g>
                    <g id="Group" transform="translate(13.000000, 12.500000)" fill-rule="nonzero">
                        <path d="M29.48,12.98 L29.48,12.98 C29.47,12.95 29.47,12.92 29.46,12.89 C29.46,12.89 29.46,12.89 29.46,12.89 C29.38,12.47 29.28,12.05 29.17,11.64 C29.16,11.62 29.16,11.6 29.15,11.58 C29.15,11.58 29.15,11.58 29.15,11.58 C29.09,11.38 29.03,11.19 28.97,10.99 C28.96,10.97 28.96,10.96 28.95,10.94 C28.95,10.94 28.95,10.94 28.95,10.94 C28.81,10.54 28.66,10.14 28.49,9.75 C28.49,9.74 28.48,9.73 28.48,9.72 C28.48,9.72 28.48,9.72 28.48,9.72 C28.4,9.53 28.31,9.35 28.22,9.16 C28.22,9.16 28.22,9.16 28.22,9.16 C28.22,9.16 28.22,9.15 28.21,9.15 C28.12,8.96 28.02,8.77 27.92,8.59 C27.92,8.59 27.92,8.59 27.92,8.59 C27.92,8.58 27.91,8.58 27.91,8.57 C27.91,8.57 27.91,8.57 27.91,8.57 C27.81,8.38 27.7,8.2 27.59,8.01 C27.59,8 27.58,8 27.58,7.99 C27.58,7.99 27.58,7.99 27.58,7.99 C27.48,7.82 27.37,7.65 27.26,7.49 C27.26,7.49 27.26,7.49 27.26,7.49 C27.25,7.47 27.24,7.45 27.22,7.43 C27.22,7.43 27.22,7.43 27.22,7.43 C26.99,7.09 26.75,6.75 26.49,6.43 C26.47,6.41 26.46,6.39 26.44,6.37 C26.44,6.37 26.44,6.37 26.44,6.37 C26.3,6.2 26.16,6.04 26.02,5.87 C26.02,5.87 26.02,5.87 26.02,5.87 L26.02,5.87 C25.88,5.71 25.74,5.56 25.6,5.41 C25.59,5.4 25.59,5.4 25.58,5.39 C25.58,5.39 25.58,5.39 25.58,5.39 C25.45,5.25 25.32,5.12 25.18,4.99 C25.18,4.99 25.18,4.99 25.18,4.99 C25.16,4.97 25.14,4.95 25.12,4.93 C25.12,4.93 25.12,4.93 25.12,4.93 C24.98,4.8 24.84,4.67 24.69,4.54 C24.67,4.53 24.66,4.51 24.64,4.5 C24.64,4.5 24.64,4.5 24.64,4.5 C24.49,4.37 24.34,4.25 24.19,4.12 L24.19,4.12 C24.18,4.11 24.16,4.1 24.15,4.09 C24.15,4.09 24.15,4.09 24.15,4.09 C23.99,3.96 23.83,3.84 23.66,3.71 C23.66,3.71 23.65,3.71 23.65,3.7 C23.65,3.7 23.65,3.7 23.65,3.7 C23.48,3.58 23.31,3.46 23.14,3.34 C23.14,3.34 23.14,3.34 23.13,3.34 C23.13,3.34 23.13,3.34 23.13,3.34 C22.78,3.11 22.42,2.89 22.06,2.69 C22.06,2.69 22.06,2.69 22.06,2.69 C22.05,2.68 22.03,2.67 22.02,2.67 C21.84,2.57 21.67,2.48 21.49,2.39 L21.49,2.39 C21.47,2.38 21.44,2.37 21.42,2.35 C21.42,2.35 21.42,2.35 21.42,2.35 C21.05,2.17 20.66,2 20.27,1.85 C20.25,1.84 20.22,1.83 20.2,1.82 C20.2,1.82 20.2,1.82 20.2,1.82 C20,1.74 19.79,1.67 19.59,1.6 C19.59,1.6 19.58,1.6 19.58,1.6 L19.58,1.6 C19.39,1.54 19.19,1.48 19,1.42 C18.98,1.42 18.96,1.41 18.95,1.41 C18.95,1.41 18.95,1.41 18.95,1.41 C18.74,1.35 18.53,1.3 18.32,1.25 C18.32,1.25 18.31,1.25 18.31,1.25 L18.31,1.25 C18.11,1.2 17.9,1.16 17.7,1.12 C17.69,1.12 17.67,1.12 17.66,1.11 C17.66,1.11 17.66,1.11 17.66,1.11 C17.45,1.07 17.23,1.04 17.01,1.01 C17.01,1.01 17.01,1.01 17,1.01 C17,1.01 17,1.01 17,1.01 C16.66,0.96 16.32,0.93 15.98,0.9 C16.04,0.9 16.09,0.91 16.15,0.92 C16.15,0.92 16.15,0.92 16.15,0.92 C16.28,0.93 16.42,0.95 16.54,0.96 C16.54,0.96 16.54,0.96 16.54,0.96 C16.67,0.97 16.79,0.99 16.91,1.01 C16.91,1.01 16.91,1.01 16.92,1.01 C17.04,1.03 17.15,1.05 17.27,1.07 C17.27,1.07 17.28,1.07 17.28,1.07 C17.39,1.09 17.5,1.11 17.6,1.13 C17.6,1.13 17.61,1.13 17.61,1.13 C17.71,1.15 17.81,1.18 17.91,1.2 C17.92,1.2 17.92,1.2 17.93,1.21 C18.03,1.23 18.12,1.26 18.21,1.29 C18.22,1.29 18.23,1.3 18.23,1.3 C18.32,1.33 18.4,1.35 18.49,1.38 C18.5,1.38 18.51,1.39 18.52,1.39 C18.6,1.42 18.68,1.45 18.76,1.48 C18.77,1.48 18.78,1.49 18.8,1.5 C18.87,1.53 18.95,1.56 19.02,1.59 C19.03,1.6 19.05,1.6 19.06,1.61 C19.13,1.64 19.19,1.68 19.26,1.71 C19.28,1.72 19.29,1.73 19.31,1.74 C19.37,1.77 19.43,1.81 19.49,1.84 C19.51,1.85 19.53,1.87 19.55,1.88 C19.6,1.91 19.65,1.95 19.71,1.98 C19.73,2 19.75,2.01 19.78,2.03 C19.82,2.06 19.87,2.1 19.91,2.13 C19.94,2.15 19.96,2.18 19.99,2.2 C20.03,2.23 20.06,2.26 20.1,2.3 C20.13,2.33 20.17,2.37 20.2,2.4 C20.23,2.43 20.25,2.45 20.28,2.48 C20.34,2.54 20.39,2.61 20.45,2.67 C20.53,2.77 20.95,3.3 21.18,4.24 C21.45,5.37 21.41,6.54 21.66,7.67 C21.7,7.86 21.75,8.05 21.8,8.23 C21.81,8.28 21.83,8.33 21.84,8.37 C21.88,8.51 21.92,8.65 21.96,8.79 C21.97,8.83 21.99,8.87 22,8.91 C23.33,13.19 25.99,15.22 29.55,17.94 C29.67,17.18 29.73,16.4 29.73,15.6 C29.72,14.73 29.64,13.85 29.48,12.98 Z" id="Path" fill="#EF7730"></path>
                        <path d="M28.44,20.5 C28.67,20.44 28.87,20.67 28.78,20.89 C26.63,26.52 21.13,30.49 14.71,30.37 C6.76,30.22 0.32,23.7 0.25,15.76 C0.21,11.3 2.16,7.3 5.26,4.57 C5.45,4.41 5.74,4.53 5.75,4.78 C5.98,10.64 9.99,16.45 16.4,19.32 C20.43,21.13 24.7,21.44 28.44,20.5 Z M29.58,13.6 C28.59,6.43 22.43,0.91 14.98,0.91 C14.17,0.91 13.37,0.98 12.59,1.1 C12.34,1.14 12.09,1.19 11.84,1.24 C6.75,2.35 8.05,4.8 15.09,7.34 C29.06,12.4 29.06,12.4 29.58,13.6" id="Shape" fill="#F9D85E"></path>
                    </g>
                </g>
            </g>
        </g>
    </g>
</svg>