<?xml version="1.0" encoding="UTF-8"?>
<svg width="60px" height="60px" viewBox="0 0 60 60" version="1.1" xmlns="http://www.w3.org/2000/svg" xmlns:xlink="http://www.w3.org/1999/xlink">
    <title>luna</title>
    <g id="Page-1" stroke="none" stroke-width="1" fill="none" fill-rule="evenodd">
        <g id="tetst" transform="translate(-160.000000, -1133.000000)">
            <g id="luna" transform="translate(160.000000, 1133.000000)">
                <rect id="thum" opacity="0.200000003" x="0" y="0" width="60" height="60"></rect>
                <g id="Group-6" transform="translate(7.999833, 7.999400)">
                    <path d="M24.1147672,27.4984 C14.5377672,23.2184 8.56076721,14.5314 8.21176721,5.7884 C8.19776721,5.4184 7.75876721,5.2354 7.48076721,5.4784 C2.85176721,9.5484 -0.0542327946,15.5284 0.000767205392,22.1864 C0.0987672054,34.0404 9.72876721,43.7714 21.5917672,43.9964 C31.1697672,44.1774 39.3857672,38.2464 42.5957672,29.8444 C42.7227672,29.5124 42.4277672,29.1694 42.0827672,29.2554 C36.5037672,30.6594 30.1337672,30.1884 24.1147672,27.4984" id="Fill-1" fill="#F9D85E"></path>
                    <path d="M43.6411672,18.0307 L43.6411672,18.0307 C43.6331672,17.9867 43.6251672,17.9417 43.6171672,17.8977 L43.6171672,17.8977 C43.4971672,17.2627 43.3491672,16.6387 43.1771672,16.0247 C43.1691672,15.9977 43.1611672,15.9697 43.1531672,15.9427 C43.0691672,15.6467 42.9781672,15.3537 42.8821672,15.0637 C42.8741672,15.0417 42.8671672,15.0187 42.8591672,14.9967 C42.6561672,14.3917 42.4281672,13.7987 42.1751672,13.2187 C42.1701672,13.2057 42.1641672,13.1937 42.1581672,13.1797 C42.0361672,12.9007 41.9081672,12.6227 41.7741672,12.3497 C41.7701672,12.3427 41.7661672,12.3347 41.7631672,12.3277 C41.6241672,12.0457 41.4801672,11.7667 41.3301672,11.4917 C41.3271672,11.4847 41.3231672,11.4767 41.3181672,11.4687 C41.1651672,11.1877 41.0051672,10.9107 40.8391672,10.6367 C40.8341672,10.6297 40.8301672,10.6217 40.8261672,10.6137 C40.6721672,10.3617 40.5141672,10.1137 40.3511672,9.8677 C40.3321672,9.8407 40.3151672,9.8117 40.2961672,9.7847 L40.2961672,9.7837 C39.9531672,9.2717 39.5881672,8.7747 39.2041672,8.2947 C39.1821672,8.2657 39.1591672,8.2367 39.1361672,8.2077 C38.9321672,7.9547 38.7231672,7.7077 38.5091672,7.4647 L38.5071672,7.4627 C38.3011672,7.2287 38.0901672,6.9997 37.8741672,6.7747 C37.8661672,6.7657 37.8571672,6.7577 37.8491672,6.7477 C37.6531672,6.5457 37.4541672,6.3457 37.2511672,6.1507 C37.2221672,6.1217 37.1921672,6.0947 37.1621672,6.0667 C36.9541672,5.8687 36.7431672,5.6747 36.5281672,5.4847 C36.5021672,5.4627 36.4771672,5.4407 36.4521672,5.4187 C36.4521672,5.4187 36.4521672,5.4187 36.4521672,5.4187 C36.2321672,5.2267 36.0091672,5.0397 35.7821672,4.8567 C35.7611672,4.8397 35.7401672,4.8237 35.7191672,4.8067 C35.4791672,4.6147 35.2351672,4.4277 34.9871672,4.2457 C34.9821672,4.2417 34.9771672,4.2387 34.9721672,4.2347 C34.7211672,4.0507 34.4661672,3.8727 34.2071672,3.6997 C34.2031672,3.6967 34.2001672,3.6947 34.1971672,3.6927 C33.6781672,3.3467 33.1431672,3.0227 32.5941672,2.7207 C32.5941672,2.7197 32.5941672,2.7197 32.5941672,2.7197 C32.5731672,2.7087 32.5531672,2.6967 32.5321672,2.6857 C32.2701672,2.5427 32.0051672,2.4047 31.7371672,2.2727 L31.6311672,2.2197 C31.0721672,1.9477 30.5001672,1.6977 29.9161672,1.4727 C29.8821672,1.4597 29.8491672,1.4467 29.8151672,1.4337 C29.5131672,1.3187 29.2071672,1.2107 28.8981672,1.1087 C28.8921672,1.1067 28.8861672,1.1047 28.8801672,1.1027 L28.8801672,1.1027 C28.5931672,1.0087 28.3031672,0.9187 28.0101672,0.8357 C27.9831672,0.8287 27.9571672,0.8217 27.9311672,0.8137 C27.6181672,0.7267 27.3031672,0.6457 26.9861672,0.5717 C26.9801672,0.5707 26.9741672,0.5697 26.9681672,0.5687 C26.6671672,0.4987 26.3641672,0.4347 26.0581672,0.3767 C26.0381672,0.3737 26.0181672,0.3697 25.9981672,0.3667 L25.9981672,0.3667 C25.6791672,0.3077 25.3571672,0.2557 25.0341672,0.2107 C25.0311672,0.2107 25.0291672,0.2097 25.0261672,0.2097 C24.5231672,0.1397 24.0151672,0.0867 23.5021672,0.0517 C23.5891672,0.0587 23.6701672,0.0677 23.7551672,0.0757 C23.9561672,0.0937 24.1521672,0.1137 24.3431672,0.1357 C24.3441672,0.1357 24.3451672,0.1357 24.3461672,0.1357 C24.5351672,0.1577 24.7201672,0.1817 24.8991672,0.2077 C24.9021672,0.2077 24.9051672,0.2087 24.9081672,0.2087 C25.0851672,0.2347 25.2581672,0.2617 25.4261672,0.2907 L25.4411672,0.2937 C25.6061672,0.3227 25.7681672,0.3537 25.9251672,0.3867 C25.9321672,0.3877 25.9381672,0.3897 25.9451672,0.3917 C26.0991672,0.4247 26.2501672,0.4587 26.3961672,0.4957 C26.4061672,0.4977 26.4151672,0.5007 26.4261672,0.5037 C26.5681672,0.5397 26.7071672,0.5767 26.8421672,0.6167 C26.8541672,0.6207 26.8661672,0.6247 26.8791672,0.6287 C27.0101672,0.6687 27.1391672,0.7097 27.2631672,0.7527 C27.2781672,0.7587 27.2931672,0.7637 27.3081672,0.7697 C27.4291672,0.8117 27.5461672,0.8567 27.6611672,0.9027 C27.6791672,0.9097 27.6971672,0.9187 27.7141672,0.9257 C27.8241672,0.9717 27.9321672,1.0187 28.0371672,1.0677 C28.0581672,1.0777 28.0781672,1.0887 28.1001672,1.0987 C28.1991672,1.1467 28.2971672,1.1967 28.3911672,1.2477 C28.4161672,1.2607 28.4401672,1.2757 28.4641672,1.2897 C28.5531672,1.3397 28.6411672,1.3907 28.7261672,1.4437 C28.7551672,1.4617 28.7821672,1.4817 28.8101672,1.4997 C28.8891672,1.5507 28.9671672,1.6017 29.0421672,1.6557 C29.0761672,1.6807 29.1081672,1.7067 29.1411672,1.7317 C29.2081672,1.7817 29.2761672,1.8327 29.3411672,1.8857 C29.3811672,1.9187 29.4191672,1.9537 29.4581672,1.9887 C29.5141672,2.0357 29.5691672,2.0827 29.6221672,2.1327 C29.6741672,2.1807 29.7231672,2.2317 29.7721672,2.2807 C29.8111672,2.3207 29.8521672,2.3577 29.8901672,2.3987 C29.9771672,2.4897 30.0611672,2.5857 30.1431672,2.6837 C30.2651672,2.8287 30.8901672,3.6267 31.2291672,5.0267 C31.6381672,6.7117 31.5661672,8.4647 31.9531672,10.1537 C32.0171672,10.4377 32.0871672,10.7147 32.1581672,10.9867 C32.1771672,11.0587 32.1971672,11.1307 32.2171672,11.2017 C32.2741672,11.4117 32.3331672,11.6187 32.3941672,11.8217 C32.4131672,11.8847 32.4321672,11.9467 32.4511672,12.0087 C34.4331672,18.3957 38.4021672,21.4297 43.7241672,25.4947 C43.9061672,24.3567 44.0001672,23.1897 44.0001672,22.0007 C44.0001672,20.6447 43.8761672,19.3187 43.6411672,18.0307" id="Fill-4" fill="#EF7730"></path>
                    <path d="M43.7910672,18.954 C43.0120672,17.155 43.0120672,17.155 22.1440672,9.617 C11.6390672,5.822 9.69006721,2.159 17.2930672,0.501 C17.6630672,0.421 18.0370672,0.35 18.4140672,0.288 C19.5760672,0.099 20.7690672,0 21.9850672,0 C33.1100672,0 42.3070672,8.246 43.7910672,18.954" id="Fill-6" fill="#F9D85E"></path>
                </g>
            </g>
        </g>
    </g>
</svg>