<?xml version="1.0" encoding="UTF-8"?>
<svg viewBox="0 0 28 28" version="1.1" xmlns="http://www.w3.org/2000/svg" xmlns:xlink="http://www.w3.org/1999/xlink">
    <title>icon_Borrow value</title>
    <g id="Symbols" stroke="none" stroke-width="1" fill="none" fill-rule="evenodd">
        <g id="icon_Borrow-value">
            <g transform="translate(2.000000, 2.000000)" stroke="currentColor" stroke-linejoin="round" stroke-width="1.5">
                <line x1="17.25" y1="14.25" x2="17.25" y2="13.5" id="Stroke-1" stroke-linecap="round"></line>
                <line x1="17.25" y1="21" x2="17.25" y2="20.25" id="Stroke-2" stroke-linecap="round"></line>
                <g id="Group-15">
                    <path d="M11.25,17.25 C11.25,20.563 13.937,23.25 17.25,23.25 C20.563,23.25 23.25,20.563 23.25,17.25 C23.25,13.937 20.563,11.25 17.25,11.25 C13.937,11.25 11.25,13.937 11.25,17.25 Z" id="Stroke-3" stroke-linecap="round"></path>
                    <path d="M8.25,17.25 L2.25,17.25 C1.421,17.25 0.75,16.578 0.75,15.75 L0.75,3.765 C0.75,2.937 1.421,2.265 2.25,2.265 L15.75,2.265 C16.578,2.265 17.25,2.937 17.25,3.765 L17.25,8.25" id="Stroke-5" stroke-linecap="round"></path>
                    <line x1="0.75" y1="6.75" x2="17.25" y2="6.75" id="Stroke-7"></line>
                    <line x1="5.2432" y1="3.75" x2="5.2432" y2="0.75" id="Stroke-9" stroke-linecap="round"></line>
                    <line x1="12.7432" y1="3.75" x2="12.7432" y2="0.75" id="Stroke-11" stroke-linecap="round"></line>
                    <path d="M19.6494,15.668 C19.1354,14.89 18.2534,14.376 17.2504,14.376 C15.6634,14.376 14.3764,15.663 14.3764,17.25 C14.3764,18.837 15.6634,20.124 17.2504,20.124 C18.3184,20.124 19.2504,19.541 19.7464,18.677" id="Stroke-13" stroke-linecap="round"></path>
                </g>
            </g>
        </g>
    </g>
</svg>