<?xml version="1.0" encoding="UTF-8"?>
<svg viewBox="-2 -1 22 16" version="1.1" xmlns="http://www.w3.org/2000/svg"
     xmlns:xlink="http://www.w3.org/1999/xlink">
  <title>Fill 1</title>
  <g id="Symbols" stroke="none" stroke-width="1" fill="none" fill-rule="evenodd">
    <g id="footer" transform="translate(-1342.000000, -3.000000)" fill="currentColor">
      <g id="Discord" transform="translate(1342.000000, 0.000000)">
        <path
            d="M13.0479452,9.21682005 C12.0719178,9.21682005 11.3013699,10.050137 11.3013699,11.0667836 C11.3013699,12.0834302 12.0890411,12.9167471 13.0479452,12.9167471 C14.0239726,12.9167471 14.7945205,12.0834302 14.7945205,11.0667836 C14.7945205,10.050137 14.0239726,9.21682005 13.0479452,9.21682005 M6.79794521,9.21682005 C5.82191781,9.21682005 5.05136986,10.050137 5.05136986,11.0667836 C5.05136986,12.0834302 5.8390411,12.9167471 6.79794521,12.9167471 C7.7739726,12.9167471 8.54452055,12.0834302 8.54452055,11.0667836 C8.56164384,10.050137 7.7739726,9.21682005 6.79794521,9.21682005 M14.760274,17 C18.5445205,16.8833356 20,14.4667166 20,14.4667166 C20,9.10015568 17.5342466,4.75024141 17.5342466,4.75024141 C15.0684932,2.95027688 12.7226027,3.00013739 12.7226027,3.00013739 L12.4828767,3.26693731 C15.3938356,4.13358689 16.7465753,5.38356226 16.7465753,5.38356226 C14.9657534,4.43358098 13.2191781,3.96692351 11.5924658,3.78359379 C10.359589,3.65026309 9.17808219,3.68359576 8.13356164,3.81692647 L7.84246575,3.85025914 C7.24315068,3.90025816 5.78767123,4.11692056 3.95547945,4.90023845 C3.32191781,5.1835662 2.94520548,5.38356226 2.94520548,5.38356226 C2.94520548,5.38356226 4.36643836,4.06692154 7.44863014,3.20027195 L7.27739726,3.00013739 C7.27739726,3.00013739 4.93150685,2.95027688 2.46575342,4.75024141 C2.46575342,4.75024141 0,9.10015568 0,14.4667166 C0,14.4667166 1.43835616,16.8833356 5.22260274,17 C5.22260274,17 5.85616438,16.2500148 6.36986301,15.6166939 C4.19520548,14.9833731 3.37328767,13.650066 3.37328767,13.650066 L3.85273973,13.9333938 L3.92123288,13.9833928 L3.98829909,14.020892 L4.00827626,14.0292252 L4.07534247,14.0667245 C4.50342466,14.3000532 4.93150685,14.4833829 5.32534247,14.63338 C6.02739726,14.9000414 6.86643836,15.1667028 7.84246575,15.3514214 C9.12671233,15.5833613 10.6335616,15.6666929 12.2773973,15.3666989 C13.0821918,15.234757 13.9041096,15.0014283 14.760274,14.6514352 C15.359589,14.4333839 16.0273973,14.1167235 16.7294521,13.6681212 C16.7294521,13.6681212 15.8732877,15.0333721 13.630137,15.6500266 C14.1438356,16.2833475 14.760274,17 14.760274,17"
            id="Fill-1"></path>
      </g>
    </g>
  </g>
</svg>