<svg xmlns="http://www.w3.org/2000/svg" fill="none" viewBox="0 0 18 18">
    <path fill="currentColor" fill-rule="evenodd" d="M9 3C5.686 3 3 5.686 3 9s2.686 6 6 6 6-2.686 6-6-2.686-6-6-6zM1.5 9c0-4.142 3.358-7.5 7.5-7.5 4.142 0 7.5 3.358 7.5 7.5 0 4.142-3.358 7.5-7.5 7.5-4.142 0-7.5-3.358-7.5-7.5z" clip-rule="evenodd"/>
    <path fill="currentColor" fill-rule="evenodd" d="M9.739 5.25c.403-.011.801.086 1.154.282.357.198.653.49.857.843.207.36.083.818-.275 1.025-.36.207-.818.083-1.025-.276-.068-.117-.166-.215-.285-.28-.12-.067-.254-.1-.39-.095H8.25c-.199 0-.39.08-.53.22-.141.141-.22.332-.22.53 0 .2.079.39.22.531.14.14.331.22.53.22h1.5c.597 0 1.169.237 1.591.659.422.422.659.994.659 1.59 0 .598-.237 1.17-.659 1.592-.422.422-.994.659-1.591.659H8.261c-.403.011-.802-.086-1.154-.282-.357-.199-.653-.49-.857-.844-.207-.358-.083-.817.275-1.024.36-.207.818-.084 1.025.275.068.118.166.215.285.281.12.066.254.099.39.094H9.75c.199 0 .39-.08.53-.22.141-.14.22-.331.22-.53s-.079-.39-.22-.53c-.14-.141-.331-.22-.53-.22h-1.5c-.597 0-1.169-.237-1.591-.66C6.237 8.67 6 8.098 6 7.5c0-.597.237-1.17.659-1.591.422-.422.994-.66 1.591-.66h1.489z" clip-rule="evenodd"/>
    <path fill="currentColor" fill-rule="evenodd" d="M9 3.75c.414 0 .75.336.75.75V6c0 .414-.336.75-.75.75s-.75-.336-.75-.75V4.5c0-.414.336-.75.75-.75zm0 7.5c.414 0 .75.336.75.75v1.5c0 .414-.336.75-.75.75s-.75-.336-.75-.75V12c0-.414.336-.75.75-.75z" clip-rule="evenodd"/>
</svg>
