<svg xmlns="http://www.w3.org/2000/svg" viewBox="0 0 22 22">
    <g fill="none" fill-rule="evenodd">
        <g fill="currentColor" fill-rule="nonzero">
            <g>
                <path d="M353.308 23c.934 0 1.692.758 1.692 1.692v18.616c0 .934-.758 1.692-1.692 1.692h-18.616c-.934 0-1.692-.758-1.692-1.692V24.692c0-.934.758-1.692 1.692-1.692h18.616zm.692 1h-20v20h20V24zm-14.716 4.589l.07.057L344 33.291l4.647-4.645.069-.057c.195-.135.464-.116.638.058.173.173.192.443.057.637l-.058.07-4.646 4.643 4.646 4.646c.196.195.196.511 0 .707-.173.173-.442.193-.637.058l-.07-.058L344 34.704l-4.647 4.646-.069.058c-.195.135-.464.115-.638-.058-.173-.174-.192-.443-.057-.638l.058-.07 4.645-4.645-4.645-4.643c-.196-.196-.196-.512 0-.707.173-.174.442-.193.637-.058z" transform="translate(-333 -23)"/>
            </g>
        </g>
    </g>
</svg>
