<svg xmlns="http://www.w3.org/2000/svg" viewBox="0 0 22 22">
    <g fill="none" fill-rule="evenodd">
        <g fill="currentColor" fill-rule="nonzero">
            <path d="M311.308 23c.934 0 1.692.758 1.692 1.692v18.616c0 .934-.758 1.692-1.692 1.692h-18.616c-.934 0-1.692-.758-1.692-1.692V24.692c0-.934.758-1.692 1.692-1.692h18.616zm.692 1h-20v20h20v-6h-7.5c-.276 0-.5-.224-.5-.5v-7c0-.276.224-.5.5-.5h7.5v-6zm0 7h-7v6h7v-6zm-3 2c.552 0 1 .448 1 1s-.448 1-1 1h-1c-.552 0-1-.448-1-1s.448-1 1-1h1z" transform="translate(-291 -23)"/>
        </g>
    </g>
</svg>