<svg xmlns="http://www.w3.org/2000/svg" viewBox="0 0 22 22">
    <g fill="none" fill-rule="evenodd">
        <g fill="currentColor" fill-rule="nonzero">
            <path d="M353.308 23c.934 0 1.692.758 1.692 1.692v18.616c0 .934-.758 1.692-1.692 1.692h-18.616c-.934 0-1.692-.758-1.692-1.692V24.692c0-.934.758-1.692 1.692-1.692h18.616zm.692 1h-20v20h20V24zm-8.5 12c.276 0 .5.224.5.5s-.224.5-.5.5h-6c-.276 0-.5-.224-.5-.5s.224-.5.5-.5h6zm3-5c.276 0 .5.224.5.5s-.224.5-.5.5h-9c-.276 0-.5-.224-.5-.5s.224-.5.5-.5h9z" transform="translate(-333 -23)"/>
        </g>
    </g>
</svg>
