<?xml version="1.0" encoding="UTF-8" standalone="no"?>
<svg viewBox="0 0 16 16" version="1.1" xmlns="http://www.w3.org/2000/svg" xml:space="preserve" style="fill-rule:evenodd;clip-rule:evenodd;stroke-linejoin:round;stroke-miterlimit:2;">
    <g transform="matrix(1,0,0,1,0,-0.193)">
        <g transform="matrix(1,0,0,1,0,0.193)">
            <path d="M13.281,1.811L13.279,1.81L13.282,1.808C11.957,0.68 10.239,0 8.362,0C7.265,0 6.224,0.235 5.282,0.654C5.112,0.725 4.952,0.804 4.801,0.89C4.694,0.946 4.588,1.003 4.484,1.064L4.51,1.072C4.197,1.288 3.928,1.54 3.708,1.83C1.53,4.71 8.833,6.906 12.736,6.808C14.662,6.759 15.036,3.178 13.281,1.811M6.881,12.228C6.045,9.138 12.82,7.573 13.442,7.528C15.172,7.572 15.604,9.624 14.333,11.748C12.699,14.478 9.714,15.035 9.686,15.037C8.892,15.087 7.319,13.85 6.881,12.228" style="fill:currentColor;fill-opacity:0.3;"/>
        </g>
        <g transform="matrix(1,0,0,1,0,0.828)">
            <path d="M11.7,14.27C13.07,13.554 14.201,12.45 14.966,11.11C15.006,11.04 14.968,10.979 14.877,10.988C14.144,11.06 10.823,12.388 10.442,13.683C10.244,14.357 11.007,14.593 11.699,14.269M16,7.173C16,4.771 14.941,2.616 13.265,1.149C12.768,0.746 11.916,0.736 11.636,0.733C9.302,0.803 3.99,2.627 4.333,5.245C4.572,7.065 7.216,8.224 8.086,8.605C8.148,8.632 14.501,11.125 15.443,10.112C15.803,9.202 16,8.211 16,7.173M4.9,11.89C4.827,11.417 4.678,10.433 3.739,8.838C3.587,8.581 2.844,7.378 2.304,6.641C1.736,5.866 1.069,5.172 0.492,4.405C0.462,4.485 0.435,4.565 0.408,4.645C0.276,5.042 0.174,5.453 0.105,5.875C0.035,6.299 0,6.733 0,7.174C0,7.616 0.036,8.05 0.105,8.472C0.174,8.895 0.275,9.306 0.408,9.703C0.54,10.101 0.703,10.484 0.893,10.851C1.083,11.218 1.301,11.569 1.543,11.9C1.786,12.23 2.053,12.542 2.343,12.832C2.633,13.122 2.944,13.389 3.276,13.632C3.52,13.811 3.775,13.976 4.04,14.127C4.543,14.41 4.717,14.399 4.8,14.394C4.897,14.236 4.971,12.365 4.9,11.891M5.722,1.236C4.719,2.743 1.377,3.805 0.828,3.64L0.824,3.633L0.893,3.497C1.083,3.13 1.301,2.78 1.543,2.449C1.786,2.118 2.053,1.806 2.343,1.517C2.633,1.227 2.944,0.96 3.276,0.717C3.481,0.567 3.694,0.425 3.914,0.294C4.382,0.024 4.861,0.006 5.02,0C6.508,0.028 5.73,1.223 5.723,1.235" style="fill:currentColor;"/>
        </g>
    </g>
</svg>
