<svg width="48" height="48" viewBox="0 0 48 48" fill="none" xmlns="http://www.w3.org/2000/svg">
<path d="M24 47C37.2548 47 48 44.7856 48 42.0538V38.0968H38.4023C34.3908 37.4756 29.4039 37.1075 24 37.1075C18.5961 37.1075 13.6092 37.4756 9.59766 38.0968H0V42.0538C0 44.7856 10.7452 47 24 47Z" fill="#7AD162"/>
<path d="M24 43.043C37.2548 43.043 48 40.8285 48 38.0968C48 35.365 37.2548 33.1505 24 33.1505C10.7452 33.1505 0 35.365 0 38.0968C0 40.8285 10.7452 43.043 24 43.043Z" fill="#2C581A"/>
<path d="M11.8322 37.6022H36.1677C41.2221 33.9088 44.5 27.9729 44.5 21.2796C44.5 10.0794 35.3218 1 24 1C12.6781 1 3.5 10.0794 3.5 21.2796C3.5 27.9729 6.77787 33.9088 11.8322 37.6022Z" fill="#010101"/>
<path d="M15.5909 19.8389L15.3614 20.1871C12.7727 24.1154 13.3509 29.2601 16.7513 32.556C18.7517 34.4951 21.3735 35.4647 23.9955 35.465C23.9955 35.465 23.9955 35.465 15.5909 19.8389Z" fill="#4BDB4B"/>
<path opacity="0.6" d="M23.9925 24.588L15.5879 19.8389C23.9925 35.465 23.9925 35.465 23.9925 35.465C23.9925 32.0617 23.9925 28.162 23.9925 24.588Z" fill="#4BDB4B"/>
<path opacity="0.6" d="M32.4095 19.8389L32.639 20.1871C35.2276 24.1154 34.6494 29.2601 31.249 32.556C29.2486 34.4951 26.6268 35.4647 24.0049 35.465C24.0049 35.465 24.0049 35.465 32.4095 19.8389Z" fill="#4BDB4B"/>
<path opacity="0.2" d="M24.0039 24.588L32.4086 19.8389C24.0039 35.465 24.0039 35.465 24.0039 35.465C24.0039 32.0617 24.0039 28.162 24.0039 24.588Z" fill="#4BDB4B"/>
<path opacity="0.2" d="M24.0068 13.9783V22.1693L31.2465 18.0764L24.0068 13.9783Z" fill="#4BDB4B"/>
<path opacity="0.6" d="M24.0047 13.9783L16.7598 18.0764L24.0047 22.1693V13.9783Z" fill="#4BDB4B"/>
<path d="M24.0047 7.08984L16.7598 18.0792L24.0047 13.9696V7.08984Z" fill="#4BDB4B"/>
<path opacity="0.6" d="M24.0068 13.9683L31.252 18.078L24.0068 7.08325V13.9683Z" fill="#4BDB4B"/>
</svg>
