<?xml version="1.0" encoding="UTF-8"?>
<svg width="60px" height="60px" viewBox="0 0 60 60" version="1.1" xmlns="http://www.w3.org/2000/svg" xmlns:xlink="http://www.w3.org/1999/xlink">
    <title>bluna</title>
    <g id="GNB" stroke="none" stroke-width="1" fill="none" fill-rule="evenodd">
        <g id="Market" transform="translate(-160.000000, -1147.000000)">
            <g id="bluna" transform="translate(160.000000, 1147.000000)">
                <rect id="thum" opacity="0.200000003" x="0" y="0" width="60" height="60"></rect>
                <g id="Group" transform="translate(6.000000, 6.000000)" fill-rule="nonzero">
                    <g id="bLUNA">
                        <path d="M37.3,38.3 C33.5,37.8 28.9,37.5 24,37.5 C19.1,37.5 14.5,37.8 10.7,38.3 L0,38.3 L0,42.3 C0,45 10.7,47.1 24,47.1 C37.3,47.1 48,45 48,42.3 L48,38.3 L37.3,38.3 Z" id="Path" fill="#4BDB4B"></path>
                        <ellipse id="Oval" fill="#145E02" cx="24" cy="38.3" rx="24" ry="4.8"></ellipse>
                        <path d="M44.4,17.9 L44.4,17.9 C44.4,17.9 44.4,17.8 44.4,17.8 C44.4,17.8 44.4,17.8 44.4,17.8 C44.3,17.2 44.1,16.6 44,16 C44,16 44,15.9 44,15.9 C44,15.9 44,15.9 44,15.9 C43.9,15.6 43.8,15.3 43.7,15.1 C43.7,15.1 43.7,15.1 43.7,15 C43.7,15 43.7,15 43.7,15 C43.5,14.4 43.3,13.9 43.1,13.3 C43.1,13.3 43.1,13.3 43.1,13.3 C43.1,13.3 43.1,13.3 43.1,13.3 C43,13 42.9,12.8 42.7,12.5 C42.7,12.5 42.7,12.5 42.7,12.5 C42.7,12.5 42.7,12.5 42.7,12.5 C42.6,12.2 42.4,12 42.3,11.7 C42.3,11.7 42.3,11.7 42.3,11.7 C42.3,11.7 42.3,11.7 42.3,11.7 C42.3,11.7 42.3,11.7 42.3,11.7 C42.2,11.4 42,11.2 41.8,10.9 C41.8,10.9 41.8,10.9 41.8,10.9 C41.8,10.9 41.8,10.9 41.8,10.9 C41.7,10.7 41.5,10.4 41.4,10.2 C41.4,10.2 41.4,10.2 41.4,10.2 C41.4,10.2 41.4,10.1 41.3,10.1 C41.3,10.1 41.3,10.1 41.3,10.1 C41,9.6 40.6,9.1 40.3,8.7 C40.3,8.7 40.3,8.6 40.2,8.6 C40.2,8.6 40.2,8.6 40.2,8.6 C40,8.4 39.8,8.1 39.6,7.9 C39.6,7.9 39.6,7.9 39.6,7.9 L39.6,7.9 C39.4,7.7 39.2,7.5 39,7.3 C39,7.3 39,7.3 39,7.3 C39,7.3 39,7.3 39,7.3 C38.8,7.1 38.6,6.9 38.4,6.7 C38.4,6.7 38.4,6.7 38.4,6.7 C38.4,6.7 38.3,6.6 38.3,6.6 C38.3,6.6 38.3,6.6 38.3,6.6 C38.1,6.4 37.9,6.2 37.7,6.1 C37.7,6.1 37.7,6.1 37.6,6 C37.6,6 37.6,6 37.6,6 C37.4,5.8 37.2,5.6 37,5.5 L37,5.5 C37,5.5 37,5.5 36.9,5.5 C36.9,5.5 36.9,5.5 36.9,5.5 C36.7,5.3 36.4,5.1 36.2,5 C36.2,5 36.2,5 36.2,5 C36.2,5 36.2,5 36.2,5 C36,4.8 35.7,4.7 35.5,4.5 C35.5,4.5 35.5,4.5 35.5,4.5 C35.5,4.5 35.5,4.5 35.5,4.5 C35,4 34.5,3.7 34,3.4 C34,3.4 34,3.4 34,3.4 C34,3.4 34,3.4 33.9,3.4 C33.7,3.3 33.4,3.1 33.2,3 L33.2,3 C33.2,3 33.1,3 33.1,3 C33.1,3 33.1,3 33.1,3 C32.6,2.7 32,2.5 31.5,2.3 C31.5,2.3 31.4,2.3 31.4,2.3 C31.4,2.3 31.4,2.3 31.4,2.3 C31.1,2.2 30.8,2.1 30.5,2 C30.5,2 30.5,2 30.5,2 L30.5,2 C30.2,1.9 30,1.8 29.7,1.7 C29.7,1.7 29.7,1.7 29.6,1.7 C29.6,1.7 29.6,1.7 29.6,1.7 C29.3,1.6 29,1.5 28.7,1.5 C28.7,1.5 28.7,1.5 28.7,1.5 L28.7,1.5 C28.4,1.4 28.1,1.4 27.8,1.3 C27.8,1.3 27.8,1.3 27.7,1.3 C27.7,1.3 27.7,1.3 27.7,1.3 C27.4,1.2 27.1,1.2 26.8,1.2 C26.8,1.2 26.8,1.2 26.8,1.2 C26.8,1.2 26.8,1.2 26.8,1.2 C26.3,1.1 25.8,1.1 25.4,1.1 C25.5,1.1 25.6,1.1 25.6,1.1 C25.6,1.1 25.6,1.1 25.6,1.1 C25.8,1 26,1 26.2,1 C26.2,1 26.2,1 26.2,1 C26.4,1 26.6,1 26.7,1.1 C26.7,1.1 26.7,1.1 26.7,1.1 C26.9,1.1 27,1.1 27.2,1.2 C27.2,1.2 27.2,1.2 27.2,1.2 C27.4,1.2 27.5,1.3 27.7,1.3 C27.7,1.3 27.7,1.3 27.7,1.3 C27.8,1.3 28,1.4 28.1,1.4 C28.1,1.4 28.1,1.4 28.1,1.4 C28.2,1.4 28.4,1.5 28.5,1.5 C28.5,1.5 28.5,1.5 28.5,1.5 C28.6,1.5 28.7,1.6 28.9,1.6 C28.9,1.6 28.9,1.6 28.9,1.6 C29,1.6 29.1,1.7 29.2,1.7 C29.2,1.7 29.2,1.7 29.3,1.7 C29.4,1.7 29.5,1.8 29.6,1.8 C29.6,1.8 29.6,1.8 29.7,1.8 C29.8,2 29.9,2 30,2.1 C30,2.1 30,2.1 30.1,2.1 C30.2,2.1 30.3,2.2 30.3,2.2 C30.3,2.2 30.4,2.2 30.4,2.3 C30.5,2.3 30.5,2.4 30.6,2.4 C30.6,2.4 30.7,2.4 30.7,2.5 C30.8,2.5 30.8,2.6 30.9,2.6 C30.9,2.6 31,2.7 31,2.7 C31.1,2.7 31.1,2.8 31.2,2.8 C31.2,2.8 31.3,2.9 31.3,2.9 C31.3,2.9 31.4,3 31.4,3 C31.5,3.1 31.6,3.2 31.6,3.3 C31.7,3.4 32.3,4.2 32.6,5.5 C33,7.1 32.9,8.7 33.3,10.3 C33.4,10.6 33.4,10.8 33.5,11.1 C33.5,11.2 33.5,11.2 33.6,11.3 C33.7,11.5 33.7,11.7 33.8,11.9 C33.8,12 33.8,12 33.9,12.1 C35.8,18.1 39.5,21 44.5,24.8 C44.7,23.7 44.8,22.6 44.8,21.5 C44.7,20.3 44.6,19.1 44.4,17.9 Z" id="Path" fill="#EF7730"></path>
                        <path d="M43.4,29 C42,32.8 39.5,36 36.3,38.3 L11.8,38.3 C6.7,34.6 3.3,28.5 3.3,21.8 C3.2,15.5 6,9.9 10.3,6.1 C10.6,5.9 11,6 11,6.4 C11.3,14.6 17,22.8 26,26.8 C31.7,29.3 37.7,29.8 42.9,28.5 C43.2,28.3 43.5,28.7 43.4,29 Z M24,0.9 C22.9,0.9 21.7,1 20.6,1.2 C20.2,1.3 19.9,1.3 19.5,1.4 C12.3,3 14.2,6.4 24.1,10 C43.8,17 43.8,17 44.5,18.7 C43.1,8.7 34.5,0.9 24,0.9 Z" id="Shape" fill="#F9D85E"></path>
                    </g>
                </g>
            </g>
        </g>
    </g>
</svg>