<svg width="48" height="48" viewBox="0 0 48 48" fill="none" xmlns="http://www.w3.org/2000/svg">
<path d="M37.3 38.3C33.5 37.8 28.9 37.5 24 37.5C19.1 37.5 14.5 37.8 10.7 38.3H0V42.3C0 45 10.7 47.1 24 47.1C37.3 47.1 48 45 48 42.3V38.3H37.3Z" fill="#4BDB4B"/>
<ellipse cx="24" cy="38.3" rx="24" ry="4.8" fill="#145E02"/>
<path d="M44.4004 17.9V17.8C44.3004 17.2 44.1004 16.6 44.0004 16V15.9C43.9004 15.6 43.8004 15.3 43.7004 15.1C43.7004 15.1 43.7004 15.1 43.7004 15C43.5004 14.4 43.3004 13.9 43.1004 13.3C43.0004 13 42.9004 12.8 42.7004 12.5C42.6004 12.2 42.4004 12 42.3004 11.7C42.2004 11.4 42.0004 11.2 41.8004 10.9C41.7004 10.7 41.5004 10.4 41.4004 10.2C41.4004 10.2 41.4004 10.1 41.3004 10.1C41.0004 9.6 40.6004 9.1 40.3004 8.7C40.3004 8.7 40.3004 8.6 40.2004 8.6C40.0004 8.4 39.8004 8.1 39.6004 7.9C39.4004 7.7 39.2004 7.5 39.0004 7.3C38.8004 7.1 38.6004 6.9 38.4004 6.7L38.3004 6.6C38.1004 6.4 37.9004 6.2 37.7004 6.1C37.7004 6.1 37.7004 6.1 37.6004 6C37.4004 5.8 37.2004 5.6 37.0004 5.5C37.0004 5.5 37.0004 5.5 36.9004 5.5C36.7004 5.3 36.4004 5.1 36.2004 5C36.0004 4.8 35.7004 4.7 35.5004 4.5C35.0004 4 34.5004 3.7 34.0004 3.4C34.0004 3.4 34.0004 3.4 33.9004 3.4C33.7004 3.3 33.4004 3.1 33.2004 3H33.1004C32.6004 2.7 32.0004 2.5 31.5004 2.3H31.4004C31.1004 2.2 30.8004 2.1 30.5004 2C30.2004 1.9 30.0004 1.8 29.7004 1.7C29.7004 1.7 29.7004 1.7 29.6004 1.7C29.3004 1.6 29.0004 1.5 28.7004 1.5C28.4004 1.4 28.1004 1.4 27.8004 1.3C27.8004 1.3 27.8004 1.3 27.7004 1.3C27.4004 1.2 27.1004 1.2 26.8004 1.2C26.3004 1.1 25.8004 1.1 25.4004 1.1C25.5004 1.1 25.6004 1.1 25.6004 1.1C25.8004 1 26.0004 1 26.2004 1C26.4004 1 26.6004 1 26.7004 1.1C26.9004 1.1 27.0004 1.1 27.2004 1.2C27.4004 1.2 27.5004 1.3 27.7004 1.3C27.8004 1.3 28.0004 1.4 28.1004 1.4C28.2004 1.4 28.4004 1.5 28.5004 1.5C28.6004 1.5 28.7004 1.6 28.9004 1.6C29.0004 1.6 29.1004 1.7 29.2004 1.7C29.2004 1.7 29.2004 1.7 29.3004 1.7C29.4004 1.7 29.5004 1.8 29.6004 1.8C29.6004 1.8 29.6004 1.8 29.7004 1.8C29.8004 2 29.9004 2 30.0004 2.1C30.0004 2.1 30.0004 2.1 30.1004 2.1C30.2004 2.1 30.3004 2.2 30.3004 2.2C30.3004 2.2 30.4004 2.2 30.4004 2.3C30.5004 2.3 30.5004 2.4 30.6004 2.4C30.6004 2.4 30.7004 2.4 30.7004 2.5C30.8004 2.5 30.8004 2.6 30.9004 2.6L31.0004 2.7C31.1004 2.7 31.1004 2.8 31.2004 2.8L31.3004 2.9L31.4004 3C31.5004 3.1 31.6004 3.2 31.6004 3.3C31.7004 3.4 32.3004 4.2 32.6004 5.5C33.0004 7.1 32.9004 8.7 33.3004 10.3C33.4004 10.6 33.4004 10.8 33.5004 11.1C33.5004 11.2 33.5004 11.2 33.6004 11.3C33.7004 11.5 33.7004 11.7 33.8004 11.9C33.8004 12 33.8004 12 33.9004 12.1C35.8004 18.1 39.5004 21 44.5004 24.8C44.7004 23.7 44.8004 22.6 44.8004 21.5C44.7004 20.3 44.6004 19.1 44.4004 17.9Z" fill="#EF7730"/>
<path fill-rule="evenodd" clip-rule="evenodd" d="M20.6004 1.20002C21.7004 1.00002 22.9004 0.900024 24.0004 0.900024C34.5004 0.900024 43.1004 8.70002 44.5004 18.7C44.4267 18.521 44.3608 18.3609 44.2788 18.2094C43.582 16.9224 41.7261 16.263 24.1004 10C14.2004 6.40002 12.3004 3.00002 19.5004 1.40002C19.7004 1.35002 19.8754 1.32502 20.0504 1.30002C20.2254 1.27502 20.4004 1.25002 20.6004 1.20002ZM36.3004 38.3C39.5004 36 42.0004 32.8 43.4004 29C43.5004 28.7 43.2004 28.3 42.9004 28.5C37.7004 29.8 31.7004 29.3 26.0004 26.8C17.0004 22.8 11.3004 14.6 11.0004 6.40002C11.0004 6.00002 10.6004 5.90002 10.3004 6.10002C6.00044 9.90002 3.20044 15.5 3.30044 21.8C3.30044 28.5 6.70044 34.6 11.8004 38.3H36.3004Z" fill="#F9D85E"/>
</svg>
