<?xml version="1.0" encoding="UTF-8"?>
<svg width="60px" height="60px" viewBox="0 0 60 60" version="1.1" xmlns="http://www.w3.org/2000/svg" xmlns:xlink="http://www.w3.org/1999/xlink">
    <title>krt</title>
    <defs>
        <linearGradient x1="-0.0134365704%" y1="49.9882303%" x2="99.9885804%" y2="49.9882303%" id="linearGradient-1">
            <stop stop-color="#000000" stop-opacity="0" offset="37.5%"></stop>
            <stop stop-color="#000000" stop-opacity="0" offset="100%"></stop>
        </linearGradient>
        <linearGradient x1="-0.013529006%" y1="49.9872321%" x2="99.9963228%" y2="49.9872321%" id="linearGradient-2">
            <stop stop-color="#000000" stop-opacity="0.0625" offset="37.5%"></stop>
            <stop stop-color="#000000" stop-opacity="0" offset="100%"></stop>
        </linearGradient>
        <linearGradient x1="-0.0136227188%" y1="49.9874993%" x2="100.003917%" y2="49.9874993%" id="linearGradient-3">
            <stop stop-color="#000000" stop-opacity="0.125" offset="37.5%"></stop>
            <stop stop-color="#000000" stop-opacity="0" offset="100%"></stop>
        </linearGradient>
        <linearGradient x1="-0.0137145502%" y1="50.003191%" x2="99.9886014%" y2="50.003191%" id="linearGradient-4">
            <stop stop-color="#000000" stop-opacity="0.1875" offset="37.5%"></stop>
            <stop stop-color="#000000" stop-opacity="0" offset="100%"></stop>
        </linearGradient>
        <linearGradient x1="-0.0138108602%" y1="50.0206519%" x2="99.9964801%" y2="50.0206519%" id="linearGradient-5">
            <stop stop-color="#000000" stop-opacity="0.25" offset="37.5%"></stop>
            <stop stop-color="#000000" stop-opacity="0" offset="100%"></stop>
        </linearGradient>
        <linearGradient x1="-0.0139085325%" y1="50.0127451%" x2="100.00447%" y2="50.0127451%" id="linearGradient-6">
            <stop stop-color="#000000" stop-opacity="0.3125" offset="37.5%"></stop>
            <stop stop-color="#000000" stop-opacity="0" offset="100%"></stop>
        </linearGradient>
        <linearGradient x1="-0.0140042712%" y1="50.0132945%" x2="99.9888352%" y2="50.0132945%" id="linearGradient-7">
            <stop stop-color="#000000" stop-opacity="0.375" offset="37.5%"></stop>
            <stop stop-color="#000000" stop-opacity="0" offset="100%"></stop>
        </linearGradient>
        <linearGradient x1="-0.0141047083%" y1="50.0222703%" x2="99.9968832%" y2="50.0222703%" id="linearGradient-8">
            <stop stop-color="#000000" stop-opacity="0.4375" offset="37.5%"></stop>
            <stop stop-color="#000000" stop-opacity="0" offset="100%"></stop>
        </linearGradient>
        <linearGradient x1="-0.0142065963%" y1="50.0209338%" x2="100.004807%" y2="50.0209338%" id="linearGradient-9">
            <stop stop-color="#000000" stop-opacity="0.5" offset="37.5%"></stop>
            <stop stop-color="#000000" stop-opacity="0" offset="100%"></stop>
        </linearGradient>
        <linearGradient x1="-0.0143064972%" y1="50.0217961%" x2="99.9888365%" y2="50.0217961%" id="linearGradient-10">
            <stop stop-color="#000000" stop-opacity="0.5625" offset="37.5%"></stop>
            <stop stop-color="#000000" stop-opacity="0" offset="100%"></stop>
        </linearGradient>
        <linearGradient x1="-0.0144113323%" y1="50.0202384%" x2="99.9970595%" y2="50.0202384%" id="linearGradient-11">
            <stop stop-color="#000000" stop-opacity="0.625" offset="37.5%"></stop>
            <stop stop-color="#000000" stop-opacity="0" offset="100%"></stop>
        </linearGradient>
        <linearGradient x1="-0.0145177151%" y1="49.9853081%" x2="100.005404%" y2="49.9853081%" id="linearGradient-12">
            <stop stop-color="#000000" stop-opacity="0.6875" offset="37.5%"></stop>
            <stop stop-color="#000000" stop-opacity="0" offset="100%"></stop>
        </linearGradient>
        <linearGradient x1="-0.0146220556%" y1="49.9860534%" x2="99.9890857%" y2="49.9860534%" id="linearGradient-13">
            <stop stop-color="#000000" stop-opacity="0.75" offset="37.5%"></stop>
            <stop stop-color="#000000" stop-opacity="0" offset="100%"></stop>
        </linearGradient>
        <linearGradient x1="-0.0147315841%" y1="49.9844175%" x2="99.9974933%" y2="49.9844175%" id="linearGradient-14">
            <stop stop-color="#000000" stop-opacity="0.8125" offset="37.5%"></stop>
            <stop stop-color="#000000" stop-opacity="0" offset="100%"></stop>
        </linearGradient>
        <linearGradient x1="-0.0148427658%" y1="49.985658%" x2="100.005776%" y2="49.985658%" id="linearGradient-15">
            <stop stop-color="#000000" stop-opacity="0.875" offset="37.5%"></stop>
            <stop stop-color="#000000" stop-opacity="0" offset="100%"></stop>
        </linearGradient>
        <linearGradient x1="-0.01495185%" y1="49.9835848%" x2="99.9891029%" y2="49.9835848%" id="linearGradient-16">
            <stop stop-color="#000000" stop-opacity="0.9375" offset="37.5%"></stop>
            <stop stop-color="#000000" stop-opacity="0" offset="100%"></stop>
        </linearGradient>
        <linearGradient x1="-0.0150663881%" y1="49.9768542%" x2="99.9976605%" y2="49.9768542%" id="linearGradient-17">
            <stop stop-color="#000000" offset="37.5%"></stop>
            <stop stop-color="#000000" stop-opacity="0" offset="100%"></stop>
        </linearGradient>
        <linearGradient x1="0.011488384%" y1="49.9084393%" x2="99.9979576%" y2="49.9084393%" id="linearGradient-18">
            <stop stop-color="#808080" offset="0%"></stop>
            <stop stop-color="#838383" offset="32.75%"></stop>
            <stop stop-color="#8D8D8D" offset="59.05%"></stop>
            <stop stop-color="#9E9E9E" offset="83.02%"></stop>
            <stop stop-color="#AFAFAF" offset="100%"></stop>
        </linearGradient>
        <linearGradient x1="50.0173622%" y1="-0.0895521819%" x2="50.0173622%" y2="99.8963427%" id="linearGradient-19">
            <stop stop-color="#DFDFDF" offset="35%"></stop>
            <stop stop-color="#DDDDDD" offset="64.54%"></stop>
            <stop stop-color="#D6D6D6" offset="75.17%"></stop>
            <stop stop-color="#CBCBCB" offset="82.76%"></stop>
            <stop stop-color="#BABABA" offset="88.89%"></stop>
            <stop stop-color="#A4A4A4" offset="94.14%"></stop>
            <stop stop-color="#898989" offset="98.7%"></stop>
            <stop stop-color="#808080" offset="100%"></stop>
        </linearGradient>
        <linearGradient x1="-0.0140413524%" y1="50.0264051%" x2="99.9723866%" y2="50.0264051%" id="linearGradient-20">
            <stop stop-color="#DFDFDF" offset="0%"></stop>
            <stop stop-color="#E1E1E1" offset="2.1%"></stop>
            <stop stop-color="#F2F2F2" offset="24.35%"></stop>
            <stop stop-color="#FCFCFC" offset="48.72%"></stop>
            <stop stop-color="#FFFFFF" offset="79.11%"></stop>
            <stop stop-color="#FCFCFC" offset="84.44%"></stop>
            <stop stop-color="#F2F2F2" offset="88.71%"></stop>
            <stop stop-color="#E1E1E1" offset="92.63%"></stop>
            <stop stop-color="#C9C9C9" offset="96.3%"></stop>
            <stop stop-color="#C7C7C7" offset="96.6%"></stop>
            <stop stop-color="#FFFFFF" offset="100%"></stop>
        </linearGradient>
        <linearGradient x1="-1010.28794%" y1="49.8952703%" x2="513.564202%" y2="49.8952703%" id="linearGradient-21">
            <stop stop-color="#242424" offset="0%"></stop>
            <stop stop-color="#2D2D2D" offset="33.46%"></stop>
            <stop stop-color="#303030" offset="79.11%"></stop>
            <stop stop-color="#2D2D2D" offset="86.68%"></stop>
            <stop stop-color="#232323" offset="92.75%"></stop>
            <stop stop-color="#181818" offset="96.6%"></stop>
            <stop stop-color="#303030" offset="100%"></stop>
        </linearGradient>
        <linearGradient x1="-1090.94141%" y1="49.9087838%" x2="439.050781%" y2="49.9087838%" id="linearGradient-22">
            <stop stop-color="#242424" offset="0%"></stop>
            <stop stop-color="#2D2D2D" offset="33.46%"></stop>
            <stop stop-color="#303030" offset="79.11%"></stop>
            <stop stop-color="#2D2D2D" offset="86.68%"></stop>
            <stop stop-color="#232323" offset="92.75%"></stop>
            <stop stop-color="#181818" offset="96.6%"></stop>
            <stop stop-color="#303030" offset="100%"></stop>
        </linearGradient>
        <linearGradient x1="-607.426667%" y1="49.9496403%" x2="262.855556%" y2="49.9496403%" id="linearGradient-23">
            <stop stop-color="#242424" offset="0%"></stop>
            <stop stop-color="#2D2D2D" offset="33.46%"></stop>
            <stop stop-color="#303030" offset="79.11%"></stop>
            <stop stop-color="#2D2D2D" offset="86.68%"></stop>
            <stop stop-color="#232323" offset="92.75%"></stop>
            <stop stop-color="#181818" offset="96.6%"></stop>
            <stop stop-color="#303030" offset="100%"></stop>
        </linearGradient>
        <linearGradient x1="-1120.07813%" y1="50.0912162%" x2="409.691406%" y2="50.0912162%" id="linearGradient-24">
            <stop stop-color="#242424" offset="0%"></stop>
            <stop stop-color="#2D2D2D" offset="33.46%"></stop>
            <stop stop-color="#303030" offset="79.11%"></stop>
            <stop stop-color="#2D2D2D" offset="86.68%"></stop>
            <stop stop-color="#232323" offset="92.75%"></stop>
            <stop stop-color="#181818" offset="96.6%"></stop>
            <stop stop-color="#303030" offset="100%"></stop>
        </linearGradient>
        <linearGradient x1="-1197.01953%" y1="50.023569%" x2="332.753906%" y2="50.023569%" id="linearGradient-25">
            <stop stop-color="#242424" offset="0%"></stop>
            <stop stop-color="#2D2D2D" offset="33.46%"></stop>
            <stop stop-color="#303030" offset="79.11%"></stop>
            <stop stop-color="#2D2D2D" offset="86.68%"></stop>
            <stop stop-color="#232323" offset="92.75%"></stop>
            <stop stop-color="#181818" offset="96.6%"></stop>
            <stop stop-color="#303030" offset="100%"></stop>
        </linearGradient>
        <linearGradient x1="-192.627753%" y1="49.9256055%" x2="670.008811%" y2="49.9256055%" id="linearGradient-26">
            <stop stop-color="#242424" offset="0%"></stop>
            <stop stop-color="#2D2D2D" offset="33.46%"></stop>
            <stop stop-color="#303030" offset="79.11%"></stop>
            <stop stop-color="#2D2D2D" offset="86.68%"></stop>
            <stop stop-color="#232323" offset="92.75%"></stop>
            <stop stop-color="#181818" offset="96.6%"></stop>
            <stop stop-color="#303030" offset="100%"></stop>
        </linearGradient>
        <linearGradient x1="-287.801556%" y1="49.8712871%" x2="1236.26459%" y2="49.8712871%" id="linearGradient-27">
            <stop stop-color="#242424" offset="0%"></stop>
            <stop stop-color="#2D2D2D" offset="33.46%"></stop>
            <stop stop-color="#303030" offset="79.11%"></stop>
            <stop stop-color="#2D2D2D" offset="86.68%"></stop>
            <stop stop-color="#232323" offset="92.75%"></stop>
            <stop stop-color="#181818" offset="96.6%"></stop>
            <stop stop-color="#303030" offset="100%"></stop>
        </linearGradient>
        <linearGradient x1="-363.976654%" y1="50.0927152%" x2="1159.72763%" y2="50.0927152%" id="linearGradient-28">
            <stop stop-color="#242424" offset="0%"></stop>
            <stop stop-color="#2D2D2D" offset="33.46%"></stop>
            <stop stop-color="#303030" offset="79.11%"></stop>
            <stop stop-color="#2D2D2D" offset="86.68%"></stop>
            <stop stop-color="#232323" offset="92.75%"></stop>
            <stop stop-color="#181818" offset="96.6%"></stop>
            <stop stop-color="#303030" offset="100%"></stop>
        </linearGradient>
        <linearGradient x1="-132.437363%" y1="50.0566038%" x2="728.334066%" y2="50.0566038%" id="linearGradient-29">
            <stop stop-color="#242424" offset="0%"></stop>
            <stop stop-color="#2D2D2D" offset="33.46%"></stop>
            <stop stop-color="#303030" offset="79.11%"></stop>
            <stop stop-color="#2D2D2D" offset="86.68%"></stop>
            <stop stop-color="#232323" offset="92.75%"></stop>
            <stop stop-color="#181818" offset="96.6%"></stop>
            <stop stop-color="#303030" offset="100%"></stop>
        </linearGradient>
        <linearGradient x1="-192.421978%" y1="50.0015873%" x2="668.312088%" y2="50.0015873%" id="linearGradient-30">
            <stop stop-color="#242424" offset="0%"></stop>
            <stop stop-color="#2D2D2D" offset="33.46%"></stop>
            <stop stop-color="#303030" offset="79.11%"></stop>
            <stop stop-color="#2D2D2D" offset="86.68%"></stop>
            <stop stop-color="#232323" offset="92.75%"></stop>
            <stop stop-color="#181818" offset="96.6%"></stop>
            <stop stop-color="#303030" offset="100%"></stop>
        </linearGradient>
        <linearGradient x1="-162.327473%" y1="50.0446571%" x2="698.446154%" y2="50.0446571%" id="linearGradient-31">
            <stop stop-color="#242424" offset="0%"></stop>
            <stop stop-color="#2D2D2D" offset="33.46%"></stop>
            <stop stop-color="#303030" offset="79.11%"></stop>
            <stop stop-color="#2D2D2D" offset="86.68%"></stop>
            <stop stop-color="#232323" offset="92.75%"></stop>
            <stop stop-color="#181818" offset="96.6%"></stop>
            <stop stop-color="#303030" offset="100%"></stop>
        </linearGradient>
        <linearGradient x1="-132.437363%" y1="50.0240385%" x2="728.334066%" y2="50.0240385%" id="linearGradient-32">
            <stop stop-color="#242424" offset="0%"></stop>
            <stop stop-color="#2D2D2D" offset="33.46%"></stop>
            <stop stop-color="#303030" offset="79.11%"></stop>
            <stop stop-color="#2D2D2D" offset="86.68%"></stop>
            <stop stop-color="#232323" offset="92.75%"></stop>
            <stop stop-color="#181818" offset="96.6%"></stop>
            <stop stop-color="#303030" offset="100%"></stop>
        </linearGradient>
        <linearGradient x1="-1014.625%" y1="50.003096%" x2="515.175781%" y2="50.003096%" id="linearGradient-33">
            <stop stop-color="#242424" offset="0%"></stop>
            <stop stop-color="#2D2D2D" offset="33.46%"></stop>
            <stop stop-color="#303030" offset="79.11%"></stop>
            <stop stop-color="#2D2D2D" offset="86.68%"></stop>
            <stop stop-color="#232323" offset="92.75%"></stop>
            <stop stop-color="#181818" offset="96.6%"></stop>
            <stop stop-color="#303030" offset="100%"></stop>
        </linearGradient>
        <linearGradient x1="-1091.32813%" y1="50.1981424%" x2="438.660156%" y2="50.1981424%" id="linearGradient-34">
            <stop stop-color="#242424" offset="0%"></stop>
            <stop stop-color="#2D2D2D" offset="33.46%"></stop>
            <stop stop-color="#303030" offset="79.11%"></stop>
            <stop stop-color="#2D2D2D" offset="86.68%"></stop>
            <stop stop-color="#232323" offset="92.75%"></stop>
            <stop stop-color="#181818" offset="96.6%"></stop>
            <stop stop-color="#303030" offset="100%"></stop>
        </linearGradient>
        <linearGradient x1="-1067.36719%" y1="49.6811146%" x2="462.460938%" y2="49.6811146%" id="linearGradient-35">
            <stop stop-color="#242424" offset="0%"></stop>
            <stop stop-color="#2D2D2D" offset="33.46%"></stop>
            <stop stop-color="#303030" offset="79.11%"></stop>
            <stop stop-color="#2D2D2D" offset="86.68%"></stop>
            <stop stop-color="#232323" offset="92.75%"></stop>
            <stop stop-color="#181818" offset="96.6%"></stop>
            <stop stop-color="#303030" offset="100%"></stop>
        </linearGradient>
        <linearGradient x1="-1143.90234%" y1="49.7080745%" x2="385.871094%" y2="49.7080745%" id="linearGradient-36">
            <stop stop-color="#242424" offset="0%"></stop>
            <stop stop-color="#2D2D2D" offset="33.46%"></stop>
            <stop stop-color="#303030" offset="79.11%"></stop>
            <stop stop-color="#2D2D2D" offset="86.68%"></stop>
            <stop stop-color="#232323" offset="92.75%"></stop>
            <stop stop-color="#181818" offset="96.6%"></stop>
            <stop stop-color="#303030" offset="100%"></stop>
        </linearGradient>
        <linearGradient x1="-1120.46484%" y1="50.2136223%" x2="409.3125%" y2="50.2136223%" id="linearGradient-37">
            <stop stop-color="#242424" offset="0%"></stop>
            <stop stop-color="#2D2D2D" offset="33.46%"></stop>
            <stop stop-color="#303030" offset="79.11%"></stop>
            <stop stop-color="#2D2D2D" offset="86.68%"></stop>
            <stop stop-color="#232323" offset="92.75%"></stop>
            <stop stop-color="#181818" offset="96.6%"></stop>
            <stop stop-color="#303030" offset="100%"></stop>
        </linearGradient>
        <linearGradient x1="-1196.62891%" y1="50.1775701%" x2="333.144531%" y2="50.1775701%" id="linearGradient-38">
            <stop stop-color="#242424" offset="0%"></stop>
            <stop stop-color="#2D2D2D" offset="33.46%"></stop>
            <stop stop-color="#303030" offset="79.11%"></stop>
            <stop stop-color="#2D2D2D" offset="86.68%"></stop>
            <stop stop-color="#232323" offset="92.75%"></stop>
            <stop stop-color="#181818" offset="96.6%"></stop>
            <stop stop-color="#303030" offset="100%"></stop>
        </linearGradient>
        <linearGradient x1="-104.444785%" y1="50.0201989%" x2="201.723052%" y2="50.0201989%" id="linearGradient-39">
            <stop stop-color="#B41B00" offset="0%"></stop>
            <stop stop-color="#B61D01" offset="2.1%"></stop>
            <stop stop-color="#C72E0B" offset="24.35%"></stop>
            <stop stop-color="#D13811" offset="48.72%"></stop>
            <stop stop-color="#D43B13" offset="79.11%"></stop>
            <stop stop-color="#D13812" offset="84.15%"></stop>
            <stop stop-color="#C72F0F" offset="88.19%"></stop>
            <stop stop-color="#B61F0A" offset="91.9%"></stop>
            <stop stop-color="#9E0903" offset="95.37%"></stop>
            <stop stop-color="#940000" offset="96.6%"></stop>
            <stop stop-color="#D43B13" offset="100%"></stop>
        </linearGradient>
        <linearGradient x1="-104.778871%" y1="50.0561398%" x2="208.499072%" y2="50.0561398%" id="linearGradient-40">
            <stop stop-color="#00209F" offset="0%"></stop>
            <stop stop-color="#0222A1" offset="2.1%"></stop>
            <stop stop-color="#1333B2" offset="24.35%"></stop>
            <stop stop-color="#1D3DBC" offset="48.72%"></stop>
            <stop stop-color="#2040BF" offset="79.11%"></stop>
            <stop stop-color="#1E3DBC" offset="84.15%"></stop>
            <stop stop-color="#1933B2" offset="88.19%"></stop>
            <stop stop-color="#1122A1" offset="91.9%"></stop>
            <stop stop-color="#050A89" offset="95.37%"></stop>
            <stop stop-color="#00007F" offset="96.6%"></stop>
            <stop stop-color="#2040BF" offset="100%"></stop>
        </linearGradient>
        <linearGradient x1="-0.0160837309%" y1="50.0010211%" x2="99.9713654%" y2="50.0010211%" id="linearGradient-41">
            <stop stop-color="#404040" offset="0%"></stop>
            <stop stop-color="#FFFFFF" offset="79.11%"></stop>
            <stop stop-color="#FFFFFF" offset="96.6%"></stop>
            <stop stop-color="#FFFFFF" offset="100%"></stop>
        </linearGradient>
    </defs>
    <g id="Page-1" stroke="none" stroke-width="1" fill="none" fill-rule="evenodd">
        <g id="tetst" transform="translate(-160.000000, -859.000000)">
            <g id="krt" transform="translate(160.000000, 859.000000)">
                <rect id="thum" opacity="0.200000003" x="0" y="0" width="60" height="60"></rect>
                <g id="KRT" transform="translate(5.000000, 4.000000)" fill-rule="nonzero">
                    <g id="Symbol_2_">
                        <g id="Group" transform="translate(10.000000, 0.000000)" fill="#0E3CA5">
                            <path d="M10.24,35.77 C11.49,40.39 15.97,43.92 18.24,43.78 C18.32,43.77 26.83,42.19 31.49,34.4 C35.12,28.34 33.88,22.49 28.95,22.37 C27.18,22.5 7.86,26.96 10.24,35.77" id="Path"></path>
                            <path d="M28.49,6.07 C28.49,6.07 28.49,6.06 28.49,6.07 L28.49,6.07 C24.72,2.84 19.82,0.9 14.47,0.9 C11.34,0.9 8.37,1.57 5.69,2.76 C5.21,2.96 4.75,3.19 4.32,3.43 C4.02,3.59 3.71,3.75 3.42,3.93 L3.49,3.95 C2.6,4.56 1.83,5.28 1.21,6.11 C-5,14.32 15.82,20.28 26.95,20.3 C32.06,23.99 33.5,9.96 28.49,6.07 Z" id="Path"></path>
                        </g>
                        <g id="Group" transform="translate(0.000000, 2.000000)" fill="#5493F7">
                            <path d="M16.94,4.23 C14.08,8.53 4.55,11.56 2.99,11.09 C2.99,11.08 2.98,11.08 2.98,11.07 C3.04,10.94 3.11,10.81 3.18,10.68 C3.72,9.63 4.34,8.63 5.04,7.69 C5.73,6.75 6.49,5.86 7.32,5.03 C8.15,4.2 9.03,3.44 9.98,2.75 C10.57,2.32 11.17,1.92 11.8,1.54 C13.13,0.77 14.5,0.72 14.95,0.7 C19.18,0.79 16.96,4.2 16.94,4.23" id="Path"></path>
                            <path d="M14.59,34.62 C14.8,35.97 14.58,41.31 14.31,41.76 C14.07,41.77 13.58,41.8 12.14,41 C11.39,40.57 10.66,40.1 9.96,39.59 C9.02,38.9 8.13,38.14 7.3,37.31 C6.47,36.48 5.71,35.6 5.02,34.65 C4.33,33.71 3.71,32.71 3.16,31.66 C2.62,30.61 2.15,29.52 1.78,28.39 C1.4,27.26 1.11,26.08 0.92,24.88 C0.72,23.68 0.62,22.44 0.62,21.18 C0.62,19.92 0.72,18.68 0.92,17.48 C1.12,16.28 1.41,15.1 1.78,13.97 C1.86,13.74 1.94,13.51 2.02,13.29 L2.02,13.29 C3.66,15.48 5.57,17.46 7.19,19.67 C8.73,21.77 10.85,25.2 11.28,25.93 C13.96,30.46 14.39,33.27 14.59,34.62" id="Path"></path>
                            <path d="M46.25,21.17 C46.25,24.13 45.69,26.95 44.66,29.55 C41.97,32.44 23.86,25.33 23.68,25.25 C21.2,24.16 13.66,20.86 12.98,15.67 C12,8.2 27.15,3 33.8,2.8 C34.6,2.81 37.03,2.84 38.44,3.99 C43.23,8.17 46.25,14.32 46.25,21.17" id="Path"></path>
                            <path d="M33.98,41.4 C32.01,42.32 29.83,41.65 30.4,39.73 C31.48,36.04 40.95,32.25 43.05,32.05 C43.31,32.02 43.42,32.2 43.3,32.4 C41.12,36.21 37.89,39.36 33.98,41.4" id="Path"></path>
                        </g>
                    </g>
                    <g id="Group" opacity="0.3" transform="translate(10.000000, 22.000000)">
                        <path d="M2.18,0.59 C1.37,0.59 0.72,1.15 0.72,1.84 C0.72,8.88 0.72,17.9 0.72,25.02 C0.72,25.96 1.38,26.72 2.18,26.72 C23.73,26.99 44.65,33.14 44.6300143,30.03 C44.6300143,22.28 44.6300143,11.67 44.6300143,3.92 C44.65,0.74 23.73,0.6 2.18,0.59 Z" id="Path" fill="url(#linearGradient-1)" opacity="0"></path>
                        <path d="M2.18,0.59 C1.37,0.59 0.72,1.15 0.72,1.84 C0.72,8.88 0.72,17.9 0.72,25.02 C0.72,25.96 1.38,26.71 2.18,26.72 C23.58,26.85 44.34,32.84 44.3300036,29.83 C44.3,22.19 44.3,11.68 44.3300036,4.04 C44.34,0.96 23.58,0.61 2.18,0.59 Z" id="Path" fill="url(#linearGradient-2)" opacity="0.0625"></path>
                        <path d="M2.18,0.59 C1.37,0.59 0.72,1.15 0.72,1.84 C0.72,8.88 0.72,17.9 0.72,25.02 C0.72,25.96 1.38,26.71 2.18,26.72 C23.43,26.84 44.04,32.54 44.0300036,29.63 C44,22.1 44,11.7 44.0300036,4.17 C44.04,1.18 23.43,0.62 2.18,0.59 Z" id="Path" fill="url(#linearGradient-3)" opacity="0.125"></path>
                        <path d="M2.18,0.59 C1.37,0.59 0.72,1.15 0.72,1.84 C0.72,8.88 0.72,17.9 0.72,25.02 C0.72,25.96 1.38,26.71 2.18,26.71 C23.28,26.83 43.75,32.23 43.7400037,29.42 C43.71,22 43.71,11.7 43.7400037,4.28 C43.75,1.4 23.28,0.63 2.18,0.59 Z" id="Path" fill="url(#linearGradient-4)" opacity="0.1875"></path>
                        <path d="M2.18,0.59 C1.37,0.59 0.72,1.15 0.72,1.83 C0.72,8.87 0.72,17.89 0.72,25.01 C0.72,25.95 1.38,26.7 2.18,26.7 C23.13,26.81 43.45,31.92 43.4400037,29.21 C43.41,21.89 43.41,11.71 43.4400037,4.39 C43.45,1.62 23.13,0.64 2.18,0.59 Z" id="Path" fill="url(#linearGradient-5)" opacity="0.25"></path>
                        <path d="M2.18,0.59 C1.37,0.59 0.72,1.15 0.72,1.83 C0.72,8.87 0.72,17.89 0.72,25.01 C0.72,25.95 1.38,26.7 2.18,26.7 C22.98,26.81 43.15,31.63 43.1400037,29.01 C43.11,21.8 43.11,11.72 43.1400037,4.51 C43.15,1.84 22.98,0.65 2.18,0.59 Z" id="Path" fill="url(#linearGradient-6)" opacity="0.3125"></path>
                        <path d="M2.18,0.59 C1.37,0.59 0.72,1.15 0.72,1.83 C0.72,8.87 0.72,17.89 0.72,25.01 C0.72,25.95 1.38,26.7 2.18,26.7 C22.83,26.8 42.86,31.33 42.8500037,28.81 C42.82,21.71 42.82,11.74 42.8500037,4.64 C42.86,2.06 22.83,0.66 2.18,0.59 Z" id="Path" fill="url(#linearGradient-7)" opacity="0.375"></path>
                        <path d="M2.18,0.59 C1.37,0.59 0.72,1.15 0.72,1.83 C0.72,8.87 0.72,17.89 0.72,25.01 C0.72,25.95 1.38,26.7 2.18,26.7 C22.68,26.79 42.56,31.03 42.5500038,28.6 C42.52,21.61 42.52,11.74 42.5500038,4.75 C42.56,2.28 22.69,0.62 2.18,0.59 Z" id="Path" fill="url(#linearGradient-8)" opacity="0.4375"></path>
                        <path d="M2.18,0.59 C1.37,0.59 0.72,1.15 0.72,1.83 C0.72,8.87 0.72,17.89 0.72,25.01 C0.72,25.94 1.38,26.7 2.18,26.7 C22.53,26.79 42.26,30.73 42.2500038,28.4 C42.22,21.51 42.22,11.76 42.2500038,4.87 C42.26,2.5 22.54,0.63 2.18,0.59 Z" id="Path" fill="url(#linearGradient-9)" opacity="0.5"></path>
                        <path d="M2.18,0.59 C1.37,0.59 0.72,1.15 0.72,1.83 C0.72,8.87 0.72,17.89 0.72,25.01 C0.72,25.94 1.38,26.7 2.18,26.7 C22.38,26.78 41.97,30.43 41.9600038,28.2 C41.93,21.42 41.93,11.77 41.9600038,5 C41.9600038,2.72 22.39,0.63 2.18,0.59 Z" id="Path" fill="url(#linearGradient-10)" opacity="0.5625"></path>
                        <path d="M2.18,0.59 C1.37,0.59 0.72,1.15 0.72,1.83 C0.72,8.87 0.72,17.89 0.72,25.01 C0.72,25.94 1.38,26.7 2.18,26.7 C22.23,26.78 41.67,30.13 41.6600039,28 C41.63,21.33 41.63,11.79 41.6600039,5.12 C41.67,2.94 22.24,0.64 2.18,0.59 Z" id="Path" fill="url(#linearGradient-11)" opacity="0.625"></path>
                        <path d="M2.18,0.6 C1.37,0.6 0.72,1.16 0.72,1.84 C0.72,8.88 0.72,17.9 0.72,25.02 C0.72,25.95 1.38,26.71 2.18,26.71 C22.08,26.78 41.37,29.84 41.3600039,27.81 C41.33,21.25 41.33,11.81 41.3600039,5.25 C41.37,3.16 22.09,0.64 2.18,0.6 Z" id="Path" fill="url(#linearGradient-12)" opacity="0.6875"></path>
                        <path d="M2.18,0.6 C1.37,0.6 0.72,1.16 0.72,1.84 C0.72,8.88 0.72,17.9 0.72,25.02 C0.72,25.95 1.38,26.71 2.18,26.71 C21.93,26.77 41.08,29.54 41.0700039,27.61 C41.04,21.15 41.04,11.83 41.0700039,5.37 C41.0700039,3.38 21.94,0.65 2.18,0.6 Z" id="Path" fill="url(#linearGradient-13)" opacity="0.75"></path>
                        <path d="M2.18,0.6 C1.37,0.6 0.72,1.16 0.72,1.84 C0.72,8.88 0.72,17.9 0.72,25.02 C0.72,25.95 1.38,26.71 2.18,26.71 C21.78,26.77 40.78,29.24 40.7700039,27.41 C40.74,21.06 40.74,11.85 40.7700039,5.5 C40.78,3.6 21.79,0.65 2.18,0.6 Z" id="Path" fill="url(#linearGradient-14)" opacity="0.8125"></path>
                        <path d="M2.18,0.6 C1.37,0.6 0.72,1.16 0.72,1.84 C0.72,8.88 0.72,17.9 0.72,25.02 C0.72,25.95 1.38,26.71 2.18,26.71 C21.63,26.76 40.48,28.94 40.470004,27.21 C40.44,20.97 40.44,11.86 40.470004,5.62 C40.48,3.82 21.64,0.66 2.18,0.6 Z" id="Path" fill="url(#linearGradient-15)" opacity="0.875"></path>
                        <path d="M2.18,0.6 C1.37,0.6 0.72,1.16 0.72,1.84 C0.72,8.88 0.72,17.9 0.72,25.02 C0.72,25.95 1.38,26.71 2.18,26.71 C21.48,26.76 40.18,28.64 40.18,27.01 C40.15,20.88 40.15,11.88 40.18,5.74 C40.18,4.04 21.49,0.66 2.18,0.6 Z" id="Path" fill="url(#linearGradient-16)" opacity="0.9375"></path>
                        <path d="M2.18,0.6 C1.37,0.6 0.72,1.16 0.72,1.84 C0.72,8.88 0.72,17.9 0.72,25.02 C0.72,25.95 1.38,26.71 2.18,26.71 C21.33,26.79 39.9,28.35 39.8800161,26.81 C39.8800161,20.78 39.8800161,11.89 39.8800161,5.87 C39.9,4.26 21.34,0.77 2.18,0.6 Z" id="Path" fill="url(#linearGradient-17)"></path>
                    </g>
                    <g id="Group" transform="translate(10.000000, 18.000000)">
                        <g transform="translate(0.000000, 23.000000)">
                            <path d="M0.71,6.02 C0.71,6.95 1.36,7.71 2.17,7.72 C21.36,7.85 39.88,6.97 39.88,4.1 C39.88,-4.61 0.71,6.02 0.71,6.02 Z" id="Path" fill="url(#linearGradient-18)"></path>
                            <path d="M0.71,6.02 L0.71,6.02 C0.71,6.96 1.36,7.72 2.17,7.72 C21.35,7.87 39.85,7.26 39.8700019,4.1 C39.88,-4.61 0.71,6.02 0.71,6.02 Z M2.18,7.6 C2.13,7.6 2.08,7.6 2.03,7.59 C1.44,7.52 0.96,7.08 0.79,6.49 C0.97,7.13 1.52,7.59 2.18,7.6 C21.35,7.47 39.58,1.57 39.58,4.17 C39.58,6.82 21.35,7.73 2.18,7.6 Z" id="Shape" fill="url(#linearGradient-19)"></path>
                        </g>
                        <path d="M2.18,4.37 L2.18,4.37 C1.37,4.37 0.72,5.03 0.72,5.83 C0.72,13.56 0.72,21.28 0.72,29.01 C0.72,29.82 1.37,30.47 2.18,30.47 C21.37,30.33 39.91,23.98 39.8900162,27.08 C39.8900162,18.38 39.8900162,9.67 39.8900162,0.97 C39.9,-2.12 21.36,4.23 2.18,4.37 Z" id="Path" fill="url(#linearGradient-20)"></path>
                        <g transform="translate(6.000000, 3.000000)" id="Path">
                            <path d="M22.35,5.86 C22.71,5.56 22.89,5.4 23.25,5.1 C22.92,4.66 22.67,4.33 22.42,4 C22.17,3.67 21.92,3.34 21.59,2.9 C21.23,3.2 21.05,3.36 20.68,3.66 C21.01,4.1 21.26,4.43 21.51,4.76 C21.76,5.09 22.01,5.42 22.35,5.86 Z" fill="url(#linearGradient-21)"></path>
                            <path d="M24.3,8.46 C24.66,8.15 24.84,8 25.2,7.7 C24.87,7.26 24.62,6.93 24.37,6.6 C24.12,6.27 23.87,5.94 23.54,5.5 C23.18,5.8 23,5.96 22.64,6.26 C22.97,6.7 23.22,7.03 23.47,7.36 C23.72,7.69 23.97,8.02 24.3,8.46 Z" fill="url(#linearGradient-22)"></path>
                            <path d="M23.85,4.92 C24.12,5.28 24.39,5.64 24.68,6.03 C24.97,6.42 25.29,6.84 25.65,7.32 C26.01,7.02 26.19,6.87 26.55,6.57 C26.19,6.09 25.87,5.66 25.58,5.27 C25.29,4.88 25.02,4.52 24.75,4.16 C24.48,3.8 24.21,3.44 23.92,3.05 C23.63,2.66 23.31,2.24 22.95,1.76 C22.59,2.06 22.41,2.22 22.05,2.52 C22.41,3 22.73,3.42 23.02,3.81 C23.31,4.2 23.58,4.56 23.85,4.92 Z" fill="url(#linearGradient-23)"></path>
                            <path d="M25.05,3.57 C25.41,3.27 25.59,3.12 25.95,2.81 C25.62,2.37 25.37,2.04 25.12,1.71 C24.87,1.38 24.62,1.05 24.29,0.61 C23.93,0.92 23.75,1.07 23.39,1.37 C23.72,1.81 23.97,2.14 24.22,2.47 C24.47,2.8 24.72,3.13 25.05,3.57 Z" fill="url(#linearGradient-24)"></path>
                            <path d="M26.26,3.22 C25.9,3.52 25.72,3.67 25.36,3.97 C25.69,4.41 25.94,4.74 26.19,5.08 C26.44,5.41 26.69,5.75 27.02,6.19 C27.38,5.89 27.56,5.74 27.92,5.45 C27.59,5 27.34,4.67 27.09,4.33 C26.83,4 26.59,3.66 26.26,3.22 Z" fill="url(#linearGradient-25)"></path>
                            <path d="M6.19,19.28 C5.92,18.9 5.65,18.52 5.35,18.1 C5.05,17.69 4.74,17.24 4.37,16.73 C4.01,17 3.83,17.14 3.46,17.41 C3.82,17.92 4.14,18.37 4.43,18.79 C4.72,19.21 5,19.59 5.27,19.97 C5.54,20.35 5.82,20.73 6.11,21.15 C6.41,21.56 6.72,22.01 7.09,22.51 C7.45,22.23 7.63,22.09 8,21.81 C7.64,21.31 7.32,20.86 7.02,20.45 C6.73,20.04 6.46,19.66 6.19,19.28 Z" fill="url(#linearGradient-26)"></path>
                            <path d="M2.94,19.6 C3.19,19.95 3.44,20.31 3.77,20.78 C4.13,20.51 4.31,20.37 4.68,20.1 C4.35,19.63 4.1,19.28 3.85,18.93 C3.6,18.58 3.35,18.22 3.02,17.75 C2.66,18.02 2.48,18.15 2.11,18.42 C2.44,18.89 2.69,19.24 2.94,19.6 Z" fill="url(#linearGradient-27)"></path>
                            <path d="M4.98,20.52 C4.62,20.8 4.44,20.93 4.07,21.2 C4.4,21.67 4.65,22.02 4.9,22.37 C5.15,22.72 5.4,23.07 5.73,23.54 C6.09,23.26 6.28,23.13 6.64,22.85 C6.31,22.39 6.06,22.04 5.81,21.69 C5.56,21.34 5.31,20.99 4.98,20.52 Z" fill="url(#linearGradient-28)"></path>
                            <path d="M3.47,21.33 C3.2,20.94 2.93,20.56 2.63,20.14 C2.33,19.72 2.02,19.27 1.65,18.74 C1.29,19 1.11,19.14 0.74,19.4 C1.1,19.92 1.42,20.38 1.72,20.8 C2.02,21.22 2.29,21.61 2.56,22 C2.83,22.39 3.1,22.77 3.4,23.19 C3.69,23.61 4.01,24.06 4.38,24.57 C4.74,24.3 4.92,24.16 5.29,23.88 C4.93,23.37 4.61,22.92 4.31,22.51 C4.01,22.1 3.74,21.72 3.47,21.33 Z" fill="url(#linearGradient-29)"></path>
                            <path d="M6.12,6.56 C5.82,7.03 5.55,7.46 5.28,7.9 C5.01,8.33 4.73,8.76 4.44,9.23 C4.15,9.7 3.83,10.2 3.47,10.77 C3.83,10.98 4.01,11.09 4.38,11.3 C4.74,10.73 5.06,10.22 5.36,9.75 C5.66,9.28 5.93,8.85 6.2,8.41 C6.47,7.98 6.75,7.54 7.04,7.07 C7.34,6.6 7.65,6.09 8.02,5.51 C7.66,5.31 7.48,5.21 7.11,5 C6.74,5.58 6.42,6.09 6.12,6.56 Z" fill="url(#linearGradient-30)"></path>
                            <path d="M3.92,7.11 C3.65,7.54 3.38,7.97 3.08,8.43 C2.78,8.89 2.47,9.39 2.1,9.96 C2.46,10.18 2.64,10.28 3.01,10.5 C3.37,9.93 3.69,9.43 3.99,8.96 C4.28,8.49 4.56,8.06 4.83,7.63 C5.1,7.2 5.37,6.77 5.67,6.3 C5.97,5.83 6.28,5.33 6.65,4.75 C6.29,4.54 6.1,4.44 5.74,4.23 C5.38,4.81 5.06,5.31 4.76,5.78 C4.46,6.25 4.19,6.68 3.92,7.11 Z" fill="url(#linearGradient-31)"></path>
                            <path d="M2.63,8.17 C2.92,7.71 3.2,7.28 3.47,6.85 C3.74,6.42 4.01,5.99 4.31,5.52 C4.6,5.05 4.92,4.55 5.29,3.97 C4.93,3.76 4.74,3.66 4.38,3.45 C4.02,4.03 3.7,4.53 3.4,4.99 C3.1,5.45 2.83,5.88 2.56,6.31 C2.29,6.74 2.01,7.16 1.72,7.62 C1.43,8.08 1.11,8.57 0.74,9.14 C1.1,9.36 1.29,9.47 1.65,9.69 C2.01,9.13 2.33,8.63 2.63,8.17 Z" fill="url(#linearGradient-32)"></path>
                            <path d="M23.25,17.62 C22.89,17.44 22.71,17.35 22.35,17.17 C22.02,17.72 21.77,18.14 21.52,18.56 C21.27,18.98 21.02,19.39 20.69,19.95 C21.05,20.13 21.23,20.22 21.59,20.4 C21.92,19.85 22.17,19.43 22.42,19.01 C22.67,18.59 22.92,18.18 23.25,17.62 Z" fill="url(#linearGradient-33)"></path>
                            <path d="M23.55,17.11 C23.88,16.55 24.13,16.14 24.38,15.72 C24.63,15.3 24.88,14.89 25.21,14.33 C24.85,14.15 24.67,14.06 24.31,13.88 C23.98,14.44 23.73,14.85 23.48,15.27 C23.23,15.69 22.98,16.1 22.65,16.66 C23.01,16.85 23.19,16.94 23.55,17.11 Z" fill="url(#linearGradient-34)"></path>
                            <path d="M24.6,18.29 C24.24,18.11 24.06,18.02 23.7,17.85 C23.37,18.41 23.12,18.82 22.87,19.24 C22.62,19.66 22.37,20.07 22.04,20.63 C22.4,20.81 22.58,20.9 22.94,21.08 C23.27,20.52 23.52,20.11 23.77,19.69 C24.02,19.26 24.27,18.84 24.6,18.29 Z" fill="url(#linearGradient-35)"></path>
                            <path d="M25.73,16.4 C25.98,15.98 26.23,15.57 26.56,15.02 C26.2,14.84 26.02,14.75 25.66,14.57 C25.33,15.12 25.08,15.54 24.83,15.96 C24.58,16.38 24.33,16.79 24,17.35 C24.36,17.53 24.54,17.62 24.9,17.79 C25.23,17.23 25.48,16.81 25.73,16.4 Z" fill="url(#linearGradient-36)"></path>
                            <path d="M24.23,19.9 C23.98,20.32 23.73,20.74 23.4,21.29 C23.76,21.47 23.94,21.56 24.3,21.73 C24.63,21.17 24.88,20.76 25.13,20.34 C25.38,19.92 25.63,19.51 25.96,18.95 C25.6,18.77 25.42,18.68 25.06,18.5 C24.72,19.06 24.47,19.48 24.23,19.9 Z" fill="url(#linearGradient-37)"></path>
                            <path d="M26.18,16.62 C25.93,17.03 25.68,17.45 25.35,18 C25.71,18.18 25.89,18.27 26.25,18.45 C26.58,17.9 26.83,17.49 27.08,17.07 C27.33,16.66 27.58,16.25 27.91,15.7 C27.55,15.51 27.37,15.42 27.01,15.24 C26.68,15.79 26.43,16.21 26.18,16.62 Z" fill="url(#linearGradient-38)"></path>
                        </g>
                        <path d="M26.48,12.59 C26.25,12 25.92,11.46 25.5,10.99 C25.08,10.52 24.57,10.13 23.98,9.83 C23.48,9.58 22.95,9.41 22.4,9.31 C21.85,9.22 21.29,9.2 20.73,9.25 C20.17,9.3 19.62,9.43 19.07,9.62 C18.52,9.81 17.99,10.06 17.48,10.37 C16.97,10.68 16.5,11.05 16.06,11.48 C15.63,11.91 15.24,12.4 14.9,12.93 C14.52,13.54 14.28,14.17 14.16,14.81 C14.04,15.45 14.05,16.08 14.17,16.69 C14.29,17.29 14.53,17.86 14.88,18.35 C15.23,18.84 15.69,19.26 16.25,19.56 C16.81,19.86 17.43,20.03 18.06,20.06 C18.69,20.09 19.33,20 19.94,19.78 C20.55,19.56 21.14,19.23 21.68,18.8 C22.21,18.37 22.69,17.83 23.06,17.21 C23.6,17.49 24.01,17.69 24.42,17.89 C24.83,18.09 25.23,18.3 25.77,18.56 C26.17,17.89 26.46,17.2 26.64,16.51 C26.82,15.82 26.89,15.13 26.86,14.47 C26.84,13.82 26.71,13.18 26.48,12.59 Z" id="Path" fill="url(#linearGradient-39)"></path>
                        <path d="M24.88,14.21 C24.38,13.96 23.83,13.87 23.27,13.93 C22.71,13.99 22.15,14.19 21.64,14.51 C21.13,14.83 20.69,15.28 20.35,15.83 C20.02,16.38 19.57,16.83 19.07,17.14 C18.57,17.46 18,17.65 17.44,17.69 C16.88,17.73 16.32,17.62 15.82,17.35 C15.32,17.08 14.94,16.68 14.7,16.2 C14.45,15.72 14.34,15.18 14.37,14.61 C14.4,14.05 14.58,13.47 14.91,12.93 C14.51,13.58 14.22,14.25 14.04,14.93 C13.86,15.61 13.79,16.29 13.82,16.96 C13.85,17.63 13.98,18.27 14.21,18.88 C14.44,19.48 14.77,20.04 15.19,20.53 C15.61,21.02 16.12,21.44 16.72,21.76 C17.22,22.03 17.75,22.22 18.3,22.32 C18.85,22.43 19.41,22.45 19.96,22.4 C20.52,22.35 21.08,22.22 21.63,22.03 C22.18,21.84 22.71,21.57 23.21,21.25 C23.71,20.92 24.19,20.54 24.62,20.09 C25.05,19.64 25.44,19.13 25.77,18.58 C26.1,18.02 26.28,17.43 26.31,16.87 C26.34,16.31 26.23,15.76 25.99,15.3 C25.76,14.84 25.38,14.46 24.88,14.21 Z" id="Path" fill="url(#linearGradient-40)"></path>
                        <g opacity="0.19" fill="url(#linearGradient-41)" id="Path">
                            <path d="M2.18,4.37 L2.18,4.37 C1.37,4.37 0.72,5.03 0.72,5.84 L0.72,5.84 C0.72,13.57 0.72,21.29 0.72,29.02 L0.72,29.02 C0.72,29.83 1.37,30.48 2.18,30.48 L2.18,30.48 C21.37,30.34 39.91,23.99 39.8900162,27.09 C39.8900162,18.39 39.8900162,9.68 39.8900162,0.98 C39.9,-2.12 21.36,4.23 2.18,4.37 Z"></path>
                        </g>
                    </g>
                </g>
            </g>
        </g>
    </g>
</svg>