<svg width="48" height="48" viewBox="0 0 48 48" fill="none" xmlns="http://www.w3.org/2000/svg">
<g clip-path="url(#clip0_839_16827)">
<path d="M26.315 29.9811C15.8642 25.3061 9.34091 15.8209 8.96053 6.27244C8.9441 5.87032 8.46516 5.66926 8.16313 5.93481C3.1121 10.3796 -0.0598031 16.9097 0.00085479 24.1794C0.107006 37.1244 10.616 47.7503 23.5614 47.9956C34.0135 48.1941 42.9808 41.7172 46.4825 32.5418C46.6215 32.1788 46.2993 31.8045 45.9227 31.8994C39.8341 33.432 32.8825 32.9186 26.315 29.9811Z" fill="#F9D85E"/>
<path d="M47.5992 19.5814C47.5904 19.5334 47.5815 19.4842 47.5727 19.4363C47.4424 18.745 47.2818 18.0651 47.0921 17.3965C47.0832 17.3663 47.0744 17.336 47.0668 17.307C46.9745 16.9853 46.8758 16.6662 46.7708 16.3508C46.762 16.3268 46.7544 16.3016 46.7456 16.2776C46.5242 15.6192 46.2751 14.9733 45.9981 14.3413C45.9918 14.3274 45.9855 14.3136 45.9791 14.2997C45.8451 13.9944 45.706 13.6929 45.5593 13.3952C45.5555 13.3877 45.5517 13.3788 45.5466 13.3713C45.3961 13.0647 45.238 12.7607 45.0749 12.4618C45.0698 12.4529 45.066 12.4454 45.0622 12.4365C44.894 12.13 44.7195 11.8285 44.5386 11.5308C44.5336 11.522 44.5285 11.5144 44.5235 11.5056C44.3565 11.2306 44.1832 10.9607 44.0062 10.6932C43.986 10.663 43.967 10.6327 43.9467 10.6024C43.5724 10.0436 43.174 9.5037 42.7554 8.97894C42.7301 8.9474 42.7048 8.91587 42.6795 8.88433C42.4569 8.60934 42.2293 8.33939 41.9953 8.07448C41.9953 8.07322 41.994 8.07322 41.994 8.07196C41.7689 7.81715 41.5387 7.56739 41.3022 7.32267C41.2934 7.31257 41.2833 7.30374 41.2744 7.29365C41.0607 7.0729 40.8431 6.85593 40.6218 6.64275C40.5902 6.61247 40.5573 6.5822 40.5257 6.55193C40.298 6.33622 40.0679 6.1243 39.8326 5.91742C39.8048 5.89345 39.777 5.86949 39.7504 5.84552C39.5101 5.63738 39.2673 5.43303 39.0194 5.23372C38.9967 5.21606 38.9739 5.19714 38.9511 5.17948C38.6893 4.97008 38.4225 4.76572 38.1518 4.56768C38.1468 4.56389 38.1404 4.56011 38.1354 4.55632C37.8609 4.35576 37.5827 4.16149 37.2994 3.97354C37.2956 3.97102 37.2918 3.96849 37.288 3.96597C36.7214 3.5888 36.1371 3.2356 35.5377 2.90636C35.5149 2.89375 35.4921 2.88113 35.4694 2.86852C35.1835 2.7121 34.8939 2.56325 34.6018 2.41818C34.5638 2.39926 34.5246 2.38034 34.4867 2.36142C33.8758 2.06498 33.2511 1.79251 32.6136 1.54779C32.577 1.53391 32.5403 1.52004 32.5036 1.5049C32.1735 1.38002 31.8396 1.26144 31.5032 1.15043C31.4969 1.14791 31.4893 1.14665 31.483 1.14413C31.1693 1.04069 30.8519 0.943558 30.5332 0.853996C30.5041 0.846427 30.475 0.837597 30.4459 0.830028C30.1045 0.73542 29.7605 0.647119 29.4139 0.566387C29.4076 0.565126 29.4013 0.563864 29.395 0.562603C29.0661 0.486916 28.7348 0.416276 28.3996 0.354465C28.3781 0.350681 28.3566 0.346896 28.3351 0.343112C27.9861 0.278778 27.6357 0.222014 27.2816 0.172817C27.2791 0.172817 27.2766 0.171556 27.2728 0.171556C26.7239 0.0958695 26.1687 0.0378432 25.6084 0C25.7033 0.00756865 25.793 0.0176602 25.8854 0.0252288C26.1054 0.0454119 26.3192 0.0668564 26.5278 0.0908238C26.5291 0.0908238 26.5291 0.0908238 26.5304 0.0908238C26.7378 0.114791 26.9389 0.14002 27.1349 0.169033C27.1374 0.169033 27.1412 0.170295 27.1438 0.170295C27.3373 0.198046 27.5257 0.228321 27.7104 0.259857C27.7154 0.261118 27.7205 0.26238 27.7268 0.26238C27.9076 0.293916 28.0847 0.327975 28.2554 0.363295C28.263 0.364556 28.2706 0.367079 28.2782 0.368341C28.4464 0.403661 28.6108 0.441504 28.7702 0.481871C28.7816 0.484393 28.7917 0.488178 28.8031 0.490701C28.9586 0.529805 29.1104 0.571433 29.2584 0.615583C29.2723 0.619368 29.2849 0.624413 29.2988 0.628198C29.4417 0.671087 29.5821 0.716499 29.7187 0.763172C29.7352 0.769479 29.7503 0.774525 29.7668 0.780832C29.8983 0.827505 30.0273 0.87544 30.1525 0.925898C30.1727 0.933466 30.1917 0.942297 30.2107 0.951127C30.3308 1.00032 30.4485 1.05204 30.5623 1.10502C30.5863 1.11638 30.6078 1.12773 30.6318 1.13908C30.7406 1.1908 30.8468 1.24504 30.9505 1.30055C30.9771 1.31568 31.0037 1.33082 31.0302 1.34596C31.1276 1.4002 31.2237 1.4557 31.3161 1.51373C31.3477 1.53391 31.3768 1.55536 31.4084 1.57428C31.4944 1.62978 31.5791 1.68529 31.6613 1.74457C31.698 1.77106 31.7334 1.80008 31.7701 1.82657C31.8434 1.88207 31.9168 1.93631 31.9876 1.99434C32.0319 2.03092 32.0736 2.06876 32.1166 2.10661C32.1773 2.15833 32.238 2.21004 32.2962 2.26429C32.3519 2.31601 32.405 2.37151 32.4594 2.42575C32.5024 2.46864 32.5466 2.50901 32.5884 2.55316C32.6832 2.65281 32.7755 2.75625 32.8653 2.86347C32.9981 3.02241 33.6811 3.89155 34.0516 5.41537C34.4981 7.25203 34.4197 9.16185 34.8421 11.001C34.9129 11.3101 34.9888 11.6116 35.0672 11.908C35.0887 11.9875 35.1102 12.0644 35.1317 12.1426C35.1937 12.371 35.2582 12.5968 35.3252 12.8175C35.3454 12.8856 35.3657 12.9537 35.3872 13.0206C37.5511 19.9787 41.8853 23.2837 47.6991 27.7113C47.8977 26.4713 48.0001 25.1998 48.0001 23.9043C47.9913 22.4284 47.8547 20.9841 47.5992 19.5814Z" fill="#EF7730"/>
<path d="M47.7524 20.6598C46.903 18.6982 46.903 18.6982 24.1595 10.482C12.7108 6.3455 10.5866 2.3529 18.8725 0.546569C19.2763 0.459471 19.6827 0.38121 20.0942 0.314309C21.3601 0.107294 22.6613 0 23.9866 0C36.1118 0 46.1343 8.98746 47.7524 20.6598Z" fill="#F9D85E"/>
</g>
<defs>
<clipPath id="clip0_839_16827">
<rect width="48" height="48" fill="white"/>
</clipPath>
</defs>
</svg>
