<?xml version="1.0" encoding="UTF-8"?>
<svg width="60px" height="60px" viewBox="0 0 60 60" version="1.1" xmlns="http://www.w3.org/2000/svg" xmlns:xlink="http://www.w3.org/1999/xlink">
    <title>wheth</title>
    <g id="GNB" stroke="none" stroke-width="1" fill="none" fill-rule="evenodd">
        <g id="Market" transform="translate(-223.000000, -1382.000000)">
            <g id="wheth" transform="translate(223.000000, 1382.000000)">
                <rect id="thum-copy" opacity="0.200000003" x="0" y="0" width="60" height="60"></rect>
                <polygon id="Path" fill="#343434" fill-rule="nonzero" points="30.335 4 29.999 5.138 29.999 38.164 30.334 38.498 45.664 29.436 30.334 4"></polygon>
                <polygon id="Path" fill="#8C8C8C" fill-rule="nonzero" points="30.33 4 15 29.436 30.33 38.498"></polygon>
                <polygon id="Path" fill="#3C3C3B" fill-rule="nonzero" points="30.335 41.4 30.145 41.63 30.145 53.395 30.335 53.946 45.674 32.344 30.334 41.4"></polygon>
                <polygon id="Path" fill="#8C8C8C" fill-rule="nonzero" points="30.33 53.946 30.33 41.4 15 32.344"></polygon>
                <polygon id="Path" fill="#141414" fill-rule="nonzero" points="30.329 38.498 45.659 29.437 30.329 22.468"></polygon>
                <polygon id="Path" fill="#393939" fill-rule="nonzero" points="15 29.437 30.33 38.498 30.33 22.468 15 29.438"></polygon>
                <rect id="Rectangle" fill="#FFFFFF" fill-rule="nonzero" x="34.8" y="31.539" width="22" height="22" rx="2.222"></rect>
                <path d="M43.385,32.758 L47.671,32.758 C47.928,32.758 48.105,33.041 48.017,33.302 C47.008,36.297 46.349,39.521 46.3,42.707 C46.35,45.893 47.008,49.117 48.017,52.112 C48.105,52.372 47.928,52.656 47.671,52.656 L43.385,52.656 C43.08,52.656 42.873,52.238 42.999,51.939 C43.785,50.073 44.648,45.753 44.702,42.707 C44.648,39.66 43.785,35.341 42.999,33.474 C42.873,33.175 43.08,32.758 43.385,32.758 Z" id="Path" fill="#4A9F8E" fill-rule="nonzero"></path>
                <path d="M43.886,42.688 C43.886,45.082 43.449,47.9 40.448,51.074 C40.3810518,51.1443715 40.2881297,51.1840004 40.191,51.1840004 L37.344,51.1840004 C37.1468343,51.1840004 36.987,51.0241657 36.987,50.827 L36.987,47.904 C36.987,47.714 37.134,47.559 37.322,47.534 C38.985,47.318 41.746,46.128 41.77,42.687 C41.746,39.247 38.985,38.057 37.322,37.84 C37.1337909,37.8180382 36.9907226,37.6604495 36.987,37.471 L36.987,34.548 C36.987,34.351 37.147,34.191 37.344,34.191 L40.191,34.191 C40.288,34.191 40.381,34.231 40.448,34.301 C43.449,37.475 43.886,40.452 43.886,42.687 L43.886,42.688 Z" id="Path" fill="#DA3C35" fill-rule="nonzero"></path>
                <path d="M47.116,42.688 C47.116,45.082 47.552,47.9 50.554,51.074 C50.62,51.144 50.714,51.184 50.811,51.184 L53.658,51.184 C53.855,51.184 54.015,51.024 54.015,50.827 L54.015,47.904 C54.0117721,47.7141672 53.8685796,47.5560144 53.68,47.534 C52.017,47.318 49.256,46.128 49.231,42.687 C49.256,39.247 52.017,38.057 53.68,37.84 C53.8682091,37.8180382 54.0112774,37.6604495 54.015,37.471 L54.015,34.548 C54.015,34.3508343 53.8551657,34.191 53.658,34.191 L50.811,34.191 C50.714,34.191 50.621,34.231 50.554,34.301 C47.552,37.475 47.116,40.452 47.116,42.687 L47.116,42.688 Z" id="Path" fill="#3D68A2" fill-rule="nonzero"></path>
            </g>
        </g>
    </g>
</svg>