<svg id="Layer_1" data-name="Layer 1" xmlns="http://www.w3.org/2000/svg" viewBox="0 0 1000 1000"><defs><style>.cls-1{fill:#1e1e1e;}.cls-2,.cls-3,.cls-4{fill:#4bdb4b;}.cls-2{opacity:0.4;}.cls-3{opacity:0.8;}</style></defs><rect class="cls-1" x="0.09" width="1000" height="1000" rx="500"/><path class="cls-2" d="M784.55,604.42A95.92,95.92,0,1,1,618.22,700L416.92,351.36a95.92,95.92,0,0,1,166.33-95.59Z"/><path class="cls-3" d="M382,700a95.94,95.94,0,0,1-166.37-95.59L416.91,255.78a95.93,95.93,0,1,1,166.34,95.59Z"/><path class="cls-4" d="M582.68,254.81c-1.11-1.89-2.31-3.7-3.53-5.49-.59-.86-1.15-1.74-1.77-2.58-1.19-1.63-2.47-3.17-3.75-4.7-.78-.94-1.53-1.9-2.35-2.81-1.16-1.28-2.38-2.47-3.59-3.68s-2.12-2.14-3.24-3.16-2.18-1.84-3.28-2.75c-1.38-1.14-2.75-2.29-4.21-3.36-1-.74-2.05-1.41-3.08-2.1-1.62-1.1-3.25-2.19-5-3.2-.36-.21-.68-.46-1-.67-.76-.44-1.56-.77-2.34-1.19-1.62-.87-3.25-1.72-4.9-2.49-1.39-.66-2.81-1.25-4.24-1.83s-2.79-1.13-4.2-1.63q-2.49-.88-5-1.62c-1.24-.37-2.47-.72-3.72-1-1.79-.45-3.6-.84-5.41-1.19-1.23-.23-2.47-.45-3.7-.64-1.77-.26-3.54-.47-5.33-.64q-2.06-.2-4.11-.3-2.41-.12-4.83-.12c-1.59,0-3.17,0-4.76.12-1.39.07-2.79.17-4.19.3-1.75.17-3.51.37-5.25.64-1.26.19-2.52.41-3.77.65q-2.7.51-5.35,1.17c-1.27.32-2.53.68-3.79,1.05q-2.5.74-5,1.6c-1.44.51-2.87,1.08-4.29,1.66s-2.78,1.15-4.14,1.79c-1.69.79-3.36,1.66-5,2.55-.75.41-1.52.73-2.26,1.16-.35.2-.66.44-1,.64-1.76,1-3.45,2.16-5.11,3.29-1,.66-2,1.3-2.93,2-1.53,1.13-3,2.33-4.44,3.54-1,.84-2,1.65-3,2.54-1.23,1.11-2.38,2.29-3.54,3.45S430,238,429,239.14s-1.81,2.14-2.71,3.22c-1.14,1.39-2.3,2.78-3.37,4.24-.76,1-1.44,2.09-2.15,3.14-1.08,1.59-2.15,3.2-3.14,4.88a95.85,95.85,0,0,0-.68,96.66l83.17,144.06,83.16-144.06A95.79,95.79,0,0,0,582.68,254.81Z"/></svg>