<svg width="14" height="14" fill="none" xmlns="http://www.w3.org/2000/svg"><path fill-rule="evenodd" clip-rule="evenodd" d="M11.2.84H8.4a.7.7 0 0 0 0 1.4h2.51L6.503 6.644a.702.702 0 0 0 .495 1.196c.18 0 .359-.069.496-.205l4.404-4.405v2.51a.7.7 0 0 0 1.4 0v-2.8c0-1.158-.942-2.1-2.1-2.1Z" fill="currentColor"/><path fill-rule="evenodd" clip-rule="evenodd" d="M12.6 7.84a.7.7 0 0 0-.7.7v2.8a.7.7 0 0 1-.7.7H2.8a.7.7 0 0 1-.7-.7v-8.4a.7.7 0 0 1 .7-.7h2.8a.7.7 0 0 0 0-1.4H2.8C1.64.84.7 1.782.7 2.94v8.4c0 1.158.941 2.1 2.1 2.1h8.4c1.157 0 2.1-.942 2.1-2.1v-2.8a.7.7 0 0 0-.7-.7Z" fill="currentColor"/></svg>