<svg width="32" height="32" fill="none" xmlns="http://www.w3.org/2000/svg"><path d="M32 16c0-8.837-7.163-16-16-16S0 7.163 0 16s7.163 16 16 16 16-7.163 16-16Z" fill="#EFEFEF"/><path fill-rule="evenodd" clip-rule="evenodd" d="M30.667 16C30.667 7.9 24.1 1.333 16 1.333S1.333 7.9 1.333 16 7.9 30.667 16 30.667 30.667 24.1 30.667 16ZM16 0c8.837 0 16 7.163 16 16s-7.163 16-16 16S0 24.837 0 16 7.163 0 16 0Z" fill="#F0B90B"/><path d="m16 5.333 2.643 2.707-6.655 6.655-2.642-2.643L16 5.333ZM20.012 9.345l2.643 2.707-10.667 10.666-2.642-2.642 10.666-10.73ZM7.977 13.357l2.643 2.707-2.643 2.642-2.643-2.642 2.643-2.707ZM24.024 13.357l2.643 2.707L16 26.73l-2.643-2.643 10.667-10.73Z" fill="#F0B90B" stroke="#F0B90B"/></svg>