<svg width="32" height="32" fill="none" xmlns="http://www.w3.org/2000/svg"><path d="M32 16c0-8.837-7.163-16-16-16S0 7.163 0 16s7.163 16 16 16 16-7.163 16-16Z" fill="#EFEFEF"/><path d="M16 .5C24.56.5 31.5 7.44 31.5 16c0 8.56-6.94 15.5-15.5 15.5C7.44 31.5.5 24.56.5 16 .5 7.44 7.44.5 16 .5Z" stroke="#F5AC37"/><path d="M16 4c6.628 0 12 5.373 12 12 0 6.628-5.372 12-12 12-6.627 0-12-5.372-12-12C4 9.373 9.373 4 16 4Z" fill="#F5AC37"/><path d="M16.444 16.847h4.56c.097 0 .143 0 .15-.127a8.73 8.73 0 0 0 0-1.395c0-.09-.045-.127-.142-.127h-9.075c-.113 0-.143.037-.143.142v1.335c0 .172 0 .172.18.172h4.47Zm4.2-3.21a.147.147 0 0 0 0-.104 2.974 2.974 0 0 0-.27-.473 3.828 3.828 0 0 0-.555-.697c-.1-.127-.216-.241-.345-.338a5.39 5.39 0 0 0-2.25-1.14 5.59 5.59 0 0 0-1.276-.135h-4.027c-.112 0-.127.045-.127.143v2.662c0 .112 0 .143.142.143h8.655s.075-.016.09-.06h-.037Zm0 4.77a1.756 1.756 0 0 0-.383 0h-8.317c-.112 0-.15 0-.15.15v2.603c0 .12 0 .15.15.15h3.84c.184.015.367.002.547-.037a5.72 5.72 0 0 0 1.628-.36c.19-.066.374-.152.547-.255h.053a4.872 4.872 0 0 0 2.092-2.106s.053-.114-.006-.143v-.002ZM10.288 22.66v-4.147c0-.098 0-.113-.12-.113H8.54c-.09 0-.128 0-.128-.12v-1.425h1.74c.097 0 .135 0 .135-.127v-1.41c0-.09 0-.112-.12-.112H8.54c-.09 0-.128 0-.128-.12v-1.32c0-.082 0-.105.12-.105h1.612c.113 0 .143 0 .143-.142V9.476c0-.12 0-.15.15-.15h5.625c.408.016.814.061 1.215.135a7.331 7.331 0 0 1 2.347.87c.482.284.925.626 1.32 1.02.297.308.565.642.803.998.235.36.431.745.585 1.147.02.105.12.176.224.158H23.9c.172 0 .172 0 .18.165v1.23c0 .12-.045.15-.166.15h-1.035c-.104 0-.135 0-.127.135.04.457.04.916 0 1.372 0 .128 0 .143.143.143h1.184c.053.067 0 .135 0 .203.008.087.008.175 0 .262v.908c0 .127-.037.165-.15.165h-1.417a.188.188 0 0 0-.218.142 5.998 5.998 0 0 1-1.575 2.296c-.255.229-.523.445-.803.644-.3.173-.592.353-.9.495a8.113 8.113 0 0 1-1.77.563 9.227 9.227 0 0 1-1.755.142h-5.205v-.007l.002-.002Z" fill="#fff"/></svg>