<svg width="24" height="24" fill="none" xmlns="http://www.w3.org/2000/svg"><path d="M12 24c6.627 0 12-5.373 12-12 0-1.982-.48-3.852-1.332-5.5-.054-.105-.212-.09-.254.022a3.98 3.98 0 0 1-3.487 2.54.142.142 0 0 0-.125.193 7.333 7.333 0 0 1-9.413 9.6.142.142 0 0 0-.191.129 3.98 3.98 0 0 1-2.471 3.536c-.11.044-.123.202-.017.254A11.951 11.951 0 0 0 12 24ZM14.611 5.145a.142.142 0 0 0 .191-.129 3.98 3.98 0 0 1 2.471-3.536c.11-.044.123-.202.017-.254A11.951 11.951 0 0 0 12 0C5.373 0 0 5.373 0 12c0 1.982.48 3.852 1.332 5.5.054.105.212.09.254-.022a3.98 3.98 0 0 1 3.487-2.54.142.142 0 0 0 .125-.193 7.333 7.333 0 0 1 9.413-9.6Z" fill="currentColor"/><path d="M17.333 12a5.333 5.333 0 1 1-10.666 0 5.333 5.333 0 0 1 10.666 0ZM7.6 18.867a2.333 2.333 0 1 1-4.667 0 2.333 2.333 0 0 1 4.667 0ZM18.733 7.467a2.333 2.333 0 1 0 0-4.667 2.333 2.333 0 0 0 0 4.667Z" fill="currentColor" /></svg>