<svg width="32" height="32" fill="none" xmlns="http://www.w3.org/2000/svg"><path d="M32 16c0-8.837-7.163-16-16-16S0 7.163 0 16s7.163 16 16 16 16-7.163 16-16Z" fill="#EFEFEF"/><path fill-rule="evenodd" clip-rule="evenodd" d="M30.667 16C30.667 7.9 24.1 1.333 16 1.333S1.333 7.9 1.333 16 7.9 30.667 16 30.667 30.667 24.1 30.667 16ZM16 0c8.837 0 16 7.163 16 16s-7.163 16-16 16S0 24.837 0 16 7.163 0 16 0Z" fill="#50AF95"/><path fill-rule="evenodd" clip-rule="evenodd" d="m8.394 6.77-4.376 9.205a.179.179 0 0 0 .038.208l11.82 11.343a.18.18 0 0 0 .249 0l11.819-11.342a.179.179 0 0 0 .038-.208L23.606 6.77a.177.177 0 0 0-.161-.103H8.557c-.07-.001-.134.039-.163.102Z" fill="#50AF95"/><path fill-rule="evenodd" clip-rule="evenodd" d="M17.137 15.989c-.06.004-.368.023-1.056.023-.547 0-.935-.017-1.071-.023-2.114-.094-3.691-.464-3.691-.907 0-.444 1.577-.813 3.69-.908v1.446c.139.01.535.034 1.081.034.657 0 .985-.028 1.045-.034v-1.445c2.109.094 3.683.464 3.683.907 0 .442-1.574.812-3.683.906h.002Zm0-1.964v-1.294h2.943v-1.974h-8.014v1.974h2.943v1.294c-2.392.11-4.19.587-4.19 1.158 0 .572 1.798 1.048 4.19 1.159v4.147h2.127V16.34c2.387-.11 4.182-.586 4.182-1.157 0-.571-1.794-1.047-4.182-1.158Z" fill="#fff"/></svg>